<svg width="23" height="18" viewBox="0 0 23 18" xmlns="http://www.w3.org/2000/svg"><g fill="#19D1BF" fill-rule="evenodd"><path d="M2.25 15.75h18V2.25h-18v13.5zM2.25 0A2.233 2.233 0 0 0 .01 2.25L0 15.75A2.242 2.242 0 0 0 2.25 18h18a2.242 2.242 0 0 0 2.25-2.25V2.25A2.242 2.242 0 0 0 20.25 0h-18z"/><path d="M8.856 9.68l2.035.614c-.136.57-.35 1.048-.645 1.43a2.803 2.803 0 0 1-1.094.867c-.435.196-.99.293-1.663.293-.817 0-1.484-.118-2.002-.356-.518-.238-.965-.655-1.34-1.254-.377-.598-.565-1.363-.565-2.296 0-1.245.33-2.2.992-2.87.662-.667 1.597-1 2.807-1 .946 0 1.69.19 2.232.573.542.383.944.97 1.207 1.764L8.77 7.9c-.072-.23-.147-.397-.226-.503a1.336 1.336 0 0 0-.477-.41 1.37 1.37 0 0 0-.63-.143c-.527 0-.93.212-1.21.635-.212.314-.318.808-.318 1.48 0 .835.125 1.407.38 1.716.25.31.607.464 1.065.464.444 0 .78-.125 1.007-.374.227-.25.392-.612.495-1.087zm3.168-4.446h4.348c.724 0 1.28.18 1.67.538.387.36.58.803.58 1.333 0 .445-.138.826-.415 1.144-.184.21-.454.378-.81.5.54.13.938.354 1.192.67.254.316.38.714.38 1.192 0 .39-.09.74-.27 1.05a2 2 0 0 1-.744.74c-.195.112-.49.194-.882.245-.523.07-.87.103-1.04.103h-4.01V5.234zm2.343 2.948h1.01c.363 0 .615-.062.756-.187.142-.125.213-.305.213-.54 0-.22-.07-.39-.213-.514-.14-.122-.388-.183-.74-.183h-1.026v1.425zm0 2.953h1.185c.4 0 .68-.07.845-.213a.717.717 0 0 0 .247-.57c0-.224-.082-.402-.244-.537-.162-.135-.447-.203-.854-.203h-1.18v1.523z"/></g></svg>