<svg width="251" height="57" viewBox="0 0 251 57" xmlns="http://www.w3.org/2000/svg"><title>E3DA34EC-EC96-466E-9B73-9A7976BFDEE7</title><g fill="none" fill-rule="evenodd"><g transform="translate(73.723 4.839)" fill="#FFF"><path d="M86.598 50.194c-2.351 0-4.274-1.861-4.328-4.2l-1.068-29.777c-.053-2.392 1.87-4.36 4.22-4.36h.054c2.35 0 4.274 1.861 4.327 4.2l1.068 29.777c.054 2.392-1.87 4.36-4.22 4.36h-.053z"/><path d="M70.144 50.194c-2.351 0-4.274-1.861-4.328-4.2l-1.068-29.777c-.054-2.392 1.87-4.36 4.22-4.36h.054c2.35 0 4.273 1.861 4.327 4.2l1.068 29.777c.054 2.392-1.87 4.36-4.22 4.36h-.053z" opacity=".8"/><path d="M91.673 50.194h-5.075a4.3 4.3 0 0 1-4.328-4.307 4.3 4.3 0 0 1 4.328-4.307h5.075A4.3 4.3 0 0 1 96 45.887a4.3 4.3 0 0 1-4.327 4.307zM51.5 50.194c-2.351 0-4.275-1.861-4.328-4.2l-1.069-29.777c-.053-2.392 1.87-4.36 4.22-4.36h.054c2.35 0 4.274 1.861 4.327 4.2l1.069 29.777c.053 2.392-1.87 4.36-4.22 4.36h-.054z"/><path d="M56.574 50.194H51.5a4.3 4.3 0 0 1-4.327-4.307 4.3 4.3 0 0 1 4.327-4.307h5.075a4.3 4.3 0 0 1 4.327 4.307 4.3 4.3 0 0 1-4.327 4.307zM106.043 50.194c-2.35 0-4.273-1.861-4.327-4.2l-1.068-29.777c-.054-2.392 1.87-4.36 4.22-4.36h.053c2.351 0 4.274 1.861 4.328 4.2l1.068 29.777c.054 2.392-1.87 4.36-4.22 4.36h-.054z"/><path d="M111.118 50.194h-5.075a4.3 4.3 0 0 1-4.327-4.307 4.3 4.3 0 0 1 4.327-4.307h5.075a4.3 4.3 0 0 1 4.328 4.307 4.3 4.3 0 0 1-4.328 4.307z"/><path d="M.641 3.828C-.053 1.808.801.532 2.991.532h3.687c1.656 0 2.778.744 3.259 2.392 3.472 9.837 7.532 19.62 11.432 29.457 1.068 2.818 2.244 7.178 2.19 7.178h.16s.695-4.36 1.496-7.178c2.832-9.836 5.503-19.62 8.762-29.457.374-1.648 1.495-2.392 3.152-2.392h3.525c2.137 0 3.045 1.329 2.351 3.296-5.022 14.41-8.708 28.82-13.73 43.282-.534 1.595-1.549 2.286-3.205 2.286h-4.434c-1.656 0-2.671-.691-3.259-2.286C12.875 32.647 6.09 18.238.641 3.828zM134.998 13.452c9.99 0 15.974 7.072 16.561 16.696.107 1.489-1.122 2.978-2.885 2.978H127.2c.908 6.327 5.662 9.624 11.005 9.624 3.258 0 5.93-1.223 7.532-2.287 1.71-.85 2.938-.638 3.9.957.267.479.588.904.855 1.383.854 1.595.64 2.978-.855 3.828-2.244 1.436-6.41 3.51-11.913 3.51-11.646 0-18.965-8.401-19.553-18.345-.694-10.793 6.197-18.344 16.828-18.344zm7.693 14.357c-.427-4.892-3.58-7.763-7.586-7.763-4.487 0-7.48 3.084-8.013 7.763h15.599zM155.512 17.174c-.106-1.86.802-2.87 2.672-2.87h2.67c1.87 0 2.939 1.01 3.046 2.87.053 1.117.107 2.18.16 3.297a19.025 19.025 0 0 1-.053 2.393h.16c1.122-4.2 4.754-8.88 9.723-8.88 1.923 0 2.67.957 2.778 2.871.053.904.106 1.808.16 2.659.107 1.86-.962 2.871-2.778 2.871-6.41 0-9.135 6.328-8.815 12.708.214 3.775.32 7.497.428 11.272.053 1.915-.962 2.872-2.778 2.872h-3.045c-1.87 0-2.832-.957-2.885-2.872-.16-9.677-.908-19.407-1.443-29.19z" opacity=".8"/><ellipse opacity=".8" cx="68.648" cy="4.413" rx="4.327" ry="4.307"/></g><g opacity=".6" fill="#DEDDDD"><path d="M31.573 44.505c-.214-.585-.588-.958-1.069-.958-.48-.053-.908.213-1.282.745 0 0-1.389 2.18-2.885 3.35a11.807 11.807 0 0 1-7.212 2.446c-6.57 0-11.966-5.318-11.966-11.91 0-6.328 4.968-11.539 11.325-11.858h.641c1.817 0 3.953.744 3.953.744.802.32 1.283-.053 1.443-.212.16-.16.48-.638.214-1.436l-1.336-3.775c-.32-.904-1.336-1.755-2.297-1.861-.054 0-.855-.106-1.977-.106-.748 0-1.442.053-2.19.106C7.533 20.843.48 28.766.48 38.177c0 10.21 8.334 18.557 18.644 18.557a18.54 18.54 0 0 0 10.364-3.137c1.39-.904 2.725-2.286 2.778-2.34.695-.69.962-1.967.641-2.87l-1.335-3.882zM83.82 46.897l-1.656-3.669c-.268-.531-.695-.85-1.122-.903-.481 0-.909.265-1.176.85 0 0-1.228 2.34-2.617 3.563a11.635 11.635 0 0 1-6.945 3.03c-6.571.585-12.394-4.306-12.928-10.846-.374-4.254 1.549-8.242 4.808-10.582l3.525 10.103a3.61 3.61 0 0 0 3.42 2.393c.373 0 .8-.053 1.175-.213 1.87-.638 2.885-2.712 2.244-4.573l-3.526-9.996c1.602 0 3.205.425 3.205.425.855.213 1.282-.159 1.442-.319.16-.16.428-.638.107-1.435l-1.656-3.669c-.427-.904-1.496-1.595-2.457-1.648-.054 0-.855-.053-1.977.053-.32 0-.588.053-.908.106L61.222 3.828C60.474 1.702 58.284.16 56.04.16h-9.563c-1.976 0-3.632 1.595-3.632 3.615 0 2.02 1.602 3.616 3.632 3.616h8.227l.642 1.861-18.752 18.45-3.472-10.155h2.991c1.977 0 3.633-1.595 3.633-3.616 0-2.02-1.602-3.616-3.633-3.616H25.43c-1.977 0-3.633 1.596-3.633 3.616s1.603 3.616 3.633 3.616h.053l8.067 23.501c.534 1.49 1.923 2.446 3.42 2.446.373 0 .8-.053 1.175-.212 1.87-.638 2.884-2.712 2.243-4.573l-1.175-3.403 18.805-18.504 1.816 5.105a18.51 18.51 0 0 0-9.189 17.653c.428 4.945 2.778 9.411 6.571 12.601a18.613 18.613 0 0 0 11.967 4.36c.534 0 1.068 0 1.656-.053a18.722 18.722 0 0 0 10.043-3.988c1.283-1.063 2.511-2.499 2.565-2.552.587-.85.748-2.127.374-3.03z"/></g></g></svg>