<svg width="28" height="21" viewBox="0 0 28 21" xmlns="http://www.w3.org/2000/svg" xmlns:xlink="http://www.w3.org/1999/xlink"><defs><path id="a" d="M7.19 6.63L0 7.24l5.46 4.73L3.82 19l3.46-2.088 8.69-6.182L20 7.24l-7.19-.61L10 0z"/></defs><g fill="none" fill-rule="evenodd"><g transform="translate(1 1)"><mask id="b" fill="#fff"><use xlink:href="#a"/></mask><path stroke="#FFF" stroke-width="2" stroke-linejoin="round" mask="url(#b)" d="M-5 24h30V-5H-5z"/><path stroke="#FFF" stroke-width="2" stroke-linejoin="round" mask="url(#b)" d="M-299 242H61v-640h-360z"/></g><path stroke="#FFF" stroke-width="2" stroke-linejoin="round" d="M16.97 11.73L21 8.24l-7.19-.61L11 1 8.19 7.63 1 8.24l5.46 4.73L4.82 20l3.46-2.09"/><text font-family="OpenSans-Bold, Open Sans" font-size="9.72" font-weight="bold" letter-spacing="-.1" fill="#FFF" transform="translate(-1)"><tspan x="11" y="21">FAV</tspan></text><path d="M8.252 8.626c.37-.03.69-.265.836-.605l1.89-4.456 1.888 4.458c.145.34.467.575.836.606l4.83.41-3.67 3.178a1 1 0 0 0-.318.983l.002-.07H16.6l.216.04L21.632 9a1 1 0 0 0-.57-1.754l-6.59-.56L11.9.61a1 1 0 0 0-1.84 0L7.48 6.684l-2.185.185v2.006l2.957-.25zm-2.957 4.84v7.4l.02-.01 4.08-2.462v-2.336L6.31 17.92l1.102-4.722a1 1 0 0 0-.32-.984l-1.797-1.557v2.646l.032.028-.032.137zM.025 7.93a.998.998 0 0 0 .298 1.066l2.97 2.574V7.04l-2.4.204c-.4.034-.742.305-.867.687" fill="#FFF"/></g></svg>