<svg xmlns="http://www.w3.org/2000/svg" xmlns:xlink="http://www.w3.org/1999/xlink" width="27" height="21" viewBox="0 0 27 21"><defs><path id="a" d="M7.19 6.63L0 7.24l5.46 4.73L3.82 19 10 15.27 16.18 19l-1.64-7.03L20 7.24l-7.19-.61L10 0z"/></defs><g fill="none" fill-rule="evenodd"><g transform="translate(1 1)"><mask id="b" fill="#fff"><use xlink:href="#a"/></mask><path stroke="#9A9A9A" stroke-linejoin="round" stroke-width="2" d="M-5 24h30V-5H-5z" mask="url(#b)"/><path stroke="#9A9A9A" stroke-linejoin="round" stroke-width="2" d="M-299 242H61v-640h-360z" mask="url(#b)"/></g><path stroke="#9A9A9A" stroke-linejoin="round" stroke-width="2" d="M11 16.27L17.18 20l-1.64-7.03L21 8.24l-7.19-.61L11 1 8.19 7.63 1 8.24l5.46 4.73L4.82 20z"/><path stroke="#9A9A9A" stroke-width="2" d="M22.28 11.634v7.732M18.414 15.5h7.732"/><path d="M-5-1h32v24H-5z"/></g></svg>