<svg width="251" height="57" viewBox="0 0 251 57" xmlns="http://www.w3.org/2000/svg"><g fill="none" fill-rule="evenodd"><g transform="translate(73.723 4.84)" fill="#FFF"><path d="M86.598 50.194c-2.35 0-4.274-1.86-4.328-4.2l-1.068-29.777c-.053-2.392 1.87-4.36 4.22-4.36h.054c2.35 0 4.274 1.86 4.327 4.2l1.068 29.777c.055 2.392-1.87 4.36-4.22 4.36H86.6z"/><path d="M70.144 50.194c-2.35 0-4.274-1.86-4.328-4.2l-1.068-29.777c-.054-2.392 1.87-4.36 4.22-4.36h.054c2.35 0 4.273 1.86 4.327 4.2l1.067 29.777c.054 2.392-1.87 4.36-4.22 4.36h-.053z" opacity=".8"/><path d="M91.673 50.194h-5.075a4.3 4.3 0 0 1-4.328-4.307 4.3 4.3 0 0 1 4.328-4.307h5.075A4.3 4.3 0 0 1 96 45.887a4.3 4.3 0 0 1-4.327 4.307zm-40.173 0c-2.35 0-4.275-1.86-4.328-4.2l-1.07-29.777c-.052-2.392 1.87-4.36 4.22-4.36h.055c2.35 0 4.274 1.86 4.327 4.2l1.07 29.777c.052 2.392-1.87 4.36-4.22 4.36h-.055z"/><path d="M56.574 50.194H51.5a4.3 4.3 0 0 1-4.327-4.307A4.3 4.3 0 0 1 51.5 41.58h5.075a4.3 4.3 0 0 1 4.327 4.307 4.3 4.3 0 0 1-4.327 4.307zm49.47 0c-2.35 0-4.274-1.86-4.328-4.2l-1.068-29.777c-.054-2.392 1.87-4.36 4.22-4.36h.053c2.352 0 4.275 1.86 4.33 4.2l1.067 29.777c.054 2.392-1.87 4.36-4.22 4.36h-.054z"/><path d="M111.118 50.194h-5.075a4.3 4.3 0 0 1-4.327-4.307 4.3 4.3 0 0 1 4.327-4.307h5.075a4.3 4.3 0 0 1 4.328 4.307 4.3 4.3 0 0 1-4.328 4.307z"/><path d="M.64 3.828C-.052 1.808.8.532 2.99.532H6.68c1.656 0 2.778.744 3.26 2.392 3.47 9.837 7.53 19.62 11.43 29.457 1.07 2.82 2.245 7.18 2.19 7.18h.16s.696-4.36 1.497-7.18c2.832-9.835 5.503-19.62 8.762-29.456C34.35 1.276 35.472.532 37.13.532h3.524c2.137 0 3.045 1.33 2.35 3.296-5.02 14.41-8.707 28.82-13.73 43.282-.533 1.595-1.548 2.286-3.204 2.286h-4.434c-1.656 0-2.67-.69-3.26-2.286C12.877 32.647 6.09 18.238.642 3.828zM135 13.452c9.99 0 15.974 7.072 16.56 16.696.108 1.49-1.12 2.978-2.884 2.978H127.2c.908 6.327 5.662 9.624 11.005 9.624 3.258 0 5.93-1.223 7.532-2.287 1.71-.85 2.938-.638 3.9.957.267.48.588.904.855 1.383.854 1.595.64 2.978-.855 3.828-2.244 1.437-6.41 3.51-11.913 3.51-11.646 0-18.965-8.4-19.553-18.344-.693-10.793 6.198-18.344 16.83-18.344zm7.693 14.357c-.426-4.893-3.58-7.764-7.585-7.764-4.487 0-7.48 3.084-8.013 7.763h15.6zm12.822-10.636c-.106-1.86.802-2.87 2.672-2.87h2.67c1.87 0 2.94 1.01 3.046 2.87.053 1.117.107 2.18.16 3.297a19.025 19.025 0 0 1-.053 2.394h.16c1.122-4.2 4.754-8.88 9.723-8.88 1.923 0 2.67.957 2.778 2.87.053.905.106 1.81.16 2.66.107 1.86-.962 2.87-2.778 2.87-6.41 0-9.135 6.33-8.815 12.71.214 3.774.32 7.496.428 11.27.053 1.916-.962 2.873-2.778 2.873h-3.045c-1.87 0-2.832-.957-2.885-2.872-.16-9.677-.908-19.407-1.443-29.19z" opacity=".8"/><ellipse opacity=".8" cx="68.648" cy="4.413" rx="4.327" ry="4.307"/></g><path d="M31.573 44.505c-.214-.585-.588-.958-1.07-.958-.48-.053-.907.213-1.28.745 0 0-1.39 2.18-2.886 3.35a11.807 11.807 0 0 1-7.212 2.446c-6.57 0-11.966-5.318-11.966-11.91 0-6.328 4.967-11.54 11.324-11.858h.64c1.818 0 3.954.744 3.954.744.802.32 1.283-.053 1.443-.212.16-.16.48-.638.215-1.436L23.4 21.64c-.32-.903-1.337-1.754-2.298-1.86-.054 0-.855-.106-1.977-.106-.748 0-1.442.053-2.19.106C7.533 20.843.48 28.766.48 38.177c0 10.21 8.334 18.557 18.644 18.557a18.54 18.54 0 0 0 10.364-3.137c1.39-.904 2.725-2.286 2.778-2.34.695-.69.962-1.967.64-2.87l-1.334-3.882zm52.247 2.392l-1.656-3.67c-.268-.53-.695-.85-1.122-.902-.48 0-.91.265-1.176.85 0 0-1.228 2.34-2.617 3.563a11.635 11.635 0 0 1-6.946 3.03c-6.57.585-12.394-4.306-12.928-10.846-.374-4.254 1.55-8.242 4.808-10.582l3.525 10.103a3.61 3.61 0 0 0 3.42 2.393c.372 0 .8-.053 1.174-.213 1.87-.638 2.885-2.712 2.244-4.573l-3.526-9.996c1.602 0 3.205.425 3.205.425.855.212 1.282-.16 1.442-.32.16-.16.427-.638.106-1.435l-1.656-3.67c-.427-.903-1.496-1.594-2.457-1.647-.054 0-.855-.053-1.977.053-.32 0-.588.054-.908.107l-5.556-15.74C60.474 1.703 58.284.16 56.04.16h-9.563c-1.976 0-3.632 1.595-3.632 3.615 0 2.02 1.602 3.616 3.632 3.616h8.227l.642 1.862-18.752 18.45-3.472-10.155h2.99c1.978 0 3.634-1.595 3.634-3.616 0-2.02-1.602-3.615-3.633-3.615H25.43c-1.977 0-3.633 1.596-3.633 3.616s1.603 3.617 3.633 3.617h.053l8.067 23.5c.534 1.49 1.923 2.447 3.42 2.447.373 0 .8-.053 1.175-.212 1.87-.638 2.884-2.712 2.243-4.573l-1.175-3.404 18.805-18.504 1.816 5.105a18.51 18.51 0 0 0-9.19 17.653c.43 4.945 2.78 9.41 6.572 12.6a18.613 18.613 0 0 0 11.967 4.36c.534 0 1.068 0 1.656-.052A18.722 18.722 0 0 0 80.88 52.48c1.283-1.063 2.51-2.5 2.565-2.552.587-.85.748-2.127.374-3.03z" opacity=".6" fill="#DEDDDD"/></g></svg>