<svg width="181" height="74" viewBox="0 0 181 74" xmlns="http://www.w3.org/2000/svg"><g fill="none" fill-rule="evenodd"><g transform="translate(53.128 3.45)" fill="#FFF"><path d="M62.406 36.172c-1.694 0-3.08-1.34-3.118-3.027l-.77-21.458c-.04-1.724 1.347-3.142 3.04-3.142h.04c1.694 0 3.08 1.34 3.118 3.027l.77 21.458c.04 1.724-1.347 3.142-3.04 3.142h-.04z"/><path d="M50.55 36.172c-1.695 0-3.08-1.34-3.12-3.027l-.77-21.458c-.038-1.724 1.348-3.142 3.042-3.142h.038c1.694 0 3.08 1.34 3.12 3.027l.77 21.458c.037 1.724-1.35 3.142-3.043 3.142h-.038z" opacity=".8"/><path d="M66.064 36.172h-3.658c-1.732 0-3.118-1.38-3.118-3.104 0-1.724 1.386-3.104 3.118-3.104h3.658c1.732 0 3.118 1.38 3.118 3.104 0 1.725-1.386 3.104-3.118 3.104zM37.113 36.172c-1.694 0-3.08-1.34-3.12-3.027l-.77-21.458c-.037-1.724 1.35-3.142 3.043-3.142h.038c1.694 0 3.08 1.34 3.12 3.027l.77 21.458c.037 1.724-1.35 3.142-3.043 3.142h-.037z"/><path d="M40.77 36.172h-3.657c-1.733 0-3.12-1.38-3.12-3.104 0-1.724 1.387-3.104 3.12-3.104h3.657c1.732 0 3.118 1.38 3.118 3.104 0 1.725-1.386 3.104-3.118 3.104zM76.42 36.172c-1.694 0-3.08-1.34-3.12-3.027l-.77-21.458c-.037-1.724 1.35-3.142 3.043-3.142h.038c1.695 0 3.08 1.34 3.12 3.027l.77 21.458c.038 1.724-1.348 3.142-3.042 3.142h-.038z"/><path d="M80.077 36.172H76.42c-1.733 0-3.12-1.38-3.12-3.104 0-1.724 1.387-3.104 3.12-3.104h3.657c1.733 0 3.12 1.38 3.12 3.104 0 1.725-1.387 3.104-3.12 3.104z"/><path d="M.462 2.76C-.038 1.302.577.382 2.156.382h2.656c1.194 0 2.002.537 2.35 1.724 2.5 7.09 5.427 14.14 8.237 21.23.77 2.03 1.616 5.17 1.578 5.17h.115s.5-3.14 1.078-5.17c2.042-7.09 3.967-14.14 6.315-21.23C24.755.92 25.563.383 26.757.383h2.54c1.54 0 2.195.958 1.694 2.376-3.617 10.383-6.274 20.767-9.893 31.19-.385 1.15-1.116 1.647-2.31 1.647h-3.195c-1.194 0-1.925-.498-2.348-1.647C9.278 23.527 4.39 13.143.462 2.76zM97.286 9.694c7.2 0 11.51 5.097 11.935 12.032.078 1.073-.808 2.146-2.078 2.146H91.665c.655 4.56 4.08 6.935 7.93 6.935 2.35 0 4.274-.88 5.43-1.647 1.23-.613 2.117-.46 2.81.69.192.344.423.65.616.996.617 1.15.463 2.146-.615 2.76-1.617 1.033-4.62 2.528-8.586 2.528-8.393 0-13.668-6.055-14.09-13.22-.502-7.778 4.465-13.22 12.126-13.22zm5.544 10.346c-.308-3.525-2.58-5.594-5.467-5.594-3.234 0-5.39 2.222-5.775 5.594h11.242zM112.07 12.377c-.077-1.34.577-2.07 1.924-2.07h1.925c1.347 0 2.117.73 2.194 2.07l.115 2.375c.038.958-.04 1.725-.04 1.725h.116c.81-3.027 3.427-6.4 7.007-6.4 1.386 0 1.925.69 2.002 2.07.038.65.077 1.303.115 1.916.077 1.34-.693 2.07-2 2.07-4.62 0-6.585 4.56-6.354 9.157.154 2.72.23 5.403.308 8.123.04 1.38-.693 2.07-2.002 2.07h-2.194c-1.348 0-2.04-.69-2.08-2.07-.115-6.974-.653-13.986-1.038-21.036z" opacity=".8"/><ellipse opacity=".8" cx="49.471" cy="3.18" rx="3.118" ry="3.104"/></g><g opacity=".6" fill="#DEDDDD"><path d="M22.753 32.034c-.154-.422-.424-.69-.77-.69-.347-.038-.655.153-.924.536 0 0-1.002 1.57-2.08 2.414-1.502 1.15-3.31 1.763-5.197 1.763-4.736 0-8.624-3.832-8.624-8.583 0-4.56 3.58-8.315 8.16-8.545h.463c1.308 0 2.848.535 2.848.535.58.23.925-.038 1.04-.153.116-.115.347-.46.155-1.034l-.963-2.72c-.23-.652-.962-1.265-1.655-1.342-.04 0-.616-.077-1.424-.077-.54 0-1.04.038-1.58.076C5.43 14.982.347 20.692.347 27.474c0 7.357 6.006 13.373 13.437 13.373 2.656 0 5.235-.767 7.468-2.26 1.002-.652 1.965-1.65 2.003-1.687.5-.498.693-1.418.462-2.07l-.962-2.796zM60.404 33.758l-1.193-2.644c-.192-.383-.5-.613-.808-.65-.346 0-.654.19-.847.612 0 0-.885 1.686-1.886 2.567-1.387 1.264-3.12 2.03-5.006 2.184-4.735.422-8.93-3.104-9.316-7.817-.27-3.065 1.116-5.94 3.464-7.625l2.54 7.28c.386 1.073 1.387 1.725 2.465 1.725.27 0 .578-.04.847-.154 1.348-.46 2.08-1.954 1.617-3.295l-2.54-7.203c1.155 0 2.31.307 2.31.307.616.153.924-.115 1.04-.23.115-.115.308-.46.077-1.035l-1.194-2.644c-.308-.652-1.078-1.15-1.77-1.188-.04 0-.617-.04-1.425.038-.23 0-.424.038-.655.077L44.12 2.72C43.58 1.19 42 .078 40.384.078h-6.89c-1.426 0-2.62 1.15-2.62 2.605 0 1.456 1.156 2.606 2.62 2.606h5.928l.462 1.34-13.513 13.297-2.503-7.318h2.155c1.425 0 2.618-1.15 2.618-2.606 0-1.455-1.155-2.605-2.618-2.605h-7.7c-1.424 0-2.618 1.15-2.618 2.606 0 1.457 1.155 2.607 2.618 2.607h.04l5.812 16.936c.385 1.073 1.386 1.763 2.464 1.763.27 0 .58-.04.848-.154 1.347-.46 2.08-1.954 1.617-3.295l-.847-2.452L41.81 12.07l1.308 3.68c-4.388 2.528-7.083 7.432-6.62 12.72.307 3.564 2 6.782 4.734 9.08 2.425 2.032 5.467 3.143 8.624 3.143.385 0 .77 0 1.193-.038 2.656-.23 5.158-1.226 7.237-2.874.924-.765 1.81-1.8 1.848-1.838.423-.613.54-1.533.27-2.184z"/></g><path d="M2.185 70h6.858v-1.116H6.27V57.346H5.084L2.22 60.19l.793.81 1.35-1.35c.504-.486.63-.756.63-.756h.036s-.02.342-.02.702v9.288H2.186V70zm13.032-4.518c0 2.808 2.052 4.734 4.752 4.734 2.32 0 3.545-1.476 3.545-1.476l-.576-.918S21.876 69.1 20.022 69.1c-1.908 0-3.546-1.386-3.546-3.618 0-2.196 1.566-3.654 3.51-3.654.756 0 2.07.36 2.07 1.116v.522h1.152v-.81c0-1.494-2.197-1.926-3.223-1.926-2.7 0-4.77 1.98-4.77 4.752zm10.278 3.42c0 .774.324 1.098 1.098 1.098h1.278v-1.062h-.755c-.252 0-.396-.126-.396-.396V58.444c0-.774-.325-1.098-1.1-1.098h-1.277v1.062h.756c.25 0 .395.144.395.396v10.098zm4.482-10.008h1.188v-1.548h-1.188v1.548zm.036 10.008c0 .774.324 1.098 1.098 1.098h1.28v-1.062h-.757c-.252 0-.396-.126-.396-.396v-6.498c0-.774-.324-1.098-1.098-1.098h-1.28v1.062h.757c.252 0 .396.144.396.396v6.498zm3.582-3.42c0 2.808 2.052 4.734 4.752 4.734 2.322 0 3.546-1.476 3.546-1.476l-.576-.918S40.255 69.1 38.4 69.1c-1.907 0-3.545-1.386-3.545-3.618 0-2.196 1.566-3.654 3.51-3.654.756 0 2.07.36 2.07 1.116v.522h1.152v-.81c0-1.494-2.196-1.926-3.222-1.926-2.7 0-4.77 1.98-4.77 4.752zm10.224 3.042l-1.027 3.222h1.026l1.313-3.222H43.82zM52.296 70h6.858v-1.116h-2.772V57.346h-1.188l-2.862 2.844.792.81 1.35-1.35c.504-.486.63-.756.63-.756h.036s-.017.342-.017.702v9.288h-2.826V70zm16.308 0h1.332l2.952-7.578c.107-.324.305-.414.63-.414h.16v-1.062h-.467c-.846 0-1.116.18-1.422.99l-2.177 5.652c-.162.45-.306 1.062-.306 1.062h-.036s-.143-.612-.305-1.062l-2.178-5.652c-.306-.81-.576-.99-1.44-.99h-.486v1.062h.163c.324 0 .504.09.63.414L68.605 70zm5.868-4.518c0 2.79 2.052 4.734 4.734 4.734 2.052 0 3.366-1.296 3.366-1.296l-.594-.918s-1.063 1.116-2.72 1.116c-1.87 0-3.473-1.314-3.51-3.6h6.95s.035-.396.035-.612c0-2.25-1.296-4.176-3.798-4.176-2.43 0-4.464 1.782-4.464 4.752zm1.332-.936c.306-1.818 1.62-2.79 3.114-2.79 1.33 0 2.483.918 2.555 2.79h-5.67zm2.556-5.058h1.063l1.566-2.142h-1.37l-1.26 2.142zm6.805 9.414c0 .774.324 1.098 1.098 1.098h1.278v-1.062h-.755c-.252 0-.396-.126-.396-.396V58.444c0-.774-.325-1.098-1.1-1.098h-1.277v1.062h.756c.25 0 .395.144.395.396v10.098zm3.582-3.474c0 2.736 2.142 4.788 4.788 4.788 2.628 0 4.77-2.052 4.77-4.788 0-2.682-2.142-4.698-4.788-4.698-2.628 0-4.77 2.016-4.77 4.698zm1.26 0c0-2.052 1.584-3.582 3.528-3.582 1.926 0 3.51 1.53 3.51 3.582 0 2.106-1.584 3.69-3.51 3.69-1.944 0-3.528-1.584-3.528-3.69zm10.224 3.096l-1.025 3.222h1.026l1.315-3.222h-1.314zM108.71 70h6.857v-1.116h-2.772V57.346h-1.188l-2.862 2.844.792.81 1.35-1.35c.504-.486.63-.756.63-.756h.036s-.018.342-.018.702v9.288h-2.826V70zm13.877 3.6h1.224v-4.302c0-.468-.035-.792-.035-.792h.036s.757 1.71 2.97 1.71c2.34 0 4.05-1.872 4.05-4.734 0-2.808-1.51-4.752-3.94-4.752-2.395 0-3.115 1.782-3.115 1.782h-.036s.017-.252.017-.612c0-.63-.306-.954-1.08-.954h-1.242v1.062h.756c.253 0 .397.144.397.396V73.6zm1.188-8.1c0-2.574 1.422-3.654 2.934-3.654 1.69 0 2.86 1.422 2.86 3.636 0 2.304-1.313 3.654-2.915 3.654-1.89 0-2.88-1.818-2.88-3.636zm9.198 3.402c0 .774.324 1.098 1.098 1.098h1.28v-1.062h-.757c-.252 0-.396-.126-.396-.396V58.444c0-.774-.324-1.098-1.098-1.098h-1.28v1.062h.757c.252 0 .396.144.396.396v10.098zm3.582-1.368c0 1.8 1.566 2.682 3.078 2.682 2.268 0 3.024-1.962 3.006-1.962h.035s-.018.27-.018.666c0 .738.306 1.08 1.08 1.08h1.242v-1.062h-.757c-.252 0-.396-.126-.396-.396v-4.338c0-1.944-.684-3.474-3.546-3.474-.79 0-2.95.27-2.95 1.53v.864h1.17v-.576c0-.666 1.313-.792 1.763-.792 1.656 0 2.34.666 2.34 2.556v.108h-.504c-1.567 0-5.545.108-5.545 3.114zm1.26-.072c0-2.034 2.844-2.07 4.266-2.07h.523v.414c0 1.566-1.044 3.366-2.772 3.366-1.35 0-2.015-.864-2.015-1.71zm8.262-1.98c0 2.808 2.052 4.734 4.752 4.734 2.32 0 3.545-1.476 3.545-1.476l-.576-.918s-1.063 1.278-2.917 1.278c-1.908 0-3.546-1.386-3.546-3.618 0-2.196 1.566-3.654 3.51-3.654.756 0 2.07.36 2.07 1.116v.522h1.152v-.81c0-1.494-2.197-1.926-3.223-1.926-2.7 0-4.77 1.98-4.77 4.752zm9.504 0c0 2.79 2.053 4.734 4.735 4.734 2.052 0 3.366-1.296 3.366-1.296l-.593-.918s-1.062 1.116-2.718 1.116c-1.873 0-3.475-1.314-3.51-3.6h6.947s.036-.396.036-.612c0-2.25-1.296-4.176-3.798-4.176-2.43 0-4.464 1.782-4.464 4.752zm1.333-.936c.306-1.818 1.62-2.79 3.114-2.79 1.332 0 2.484.918 2.556 2.79h-5.67zm14.796 2.142h1.15l.055-9.342h-1.26l.054 9.342zM171.62 70h1.385v-1.386h-1.386V70z" fill="#FFF"/></g></svg>