<svg width="125" height="101" viewBox="0 0 125 101" xmlns="http://www.w3.org/2000/svg" xmlns:xlink="http://www.w3.org/1999/xlink"><title>8C6961AA-78A2-4553-996D-4CE232F778D4</title><defs><path id="a" d="M26.501 26.776H.054V.09h26.447z"/><path id="c" d="M37.856 21.537H0V.304h37.856v21.233z"/></defs><g fill="none" fill-rule="evenodd"><circle cx="50.5" cy="50.5" r="50.5" transform="translate(24)" fill="#19D1BF"/><g transform="translate(82.463 41.224)"><mask id="b" fill="#fff"><use xlink:href="#a"/></mask><path d="M13.278 3.915c-5.201 0-9.433 4.27-9.433 9.518 0 5.248 4.232 9.518 9.433 9.518s9.432-4.27 9.432-9.518c0-5.248-4.23-9.518-9.432-9.518m0 22.86C5.987 26.776.054 20.79.054 13.434S5.987.09 13.278.09s13.223 5.986 13.223 13.343-5.932 13.343-13.223 13.343" fill="#FFF" mask="url(#b)"/></g><path d="M95.472 56.286c-.793 0-1.534-.521-1.81-1.353l-7.943-23.894h-6.313c-1.06 0-1.918-.904-1.918-2.02 0-1.115.859-2.019 1.918-2.019h6.714c1.341 0 2.639.968 3.085 2.3l8.077 24.298c.35 1.053-.176 2.206-1.177 2.574-.21.077-.423.114-.633.114M72.338 38.714h-7.944c-1.012 0-1.833-.749-1.833-1.673s.82-1.674 1.833-1.674h7.944c1.012 0 1.833.75 1.833 1.674 0 .924-.821 1.673-1.833 1.673" fill="#FFF"/><path d="M71.935 52.939c-.492 0-.984-.2-1.358-.6a2.11 2.11 0 0 1 .014-2.863l16.08-16.87c.75-.786 1.96-.78 2.703.015a2.11 2.11 0 0 1-.014 2.862l-16.08 16.87a1.85 1.85 0 0 1-1.345.586" fill="#FFF"/><path d="M73.734 58.796c-.857 0-1.662-.503-1.97-1.31l-7.42-19.463c-.392-1.03.171-2.166 1.26-2.537 1.087-.372 2.288.162 2.68 1.191l7.42 19.463c.393 1.03-.17 2.166-1.259 2.538-.234.08-.474.118-.71.118M68.947 59.558c-.184-.519-.575-.563-.87-.097 0 0-1.078 1.71-2.27 2.618a9.253 9.253 0 0 1-5.643 1.91c-5.16 0-9.358-4.206-9.358-9.377 0-5.01 3.94-9.113 8.876-9.365a9.5 9.5 0 0 1 .482-.012c1.451 0 3.108.597 3.108.597.518.188.791-.085.608-.605l-1.002-2.834c-.184-.519-.78-1.008-1.324-1.086 0 0-.577-.083-1.39-.083-.528 0-1.05.03-1.562.09-6.642.776-11.797 6.434-11.797 13.298C46.805 62.006 52.786 68 60.164 68c2.749 0 5.301-.835 7.422-2.264 1.003-.675 1.995-1.686 1.995-1.686.387-.393.552-1.14.369-1.66l-1.003-2.832z" fill="#FFF"/><path d="M57.748 54.612H43.325c-1.284 0-2.325-1.123-2.325-2.51 0-1.387 1.041-2.51 2.325-2.51h14.423c1.284 0 2.325 1.123 2.325 2.51 0 1.387-1.041 2.51-2.325 2.51" fill="#FFF"/><path d="M57.748 58.796H43.325c-1.284 0-2.325-1.124-2.325-2.51 0-1.387 1.041-2.51 2.325-2.51h14.423c1.284 0 2.325 1.123 2.325 2.51 0 1.386-1.041 2.51-2.325 2.51" fill="#FFF"/><g><g transform="translate(0 43)"><mask id="d" fill="#fff"><use xlink:href="#c"/></mask><path d="M9.564 6.959L.001 10.92c4.64 1.516 8.456 3.387 11.768 5.135 1.103.583 2.152 1.151 3.155 1.689 1.507.806 2.914 1.54 4.263 2.145.45.201.892.388 1.33.558.876.34 1.733.612 2.581.8.848.188 1.688.29 2.532.29 6.752 0 12.226-4.753 12.226-10.617C37.856 5.057 32.382.304 25.63.304c-4.744 0-9.454 3.332-16.066 6.655" fill="#19D1BF" mask="url(#d)"/></g><path d="M23.583 52.328L19.826 54c1.823.64 3.322 1.43 4.623 2.167.433.247.845.486 1.24.713.591.34 1.144.65 1.674.906.176.084.35.163.522.235.345.143.68.259 1.014.338.333.08.663.122.994.122 2.653 0 4.803-2.006 4.803-4.48 0-2.476-2.15-4.482-4.803-4.482-1.863 0-3.713 1.406-6.31 2.809" fill="#FFF"/></g></g></svg>