<svg width="20" height="14" viewBox="0 0 20 14" xmlns="http://www.w3.org/2000/svg" xmlns:xlink="http://www.w3.org/1999/xlink"><defs><path id="a" d="M8.547 8.55H.027V.03h8.52v8.52z"/><path id="c" d="M0 .03v8.517h7.4V.03H0z"/></defs><g fill="none" fill-rule="evenodd"><g transform="translate(11.45 4.526)"><mask id="b" fill="#fff"><use xlink:href="#a"/></mask><path d="M4.286 1.25c-1.675 0-3.04 1.364-3.04 3.04 0 1.675 1.365 3.038 3.04 3.038 1.676 0 3.04-1.363 3.04-3.04 0-1.674-1.364-3.038-3.04-3.038m0 7.3c-2.35 0-4.26-1.912-4.26-4.26 0-2.35 1.91-4.26 4.26-4.26 2.35 0 4.26 1.91 4.26 4.26 0 2.348-1.91 4.26-4.26 4.26" fill="#FFF" mask="url(#b)"/></g><path d="M17.415 4.906c-.462-.198-1.178-.296-1.178-.296-.174-.024-.27.092-.21.257l.258.74c.058.164.242.342.41.394 0 0 .284.09.544.242.883.517 1.48 1.476 1.48 2.573 0 1.645-1.34 2.983-2.983 2.983-1.645 0-2.983-1.338-2.983-2.983 0-.485.117-.942.324-1.346.108-.21.198-.33.198-.33.106-.14.146-.39.088-.555l-.255-.726c-.06-.166-.21-.202-.336-.08 0 0-.324.31-.543.624-.473.684-.75 1.514-.75 2.41 0 2.352 1.905 4.26 4.257 4.26 2.35 0 4.258-1.908 4.258-4.26 0-1.754-1.063-3.258-2.58-3.908" fill="#FFF"/><path d="M15.704 9.247c-.264 0-.51-.165-.602-.427l-2.64-7.545h-2.1c-.352 0-.637-.285-.637-.637 0-.352.285-.638.638-.638h2.232c.446 0 .877.306 1.025.726l2.685 7.672c.117.333-.058.697-.39.813-.07.025-.14.037-.21.037M7.902 3.64H5.375c-.322 0-.583-.26-.583-.582 0-.322.26-.583.583-.583h2.527c.322 0 .583.26.583.583 0 .322-.26.583-.583.583" fill="#FFF"/><path d="M8.13 8.503c-.163 0-.328-.064-.452-.19-.248-.25-.246-.653.004-.9l5.367-5.315c.25-.248.653-.246.9.004.25.25.247.654-.003.902L8.58 8.318c-.125.123-.287.185-.45.185" fill="#FFF"/><path d="M8.29 10.044c-.26 0-.506-.162-.6-.42L5.43 3.36c-.12-.332.053-.697.384-.817.332-.12.697.053.817.384l2.26 6.26c.12.33-.052.696-.383.816-.072.026-.145.038-.217.038" fill="#FFF"/><g transform="translate(0 4.526)"><mask id="d" fill="#fff"><use xlink:href="#c"/></mask><path d="M7.058 5.862c-.06-.165-.184-.18-.278-.03 0 0-.344.543-.723.832-.5.38-1.123.608-1.8.608-1.644 0-2.982-1.338-2.982-2.983 0-1.594 1.256-2.9 2.83-2.98.05-.002.102-.003.153-.003.463 0 .99.19.99.19.166.06.253-.027.194-.193l-.32-.9C5.065.237 4.876.08 4.703.057c0 0-.185-.027-.444-.027-.168 0-.335.01-.498.03C1.643.307 0 2.106 0 4.29c0 2.35 1.906 4.257 4.258 4.257.876 0 1.69-.266 2.366-.72.32-.215.636-.536.636-.536.123-.124.175-.362.117-.527l-.32-.9z" fill="#FFF" mask="url(#d)"/></g></g></svg>