<svg width="27" height="21" viewBox="0 0 27 21" xmlns="http://www.w3.org/2000/svg" xmlns:xlink="http://www.w3.org/1999/xlink"><defs><path id="a" d="M7.19 6.63L0 7.24l5.46 4.73L3.82 19l3.46-2.088 8.69-6.182L20 7.24l-7.19-.61L10 0z"/></defs><g fill="none" fill-rule="evenodd"><g transform="translate(1 2)"><mask id="b" fill="#fff"><use xlink:href="#a"/></mask><path stroke="#FFF" stroke-width="2" stroke-linejoin="round" mask="url(#b)" d="M-5 24h30V-5H-5z"/><path stroke="#FFF" stroke-width="2" stroke-linejoin="round" mask="url(#b)" d="M-299 242H61v-640h-360z"/></g><path d="M0-2h27v27H0z"/><path stroke="#FFF" stroke-width="2" stroke-linejoin="round" d="M16.97 11.73L21 8.24l-7.19-.61L11 1 8.19 7.63l-6.69.61 4.96 4.73L4.82 20l3.46-2.09"/><path d="M12.27 20.88h-1.397v-6.7h3.84v1.164H12.27v1.728h2.274v1.16H12.27v2.648zm7.57 0l-.484-1.595h-2.443l-.485 1.595h-1.53l2.364-6.728H19l2.372 6.728h-1.53zm-.823-2.786c-.45-1.445-.702-2.263-.76-2.452a6.92 6.92 0 0 1-.12-.45c-.1.392-.39 1.36-.866 2.902h1.747zm6.55-3.914H27l-2.278 6.7h-1.55l-2.272-6.7h1.435l1.26 3.987c.07.235.143.51.218.823.074.313.12.53.14.653.033-.28.148-.773.343-1.476l1.27-3.987zM8.252 8.626c.37-.03.69-.265.836-.605l1.89-4.457 1.888 4.458c.145.34.467.575.836.606l4.83.41-3.67 3.178a1 1 0 0 0-.318.983l.002-.07H16.6l.216.04 4.816-4.17a1 1 0 0 0-.57-1.753l-6.59-.56L11.9.61a1 1 0 0 0-1.84 0L7.48 6.684l-2.185.185v2.007l2.957-.25zm-2.957 4.84v7.4l.02-.01 4.08-2.462v-2.336L6.31 17.92l1.102-4.722a1 1 0 0 0-.32-.984l-1.797-1.557v2.646l.032.028-.032.136z" fill="#FFF"/></g></svg>