<svg width="20" height="20" viewBox="0 0 20 20" xmlns="http://www.w3.org/2000/svg" xmlns:xlink="http://www.w3.org/1999/xlink"><defs><path id="a" d="M0 0v20h20V0H0z"/></defs><g fill="none" fill-rule="evenodd"><path d="M-1-1h22v22H-1z"/><path d="M14.028 9.08h-.017l.576 1.643a.616.616 0 0 1-.378.785.63.63 0 0 1-.785-.378l-.578-1.65c-.51.376-.81.96-.81 1.594 0 1.1.894 1.993 1.993 1.993a1.996 1.996 0 0 0 1.994-1.993c0-1.1-.895-1.994-1.994-1.994" fill="#FFF"/><mask id="b" fill="#fff"><use xlink:href="#a"/></mask><path d="M14.028 14.26a3.19 3.19 0 0 1-3.188-3.187c0-1.135.61-2.175 1.6-2.748l-.304-.87-2.913 2.884.335.926a.613.613 0 0 1-.37.79.63.63 0 0 1-.79-.37l-1.486-4.12h-.238a.578.578 0 0 1 0-1.156h1.793a.578.578 0 0 1 0 1.155h-.245l.55 1.526 2.924-2.893-.11-.31h-1.373a.617.617 0 0 1 0-1.234h1.585c.383 0 .754.263.882.625l.924 2.642a2.89 2.89 0 0 1 .424-.034 3.19 3.19 0 0 1 3.188 3.187 3.19 3.19 0 0 1-3.188 3.188m-5.81-.94c-.01.01-.24.24-.478.4a3.155 3.155 0 0 1-1.77.54 3.185 3.185 0 1 1-.372-6.35c.314-.037.71-.002.71-.002a.57.57 0 0 1 .43.353l.227.64c.06.168-.014.265-.048.3-.034.034-.13.107-.3.046-.002-.003-.423-.14-.748-.123a1.95 1.95 0 0 0-1.853 1.95c0 1.077.877 1.954 1.954 1.954.43 0 .837-.137 1.178-.398.244-.186.473-.546.475-.55.066-.104.158-.16.263-.147.102.01.184.085.226.202l.227.64a.56.56 0 0 1-.123.544M10 0C4.477 0 0 4.477 0 10s4.477 10 10 10 10-4.477 10-10S15.523 0 10 0" fill="#FFF" mask="url(#b)"/></g></svg>