<svg width="23" height="20" viewBox="0 0 23 20" xmlns="http://www.w3.org/2000/svg" xmlns:xlink="http://www.w3.org/1999/xlink"><defs><path id="a" d="M11.166 19.28h11.166V.07H0v19.21h11.166z"/></defs><g fill="none" fill-rule="evenodd"><path d="M2.657 13.892V9.664H7.59l4.737-4.06h-9.67V3.577h12.04l2.37-2.03H2.656c-1.127 0-2.02.904-2.02 2.03L.628 15.63l2.03-1.74zM15.39 9.664h3.502v6.088H8.284l-2.37 2.03h12.978c1.127 0 2.03-.904 2.03-2.03V4.924l-5.532 4.74z" fill="#E0E0DF"/><g transform="translate(0 .266)"><mask id="b" fill="#fff"><use xlink:href="#a"/></mask><path d="M1.27 19.28a1.267 1.267 0 0 1-.82-2.24L20.247.37a1.267 1.267 0 1 1 1.634 1.94L2.087 18.98c-.24.2-.53.298-.817.298" fill="#E0E0DF" mask="url(#b)"/></g></g></svg>