<?xml version="1.0" encoding="utf-8"?>
<!-- Generator: Adobe Illustrator 19.1.0, SVG Export Plug-In . SVG Version: 6.00 Build 0)  -->
<svg version="1.1" xmlns="http://www.w3.org/2000/svg" xmlns:xlink="http://www.w3.org/1999/xlink" x="0px" y="0px"
	 viewBox="0 0 628.5 363" style="enable-background:new 0 0 628.5 363;" xml:space="preserve">
<style type="text/css">
	.st0{enable-background:new    ;}
	.st1{clip-path:url(#SVGID_2_);}
	.st2{clip-path:url(#SVGID_6_);fill-rule:evenodd;clip-rule:evenodd;fill:#FFFFFF;}
	.st3{clip-path:url(#SVGID_10_);fill-rule:evenodd;clip-rule:evenodd;fill:#FFFFFF;}
	.st4{clip-path:url(#SVGID_12_);}
	.st5{opacity:0;clip-path:url(#SVGID_14_);}
	.st6{opacity:0;}
	.st7{clip-path:url(#SVGID_16_);}
	.st8{clip-path:url(#SVGID_14_);}
	.st9{clip-path:url(#SVGID_20_);}
	.st10{fill:none;stroke:#CF0000;stroke-width:4;stroke-linecap:round;stroke-linejoin:round;stroke-miterlimit:10;}
	.st11{fill:#E52B38;}
	.st12{fill:#E52B38;stroke:#E52B38;stroke-miterlimit:10;}
	.st13{fill:#FFFFFF;}
	.st14{opacity:0.8;}
	.st15{opacity:0.8;fill:#FFFFFF;}
	.st16{opacity:0.6;}
	.st17{fill:#DDDCDC;}
	.st18{opacity:0.27;}
	.st19{fill:#F40132;}
	.st20{fill:#E43B27;}
	.st21{fill:#F40132;stroke:#F40132;stroke-width:2;stroke-miterlimit:10;}
	.st22{fill:none;stroke:#FFFFFF;stroke-width:6;}
	.st23{fill:#FFFFFF;stroke:#F40132;stroke-width:2;stroke-miterlimit:10;}
	.st24{fill:#FFFFFF;stroke:#F40132;}
	.st25{fill:none;stroke:#F40132;stroke-width:7;}
	.st26{fill:none;stroke:#F40132;}
</style>
<g id="Calque_1">
</g>
<g id="Calque_2">
	<g class="st0">
		<g>
			<defs>
				<rect id="SVGID_1_" x="-36.2" y="-100.4" width="704.2" height="591.3"/>
			</defs>
			<clipPath id="SVGID_2_">
				<use xlink:href="#SVGID_1_"  style="overflow:visible;"/>
			</clipPath>
			<g class="st1">
				<defs>
					<rect id="SVGID_3_" x="-36.2" y="-100.4" width="704.2" height="591.3"/>
				</defs>
				<clipPath id="SVGID_4_">
					<use xlink:href="#SVGID_3_"  style="overflow:visible;"/>
				</clipPath>
				<g transform="matrix(1 0 0 1 0 0)" style="clip-path:url(#SVGID_4_);">
					
						<image style="overflow:visible;" width="360" height="640" xlink:href="864A86B45347A9E8.png"  transform="matrix(1.9562 0 0 0.924 -36.1798 -100.4052)">
					</image>
				</g>
			</g>
			<g class="st1">
				<defs>
					<rect id="SVGID_5_" x="-36.2" y="-100.4" width="704.2" height="591.3"/>
				</defs>
				<clipPath id="SVGID_6_">
					<use xlink:href="#SVGID_5_"  style="overflow:visible;"/>
				</clipPath>
			</g>
			<g class="st1">
				<defs>
					<rect id="SVGID_7_" x="-36.2" y="-100.4" width="704.2" height="591.3"/>
				</defs>
				<clipPath id="SVGID_8_">
					<use xlink:href="#SVGID_7_"  style="overflow:visible;"/>
				</clipPath>
				<g transform="matrix(1 0 0 1 0 0)" style="clip-path:url(#SVGID_8_);">
					
						<image style="overflow:visible;" width="360" height="640" xlink:href="864A86B45347A9E9.png"  transform="matrix(1.9562 0 0 0.924 -36.1798 -100.4052)">
					</image>
				</g>
			</g>
			<g class="st1">
				<defs>
					<rect id="SVGID_9_" x="-36.2" y="-100.4" width="704.2" height="591.3"/>
				</defs>
				<clipPath id="SVGID_10_">
					<use xlink:href="#SVGID_9_"  style="overflow:visible;"/>
				</clipPath>
			</g>
			<g class="st1">
				<defs>
					<rect id="SVGID_11_" x="-36.2" y="-100.4" width="704.2" height="591.3"/>
				</defs>
				<clipPath id="SVGID_12_">
					<use xlink:href="#SVGID_11_"  style="overflow:visible;"/>
				</clipPath>
				<g class="st4">
					<defs>
						<rect id="SVGID_13_" x="-36.2" y="-100.4" width="704.2" height="591.3"/>
					</defs>
					<clipPath id="SVGID_14_">
						<use xlink:href="#SVGID_13_"  style="overflow:visible;"/>
					</clipPath>
					<g class="st5">
						<g class="st6">
							<g>
								<defs>
									<rect id="SVGID_15_" x="-36.2" y="-100.4" width="704.2" height="591.3"/>
								</defs>
								<clipPath id="SVGID_16_">
									<use xlink:href="#SVGID_15_"  style="overflow:visible;"/>
								</clipPath>
								<g class="st7">
									<defs>
										<rect id="SVGID_17_" x="-36.2" y="-100.4" width="704.2" height="591.3"/>
									</defs>
									<clipPath id="SVGID_18_">
										<use xlink:href="#SVGID_17_"  style="overflow:visible;"/>
									</clipPath>
									<g style="clip-path:url(#SVGID_18_);">
										
											<image style="overflow:visible;" width="2935" height="2464" xlink:href="864A86B45347A9E8.jpg"  transform="matrix(0.24 0 0 0.24 -36.1798 -100.4052)">
										</image>
									</g>
								</g>
							</g>
						</g>
					</g>
					<g class="st8">
						<g>
							<defs>
								<rect id="SVGID_19_" x="-36.2" y="-100.4" width="704.2" height="591.3"/>
							</defs>
							<clipPath id="SVGID_20_">
								<use xlink:href="#SVGID_19_"  style="overflow:visible;"/>
							</clipPath>
							<g class="st9">
								<defs>
									<rect id="SVGID_21_" x="-36.2" y="-100.4" width="704.2" height="591.3"/>
								</defs>
								<clipPath id="SVGID_22_">
									<use xlink:href="#SVGID_21_"  style="overflow:visible;"/>
								</clipPath>
								<g style="clip-path:url(#SVGID_22_);">
									
										<image style="overflow:visible;" width="2935" height="2464" xlink:href="864A86B45347A9E9.jpg"  transform="matrix(0.24 0 0 0.24 -36.1798 -100.4052)">
									</image>
								</g>
							</g>
						</g>
					</g>
				</g>
			</g>
		</g>
	</g>
	<g>
		<g>
			<path class="st13" d="M122.6,304.9c-6.5-11.3-11.2-23.3-14-36c-1.4,0.8-2.8,1.6-4.2,2.4c8.8,8.4,15.2,18.5,18.9,30.1
				c0.8,2.5,3.9,2.2,4.8,0c0.8-1.9,1.6-3.8,2.4-5.7c-1,0.6-2.1,1.2-3.1,1.7c0.5,0.9,1,1.9,1.5,2.8c-0.3,2.3,2.9,3.1,4.3,1.8
				c2.1-2.1,4.2-4.1,6.3-6.2c-1.3-0.2-2.6-0.3-3.9-0.5c1,2,2.1,4.1,3.1,6.1c0.6,1.2,2.3,1.6,3.4,0.9c3.7-2.2,8,0.1,8.7,4.2
				c0.5,3.2,5.2,1.8,4.8-1.3c-1.9-13.9,2.1-27.7,10.6-38.8c-1.6-0.4-3.1-0.8-4.7-1.3c0.1,5.6,0.3,11.1,0.4,16.7
				c0.1,4.3-0.6,9.6,1.3,13.7c2.4,5,9.2,5.5,11.4,0.2c-1.6,0-3.2,0-4.8,0c1.1,5.2,2.1,10.3,3.2,15.5c0.4,2,2.9,2.3,4.2,1.1
				c3-2.7,6-5.3,9-8c-1.4-0.4-2.8-0.7-4.2-1.1c1.2,3.2,2.4,6.4,3.6,9.6c0.9,2.4,4,2.4,4.8,0c4.2-11.5,6.7-23.4,7.6-35.6
				c-1.6,0.2-3.3,0.4-4.9,0.7c1.7,8,3.4,16,5.2,24c0.5,2.4,4.3,2.4,4.8,0c1.5-7,3-14,4.4-21c-1.5,0.2-3,0.4-4.6,0.6
				c0.9,1.8,1.8,3.6,2.7,5.4c0.4,0.8,1.3,1.3,2.2,1.2c4.1-0.1,6.9,3.3,6.4,7.3c1.7,0,3.3,0,5,0c1.2-14.9,7.2-28.8,17.2-39.8
				c-1.4-0.6-2.8-1.2-4.3-1.8c-1.1,17-2.2,34-3.3,50.9c-0.2,2.7,3.4,3.2,4.7,1.3c2.5-3.7,5-7.4,7.5-11.1c-1.5-0.2-3-0.4-4.6-0.6
				c1.2,3.7,2.3,7.3,3.5,11c0.6,1.9,2.7,2.4,4.2,1.1c1.8-1.5,3.5-3.1,5.3-4.6c-1.4-0.6-2.8-1.2-4.3-1.8c0,4.7,4.5,6.7,8.7,5.9
				c7.3-1.4,7.2-9.5,12.7-13c-1.3-0.7-2.5-1.4-3.8-2.2c-0.9,7.7,0.1,15.3,2.8,22.6c0.6,1.7,2.8,2.5,4.2,1.1
				c4.7-4.6,7.3-10.2,8.1-16.7c-1.6,0.4-3.1,0.8-4.7,1.3c2,4.4,4.6,9.4,9.7,10.8c4,1.1,7.7-0.3,10-3.6c1.8-2.7-2.5-5.2-4.3-2.5
				c-4.1,6.2-9.6-4.2-11-7.2c-1.1-2.5-4.4-0.9-4.7,1.3c-0.6,5.2-2.9,9.5-6.6,13.2c1.4,0.4,2.8,0.7,4.2,1.1
				c-2.6-6.9-3.4-13.9-2.6-21.2c0.2-1.9-2.3-3.1-3.8-2.2c-2.7,1.7-4.3,4-5.9,6.8c-0.9,1.6-1.8,3.9-3.4,4.9c-0.7,0.5-4.6,1.7-4.6-0.3
				c0-2.3-2.7-3.2-4.3-1.8c-1.8,1.5-3.5,3.1-5.3,4.6c1.4,0.4,2.8,0.7,4.2,1.1c-1.2-3.7-2.3-7.3-3.5-11c-0.7-2.1-3.4-2.4-4.6-0.6
				c-2.5,3.7-5,7.4-7.5,11.1c1.6,0.4,3.1,0.8,4.7,1.3c1.1-17,2.2-34,3.3-50.9c0.1-2.1-2.8-3.3-4.3-1.8c-11,12.1-17.4,27.1-18.7,43.4
				c-0.3,3.3,4.6,3.1,5,0c0.8-6.7-4.7-12.4-11.4-12.3c0.7,0.4,1.4,0.8,2.2,1.2c-0.9-1.8-1.8-3.6-2.7-5.4c-0.9-1.9-4.1-1.5-4.6,0.6
				c-1.5,7-3,14-4.4,21c1.6,0,3.2,0,4.8,0c-1.7-8-3.4-16-5.2-24c-0.6-2.9-4.7-2-4.9,0.7c-0.9,11.7-3.5,23.2-7.5,34.2
				c1.6,0,3.2,0,4.8,0c-1.2-3.2-2.4-6.4-3.6-9.6c-0.7-1.8-2.7-2.4-4.2-1.1c-3,2.7-6,5.3-9,8c1.4,0.4,2.8,0.7,4.2,1.1
				c-1.1-5.2-2.1-10.3-3.2-15.5c-0.5-2.7-4-2-4.8,0c-0.3,0.8-2.2-1.3-2.2-1.5c-0.5-1-0.4-2.6-0.4-3.6c-0.2-2.8-0.1-5.6-0.2-8.3
				c-0.1-5.2-0.3-10.5-0.4-15.7c-0.1-2.7-3.2-3.1-4.7-1.3c-9.4,12.2-13.2,27.4-11.1,42.6c1.6-0.4,3.2-0.9,4.8-1.3
				c-1.2-7.3-9.8-10.9-16-7.2c1.1,0.3,2.3,0.6,3.4,0.9c-1-2-2.1-4.1-3.1-6.1c-0.7-1.5-2.8-1.6-3.9-0.5c-2.1,2.1-4.2,4.1-6.3,6.2
				c1.4,0.6,2.8,1.2,4.3,1.8c0.5-3.7-1.7-6.5-5.1-7.6c-1.4-0.5-2.6,0.6-3.1,1.7c-0.8,1.9-1.6,3.8-2.4,5.7c1.6,0,3.2,0,4.8,0
				c-3.9-12.4-10.8-23.4-20.2-32.3c-1.9-1.8-4.7,0-4.2,2.4c2.9,13.1,7.7,25.6,14.5,37.2C119.9,310.2,124.2,307.7,122.6,304.9
				L122.6,304.9z"/>
		</g>
		<g>
			<path class="st13" d="M308.3,325.3c-1-3.7,1.6-6.6,4.6-8.3c1.9-1.1,8.3-4.7,10.3-2.8c1.7,1.7,0.1,5-1.6,6.1
				c-3.3,2.1-8.1,0.7-11.5-0.2c-3.1-0.8-4.5,4.1-1.3,4.8c5.6,1.4,12.9,2.8,17.4-1.9c3-3.2,3.9-9,0.7-12.3
				c-4.3-4.3-11.6-0.7-15.9,1.7c-5.2,2.8-9.1,8.1-7.4,14.2C304.3,329.8,309.1,328.4,308.3,325.3L308.3,325.3z"/>
		</g>
		<g>
			<path class="st13" d="M303.1,310.8c-4.6-1.1-8.5-4.5-13.5-4.1c-3.3,0.3-6.4,2.3-7.1,5.7c-0.7,3.3,1.3,6.9,4.1,8.6
				c4.1,2.7,9.3,1.6,13.7,0.4c3.1-0.8,1.8-5.6-1.3-4.8c-2.6,0.7-5.7,1.7-8.4,0.8c-1.9-0.6-4.8-3.7-2.1-5.3c3.7-2.2,9.7,2.7,13.3,3.6
				C304.9,316.3,306.2,311.5,303.1,310.8L303.1,310.8z"/>
		</g>
		<g>
			<path class="st13" d="M283.8,312.3c-7.5-1.6-16.4-3-21.9,3.6c-4.1,4.8-3.8,12.2,2.2,15.4c7.1,3.8,14.2-0.7,19.9-4.8
				c0.9-0.6,1.7-1.2,2.6-1.8c0.7-0.5,4.4-2.4,2-1.9c-2.3,0.5-5,2.5-7.3,3.4c-5.5,2.1-11.2,3.3-17.1,3.7c-3.2,0.2-3.2,5.2,0,5
				c8.6-0.6,16.9-2.7,24.6-6.6c2.4-1.2,6.1-2.4,6-5.6c-0.1-2.1-1.8-3.9-3.7-4.4c-7.1-1.9-13.1,8.7-20.1,9.3
				c-6.2,0.5-9.1-5.4-4.2-9.6c4.3-3.6,10.8-1.9,15.7-0.9C285.6,317.8,287,312.9,283.8,312.3L283.8,312.3z"/>
		</g>
		<g>
			<path class="st13" d="M289.1,330.2c2.7-3.2,8.7-0.1,12.4-0.6c3.3-0.4,5.8-2,6.8-5.3c-1.2,0.5-2.4,1-3.7,1.5
				c7.4,5.2,17.4,4.1,23.7-2.3c2.2-2.3-1.3-5.8-3.5-3.5c-4.8,4.9-12,5.5-17.6,1.5c-1.3-1-3.3,0.1-3.7,1.5c-1,3.7-8.6,0.8-11.2,0.9
				c-2.7,0-5,0.8-6.7,2.9C283.5,329.1,287,332.7,289.1,330.2L289.1,330.2z"/>
		</g>
		<g>
			<path class="st13" d="M312.1,350.7c1.7,6,10.7,7.4,14.1,2.1c4-6.4-4.3-13.6-10.5-10.5c-2.9,1.4-0.3,5.8,2.5,4.3
				c1.9-0.9,5,2,3.5,3.8c-1.2,1.5-4.4,0.8-4.9-1C316,346.2,311.2,347.5,312.1,350.7L312.1,350.7z"/>
		</g>
		<g>
			<path class="st13" d="M345.5,347.7c1.3-0.4,2.6-0.9,3.8-1.3c1.2-0.4,2.2-1.7,1.7-3.1c-0.4-1.2-1.7-2.2-3.1-1.7
				c-1.3,0.4-2.6,0.9-3.8,1.3c-1.2,0.4-2.2,1.7-1.7,3.1C342.8,347.2,344.1,348.1,345.5,347.7L345.5,347.7z"/>
		</g>
		<g>
			<path class="st13" d="M377.5,338.5c0.8-1.3,1.7-2.6,2.5-3.8c0.7-1.1,0.3-2.8-0.9-3.4c-1.3-0.7-2.7-0.3-3.4,0.9
				c-0.8,1.3-1.7,2.6-2.5,3.8c-0.7,1.1-0.3,2.8,0.9,3.4C375.3,340.1,376.7,339.7,377.5,338.5L377.5,338.5z"/>
		</g>
		<g>
			<path class="st13" d="M285.9,341.2c-4.3-0.2-22.7,0.6-17.2,9.2c4.5,7,14.9,2.3,19.1-2.3c2.2-2.4-1.4-5.9-3.5-3.5
				c-1.8,1.9-7.7,6.4-10.4,3.9c-1-0.9,0.5-1,1.4-1.2c1.1-0.3,2.1-0.5,3.2-0.7c2.5-0.4,5-0.5,7.5-0.3
				C289.1,346.4,289.1,341.4,285.9,341.2L285.9,341.2z"/>
		</g>
		<g>
			<path class="st13" d="M246.7,343.3c-2.8-2.9-6.4-4.7-10.5-4.8c-3.1-0.1-7.3,0.9-7.4,4.7c-0.1,4,4.5,6.1,7.6,7.3
				c4.4,1.7,8.9,1.9,13.6,1.3c3.2-0.5,1.8-5.3-1.3-4.8c-4.5,0.7-8.9-0.2-13-2.3c-0.1-0.1-1.8-0.9-1.8-0.9c0-0.4,2.8-0.1,3.1-0.1
				c2.5,0.3,4.5,1.5,6.2,3.3C245.4,349.1,248.9,345.6,246.7,343.3L246.7,343.3z"/>
		</g>
		<g>
			<path class="st13" d="M240.9,324.5c-0.9-8.2-5.5-15.6-12.9-19.4c-6.7-3.5-15.8-3.8-21.7,1.5c-5,4.4-5.9,13.2-0.4,17.6
				c3.6,2.9,9.3,3,13.6,3.7c6.3,1.1,12.5,2.2,18.8,3.3c1.7,0.3,3-0.7,3.2-2.4c0.7-6.5,9.2-10.6,15.2-10.6c0.9-0.3,1.7-0.2,2.5,0.6
				c1.7,0.1,2.1,0.6,1.3,1.6c0,1.3-1.7,2.6-2.6,3.5c-2,2.1-4.3,4-6.4,6c-2.4,2.2,1.2,5.7,3.5,3.5c3.7-3.5,9.4-7.3,10.7-12.6
				c1-4-1.2-7.5-5.4-8c-5-0.6-11.9,1.6-16.2,4.2c-4.4,2.7-7.1,6.6-7.7,11.7c1.1-0.8,2.1-1.6,3.2-2.4c-6.9-1.2-13.8-2.4-20.7-3.7
				c-2.9-0.5-6.9-0.5-9.4-2.2c-3.2-2.1-3.1-6.7-0.7-9.5c4.2-4.9,12.2-4.1,17.2-1.3c5.4,3,9.2,8.6,9.8,14.8
				C236.3,327.7,241.3,327.7,240.9,324.5L240.9,324.5z"/>
		</g>
		<g>
			<path class="st13" d="M386.9,324.9c3.2,0,3.2-5,0-5C383.7,319.9,383.7,324.9,386.9,324.9L386.9,324.9z"/>
		</g>
		<g>
			<path class="st13" d="M387.8,311.9c-6.1-29.2-8.3-59-6.4-88.7c0.9-13.4,1.5-28.1,6.4-40.7c4.5-11.5,14.1-18.4,26-20.8
				c11.1-2.3,22.8-1.2,33.9,0.6c14.4,2.3,28.7,5.2,43,8.1c6.9,1.4,13.5,1.5,17.7,7.7c1.6,2.3,3,4.4,5,6.3c2.5,2.4,5.6,4.3,7.3,7.5
				c3.2,5.8,2.9,13.8,3.5,20.2c0.8,7.9,1.4,15.8,2,23.7c1.3,17.1,2.2,34.2,2.6,51.4c0.2,8.6,0.4,17.2,0.4,25.7
				c0,7.2,1.7,17-2.7,23.2c-1.9,2.6,2.5,5.1,4.3,2.5c3.7-5.2,3.3-11.7,3.4-17.8c0-8.6,0-17.2-0.2-25.7c-0.3-17.2-1.1-34.3-2.3-51.4
				c-0.6-8.6-1.3-17.1-2-25.6c-0.7-7.4-0.9-15.1-2.5-22.4c-1.5-6.8-5.5-10.1-10.3-14.7c-4.1-4-5.9-9.6-11.4-12.1
				c-6.7-3-15.1-3.6-22.3-5c-8.4-1.6-16.8-3.2-25.3-4.8c-12.3-2.2-24.9-4.3-37.4-3.3c-10.8,0.9-21.7,4.2-29.5,12.2
				c-9.1,9.5-11.3,22.8-12.8,35.3c-4.6,36.7-2.9,73.9,4.6,110.1C383.7,316.4,388.5,315.1,387.8,311.9L387.8,311.9z"/>
		</g>
		<g>
			<path class="st13" d="M415.3,278.4c-1.1-11.3-2.4-22.7-3.4-34c-0.8-9-2-21.4,5.8-27.8c7.1-6,20.1-4.3,18.1,7.4
				c-1.8,10.6-14.8,16.7-22.8,22.2c0.8,1.4,1.7,2.9,2.5,4.3c4.5-3.2,10.1-0.4,12.7,3.9c2.6,4.4,3.2,9.7,4.2,14.6
				c1.5,7.2,4.4,14.5,11.4,17.8c2.9,1.3,5.4-3,2.5-4.3c-11.1-5.1-8.3-20.6-13.4-29.9c-3.8-6.9-13-11.5-20-6.5
				c-2.6,1.9-0.2,6.1,2.5,4.3c9.6-6.5,23.5-13.4,25.3-26.2c1.5-10.4-6.9-17.9-17-16c-11.4,2.2-16.6,12.6-17.4,23.3
				c-0.5,7.3,0.6,14.7,1.4,22c0.8,8.3,1.7,16.5,2.5,24.8C410.6,281.6,415.6,281.6,415.3,278.4L415.3,278.4z"/>
		</g>
		<g>
			<path class="st13" d="M462.9,288.2c-5.6-15.6-7.9-31.9-6.9-48.5c0.2-3.2-4.8-3.2-5,0c-1,17,1.4,33.8,7.1,49.8
				C459.2,292.6,464,291.3,462.9,288.2L462.9,288.2z"/>
		</g>
		<g>
			<path class="st13" d="M455.3,220.8c-0.7-0.7-1.4-1.4-2.1-2.1c-0.9-0.9-2.6-1-3.5,0c-0.9,1-1,2.5,0,3.5c0.7,0.7,1.4,1.4,2.1,2.1
				c0.9,0.9,2.6,1,3.5,0C456.3,223.4,456.3,221.8,455.3,220.8L455.3,220.8z"/>
		</g>
		<g>
			<path class="st13" d="M480,293.3c-1.2-13.2-2.5-26.4-3.7-39.6c-0.6-6.4-1.3-12.8-1.8-19.2c-0.4-5.2-0.8-12.8,4.8-15.4
				c4.8-2.3,10.4,1.3,13.4,5.1c3.1,4,3.8,9.3,2.8,14.2c-2,9.7-10.2,17.9-20.2,18.5c-3.2,0.2-3.2,5.2,0,5
				c11.6-0.8,21.3-9.3,24.6-20.4c3.3-11-1.5-24.2-13.3-27.6c-5.1-1.5-10.5-0.1-13.8,4.2c-3.7,4.8-3.6,11.3-3.1,17
				c1.6,19.4,3.7,38.7,5.5,58.1C475.3,296.5,480.3,296.5,480,293.3L480,293.3z"/>
		</g>
		<g>
			<path class="st13" d="M564.5,306.1c-3.4-13.1-0.1-25.4,1.7-38.4c1.5-10.7,0.1-20.3-3.7-30.4c-3.7-9.6-9.1-19.6-8.4-30.3
				c0.7-10.4,8.3-19.6,4.4-30.2c-1.1-3-5.9-1.7-4.8,1.3c3.8,10.4-5,21.2-4.6,31.9c0.4,10.1,5.1,19.3,8.6,28.5
				c2,5.1,3.7,10.3,4.2,15.8c0.5,6.5-0.5,12.9-1.6,19.3c-2,11.5-3.5,22.4-0.6,33.8C560.5,310.5,565.3,309.2,564.5,306.1L564.5,306.1
				z"/>
		</g>
		<g>
			<path class="st13" d="M549.4,173.1c-6.2,1-12.3,2.1-18.5,3.1c0.4,1.6,0.9,3.2,1.3,4.8c6.4-1.7,11.1-10.3,5.8-15.8
				c-4.5-4.6-12.7-2.5-14.6,3.4c-1,3.1,3.8,4.4,4.8,1.3c0.7-2.3,4.5-3.1,6.2-1.2c2.5,2.8-0.9,6.7-3.6,7.4c-3.2,0.9-1.8,5.3,1.3,4.8
				c6.2-1,12.3-2.1,18.5-3.1C553.9,177.4,552.6,172.6,549.4,173.1L549.4,173.1z"/>
		</g>
		<g>
			<path class="st13" d="M517.9,173.6c3.2,0,3.2-5,0-5C514.7,168.6,514.7,173.6,517.9,173.6L517.9,173.6z"/>
		</g>
		<g>
			<path class="st13" d="M533.1,164c1.4,2.9,3.9,4.4,7.1,4.3c1.3,0,2.6-1.1,2.5-2.5c-0.7-12.8-19.8-11.9-28.7-13.8
				c-15.9-3.4-31.2-9.2-47.2-12.4c-29-5.7-58.2,1.3-79.1,22.9c-0.8,0.8-1,2.1-0.4,3c1.9,3.3,5,4.6,8.8,3.8c3.1-0.7,1.8-5.5-1.3-4.8
				c-1-0.5-2.1-1-3.1-1.5c-0.1,1-0.3,2-0.4,3c19.1-19.8,45.8-26.9,72.5-21.9c13.4,2.5,26.3,6.9,39.4,10.4c6.6,1.7,13.2,3.2,19.9,4.2
				c4.4,0.6,14.2,1.1,14.6,7.2c0.8-0.8,1.7-1.7,2.5-2.5c-0.9-0.6-1.9-1.2-2.8-1.8C536,158.6,531.7,161.1,533.1,164L533.1,164z"/>
		</g>
		<g>
			<path class="st13" d="M375,229.9c-0.9-1.2-1.7-2.4-2.6-3.6c-0.9-1.3-2.7-1.8-3.9-0.5c-2.5,2.6-3.4,6.5-2,9.9
				c0.5,1.2,1.7,2.1,3.1,1.7c1.2-0.3,2.3-1.8,1.7-3.1c-0.7-1.8-0.6-3.6,0.8-5c-1.3-0.2-2.6-0.3-3.9-0.5c0.9,1.2,1.7,2.4,2.6,3.6
				c0.8,1.1,2.2,1.6,3.4,0.9C375.2,232.7,375.8,231,375,229.9L375,229.9z"/>
		</g>
		<g>
			<path class="st13" d="M435.4,156c3.6-2.1,7.2-4.3,10.7-6.4c2.8-1.6,0.2-6-2.5-4.3c-3.6,2.1-7.2,4.3-10.7,6.4
				C430.2,153.3,432.7,157.6,435.4,156L435.4,156z"/>
		</g>
		<g>
			<path class="st13" d="M451.2,155.4c0.7,1.4,1.5,2.8,2.2,4.3c0.6,1.2,2.3,1.6,3.4,0.9c1.2-0.7,1.5-2.2,0.9-3.4
				c-0.7-1.4-1.5-2.8-2.2-4.3c-0.6-1.2-2.3-1.6-3.4-0.9C450.9,152.7,450.6,154.2,451.2,155.4L451.2,155.4z"/>
		</g>
		<g>
			<path class="st13" d="M479.3,156.5c3.2,0,3.2-5,0-5C476.1,151.5,476.1,156.5,479.3,156.5L479.3,156.5z"/>
		</g>
		<g>
			<path class="st13" d="M427.1,190.2c-1.4-0.7-2.9-1.4-4.3-2.2c-1.2-0.6-2.7-0.3-3.4,0.9c-0.6,1.1-0.3,2.8,0.9,3.4
				c1.4,0.7,2.9,1.4,4.3,2.2c1.2,0.6,2.7,0.3,3.4-0.9C428.6,192.5,428.3,190.8,427.1,190.2L427.1,190.2z"/>
		</g>
		<g>
			<path class="st13" d="M412.8,192.9c3.2,0,3.2-5,0-5C409.6,187.9,409.6,192.9,412.8,192.9L412.8,192.9z"/>
		</g>
		<g>
			<path class="st13" d="M419.3,183.1c0.7-1.4,1.4-2.9,2.1-4.3c0.6-1.2,0.3-2.7-0.9-3.4c-1.1-0.6-2.8-0.3-3.4,0.9
				c-0.7,1.4-1.4,2.9-2.1,4.3c-0.6,1.2-0.3,2.7,0.9,3.4C417,184.7,418.7,184.3,419.3,183.1L419.3,183.1z"/>
		</g>
		<g>
			<path class="st13" d="M442.9,177.9c3.2,0,3.2-5,0-5C439.6,172.9,439.6,177.9,442.9,177.9L442.9,177.9z"/>
		</g>
		<g>
			<path class="st13" d="M385.6,318.1c3.2,0,3.2-5,0-5C382.4,313.1,382.4,318.1,385.6,318.1L385.6,318.1z"/>
		</g>
		<g>
			<path class="st13" d="M369.9,321.9c0.3-4.5-3.2-8.1-7.5-8.9c-5.5-1.1-10.2,2.6-14.1,5.9c-2.1,1.8,0.3,4.5,2.4,4.2
				c3.5-0.6,7.1-1.1,10.6-1.7c3.1-0.5,7.1-1.8,10.2-1.6c-3.2-0.2-3.2,4.8,0,5c5.1,0.3,6-6.7,1.9-8.9c-2.5-1.3-5.5-0.6-8.1-0.1
				c-5.3,0.8-10.6,1.7-16,2.5c0.8,1.4,1.6,2.8,2.4,4.2c1.9-1.6,4-3.4,6.4-4.1c2.8-0.8,6.9-0.2,6.7,3.6
				C364.8,325.2,369.8,325.1,369.9,321.9L369.9,321.9z"/>
		</g>
		<g>
			<path class="st13" d="M377.9,323.6c-2.5-1.4-3.5-3.6-3.2-6.4c-1.6,0.4-3.1,0.8-4.7,1.3c1.8,4.2,5,14.2,10.7,14.4
				c4.9,0.2,5.4-6.1,9.4-7c-0.8-0.2-1.6-0.4-2.4-0.6c1.3,1.1,2.6,2.3,3.9,3.4c2.4,2.1,6-1.4,3.5-3.5c-1.8-1.6-3.8-4.3-6.4-4.1
				c-1.7,0.2-3.2,1.5-4.3,2.7c-0.7,0.8-1.3,1.7-2,2.5c-1,1.2-0.8,1.6-2.5,0.4c-1.2-0.9-2.3-3.9-3-5.3c-0.9-1.8-1.8-3.6-2.6-5.5
				c-1.1-2.5-4.4-0.9-4.7,1.3c-0.4,4.5,1.7,8.5,5.7,10.7C378.2,329.5,380.7,325.2,377.9,323.6L377.9,323.6z"/>
		</g>
		<g>
			<path class="st13" d="M400.5,326.3c-0.8-5.9-4.3-10.9-9.3-14c-0.6,1.5-1.3,3-1.9,4.6c2.5,0.9,4.8,2.4,6.8,4.3
				c1.5,1.5,2.4,3.4,3.9,5c2.2,2.5,7.1,2.6,7.7-1.4c0.5-3.1-4.3-4.5-4.8-1.3c0.2-1.4,0.6-0.9-0.2-2c-0.4-0.6-0.8-1.1-1.2-1.6
				c-1-1.2-2-2.4-3.2-3.4c-2.3-1.9-4.8-3.3-7.6-4.3c-2.7-1-4.2,3.1-1.9,4.6c4,2.5,6.3,6.4,7,11C396.1,330.8,400.9,329.5,400.5,326.3
				L400.5,326.3z"/>
		</g>
		<g>
			<path class="st13" d="M440.6,327c3.2,0,3.2-5,0-5C437.4,322,437.4,327,440.6,327L440.6,327z"/>
		</g>
		<g>
			<path class="st13" d="M531.1,340.1c-3.8-13.7-7.5-27.4-11.3-41.1c-1.5,0.6-3,1.3-4.6,1.9c6.8,13,13.3,26.1,20.3,38.9
				c1.4,2.5,4.2,6.3,7.1,2.9c1.3-1.5,1.3-4,1.6-5.8c0.7-3.8,1.4-7.6,2.1-11.4c-1.6,0-3.2,0-4.8,0c1.8,5.4,3.7,10.7,5.5,16.1
				c0.7,2.1,3.3,2.4,4.6,0.6c3.7-5.2,7.4-10.4,11.1-15.6c-0.9,0.4-1.9,0.8-2.8,1.1c0.5,0.2-0.8,5.6-0.8,6.3c-0.2,1.9-0.1,4,1.2,5.5
				c3.7,4.2,13.1,0.2,17.1-1.5c3.1-1.3,4.9-3.4,8.7-2.5c1.7,0.4,3.4,1.6,5.1,2.2c3.3,1.1,6.8,1.6,10.2,1.7
				c8.6,0.3,17.2-1.9,25.4-4.1c3.1-0.8,1.8-5.7-1.3-4.8c-8.3,2.2-17,4.5-25.7,3.8c-4.6-0.3-8.2-2-12.5-3.8c-2.4-1-4.3-1-6.7,0.1
				c-4.1,1.9-7.3,3.8-11.8,4.9c-1.8,0.4-4.2,1.6-4.7-0.6c-0.2-0.8,0.3-2.2,0.5-3c0.6-3.8,0.9-7.5-3.2-9c-1.1-0.4-2.2,0.3-2.8,1.1
				c-3.7,5.2-7.4,10.4-11.1,15.6c1.5,0.2,3,0.4,4.6,0.6c-1.8-5.4-3.7-10.7-5.5-16.1c-0.7-2.1-4.3-2.6-4.8,0
				c-0.5,2.8-1.1,5.7-1.6,8.5c-0.3,1.6-0.3,6-1.6,7.1c0.8-0.2,1.6-0.4,2.4-0.6c-1.5-0.5-3.9-7.4-4.7-8.9c-1.8-3.5-3.7-7.1-5.5-10.6
				c-3.7-7.1-7.4-14.2-11.1-21.2c-1.3-2.5-5.3-0.8-4.6,1.9c3.8,13.7,7.5,27.4,11.3,41.1C527.1,344.5,531.9,343.2,531.1,340.1
				L531.1,340.1z"/>
		</g>
		<g>
			<path class="st13" d="M234.7,243.5c-0.4-3.7-0.7-7.3-1.1-11c-0.8,0.8-1.7,1.7-2.5,2.5c2.2-0.3,4.5-0.6,6.7-0.9
				c1.3-0.2,2.6-1,2.5-2.5c-1.1-13.9-2.2-27.8-3.3-41.8c-0.5-6.5-1.6-13.2-1.5-19.7c0.1-7.8,5.1-9,11.6-9.1
				c8.6-0.1,15.7-0.3,20.1-8.7c2.8-5.3,6.2-6.9,11.4-9.3c3.6-1.7,6.8-3.7,8.7-7.3c1.5-2.8-2.8-5.4-4.3-2.5
				c-2.4,4.5-7.7,5.5-11.8,7.7c-4.4,2.3-6.3,5.3-8.6,9.5c-5.2,9.5-17.5,3-25.8,7.2c-10,5.1-5.8,20.4-5.1,29.1
				c1.2,14.9,2.4,29.8,3.6,44.7c0.8-0.8,1.7-1.7,2.5-2.5c-2.2,0.3-4.5,0.6-6.7,0.9c-1.2,0.2-2.6,1-2.5,2.5c0.4,3.7,0.7,7.3,1.1,11
				C230.1,246.7,235.1,246.7,234.7,243.5L234.7,243.5z"/>
		</g>
		<g>
			<path class="st13" d="M182,215.5c-4.3,4.8-5.8,11.3-3.7,17.4c1,3,5.9,1.7,4.8-1.3c-1.5-4.4-0.7-9,2.4-12.6
				C187.7,216.7,184.2,213.1,182,215.5L182,215.5z"/>
		</g>
		<g>
			<path class="st13" d="M268,75.9c-3.8-8.1-10.2-20.1-19.2-23.5c-8-3-13.2,4.4-10.5,11.7c1.4,3.9,4.6,6.4,7.4,9.4
				c5.4,5.8,2.7,11.1-2.1,16.1c-7.8,8-14.4,15.2-18.6,25.8c1.6,0.2,3.3,0.4,4.9,0.7c-0.1-9-0.1-18-0.2-27c0-7.1,0.7-14.7-0.5-21.7
				c-2.2-12.8-16.5-13.7-26.2-8.5c-4,2.1-7,6.5-4.1,10.8c1.4,2.1,3.8,3.1,5.9,4.4c3.3,2.2,4.8,5.2,5.3,9c1.6,11.4-5,25.5,5.5,34.2
				c2.5,2,6-1.5,3.5-3.5c-8.2-6.8-3.4-19.2-3.8-28.3c-0.2-3.8-0.9-7.7-2.9-10.9c-1-1.6-2.3-2.9-3.8-4c-0.8-0.6-1.6-1-2.4-1.5
				c-2-1.2-2.8-0.9-1.9-3.6c1.5-4.4,10.8-5.7,14.9-4.1c6.4,2.5,5.5,10.6,5.5,16.2c0.1,12.8,0.2,25.7,0.2,38.5c0,3,3.9,3.2,4.9,0.7
				c3.6-9,9.4-15.8,16.3-22.5c4.7-4.6,9.6-10.5,7.5-17.6c-0.9-3-3.1-5.5-5.3-7.7c-1.4-1.4-2.9-2.6-4-4.2c-0.7-1-1.3-2-1.5-3.2
				c-0.5-2.2-0.4-2.7,1.7-3.8c7.4-3.8,16.8,15.3,19.4,20.7C265.1,81.3,269.4,78.8,268,75.9L268,75.9z"/>
		</g>
		<g>
			<path class="st13" d="M231.8,130.2c-7,5-11.9,12.1-13.5,20.6c-0.6,3.1,4.2,4.5,4.8,1.3c1.4-7.2,5.2-13.4,11.2-17.6
				C236.9,132.7,234.4,128.4,231.8,130.2L231.8,130.2z"/>
		</g>
		<g>
			<path class="st13" d="M248.2,156c-0.6-1.9-1.1-3.8-1.8-5.7c-0.5-1.5-2.1-4.1-2-5.6c0.1-1.2,0-1,1.3-0.1c0.7,0.5,1.2,1.2,1.9,1.7
				c1,0.8,2.1,1.5,3.3,1.8c2.3,0.6,4.5-0.2,5.8-2.1c1.1-1.6,0.7-2.9,0.6-0.5c-0.1,2.2,0.3,4.4,0.4,6.6c0.2,3.2,5.2,3.2,5,0
				c-0.2-3.8,0.7-11-3.8-12.7c-1.6-0.6-3.4-0.3-4.6,0.9c-0.6,0.6-1.1,2.6-1.6,2.8c-1.1,0.5-3-1.8-3.8-2.4c-2.6-2.2-7.2-3.1-9.2,0.5
				c-1.3,2.2-0.1,4.5,0.7,6.7c1.2,3.1,2.2,6.2,3.1,9.4C244.2,160.4,249.1,159.1,248.2,156L248.2,156z"/>
		</g>
		<g>
			<path class="st13" d="M209.5,181.4c-0.2,6.5-0.4,13-0.7,19.5c-0.1,3.2,4.9,3.2,5,0c0.2-6.5,0.4-13,0.7-19.5
				C214.6,178.2,209.6,178.2,209.5,181.4L209.5,181.4z"/>
		</g>
		<g>
			<path class="st13" d="M199.2,192.8c-0.5,2.8-0.5,5.5,0.2,8.2c0.8,3.1,5.6,1.8,4.8-1.3c-0.5-1.8-0.5-3.7-0.2-5.5
				c0.3-1.3-0.4-2.7-1.7-3.1C201,190.7,199.4,191.5,199.2,192.8L199.2,192.8z"/>
		</g>
		<g>
			<path class="st13" d="M202,159.6c0,0.6,0,1.1,0,1.7c0,1.3,1.1,2.6,2.5,2.5c1.4-0.1,2.5-1.1,2.5-2.5c0-0.6,0-1.1,0-1.7
				c0-1.3-1.1-2.6-2.5-2.5C203.2,157.2,202,158.2,202,159.6L202,159.6z"/>
		</g>
		<g>
			<path class="st13" d="M271.1,28.3c0.5-4.6,0.5-14.6-5.9-15.4c-2.5-0.3-4.8,1.3-5.8,3.6c-1.1,2.8,0.1,5.5,1.8,7.8
				c2,2.5,5.5-1,3.5-3.5c-0.4-0.5-1.7-3.1,0-2.7c0.6,0.2,0.9,2,1,2.5c0.6,2.5,0.6,5.1,0.3,7.7C265.7,31.5,270.7,31.5,271.1,28.3
				L271.1,28.3z"/>
		</g>
		<g>
			<path class="st13" d="M230.5,3.4c-2.9-3.3-7.9-4.5-11.9-2.4c-4.7,2.5-4.4,8.1-0.5,11.2c3.5,2.8,9.8,4.1,13.6,1
				c3.3-2.7,2-9.3-2.9-8.7c-3.2,0.4-3.2,5.4,0,5c-1.6,0.2-3,0.6-4.7,0.2c-1.3-0.3-3.9-1.3-4-3c0-1.4,1.9-1.8,3.1-1.8
				c1.5,0.1,2.7,0.8,3.7,2C229.1,9.4,232.6,5.8,230.5,3.4L230.5,3.4z"/>
		</g>
		<g>
			<path class="st13" d="M188.3,27.5c-1.7-2.5-3.8-5-7.1-4.9c-3,0.1-5.7,2.8-4.9,5.9c0.9,3.4,4.6,4.4,7.7,4c2.7-0.4,6.6-3.1,4.3-6.2
				c-0.8-1.1-2.2-1.6-3.4-0.9c-1.1,0.6-1.7,2.3-0.9,3.4c0.5-1.2,0.5-1.6,0-1.4c-0.1,0.1-0.3,0.1-0.5,0.1c-0.4,0.1-1,0.1-1.4,0.1
				c-0.1,0-0.8-0.3-0.8-0.3c0.2,0-1.1-0.3-0.2,0.3c0.2,0.1,0.8,0,1.1,0.2c0.8,0.5,1.3,1.4,1.8,2.1C185.8,32.7,190.2,30.2,188.3,27.5
				L188.3,27.5z"/>
		</g>
		<g>
			<path class="st13" d="M227.4,35.7c-0.2-2.9-2.6-4.9-5.5-4.7c-3.1,0.2-5.1,3.2-4.9,6.1c0.2,3.1,2.3,6,5.4,6.8
				c3.4,0.8,6.9-1.7,6.8-5.3c-0.1-3.2-5.1-3.2-5,0c0.1,1.4-2.1-0.5-2.2-1.5c0-0.2-0.1-1,0.1-1.1c-0.1,0,0.3-0.1,0.3-0.1
				c0.4-0.4,0.1,1,0-0.3C222.5,38.9,227.5,38.9,227.4,35.7L227.4,35.7z"/>
		</g>
		<g>
			<path class="st13" d="M326.4,99.9c8.3,6.7,7.7,17.5,6.9,27.1c-0.3,3.2,4.7,3.2,5,0c0.9-10.9,1-23.2-8.4-30.7
				C327.4,94.4,323.9,97.9,326.4,99.9L326.4,99.9z"/>
		</g>
		<g>
			<path class="st13" d="M343.3,108.3c1.7,5,2.1,10.1,1.1,15.3c-0.6,3.1,4.2,4.5,4.8,1.3c1.2-6.1,0.9-12.1-1.1-18
				C347.1,103.9,342.3,105.2,343.3,108.3L343.3,108.3z"/>
		</g>
		<g>
			<path class="st13" d="M273.1,253.8c1.3-6.3,2.7-12.6,4-18.9c1-4.5,3.4-4.2,7.4-4.2c1.3,0,9.6-0.9,10.2,0c0.4,0.6-1,3.4-1.3,3.8
				c-1.1,1.8-1.9,1.9-3.6,2.8c-2.1,1.2-4.1,2.9-6,4.5c-5.2,4.2-10.1,8.7-14.8,13.5c-2.3,2.3,1.3,5.8,3.5,3.5
				c3.6-3.7,7.3-7.2,11.3-10.6c3.7-3.2,7.6-5.5,11.7-8.1c3.6-2.3,6.3-11.1,1.7-13.8c-2.8-1.6-7.8-0.6-10.9-0.6
				c-3.4,0-8.5-1-11.4,1.3c-2.6,2-2.7,6.3-3.3,9.3c-1.2,5.4-2.3,10.8-3.5,16.2C267.7,255.7,272.5,257,273.1,253.8L273.1,253.8z"/>
		</g>
		<g>
			<path class="st13" d="M308.5,248.5c3-1.9,6.1-3.9,9.1-5.8c0.6-0.4,1.2-0.8,1.8-1.2c0.8-1,1.4-1.1,2-0.1c1.1,0.6,2.4,3.2,3.2,4.3
				c0.5-1.2,1-2.4,1.5-3.7c-5.1,1.4-10.3,2.5-15.6,3.2c-3.2,0.4-3.2,5.4,0,5c5.7-0.7,11.3-1.8,16.9-3.3c1.4-0.4,2.5-2.3,1.5-3.7
				c-2.1-2.8-4.6-8.5-8.9-7.6c-2.2,0.5-4.3,2.4-6.2,3.5c-2.6,1.7-5.3,3.4-7.9,5C303.3,245.9,305.8,250.2,308.5,248.5L308.5,248.5z"
				/>
		</g>
		<g>
			<path class="st13" d="M158.1,236.9c-0.9-1.4-1.8-2.8-2.7-4.2c-0.7-1.1-1.9-2.4-2.2-3.7c-0.1,0.6-0.2,1.3-0.3,1.9
				c0.2-0.5,2.6-3.3,3.3-3.3c-0.6-0.2-1.2-0.5-1.8-0.7c0.9,1,0.5,4.9,0.5,6.3c0,2.5-0.3,4.9-0.7,7.3c-0.6,3.1,4.2,4.5,4.8,1.3
				c0.7-3.5,3.3-20.8-4-19.1c-2.2,0.5-6.2,4-6.7,6.3c-0.3,1.6,0.5,2.8,1.3,4.1c1.3,2.1,2.7,4.2,4,6.3
				C155.4,242.1,159.8,239.6,158.1,236.9L158.1,236.9z"/>
		</g>
		<g>
			<path class="st13" d="M149.9,198.4c2.3-2.2,1.9-6.3-0.8-8c-2.9-1.9-6.9-0.1-7.8,3.1c-1,3.4,2,6.9,5.5,6.9c3.8,0,5.9-3.8,5.4-7.1
				c-0.2-1.3-1.9-2.1-3.1-1.7c-1.4,0.4-2,1.7-1.7,3.1c0.2,1-1.4,0.9-1.2,0.3c-0.1,0.2,0.3-0.3,0.1-0.2c0,0,0.4-0.2,0.2-0.1
				c0,0-0.2-0.1-0.1-0.1c0,0,0.1-0.2,0.1,0.1c0-0.3,0.1,0.3,0,0.1c0,0-0.1,0.3,0,0.1c0.1-0.1,0.3-0.3-0.1,0
				C144,197.1,147.6,200.6,149.9,198.4L149.9,198.4z"/>
		</g>
		<g>
			<path class="st13" d="M109.9,162.4c-0.7-4-6.1-4.9-8.6-2.2c-3.1,3.3-1,8.1,2.3,10.3c3,2,8.2,2.9,10.4-0.8
				c2.5-4.3-1.3-8.1-4.7-10.1c-2.8-1.7-5.3,2.7-2.5,4.3c0.8,0.5,3.1,1.6,3,2.8c-0.1,1-1.8,0.3-2.4,0.1c-1-0.4-2.4-1.2-2.5-2.4
				c0-0.3,0.1-0.7,0.1-0.9c0-0.1,0.3,0,0.3,0.1c-0.1,0.1-0.3-0.8-0.1,0.1C105.7,166.9,110.5,165.6,109.9,162.4L109.9,162.4z"/>
		</g>
		<g>
			<path class="st13" d="M141.8,149.1c-2.1-3-4.9-5.9-8.9-5c-3.9,0.8-5.3,5.2-3,8.3c2.1,2.8,6.6,4.4,9.8,2.7
				c3.2-1.7,3.7-6.2,0.6-8.3c-2.7-1.8-5.2,2.5-2.5,4.3c-0.3-0.2-0.3-0.3-0.4-0.3c-0.1,0-0.7,0-1,0c-0.7-0.1-2.6-0.7-2.7-1.6
				c0-0.1-0.2,0.1,0.1-0.1c0.3-0.2,0.7-0.1,0.9,0c1.2,0.3,2.1,1.7,2.8,2.6c0.8,1.1,2.2,1.6,3.4,0.9
				C142,151.9,142.6,150.2,141.8,149.1L141.8,149.1z"/>
		</g>
		<g>
			<path class="st13" d="M193.3,98.5c-1.6,1.5-3.1,3.1-4.8,4.4c-1.1,0.9-3.7,2.4-5.2,1.2c-1.2-0.9-1-3.6-0.5-4.8
				c1.5-4.3,6.6-9.4,10.8-11.1c1.5-0.6,0.8-1,2.1-0.4c0.8,0.4,2,2.4,2.5,3c1.5,1.9,2.9,3.9,4.2,6c2.8,4.4,5,9,6.9,13.9
				c1.1,3,6,1.7,4.8-1.3c-3.3-8.7-7.8-16.7-13.7-23.9c-1.9-2.3-3.5-4-6.5-3c-3.6,1.1-7.4,4.2-10,6.9c-4.2,4.3-8.9,11.5-4.6,17.3
				c5.5,7.4,13.4-0.6,17.8-4.7C199.2,99.8,195.7,96.3,193.3,98.5L193.3,98.5z"/>
		</g>
		<g>
			<path class="st13" d="M184.3,142.3c2.7,1.4,6,0.9,6.6,4.5c0.6,3.5-0.2,7.9-0.3,11.4c-0.2,7.5-0.3,14.9-0.9,22.4
				c-0.6,7.8-2.1,15.3-4.8,22.7c-1.7,4.8-2.2,10.1,3.5,12c-0.4-1.4-0.7-2.8-1.1-4.2c-2,1.9-4,3.8-6,5.7c-2.3,2.2,1.2,5.8,3.5,3.5
				c2-1.9,4-3.8,6-5.7c1.4-1.4,0.6-3.6-1.1-4.2c-2.6-0.8,1.7-10.9,2.1-12.6c0.9-3.4,1.5-6.9,2-10.4c1-7,1.2-14.1,1.4-21.1
				c0.2-6.7,1.3-14.1,0.5-20.7c-0.7-6-4.6-5.3-9-7.6C184,136.4,181.5,140.7,184.3,142.3L184.3,142.3z"/>
		</g>
		<g>
			<path class="st13" d="M234.4,209.7c-1.9-1.1-5.8-1.9-5.5-4.8c0.1-1.3,2-2.8,2.2-4.4c0.1-1.1,0-1.5-0.4-2.6
				c-0.7-1.7-0.7-0.9-0.3-2.5c0.6-2.4,1.7-3.2,0.7-5.8c-0.5-1.2-1.8-2.1-2.2-3.1c-1.6-0.5-1.5-1,0.2-1.5c0.9-0.6,1.7-1.2,2.6-1.8
				c2.7-1.8,0.2-6.1-2.5-4.3c-2.6,1.8-7.4,3.8-6.2,7.8c0.6,2,3.8,3.7,3.3,6c-0.3,1.4-2.1,1.8-2.1,3.7c0,1.7,1.4,2.5,1.4,4.1
				c0,2-2.3,3.5-2.3,5.9c0,5,5.4,6,8.8,7.9C234.7,215.6,237.3,211.3,234.4,209.7L234.4,209.7z"/>
		</g>
		<g>
			<path class="st13" d="M245.3,51.7c-1.1-1.1-2.3-2.3-3.4-3.4c-0.9-0.9-2.6-1-3.5,0c-0.9,1-1,2.5,0,3.5c1.1,1.1,2.3,2.3,3.4,3.4
				c0.9,0.9,2.6,1,3.5,0C246.2,54.3,246.3,52.7,245.3,51.7L245.3,51.7z"/>
		</g>
		<g>
			<path class="st13" d="M199.7,61.5c-2.6,1.3-4.8,3.3-6.5,5.7c-0.8,1.1-0.2,2.8,0.9,3.4c1.2,0.7,2.6,0.2,3.4-0.9
				c1.2-1.7,2.8-3,4.7-3.9c1.2-0.6,1.5-2.3,0.9-3.4C202.4,61.1,200.9,60.9,199.7,61.5L199.7,61.5z"/>
		</g>
		<g>
			<path class="st13" d="M127.4,310.3c-3.8-1.5-7.5-3-11.3-4.5c-2.5-1-5.2-2.1-7.9-1.5c-5.3,1.3-5.4,7.8-3.9,12.1
				c2.4,6.5,10.1,3.9,15.1,3c4.4-0.8,10.3-3.1,8.8-8.6c-0.8-3.1-5.6-1.8-4.8,1.3c0.5,2-6.6,2.7-7.6,2.9c-2.2,0.4-5.4,1.7-7-1
				c-0.4-0.7-0.7-3.4-0.3-3.9c1.6-2.2,5.9,0.4,7.7,1.2c3.3,1.3,6.6,2.6,9.9,3.9C129,316.3,130.3,311.5,127.4,310.3L127.4,310.3z"/>
		</g>
		<g>
			<path class="st13" d="M141.7,311.9c-3.7,3-7.1,6.3-10.3,9.9c-1.1,1.2-1,3.1,0.5,3.9c5.2,3.1,12.9,3.9,16.6-2
				c3-4.8-0.3-11.5-6.1-11.5c-3.2,0-3.2,5,0,5c3.3,0,2.5,3.9,0.5,5.2c-2.7,1.7-6,0.4-8.4-1c0.2,1.3,0.3,2.6,0.5,3.9
				c3.2-3.6,6.6-6.9,10.3-9.9C147.8,313.4,144.2,309.9,141.7,311.9L141.7,311.9z"/>
		</g>
		<g>
			<path class="st13" d="M105.9,341.7c-6.6,1.1-12.2,4.1-16.9,8.9c-1.1,1.1-0.9,3.1,0.5,3.9c5.5,3.1,12,6.3,18.2,3.3
				c2.2-1.1,3.8-2.8,4.9-5c1.1-2.3,1.4-7.4,4-8.5c-0.8-1.4-1.6-2.8-2.4-4.2c-0.4,0.3-0.8,0.7-1.2,1c-2.5,2.1,1.1,5.6,3.5,3.5
				c0.4-0.3,0.8-0.7,1.2-1c1.9-1.6-0.1-5.1-2.4-4.2c-3.8,1.5-4.8,4.4-6.1,8c-1.1,3.4-2.3,5.9-6.3,6.4c-3.9,0.5-7.8-2-11-3.8
				c0.2,1.3,0.3,2.6,0.5,3.9c4.1-4.2,8.9-6.7,14.7-7.6C110.4,345.9,109.1,341.1,105.9,341.7L105.9,341.7z"/>
		</g>
		<g>
			<path class="st13" d="M150.8,332.7c-2.9,1.1-6.2,2.6-7.2,5.8c-0.9,2.8,0.2,6.2,3,7.4c3.3,1.3,6.4-1.5,8.3-3.9
				c2.3-3,3.4-6.6,4.5-10.1c0.5-1.6-0.8-3.1-2.4-3.2c-1.8-0.1-3.5-0.2-5.3-0.2c-3.2-0.1-3.2,4.9,0,5c1.8,0.1,3.5,0.2,5.3,0.2
				c-0.8-1.1-1.6-2.1-2.4-3.2c-1,3.2-1.9,6.6-4.2,9.1c-0.6,0.6-2.6,2.7-2.1,0.5c0.3-1.4,2.7-2.1,3.8-2.6
				C155,336.3,153.8,331.5,150.8,332.7L150.8,332.7z"/>
		</g>
		<g>
			<path class="st13" d="M97.8,314.9c-11-5.6-20.4,4.2-31.4,2.3c0.4,1.4,0.7,2.8,1.1,4.2c0.8-0.3,1.7-0.5,2.5-0.8
				c3.1,0.5,4.5-4.3,1.3-4.8c-3-0.5-5.1,0.1-7.4,2.1c-1.3,1.2-0.7,3.9,1.1,4.2c4.7,0.8,8.9,0.1,13.4-1.4c5.4-1.7,11.3-4.3,16.8-1.5
				C98.1,320.6,100.6,316.3,97.8,314.9L97.8,314.9z"/>
		</g>
		<g>
			<path class="st13" d="M92.4,310.2c-3.9-3.6-8.4-6.1-13.4-7.5c-1.8-0.5-3.6,1.2-3.1,3.1c1.8,6.1,7.7,10.4,14.1,9.7
				c3.2-0.3,3.2-5.3,0-5c-4.2,0.4-8.1-1.9-9.3-6c-1,1-2.1,2.1-3.1,3.1c4.2,1.2,8,3.3,11.2,6.3C91.2,315.9,94.7,312.4,92.4,310.2
				L92.4,310.2z"/>
		</g>
		<g>
			<path class="st13" d="M99.7,314.7c0.5-1.1,1-2.4,2-3.2c0.3-0.3,1.1-0.7,1.3-0.2c0.2,0.6-0.5,1.3-0.9,1.6c-1.1,0.7-2.5,0.9-3.7,1
				c-1.3,0.2-2.5,1-2.5,2.5c0,1.2,1.2,2.7,2.5,2.5c2.7-0.3,5.5-0.7,7.6-2.7c1.9-1.8,2.6-4.8,1.5-7.1c-1.2-2.5-4-3.4-6.5-2.7
				c-2.8,0.8-4.3,3.3-5.5,5.8c-0.6,1.2-0.3,2.7,0.9,3.4C97.3,316.2,99.1,315.9,99.7,314.7L99.7,314.7z"/>
		</g>
		<g>
			<path class="st13" d="M186.8,109.4c1.8,2,3.5,4,5.3,6c0.5,0.6,5.4,5.8,5.5,5.5c0,0.1-15.1-3.2-16.6-3.4
				c-8.9-1.4-14.7,1.3-18.7,9.3c-1.3,2.7-4.8,7.2-4.1,10.4c0.5,2.6,4.5,5.2,6.7,6.3c2.8,1.3,5.4,0.3,7.4-1.9c1.8-2,2.8-4.1,5.6-4.9
				c2.7-0.8,5.8-0.2,8.5,0.3c-0.5-1.2-1-2.4-1.5-3.7c-1.2,2-2.7,2.2-2.5,4.7c0.1,0.8,0.4,1.8,1.2,2.2c2,0.9,4,1.1,6.2,1.2
				c3.2,0.2,3.2-4.8,0-5c-1.2,0-2.5-0.2-3.7-0.6c0.4,0.7,0.8,1.4,1.2,2.2c0-0.2,1.7-2,1.8-2.2c0.8-1.3,0.1-3.4-1.5-3.7
				c-7.1-1.2-12.4-1.1-17.6,4c-1.2,1.1-0.6,1.5-2.5,1.9c-1.1,0.2-3.1-0.1-3.6-1.4c-0.9-2,1.8-5.6,2.6-7.4c1.2-2.3,2.4-5,4.8-6.3
				c2.7-1.5,6.2-1,9.1-0.6c5,0.8,9.9,2.1,14.9,3.1c2.3,0.4,5.1,0.9,6.6-1.4c1.3-2.1,0.1-4.4-1.2-6.1c-3.1-4.3-6.8-8.2-10.3-12.1
				C188.2,103.5,184.7,107.1,186.8,109.4L186.8,109.4z"/>
		</g>
		<g>
			<path class="st13" d="M263.4,80c1.9,2.8,4.2,5.8,2.6,9.5c-0.6,1.5-2,2.7-3,3.9c-2.2,2.7-4.3,5.4-6.2,8.3
				c-3.9,6.1-6.8,12.9-8.8,19.9c-0.9,3.1,4,4.4,4.8,1.3c2.7-9.6,7.3-18.3,13.7-26c2-2.4,4.3-4.8,4.9-8.1c0.8-4.2-1.5-8-3.8-11.4
				C265.9,74.9,261.5,77.4,263.4,80L263.4,80z"/>
		</g>
		<g>
			<path class="st13" d="M287.6,136.1c4-9.1,11.4-13.5,20.9-15.1c4.6-0.8,9-5.9,3.8-9.4c-2.7-1.8-5.2,2.5-2.5,4.3
				c-1.3-0.9-7.5,1.1-9,1.5c-2.7,0.9-5.2,2.2-7.5,3.8c-4.5,3.1-7.9,7.3-10.1,12.3C282,136.5,286.3,139,287.6,136.1L287.6,136.1z"/>
		</g>
		<g>
			<path class="st13" d="M313.4,112c-8-7.5-20.6-12.9-30.4-5.2c-5.6,4.4-6.3,11.5-14.6,11.9c-7.7,0.3-14.4,1-21.5,4
				c-2.9,1.2-1.6,6.1,1.3,4.8c6.6-2.8,13.1-3.7,20.2-3.8c4.9-0.1,8.4-1.3,11.5-5.1c3.6-4.3,5.6-9.1,11.7-10.3
				c7-1.3,13.4,2.7,18.2,7.2C312.3,117.7,315.8,114.2,313.4,112L313.4,112z"/>
		</g>
		<g>
			<path class="st13" d="M306.5,111.4c-1.5,1.8-4.7,1.1-6.8,1.2c-2.6,0.2-4.9,1-6.2,3.4c-1.5,2.8,2.8,5.4,4.3,2.5
				c0.9-1.7,4.3-1,5.9-1.1c2.4-0.1,4.8-0.7,6.4-2.6C312,112.5,308.5,109,306.5,111.4L306.5,111.4z"/>
		</g>
		<g>
			<path class="st13" d="M145.3,80.9c-7.8,6.5-12,16.2-11.3,26.3c0.2,3.2,5.2,3.2,5,0c-0.6-9,2.9-17,9.8-22.8
				C151.3,82.4,147.7,78.8,145.3,80.9L145.3,80.9z"/>
		</g>
		<g>
			<path class="st13" d="M129.3,80.7c-3,3.5-4.7,7.7-4.9,12.3c-0.2,3.2,4.8,3.2,5,0c0.2-3.3,1.3-6.3,3.4-8.8
				C134.9,81.8,131.4,78.2,129.3,80.7L129.3,80.7z"/>
		</g>
		<g>
			<path class="st13" d="M313.9,220.3c2.3-4.5,4.5-9,6.8-13.5c1.1-2.1,2-4.8,4.8-4.1c1.8,0.5,4.3,3.2,5.2,4.7
				c0.6,0.9,0.5,0.7,0.6,0.7c-0.6,0.4-1.8,0.2-2.6,0.3c-2,0.3-4,0.7-6,1.3c-4.1,1.3-7.9,3.2-11.5,5.6c-2.6,1.8-0.1,6.1,2.5,4.3
				c3.4-2.3,7-4.2,11-5.3c2.9-0.8,6.7-0.5,9.4-2c4.5-2.5,1.3-7.3-1.2-10c-3-3.3-8.4-7.3-12.7-4.1c-2.2,1.6-3.2,4.5-4.4,6.8
				c-2.1,4.2-4.3,8.5-6.4,12.7C308.1,220.6,312.4,223.2,313.9,220.3L313.9,220.3z"/>
		</g>
		<g>
			<path class="st13" d="M178,234.6c2,4.4,3.6,10.2,7.4,13.4c0-1.2,0-2.4,0-3.5c-2.9,2.6-2.9,5.5-1.6,8.9c0.9,2.4,0.3,2.9-1.2,5
				c-1.5,2.1-2.6,4.5-3.5,6.9c-1.9,5.3-3.2,10.9-4.6,16.3c-1.4,5.6-2.3,11.2-0.3,16.7c1.1,3,5.9,1.7,4.8-1.3
				c-3.1-8.7,1.5-20.4,4.3-28.9c0.8-2.3,1.6-4.6,3-6.6c1-1.5,2.8-2.8,3.5-4.6c0.4-1,0.6-2.1,0.3-3.1c-0.4-1.6-3.7-3.8-1.3-5.8
				c1-0.8,1-2.7,0-3.5c-3.4-2.8-4.8-8.4-6.6-12.4C181,229.1,176.7,231.7,178,234.6L178,234.6z"/>
		</g>
		<g>
			<path class="st13" d="M229.2,244.9c0,2.3,0.8,3.4,2.2,5.2c1.1,1.5,2.1,2.5,2.6,4.4c0.3,1.1,0.3,2.1,0.8,3.2
				c0.8,1.6,2.3,1.8,3.2,2.9c1.6,2-1.5,5-1.4,7.7c0.2,2.6,1.7,3.3,3.3,5.2c2,2.4,1.5,5.7,2.7,8.5c1.5,3.5,1.5,7,2,10.8
				c0.5,3.9,1.6,7.6,3,11.3c1.2,3,6,1.7,4.8-1.3c-1.6-4.1-2.8-8.3-3.1-12.7c-0.2-2.8-0.1-5.3-1.1-8c-0.7-2-1.5-3.4-1.8-5.6
				c-0.2-1.2-0.3-2.3-0.8-3.4c-1.1-2.7-4.2-3.7-3.4-7c0.8-3.3,3.4-6.6-0.2-9.4c-0.7-0.5-2.3-0.7-2.8-1.3c-0.6-0.7-0.4-2.4-0.7-3.4
				c-0.7-2.2-4.4-5.1-4.4-7.1C234.3,241.6,229.3,241.6,229.2,244.9L229.2,244.9z"/>
		</g>
		<g>
			<path class="st13" d="M181,240.3c3,2.5,6,3.7,9.9,4c2.9,0.2,1.4,0.3,2,2.6c0.3,1.2,1,2.1,2.1,2.8c0.5,0.3,2.9,1,2.8,0.8
				c0.1,0.2-1.3,3.2-1.2,3.9c0.1,1.3,0.6,2.3,1.4,3.3c0.4,0.6,1.9,1.3,2,1.9c0.3,1.4-3,1-4.3,0.5c-1.1-0.5-2.2,0.3-2.8,1.1
				c-1.1,1.5-0.4,4.2-2.1,5c-1.3,0.7-3.6-0.2-5.1,0.5c-4,1.8-4.8,8.3-6.2,12c-1.1,3,3.7,4.3,4.8,1.3c0.8-2.1,1.4-6.3,2.9-7.9
				c1.5-1.6,3.8-0.5,5.7-1c1.3-0.3,2.3-0.9,3.1-2.1c1-1.5,0.2-4,1.2-5.2c-0.9,0.4-1.9,0.8-2.8,1.1c4,1.7,10.4,2.1,11.3-3.6
				c0.3-1.9-0.5-3.4-1.7-4.8c-1.2-1.3-1.9-1.4-1.8-3.4c0-1,0.9-1.8,0.8-2.9c-0.1-1.8-1-2.9-2.6-3.8c-0.3-0.2-2.9-1.1-2.5-0.4
				c0,0,0.4-2.2,0.4-2.3c-0.2-1.6-1.3-3-2.8-3.7c-3.7-1.8-7.4-0.1-11-3.1C182.1,234.7,178.5,238.3,181,240.3L181,240.3z"/>
		</g>
		<g>
			<path class="st13" d="M188.1,258.6c-3.5,3-5.8,6.7-7.2,11c-0.9,2.7,3.2,4.4,4.6,1.9c2-3.7,6.1-8.6,6.2-13.1
				c0.1-4.6-2.6-9.9-4-14.3c-1.5,0.6-3,1.3-4.6,1.9c3.5,4.7,6.9,9.5,10.1,14.4c1.3,2,4.7,1.3,4.7-1.3c-0.1-4.1-1.4-7.4-4-10.5
				c-1.2,1.2-2.4,2.4-3.5,3.5c3.2,2.5,3.7,5.3,0.9,8.2c-2.1,2.3-4.2,4.6-6.2,7c-3.7,4.6-6.9,9.5-9.7,14.7c-1.5,2.8,2.8,5.4,4.3,2.5
				c4.4-8.1,10-14.8,16.1-21.7c4.1-4.6,2.7-10.6-1.9-14.2c-2.5-2-5.6,1-3.5,3.5c1.8,2.1,2.5,4.2,2.6,7c1.6-0.4,3.1-0.8,4.7-1.3
				c-3.2-4.9-6.6-9.7-10.1-14.4c-1.6-2.1-5.5-1-4.6,1.9c1.1,3.6,3.1,7.7,3.5,11.4c0.4,4.1-3.3,8.7-5.2,12.1c1.5,0.6,3,1.3,4.6,1.9
				c1.2-3.6,3.1-6.4,5.9-8.8C194,260,190.5,256.5,188.1,258.6L188.1,258.6z"/>
		</g>
		<g>
			<path class="st13" d="M230.8,200.6c-0.9,2.2-1.2,4.1-1.2,6.5c1.6-0.2,3.3-0.4,4.9-0.7c-0.7-3.3-1.5-6.7-2.2-10
				c-0.6-2.5-4.1-2.2-4.8,0c-0.7,2.1-0.5,3.6,0.8,5.4c1.6,2.2,5.2,1,4.6-1.9c-1.2-5.3-1.8-10.6-2-16c-1.1,0.8-2.1,1.6-3.2,2.4
				c0.9,0.2,1.3,5.1,1.7,6c0.6,1.2,1.6,1.6,2.5,2.6c1.5,1.5,1,2.4,1.5,4.4c0.5,2.2,3.2,4.3,1.4,6.6c1.3,1,2.6,2,3.9,3
				c2.7-4.8,2-9.2-1.2-13.5c-2.5-3.4-2.1-4.8-2.2-8.6c-0.1-2.2-0.6-3.7-2-5.3c-2.1-2.5-5.6,1.1-3.5,3.5c1.7,2,0,6.7,1.1,9.3
				c1.7,4.4,6.6,6.7,3.5,12.1c-1.3,2.4,2.1,5.3,3.9,3c1.7-2.2,2.8-4.6,2-7.4c-0.5-1.9-1.7-2.9-1.9-4.9c-0.2-1.5,0.2-2.3-0.7-3.7
				c-0.6-1-1.6-1.4-2.4-2.2c-1.6-1.6-1.6-2.7-2-4.8c-0.5-2.5-1.8-4.3-4.4-4.8c-1.5-0.3-3.2,0.7-3.2,2.4c0.1,5.9,0.8,11.6,2.1,17.3
				c1.5-0.6,3-1.3,4.6-1.9c-0.1-0.5-0.2-1-0.3-1.5c-1.6,0-3.2,0-4.8,0c0.7,3.3,1.5,6.7,2.2,10c0.6,2.8,5,2.1,4.9-0.7
				c0-1.9,0.3-3.4,1-5.2C236.8,198.9,232,197.6,230.8,200.6L230.8,200.6z"/>
		</g>
		<g>
			<path class="st13" d="M253.1,146.2c-3.1-1.2-6.4,1.1-7.3,4.1c-1.1,3.9,1.7,7.2,4.4,9.6c1.1,1,3.3,1.1,3.9-0.5
				c1-2.3,0.7-4.4-1-6.3c-0.8-1-2-1.6-2.8-2.5c-0.6-0.7-0.9-1.3,0.1-0.5c0.6,0.5,1,1.4,1.4,2c1.7,2.8,5.6,0.4,4.3-2.5
				c0-0.4,0.1-0.8,0.1-1.2c-1.5,0.2-3,0.4-4.6,0.6c1.3,2.8,4,4.3,7,4.5c-0.2-1.6-0.4-3.3-0.7-4.9c-3.8,1.6-5,5.9-2.3,9.1
				c0.9,1,2.6,0.9,3.5,0c1.2-1.2,2.4-2.3,3.6-3.5c-1.3-1-2.6-2-3.9-3c-0.9,1.9-1.8,4.5-4.3,4.1c-2.2-0.4-3.9-1.2-6.2-0.6
				c-3.1,0.9-1.8,5.7,1.3,4.8c1.5-0.4,3.2,0.6,4.7,0.8c1.3,0.2,2.5,0.1,3.7-0.5c2.5-1.1,4-3.7,5.1-6.1c1.1-2.5-1.8-5.1-3.9-3
				c-1.2,1.2-2.4,2.3-3.6,3.5c1.2,0,2.4,0,3.5,0c-0.1-0.3-0.1-0.5,0.1-0.8c2.5-1,2.3-4.8-0.7-4.9c-1.4-0.1-2.1-0.8-2.7-2
				c-1-2.1-3.9-1.3-4.6,0.6c-0.6,1.8-0.4,3.3,0.4,5c1.4-0.8,2.9-1.7,4.3-2.5c-2.1-3.4-6.4-7.3-10.4-3.8c-1.6,1.5-1.9,3.8-1,5.8
				c0.5,1.1,1.4,2,2.3,2.8c0.4,0.4,2.8,2,2.6,2.5c1.3-0.2,2.6-0.3,3.9-0.5c-0.9-0.8-2-1.7-2.6-2.8c-0.4-0.7-1-3.2,0.7-2.5
				C254.8,152.1,256.1,147.3,253.1,146.2L253.1,146.2z"/>
		</g>
		<g>
			<path class="st13" d="M185.1,137.5c-0.8,1.2-3.2,1.6-4,0.3c-0.4-0.7-0.2-3-0.4-3.9c-0.7-2.5-2.4-4.3-4.4-5.8
				c0.2,1.3,0.3,2.6,0.5,3.9c-0.8,0.9-1.1,0-0.3,1.2c0.2,0.3,0.9,0.8,1.2,1c1,0.6,2.3,0.9,3.5,0.8c2.4-0.1,4.3-1.3,5.6-3.3
				c-1.4-0.8-2.9-1.7-4.3-2.5c-1.4,2.3-2.4,4.7-3,7.3c-0.3,1.4,0.7,3.3,2.4,3.2c4.5-0.5,8.6-1.8,11-5.9c-1.6-0.4-3.1-0.8-4.7-1.3
				c-0.1,2.5,0.2,5.2,2.6,6.6c2,1.1,3.7,0.2,4.9-0.3c-0.9-0.4-1.9-0.8-2.8-1.1c0.1,0.1,0.2,0.2,0.3,0.4c0.1-1,0.3-2,0.4-3
				c-0.1,0.1-0.2,0.2-0.2,0.2c-2.4,2.2,1.2,5.7,3.5,3.5c0.1-0.1,0.2-0.2,0.2-0.2c0.7-0.7,1-2.2,0.4-3c-0.1-0.1-0.2-0.2-0.3-0.4
				c-0.6-0.8-1.7-1.6-2.8-1.1c-0.3,0.1-1.2,0.7-1.3,0.6c-0.2-0.1,0.2-1.2,0.2-2.1c0.2-2.6-3.4-3.3-4.7-1.3c-1.4,2.4-4.1,3.1-6.7,3.4
				c0.8,1.1,1.6,2.1,2.4,3.2c0.5-2.2,1.3-4.2,2.5-6.1c1.7-2.8-2.6-5.2-4.3-2.5c-1.5,2.3-4.1-1.7-5.6-2c-1.4-0.3-2.6,0.2-3.6,1.2
				c-1.2,1.3-0.8,2.9,0.5,3.9c3.8,2.9,0.7,9.1,5.8,10.9c3.3,1.2,8-0.4,9.8-3.3C191.1,137.3,186.8,134.7,185.1,137.5L185.1,137.5z"/>
		</g>
		<g>
			<path class="st13" d="M227.8,70.1c0.1-0.2,0.1-0.4,0.2-0.6c-1.5-0.6-3-1.3-4.6-1.9c-0.6,3.5-1.2,7-1.8,10.5
				c-0.3,1.7,1.1,3.8,3.1,3.1c2.7-1,4.7-2.3,6.5-4.4c-1.3-1-2.6-2-3.9-3c-1.6,2.2-2.8,4.4-3.9,6.9c-0.8,1.9,0.5,4.4,2.8,3.7
				c2-0.6,3.7-1.4,5.4-2.7c-1.1-1.1-2.3-2.3-3.4-3.4c-1.5,2.2-2.1,4.3-1.9,6.9c0.1,1.9,2,3,3.8,2.2c0.7-0.3,1.4-0.7,2.1-1
				c-1.2-0.9-2.4-1.9-3.7-2.8c-1.5,4.1-3.6,7.6-6.6,10.8c1.4,0.6,2.8,1.2,4.3,1.8c-0.6-5.9-0.7-11.8-0.3-17.7
				c-1.6,0.2-3.3,0.4-4.9,0.7c0.7,1.9,1,3.7,1,5.7c0,2.5,3.4,3.3,4.7,1.3c3.5-5.6-0.6-10.6-0.4-16.5c0.1-3.2-4.9-3.2-5,0
				c-0.1,4.4,3.6,10,1.1,14c1.6,0.4,3.1,0.8,4.7,1.3c0-2.5-0.4-4.7-1.2-7.1c-1-2.7-4.7-2.2-4.9,0.7c-0.4,5.9-0.3,11.8,0.3,17.7
				c0.2,2,2.7,3.5,4.3,1.8c3.5-3.9,6.1-8.1,7.9-13c0.8-2.2-1.9-3.7-3.7-2.8c-0.7,0.3-1.4,0.7-2.1,1c1.3,0.7,2.5,1.4,3.8,2.2
				c-0.3-1.7,0-3.1,1.2-4.4c1.4-2-1.4-4.9-3.4-3.4c-1.4,1-2.5,1.6-4.2,2.1c0.9,1.2,1.9,2.4,2.8,3.7c1.1-2.5,2.3-4.7,3.9-6.9
				c1.6-2.3-2.1-5.2-3.9-3c-1.3,1.5-2.5,2.5-4.3,3.1c1,1,2.1,2.1,3.1,3.1c0.6-3.5,1.2-7,1.8-10.5c0.5-2.7-3-4.5-4.6-1.9
				c-1.3,2-1.2,3.6-0.2,5.7C224.9,75.5,229.2,73,227.8,70.1L227.8,70.1z"/>
		</g>
		<g>
			<path class="st13" d="M388.4,162.2c-2.8,0.6-3.6,2.8-3.7,5.5c-0.1,0.9,0.3,2,0,2.9c-0.1,0.5-0.8,0.9-0.9,1.5
				c-0.2,1.4,0.5,2.1,0.6,3.3c0,0.4,0.5-0.5-0.1,0.6c-0.2,0.4-1.1,0.8-1.5,1.2c-0.8,0.8-1.5,1.7-1.8,2.8c-0.6,2.9,2,4.3,4.3,5.2
				c-0.4-1.4-0.7-2.8-1.1-4.2c-1.8,1.6-3.7,3-5.7,4.3c-1.3,0.8-1.8,2.8-0.5,3.9c1.3,1.2,2.5,1.9,4.3,2.2c-0.6-0.8-1.2-1.6-1.8-2.4
				c0.1,1.3-1.7,2.5-1.9,4c-0.2,1.7,0.9,2.4,1.2,3.9c0.4,1.8-0.4,2.8-0.4,4.6c0,0.8,1.3,5.8,2.4,5.4c-3,1.1-1.7,5.9,1.3,4.8
				c6.3-2.2,1.1-7.3,1.7-11.1c0.3-2.4,1-2.9,0-5.3c-0.6-1.6-0.7-1.5-0.1-3.2c0.4-1.3,0.8-1.7,0.8-3.1c0-1-0.7-2.2-1.8-2.4
				c-0.7-0.3-1.4-0.6-2.1-0.9c-0.2,1.3-0.3,2.6-0.5,3.9c2.4-1.6,4.6-3.2,6.7-5.1c1.5-1.3,0.5-3.6-1.1-4.2c-0.5-0.4-1-0.7-1.5-1.1
				c0.2,0.8,0.4,1.6,0.6,2.4c0.5-2.7,4.7-3,4-6.5c-0.1-0.4-0.3-0.9-0.4-1.3c-0.7-0.2-0.9-0.4-0.5-0.8c0.2-0.2,0.3-0.3,0.3-0.6
				c0-0.2,1.2-5.8,0.4-5.6C392.9,166.3,391.6,161.5,388.4,162.2L388.4,162.2z"/>
		</g>
		<g>
			<path class="st13" d="M379.4,215.6c1.5-0.8,3-0.8,4.6-0.1c-0.2-1.5-0.4-3-0.6-4.6c-2.6,1.5-5.2,2.8-8,3.9
				c-1.8,0.7-2.7,3.5-0.6,4.6c2.6,1.2,5.1,1.9,7.9,2.2c-0.6-1.4-1.2-2.8-1.8-4.3c-1.4,1.7-2.8,3.1-4.7,4.4c-1.5,1-1.7,3.4,0,4.3
				c1.3,0.7,2.6,1.4,3.9,2.1c0-1.4,0-2.9,0-4.3c-2.6,1.2-4.6,2.8-6.4,5.1c-1.1,1.3-0.9,2.9,0.5,3.9c1.5,1.1,2.8,1.6,4.6,1.9
				c-0.4-1.4-0.7-2.8-1.1-4.2c-1.5,1.5-3,2.9-4.4,4.4c-1,1-1,3.3,0.5,3.9c1,0.4,2,0.8,3,1.3c-0.3-1.1-0.6-2.3-0.9-3.4
				c-0.7,1.4-1.6,2.4-2.8,3.4c-1.3,1.1-0.7,3.1,0.5,3.9c1.8,1.1,3.5,1.8,5.6,2.2c-0.4-1.4-0.7-2.8-1.1-4.2c-1.2,1.4-2.4,2.7-3.6,4.1
				c-1,1.1-1.1,3.2,0.5,3.9c1,0.5,2.1,1,3.1,1.4c-0.2-1.3-0.3-2.6-0.5-3.9c-1.7,1.4-3.4,2.1-5.5,2.6c-1.9,0.4-2.4,2.9-1.1,4.2
				c1.5,1.6,3.1,2.6,5.2,3.3c-0.5-1.2-1-2.4-1.5-3.7c-0.4,1.1-1.1,2-2.1,2.6c-1.5,1.2-0.6,3.7,1.1,4.2c1.7,0.5,3.3,0.9,5,1.4
				c-0.5-1.2-1-2.4-1.5-3.7c-0.8,1.2-1.6,2.5-2.4,3.7c-1,1.5,0.1,3.1,1.5,3.7c1.2,0.5,2.4,0.9,3.6,1.4c-0.4-1.4-0.7-2.8-1.1-4.2
				c-1,1.3-1.3,1.7-2,3.1c-0.6,1.3-0.3,2.6,0.9,3.4c1.4,0.9,2.7,1.4,4.4,1.7c-0.6-1-1.2-2.1-1.7-3.1c-0.5,2.7-6.9,16.4,0.9,15.5
				c-0.6-1.4-1.2-2.8-1.8-4.3c-1.2,1.3-2.4,2.5-3.5,3.8c-1.3,1.3-0.8,3.7,1.1,4.2c1,0.2,2,0.5,2.9,0.7c-0.5-1.2-1-2.4-1.5-3.7
				c-1.7,3,1,6.9,4.5,5.6c-1-1-2.1-2.1-3.1-3.1c-0.7,0.7-1.3,1.4-2,2c-1.5,0.5-2.3,2.2-1.5,3.7c0.5,1,1,1.9,1.5,2.9
				c0.1-1,0.3-2,0.4-3c-1,1.1-1.9,2.1-2.9,3.2c-0.8,0.9-1.1,2.7,0,3.5c2.2,1.7,2.9,4.4,0.8,6.7c-2.2,2.4,1.4,5.9,3.5,3.5
				c3.7-4,3.6-10.2-0.8-13.7c0,1.2,0,2.4,0,3.5c1-1.1,1.9-2.1,2.9-3.2c0.8-0.9,0.9-2,0.4-3c-0.5-1-1-1.9-1.5-2.9
				c-0.5,1.2-1,2.4-1.5,3.7c2.9-1,4.5-2.6,5.5-5.5c0.6-1.7-1.3-3.7-3.1-3.1c0.4,0.6,0.8,1.2,1.2,1.7c0.8-1.4,0.1-3.3-1.5-3.7
				c-1-0.2-2-0.5-2.9-0.7c0.4,1.4,0.7,2.8,1.1,4.2c1.2-1.3,2.4-2.5,3.5-3.8c1.3-1.4,0.5-4.5-1.8-4.3c1.6-0.2,3.6-7.3,3.9-9.2
				c0.2-1.2-0.3-2.9-1.7-3.1c-1.2,0-2.3-0.4-3.2-1.2c0.3,1.1,0.6,2.3,0.9,3.4c0.4-0.7,0.8-1.4,1.2-2.1c1.2-1.5,0.8-3.5-1.1-4.2
				c-1.2-0.5-2.4-0.9-3.6-1.4c0.5,1.2,1,2.4,1.5,3.7c0.8-1.2,1.6-2.5,2.4-3.7c0.9-1.4,0-3.3-1.5-3.7c-1.7-0.5-3.3-0.9-5-1.4
				c0.4,1.4,0.7,2.8,1.1,4.2c1.3-1.1,2.1-2.1,2.9-3.6c0.8-1.5,0.1-3.1-1.5-3.7c-1.2-0.4-2.2-1-3-2c-0.4,1.4-0.7,2.8-1.1,4.2
				c3-0.7,5.3-1.9,7.7-3.9c1.2-1,0.9-3.3-0.5-3.9c-1-0.5-2.1-1-3.1-1.4c0.2,1.3,0.3,2.6,0.5,3.9c1.2-1.4,2.4-2.7,3.6-4.1
				c1.1-1.3,0.9-3.8-1.1-4.2c-1.7-0.3-2.9-0.7-4.4-1.7c0.2,1.3,0.3,2.6,0.5,3.9c1.5-1.3,2.6-2.7,3.5-4.4c0.6-1.1,0.4-2.9-0.9-3.4
				c-1-0.4-2-0.8-3-1.3c0.2,1.3,0.3,2.6,0.5,3.9c1.5-1.5,3-2.9,4.4-4.4c1.2-1.2,0.8-3.9-1.1-4.2c-1.3,0-2.5-0.5-3.4-1.4
				c0.2,1.3,0.3,2.6,0.5,3.9c1.6-1.9,3.2-3.2,5.4-4.3c1.7-0.8,1.5-3.5,0-4.3c-1.3-0.7-2.6-1.4-3.9-2.1c0,1.4,0,2.9,0,4.3
				c2.2-1.5,4-3.1,5.7-5.2c1.4-1.7,0.5-4.1-1.8-4.3c-1.9-0.1-3.7-0.6-5.4-1.5c-0.2,1.5-0.4,3-0.6,4.6c3.2-1.3,6.2-2.7,9.2-4.4
				c1.9-1.1,1.4-3.9-0.6-4.6c-2.5-0.8-4.7-0.8-7.2,0.1C375,211.8,376.3,216.7,379.4,215.6L379.4,215.6z"/>
		</g>
		<g>
			<path class="st13" d="M536.4,308.9c-2.4-1.5-4.7-3.1-7.1-4.6c0.2,1.3,0.3,2.6,0.5,3.9c3.8-3.1,3-8.2-0.6-11
				c0.2,1.3,0.3,2.6,0.5,3.9c1.2-1.3,2.4-2.7,3.6-4c1.2-1.3,0.8-3.8-1.1-4.2c-1.3-0.3-2.6-0.5-3.8-0.8c0.4,1.4,0.7,2.8,1.1,4.2
				c1.4-1.2,2.9-2.4,4.3-3.6c1.1-0.9,0.8-2.6,0-3.5c0,0,0.9-5.7,0.9-5.8c-0.1-3.2-0.1-6.3-0.2-9.5c0-0.9-0.5-1.8-1.2-2.2
				c-1-0.5-2-1-3-1.5c-0.2,1.5-0.4,3-0.6,4.6c4.1-1.7,5.1-7.2,0.9-9.5c0,1.4,0,2.9,0,4.3c1.4-1,2.8-2.1,4.2-3.1
				c2-1.5,1.3-4.5-1.3-4.7c-0.4-0.2-0.9-0.4-1.3-0.7c-0.2,1.3-0.3,2.6-0.5,3.9c2.4-1.4,4.8-2.9,7.3-4.3c1.3-0.7,1.8-2.9,0.5-3.9
				c-1.1-0.8-2.1-1.7-3.2-2.5c0,1.2,0,2.4,0,3.5c1.5-1.3,3-2.5,4.6-3.8c1.1-0.9,0.8-2.6,0-3.5c-1.7-1.9-3.4-2.6-6-2.9
				c0.7,1.3,1.4,2.5,2.2,3.8c0.7-1,1.4-2,2.1-3c0.8-1.1,0.2-2.7-0.9-3.4c-3.3-2.1-6.3-5.2-3.9-8.9c0.9-1.3,0-3.3-1.5-3.7
				c-1.9-0.5-3.8-0.9-5.7-1.4c0.4,1.4,0.7,2.8,1.1,4.2c1.6-1.5,3.1-3.1,4.7-4.6c1.3-1.2,0.8-3-0.5-3.9c-1-0.7-1.9-1.4-2.9-2.2
				c0,1.4,0,2.9,0,4.3c1.7-1.3,3.5-2.7,5.2-4c1.1-0.9,1.9-2.8,0.5-3.9c-2.3-1.9-4.2-2.7-7.2-2.5c0.7,1.3,1.4,2.5,2.2,3.8
				c0.6-1,1.2-2,1.8-3.1c0.5-0.9,0.5-2.4-0.4-3c-1.7-1.3-3.1-2.1-5.2-2.6c0.2,1.5,0.4,3,0.6,4.6c3.6-1.9,4.3-6.7,1.2-9.5
				c0.1,1,0.3,2,0.4,3c0.7-1,1.4-1.9,2.1-2.9c0.6-0.8,0.4-2.3-0.4-3c-1.5-1.4-2.9-2.2-4.9-2.7c0.6,0.8,1.2,1.6,1.8,2.4
				c-0.1-2.8,0.4-6.6-0.4-9.3c-0.6-2-2.6-2.9-4.3-4.1c0.3,1.1,0.6,2.3,0.9,3.4c1.9-3,3.4-4.5,2.6-8.1c-0.7-3.1-2.2-5.6-4.3-7.9
				c-2.1-2.4-5.7,1.1-3.5,3.5c3,3.4,3.4,6.1,0.9,9.9c-0.8,1.2-0.1,2.6,0.9,3.4c1,0.8,2,1.5,3.1,2.3c-0.4-0.7-0.8-1.4-1.2-2.2
				c0.1,3,0.2,6,0.4,9c0,1.1,0.7,2.1,1.8,2.4c0.9,0.5,1.8,0.9,2.7,1.4c-0.1-1-0.3-2-0.4-3c-0.7,1-1.4,1.9-2.1,2.9
				c-0.6,0.9-0.4,2.3,0.4,3c-0.1,0.6-0.1,1.1-0.2,1.7c-1.9,1-1.5,4.1,0.6,4.6c1,0.5,2,0.9,3,1.4c-0.1-1-0.3-2-0.4-3
				c-0.6,1-1.2,2-1.8,3.1c-0.9,1.6,0.2,3.8,2.2,3.8c1.2,0.4,2.4,0.7,3.7,1.1c0.2-1.3,0.3-2.6,0.5-3.9c-1.7,1.3-3.5,2.7-5.2,4
				c-1.6,1.2-1.6,3.1,0,4.3c1,0.7,1.9,1.4,2.9,2.2c-0.2-1.3-0.3-2.6-0.5-3.9c-1.6,1.5-3.1,3.1-4.7,4.6c-1.3,1.3-0.7,3.7,1.1,4.2
				c1.9,0.5,3.8,0.9,5.7,1.4c-0.5-1.2-1-2.4-1.5-3.7c-2.2,3.3-2.8,4.5-1.1,8.3c1.5,3.2,3.8,5.5,6.8,7.4c-0.3-1.1-0.6-2.3-0.9-3.4
				c-0.7,1-1.4,2-2.1,3c-1.2,1.7,0.5,3.5,2.2,3.8c0.8,0.5,1.6,1,2.4,1.4c0-1.2,0-2.4,0-3.5c-1.5,1.3-3,2.5-4.6,3.8
				c-1,0.8-1,2.7,0,3.5c1.1,0.8,2.1,1.7,3.2,2.5c0.2-1.3,0.3-2.6,0.5-3.9c-2.4,1.4-4.8,2.9-7.3,4.3c-1.4,0.8-1.7,2.8-0.5,3.9
				c1.5,1.4,2.8,2,4.9,2.1c-0.4-1.6-0.8-3.1-1.3-4.7c-1.4,1-2.8,2.1-4.2,3.1c-1.4,1.1-1.8,3.4,0,4.3c0.1,0.1,0.2,0.2,0.3,0.3
				c-1.8,0.7-2.7,3.5-0.6,4.6c1,0.5,2,1,3,1.5c-0.4-0.7-0.8-1.4-1.2-2.2c0.1,3.9,0.6,8.3-0.4,11.9c-0.8,2.8-0.8,4.5,1.1,6.9
				c0-1.2,0-2.4,0-3.5c-1.4,1.2-2.9,2.4-4.3,3.6c-1.4,1.2-0.7,3.8,1.1,4.2c1.3,0.3,2.6,0.5,3.8,0.8c-0.4-1.4-0.7-2.8-1.1-4.2
				c-1.2,1.3-2.4,2.7-3.6,4c-1.2,1.3-0.8,2.9,0.5,3.9c1,1.1,0.9,2.1-0.4,3.1c-1.3,1.1-0.7,3.1,0.5,3.9c2.4,1.5,4.7,3.1,7.1,4.6
				C536.6,315,539.1,310.7,536.4,308.9L536.4,308.9z"/>
		</g>
		<g>
			<path class="st13" d="M395.4,164.8c0.5-0.9,0.9-1.7,1.4-2.6c-1.3-1-2.6-2-3.9-3c-1.3,1.9-1.5,3.4-0.9,5.6
				c0.5,1.5,2.3,2.3,3.7,1.5c3.5-2,7-4.1,10.5-6.1c1.7-1,1.6-4.2-0.6-4.6c-0.2,0-0.3,0-0.5-0.1c-1.5-0.2-2.5,0.4-3.1,1.7
				c-0.6,1.5,0,3.7,1.4,4.6c0.7,0.5,1.7,0.6,2.6,0.4c3-0.5,1.4-1.4,1.7-3.4c0.6-0.6,1.2-1.2,1.7-1.7c-0.2,0-0.3,0.1-0.5,0.1
				c0.4,1.6,0.9,3.2,1.3,4.8c4.8-1.3,9.5-2.7,14.3-4c-0.6-1.5-1.3-3-1.9-4.6c-1.1,0.9-2.3,1.7-3.4,2.6c-1.8,1.3-1.5,4.8,1.3,4.7
				c6.7-0.3,13.4-1.4,20.1-1.9c2-0.2,3.6-2.7,1.8-4.3c-0.1-0.1-0.3-0.2-0.4-0.3c-1.1-0.9-2.5-1-3.5,0c-1.3,1.2-1.8,2.9-0.9,4.5
				c0.4,0.8,0.9,1.1,1.7,1.5c0.6,0.2,1.2,0.3,1.8,0.3c1.5,0.2,1.6-0.1,0.4-1.2c0.8-0.6,1.6-1.2,2.4-1.8c-0.2,0-0.4,0-0.6,0
				c0,1.7,0,3.3,0,5c4.9-0.5,9.9-0.9,14.8-1.4c-0.6-1.4-1.2-2.8-1.8-4.3c-0.9,0.9-1.8,1.8-2.8,2.7c-1.6,1.5-0.4,4.2,1.8,4.3
				c4.1,0,8-0.3,12-1.1c-0.8-1.4-1.6-2.8-2.4-4.2c-0.9,1.2-2.1,2-3.6,2.5c-2.6,1-2.3,4.8,0.7,4.9c6.1,0.3,11.9,0.3,17.9-0.3
				c-0.6-1.4-1.2-2.8-1.8-4.3c-0.8,0.8-1.5,1.7-2.3,2.5c-1.6,1.7-0.4,4.1,1.8,4.3c2.6,0.3,4.9,0,7.4-0.7c-0.8-1.4-1.6-2.8-2.4-4.2
				c-1,1.2-1.9,2.4-2.9,3.6c-1.2,1.5-0.6,4.5,1.8,4.3c5.8-0.4,11.6-0.9,17.4-1.3c-0.6-1.4-1.2-2.8-1.8-4.3c-1.4,1.2-2.7,2.4-4.1,3.6
				c-1.7,1.5-0.3,4.2,1.8,4.3c3,0.1,5.6-0.3,8.4-1.4c-1-1-2.1-2.1-3.1-3.1c-0.3,1.4-0.6,2.8-0.9,4.2c-0.4,1.9,1.1,3.5,3.1,3.1
				c2.8-0.6,5.6-1.2,8.4-1.8c-0.9-1.2-1.9-2.4-2.8-3.7c-1,1.7-1.9,3.4-2.9,5.1c-1.1,2,0.7,4.1,2.8,3.7c3.6-0.8,7.2-1.6,10.9-2.3
				c-0.6-1.5-1.3-3-1.9-4.6c-2.8,1.8-5,4-7,6.7c-1.1,1.5,0.4,3.8,2.2,3.8c2.2-0.1,4.3-0.2,6.5-0.3c-0.6-1.4-1.2-2.8-1.8-4.3
				c-2,2.5-2.6,4.6-2.1,7.8c0.4,3.2,5.3,1.8,4.8-1.3c0.3-1,0.6-1.9,0.8-2.9c1.3-1.6,0.6-4.4-1.8-4.3c-2.2,0.1-4.3,0.2-6.5,0.3
				c0.7,1.3,1.4,2.5,2.2,3.8c1.5-2,3.1-3.6,5.2-4.9c2.4-1.6,0.9-5.2-1.9-4.6c-3.6,0.8-7.2,1.6-10.9,2.3c0.9,1.2,1.9,2.4,2.8,3.7
				c1-1.7,1.9-3.4,2.9-5.1c1.1-2-0.7-4.1-2.8-3.7c-2.8,0.6-5.6,1.2-8.4,1.8c1,1,2.1,2.1,3.1,3.1c0.3-1.4,0.6-2.8,0.9-4.2
				c0.3-1.7-1.2-3.8-3.1-3.1c-2.4,0.9-4.5,1.3-7.1,1.3c0.6,1.4,1.2,2.8,1.8,4.3c1.4-1.2,2.7-2.4,4.1-3.6c1.6-1.4,0.4-4.4-1.8-4.3
				c-5.8,0.4-11.6,0.9-17.4,1.3c0.6,1.4,1.2,2.8,1.8,4.3c1-1.2,1.9-2.4,2.9-3.6c1.5-1.8,0.2-4.9-2.4-4.2c-2.1,0.6-3.9,0.8-6.1,0.5
				c0.6,1.4,1.2,2.8,1.8,4.3c0.8-0.8,1.5-1.7,2.3-2.5c1.4-1.5,0.5-4.5-1.8-4.3c-6.1,0.5-11.8,0.5-17.9,0.3c0.2,1.6,0.4,3.3,0.7,4.9
				c2.3-0.9,4.1-1.9,5.8-3.8c1.8-1.9,0-4.6-2.4-4.2c-3.6,0.7-7.1,0.9-10.7,0.9c0.6,1.4,1.2,2.8,1.8,4.3c0.9-0.9,1.8-1.8,2.8-2.7
				c1.5-1.4,0.4-4.5-1.8-4.3c-4.9,0.5-9.9,0.9-14.8,1.4c-3.2,0.3-3.2,4.8,0,5c0.2,0,0.4,0,0.6,0c1.2,0.1,2-0.8,2.4-1.8
				c0.5-1.3,0.4-2.8-0.5-3.9c-0.4-0.5-1.1-1-1.7-1.2c-2.7-0.8-0.6,0.9-2,2.1c-1.2,0-2.4,0-3.5,0c0.1,0.1,0.3,0.2,0.4,0.3
				c0.6-1.4,1.2-2.8,1.8-4.3c-6.7,0.5-13.4,1.6-20.1,1.9c0.4,1.6,0.8,3.1,1.3,4.7c1.1-0.9,2.3-1.7,3.4-2.6c2.1-1.6,1-5.4-1.9-4.6
				c-4.8,1.3-9.5,2.7-14.3,4c-3.1,0.9-1.8,5.5,1.3,4.8c0.2,0,0.3-0.1,0.5-0.1c0.8-0.2,1.6-0.9,1.7-1.7c0.2-1.7-0.2-3.6-1.9-4.5
				c-0.8-0.4-1.8-0.5-2.6-0.3c-0.6,0.2-1.2,0.5-1.7,0.9c-1,0.5-0.8,1.3,0.5,2.4c-1,0.6-2.1,1.2-3.1,1.7c0.2,0,0.3,0,0.5,0.1
				c-0.2-1.5-0.4-3-0.6-4.6c-3.5,2-7,4.1-10.5,6.1c1.2,0.5,2.4,1,3.7,1.5c0.1-0.6,0.2-1.1,0.4-1.7c1.7-2.3-2-5-3.9-3
				c-1.5,1.5-2.2,2.8-2.7,4.8C389.8,166.6,394.7,168,395.4,164.8L395.4,164.8z"/>
		</g>
		<g>
			<path class="st13" d="M550.7,182.4c-0.2,1-0.4,2.1-0.6,3.1c-0.4,1.8,1.1,3.6,3.1,3.1c1.9-0.5,3.8-1,5.7-1.5
				c-0.6-1.5-1.3-3-1.9-4.6c-2.4,1.4-4.6,3-6.7,4.9c-1.2,1-0.9,3.2,0.5,3.9c2.4,1.2,4.3,1.5,6.9,0.9c-0.9-1.2-1.9-2.4-2.8-3.7
				c-0.9,1.3-1.8,2.5-2.7,3.8c-1,1.5,0.3,3.9,2.2,3.8c1.9-0.2,3.8-0.4,5.7-0.6c-0.6-1.4-1.2-2.8-1.8-4.3c-1.4,1.5-3.4,3-4.3,4.8
				c-1,2-1.5,4.6-2.2,6.8c-0.4,1.3,0.5,2.7,1.7,3.1c2.1,0.6,3.5,0.2,5.1-1.2c-1.2-1.2-2.4-2.4-3.5-3.5c-2.5,2.7-5,5.4-7.4,8.1
				c-1.6,1.7-0.4,4.1,1.8,4.3c1.5,0.2,3,0.3,4.6,0.5c-0.6-1.4-1.2-2.8-1.8-4.3c-3.4,3.4-4.3,9.3,1.7,10.1c-0.7-1.3-1.4-2.5-2.2-3.8
				c-0.7,1.3-1.3,2.7-2,4c-0.8,1.7,0.2,3.7,2.2,3.8c4.1,0.2,7.9-0.4,11.8-1.7c-0.9-1.2-1.9-2.4-2.8-3.7c-1.6,3-3.6,5.3-6.4,7.1
				c-2.2,1.4-1.1,4.4,1.3,4.7c2.8,0.3,5.4,0,8.1-0.8c-0.9-1.2-1.9-2.4-2.8-3.7c-0.7,1.5-1.4,3-2.1,4.5c-1.1,2.3,1.1,4.5,3.4,3.4
				c1.2-0.3,2.3-0.6,3.5-0.9c-0.8-1.1-1.6-2.1-2.4-3.2c-0.3,1.9-0.9,3.3-2,4.9c-1.3,1.9,0.9,4.1,2.8,3.7c2-0.5,3.8-1.2,5.5-2.3
				c-1.2-0.9-2.4-1.9-3.7-2.8c-0.9,3.1-6.7,3.1-5.1,7.6c0.9,2.5,3.7,3.4,5.8,2c-1-1.3-2-2.6-3-3.9c-1.7,1.9-3.4,3.8-5.1,5.7
				c-0.8,0.9-1.1,2.7,0,3.5c0.8,0.6,1.6,1.3,2.3,1.9c-0.1-1-0.3-2-0.4-3c-2.3,3-2.7,6.5-1.3,10c0.4,1,1.2,1.9,2.4,1.8
				c1,0,2.1-0.1,3.1-0.1c-0.4-1.6-0.8-3.1-1.3-4.7c-2.6,1.8-5.8,4.8-3.9,8.3c1.5,2.9,4.8,3.1,7.1,1.2c-1.2-1.2-2.4-2.4-3.5-3.5
				c-1.6,1.5-3.2,3-4.7,4.6c-1.3,1.3-0.7,3.7,1.1,4.2c2.5,0.6,4.7,0.7,7.3,0.2c-0.6-1.5-1.3-3-1.9-4.6c-2.9,1.6-5.8,3.3-8.7,4.9
				c-1.4,0.8-1.7,2.8-0.5,3.9c2,1.9,4.1,2.5,6.8,1.6c-0.8-1.4-1.6-2.8-2.4-4.2c-2,1.7-4,3.4-6,5c-1.4,1.2-0.6,3.8,1.1,4.2
				c1.4,0.3,2.9,0.7,4.3,1c-0.5-1.2-1-2.4-1.5-3.7c-1.1,2.4-2.1,4.8-3.2,7.2c-0.8,1.8,0.1,3.6,2.2,3.8c3.4,0.2,6.1-0.4,9.1-1.8
				c-1.1-1.1-2.3-2.3-3.4-3.4c-1.1,2-2.4,3.5-4.1,5c-1.5,1.3-0.6,3.7,1.1,4.2c2.1,0.6,3.7,0.6,5.8,0.3c-0.8-1.4-1.6-2.8-2.4-4.2
				c-2.1,2.8-4.3,5.5-6.4,8.3c-1.1,1.5-0.7,4.5,1.8,4.3c1.2-0.1,2.5-0.3,3.7-0.4c-0.7-1.3-1.4-2.5-2.2-3.8c-1.2,1.7-2.4,3.5-3.7,5.2
				c-1.1,1.6,0.4,3.7,2.2,3.8c3.3,0,6.4-0.4,9.5-1.5c-0.9-1.2-1.9-2.4-2.8-3.7c-1.5,2.2-3.2,4-5.4,5.6c-1.8,1.4-1.4,3.7,0.6,4.6
				c2.3,1,4.3,1,6.7,0.5c-1-1-2.1-2.1-3.1-3.1c-0.3,1.6-1.1,2.9-2.5,3.9c-1.5,1.2-1.7,4.1,0.6,4.6c1.2,0.2,2.3,0.5,3.5,0.7
				c-0.5-1.2-1-2.4-1.5-3.7c-0.6,1.1-1.2,2.2-1.8,3.3c-1,1.8,0.7,4.4,2.8,3.7c1.3-0.6,2.6-0.6,3.8,0.1c3,1.2,4.3-3.7,1.3-4.8
				c-2.2-0.9-4.2-0.9-6.5-0.1c0.9,1.2,1.9,2.4,2.8,3.7c0.6-1.1,1.2-2.2,1.8-3.3c0.7-1.3,0.1-3.3-1.5-3.7c-1.2-0.2-2.3-0.5-3.5-0.7
				c0.2,1.5,0.4,3,0.6,4.6c2.4-1.9,4-3.9,4.8-6.9c0.5-1.9-1.2-3.4-3.1-3.1c-1.5,0.4-2.8,0.2-4.1-0.5c0.2,1.5,0.4,3,0.6,4.6
				c2.9-2.1,5.2-4.5,7.2-7.4c1.2-1.8-0.8-4.3-2.8-3.7c-2.7,0.9-5.3,1.3-8.2,1.3c0.7,1.3,1.4,2.5,2.2,3.8c1.2-1.7,2.4-3.5,3.7-5.2
				c1-1.5-0.3-4-2.2-3.8c-1.2,0.1-2.5,0.3-3.7,0.4c0.6,1.4,1.2,2.8,1.8,4.3c2.1-2.8,4.3-5.5,6.4-8.3c1.5-2,0.1-4.6-2.4-4.2
				c-1.1-0.1-2.1-0.2-3.2-0.3c0.4,1.4,0.7,2.8,1.1,4.2c2-1.8,3.6-3.7,4.9-6c1.3-2.3-1.3-4.4-3.4-3.4c-2.2,1-4.2,1.3-6.6,1.1
				c0.7,1.3,1.4,2.5,2.2,3.8c1.1-2.4,2.1-4.8,3.2-7.2c0.6-1.4,0.2-3.3-1.5-3.7c-1.4-0.3-2.9-0.7-4.3-1c0.4,1.4,0.7,2.8,1.1,4.2
				c2-1.7,4-3.4,6-5c1.9-1.6-0.1-4.9-2.4-4.2c-0.7-0.1-1.3-0.2-2-0.4c-0.2,1.3-0.3,2.6-0.5,3.9c2.9-1.6,5.8-3.3,8.7-4.9
				c2.6-1.5,0.8-5.1-1.9-4.6c-1.6,0.4-3.1,0.3-4.6-0.2c0.4,1.4,0.7,2.8,1.1,4.2c1.6-1.5,3.2-3,4.7-4.6c2.4-2.3-1.1-5.5-3.5-3.5
				c1-0.6,1.9-1.1,2.9-1.7c1.9-1.3,1.4-4.8-1.3-4.7c-1,0-2.1,0.1-3.1,0.1c0.8,0.6,1.6,1.2,2.4,1.8c-0.8-2.1-0.5-4.4,0.8-6.2
				c0.6-0.8,0.4-2.4-0.4-3c-0.8-0.6-1.6-1.3-2.3-1.9c0,1.2,0,2.4,0,3.5c1.7-1.9,3.4-3.8,5.1-5.7c1.8-2-0.5-5.5-3-3.9
				c1.6,0.8,3,0.7,4.2-0.4c0.4-0.2,0.7-0.5,1-0.9c0.8-0.9,1.1-1.5,1.4-2.8c0.6-2-1.8-4-3.7-2.8c-1.4,0.9-2.7,1.4-4.3,1.8
				c0.9,1.2,1.9,2.4,2.8,3.7c1.4-1.9,2.1-3.7,2.5-6.1c0.2-1.4-0.6-3.3-2.4-3.2c-2.2,0.2-4,0.7-6,1.6c1.1,1.1,2.3,2.3,3.4,3.4
				c0.7-1.5,1.4-3,2.1-4.5c0.8-1.9-0.6-4.4-2.8-3.7c-2.3,0.7-4.4,0.9-6.8,0.6c0.4,1.6,0.8,3.1,1.3,4.7c3.6-2.3,6.3-5.1,8.2-8.9
				c0.9-1.8-0.6-4.4-2.8-3.7c-3.5,1.2-6.8,1.7-10.5,1.5c0.7,1.3,1.4,2.5,2.2,3.8c0.7-1.3,1.3-2.7,2-4c0.9-1.8-0.2-3.5-2.2-3.8
				c0.6-0.5,1.2-1,1.8-1.5c1.6-1.7,0.3-4.1-1.8-4.3c-1.5-0.2-3-0.3-4.6-0.5c0.6,1.4,1.2,2.8,1.8,4.3c2.5-2.7,5-5.4,7.4-8.1
				c2.2-2.4-1.1-5.6-3.5-3.5c-0.1,0-0.2-0.1-0.2-0.1c0.6,1,1.2,2.1,1.7,3.1c1.2-3.9,2.4-6.3,5.2-9.4c1.4-1.4,0.5-4.5-1.8-4.3
				c-1.9,0.2-3.8,0.4-5.7,0.6c0.7,1.3,1.4,2.5,2.2,3.8c0.9-1.3,1.8-2.5,2.7-3.8c1.3-1.9-0.9-4.1-2.8-3.7c-1-0.1-2-0.3-3-0.4
				c0.2,1.3,0.3,2.6,0.5,3.9c1.8-1.6,3.7-2.9,5.7-4.1c2.5-1.4,0.8-5.3-1.9-4.6c-1.9,0.5-3.8,1-5.7,1.5c1,1,2.1,2.1,3.1,3.1
				c0.2-1,0.4-2.1,0.6-3.1C556.2,180.6,551.3,179.3,550.7,182.4L550.7,182.4z"/>
		</g>
		<g>
			<path class="st13" d="M409.6,325.7c-1-6.5,0.8-12.6,4.8-17.8c-1.6-0.4-3.1-0.8-4.7-1.3c0.4,7.5,1.6,14.9,3.5,22.2
				c0.5,1.8,2.8,2.4,4.2,1.1c1.2-1.2,2.5-2.4,3.7-3.6c-1.4-0.4-2.8-0.7-4.2-1.1c0.9,2.4,1.8,4.7,2.7,7.1c0.6,1.6,2.9,2.7,4.2,1.1
				c1.9-2.2,3.7-4.5,5.6-6.7c-1.3-0.2-2.6-0.3-3.9-0.5c1.7,2.3,3.4,4.5,5,6.8c1.2,1.6,4,1.6,4.6-0.6c2.3-8.8,3.4-17.8,3.3-26.9
				c-1.6,0.4-3.1,0.8-4.7,1.3c3.2,7.2,4.8,14.7,5,22.5c0,1.8,2.2,3.3,3.8,2.2c2.7-1.9,5.3-3.8,8-5.7c-1.1-1.1-2.3-2.3-3.4-3.4
				c-2.3,3.5-0.6,8.3,3.4,9.8c4.7,1.9,9.1-1.9,10.9-6c-1.4,0-2.9,0-4.3,0c1.5,2.5,3.1,5.1,4.6,7.6c1.2,1.9,3.9,1.4,4.6-0.6
				c3.1-9.1,4.7-18.4,4.9-28c-1.6,0.4-3.1,0.8-4.7,1.3c3.4,7.1,5.2,14.5,5.6,22.3c0.1,2.3,2.6,3.1,4.3,1.8c1.3-1.2,2.9-1.8,4.6-2
				c-1-0.6-2.1-1.2-3.1-1.7c0.6,2.6,0.7,5,0.4,7.6c-0.2,2.2,2.9,3.3,4.3,1.8c3.1-3.4,6.2-6.9,9.2-10.3c-1.3-0.2-2.6-0.3-3.9-0.5
				c1.8,3.2,2,6.2,0.7,9.6c-0.9,2.4,2.5,4.1,4.2,2.4c1.7-1.7,3.4-2.8,5.8-3.5c-1-1-2.1-2.1-3.1-3.1c-1.4,6.6-2.8,13.3-4.3,19.9
				c-0.4,1.7,0.7,3,2.4,3.2c2.8,0.2,4.8-1,6.4-3.2c1.9-2.6,2-8.7,5.7-9.3c-1.1-0.8-2.1-1.6-3.2-2.4c-0.6,4.4,0.4,8.4,2.9,12.1
				c1.2,1.8,4,1.5,4.6-0.6c1.6-5.7,3.2-11.4,4.8-17c-1.5,0.2-3,0.4-4.6,0.6c1.6,3.8,3.8,7,6.6,10c2.2,2.4,5.7-1.2,3.5-3.5
				c-2.5-2.7-4.4-5.6-5.8-9c-0.9-2.1-4-1.3-4.6,0.6c-1.6,5.7-3.2,11.4-4.8,17c1.5-0.2,3-0.4,4.6-0.6c-2-3.1-2.6-6-2.2-9.6
				c0.2-1.8-1.8-2.7-3.2-2.4c-2.2,0.4-3.8,1.6-5,3.4c-1.5,2.3-2.2,9.2-5.7,8.9c0.8,1.1,1.6,2.1,2.4,3.2c1.4-6.6,2.8-13.3,4.3-19.9
				c0.4-1.8-1.2-3.7-3.1-3.1c-3.2,1-5.6,2.4-8,4.8c1.4,0.8,2.8,1.6,4.2,2.4c1.7-4.7,1.2-9.2-1.2-13.5c-0.8-1.3-2.9-1.7-3.9-0.5
				c-3.1,3.4-6.2,6.9-9.2,10.3c1.4,0.6,2.8,1.2,4.3,1.8c0.3-3.1,0.1-5.9-0.6-8.9c-0.3-1.4-1.8-2-3.1-1.7c-2.7,0.6-4.6,1.6-6.8,3.3
				c1.4,0.6,2.8,1.2,4.3,1.8c-0.4-8.7-2.5-17-6.2-24.8c-1.1-2.3-4.6-1.1-4.7,1.3c-0.2,9.2-1.8,18-4.7,26.7c1.5-0.2,3-0.4,4.6-0.6
				c-1.5-2.5-3.1-5.1-4.6-7.6c-0.9-1.5-3.5-1.8-4.3,0c-0.2,0.8-0.6,1.4-1.1,2c-0.9,1.8-2.4,1.5-4.5-0.8c1.3-2-1.4-4.9-3.4-3.4
				c-2.7,1.9-5.3,3.8-8,5.7c1.3,0.7,2.5,1.4,3.8,2.2c-0.1-8.8-2-17.1-5.7-25c-1-2.3-4.7-1.1-4.7,1.3c0.2,8.7-0.9,17.2-3.1,25.6
				c1.5-0.2,3-0.4,4.6-0.6c-1.7-2.3-3.4-4.5-5-6.8c-0.9-1.2-2.8-1.9-3.9-0.5c-1.9,2.2-3.7,4.5-5.6,6.7c1.4,0.4,2.8,0.7,4.2,1.1
				c-0.9-2.4-1.8-4.7-2.7-7.1c-0.7-1.7-2.7-2.5-4.2-1.1c-1.2,1.2-2.5,2.4-3.7,3.6c1.4,0.4,2.8,0.7,4.2,1.1
				c-1.8-6.9-2.9-13.8-3.3-20.9c-0.1-2.6-3.2-3.2-4.7-1.3c-4.8,6.4-6.4,13.8-5.3,21.7C405.3,330.2,410.1,328.8,409.6,325.7
				L409.6,325.7z"/>
		</g>
		<g>
			<path class="st13" d="M333,311.9c0.3-3,2.4-29.5,7-29c-0.8-0.8-1.7-1.7-2.5-2.5c-0.8,13.3-0.1,26.6,2,39.7
				c0.4,2.4,3.4,2.1,4.6,0.6c1.6-2.1,3.2-4.3,4.8-6.4c-0.9,0.4-1.9,0.8-2.8,1.1c0.8,0.3,1.6,4.3,2.5,5.2c1.1,1.1,2.8,1.7,4.4,1.1
				c1.9-0.7,2.5-2.6,3.3-4.3c1.4-3.2,2.7-6.4,4.1-9.7c-1.4,0-2.9,0-4.3,0c1.6,3.3,3.1,6.5,4.7,9.8c1.4,2.9,5.7,0.4,4.3-2.5
				c-1.6-3.3-3.1-6.5-4.7-9.8c-0.8-1.6-3.6-1.7-4.3,0c-0.9,2.1-1.8,4.3-2.7,6.4c-0.5,1.1-0.9,2.1-1.4,3.2c-0.8,1.8-1,2.1-0.3,1.1
				c-0.7-0.7-0.7-2.6-1.4-3.5c-0.9-1.2-1.5-1.4-2.8-1.9c-1.1-0.4-2.2,0.3-2.8,1.1c-1.6,2.1-3.2,4.3-4.8,6.4c1.5,0.2,3,0.4,4.6,0.6
				c-2.1-12.7-2.7-25.5-1.9-38.4c0.1-1.4-1.2-2.4-2.5-2.5c-5.8-0.6-7.3,6-8.3,10.4c-1.8,7.8-3,15.7-3.7,23.6
				C327.7,315.1,332.7,315.1,333,311.9L333,311.9z"/>
		</g>
		<g>
			<path class="st13" d="M469.2,144.4c3.2,0,3.2-5,0-5C466,139.4,466,144.4,469.2,144.4L469.2,144.4z"/>
		</g>
		<g>
			<path class="st13" d="M390.8,98.5c-3.4-3.1-4.4-8.5-0.7-11.9c4.1-3.9,8.9-1.8,13.1,0.7c5.6,3.3,11,5.4,17.3,2.7
				c6.5-2.8,10.6-8.5,14.7-14c4.8-6.4,14.2-16.1,22-7.9c2.1,2.2,3.6,4.9,6.1,6.8c2.9,2.2,6.2,2.6,9.6,3.5c1.2,0.3,2.4,0.5,3.6,1.2
				c2.1,1.2,2.2,1.7,1.3,3.9c-1.3,3.2-4.2,2.9-7.3,2c-4.6-1.2-8.1-3.9-11.7-6.8c-4.2-3.3-9.5-5.8-14.3-2.1
				c-4.6,3.5-5.3,9.9-8.9,14.2c-5.2,6.1-14.2,9-21.9,6.9c-5.7-1.6-12.8-7.5-17.9-1.1c-2,2.5,1.5,6,3.5,3.5c3.1-3.9,9.8,1.6,13.7,2.6
				c3.4,0.8,6.9,0.9,10.4,0.3c7-1.2,13.7-5.2,17.7-11.2c2-3.1,2.9-6.8,5.1-9.8c4.3-5.7,9.8,1.2,13.7,3.9c5.5,3.9,15.2,7.9,21.2,2.8
				c5.6-4.8,2-11.9-3.9-14.3c-4.5-1.8-8.9-1.3-12.5-5.1c-2.8-3-4.6-6.4-8.4-8.2c-7.1-3.3-15.2,0.8-20.2,6
				c-6.3,6.6-12.4,21.3-23.7,19c-5.1-1-8.8-5.3-13.9-6.4c-3.7-0.8-7.5,0.1-10.5,2.3c-6.7,5-6.5,14.6-0.5,20
				C389.6,104.3,393.2,100.7,390.8,98.5L390.8,98.5z"/>
		</g>
		<g>
			<path class="st13" d="M385.8,100.9c1.9,4,7.4,4.7,10.6,1.9c2.4-2.1-1.1-5.7-3.5-3.5c-0.8,0.7-2.2,0.2-2.7-0.9
				c-0.6-1.2-2.3-1.5-3.4-0.9C385.4,98.2,385.2,99.7,385.8,100.9L385.8,100.9z"/>
		</g>
		<g>
			<path class="st13" d="M399,85.3c1.8,1.4,2.7,3.8,1.6,6c-1.4,2.9,2.9,5.4,4.3,2.5c2-4,1.2-9.2-2.4-12c-1.1-0.8-2.5-1-3.5,0
				C398.1,82.6,397.9,84.5,399,85.3L399,85.3z"/>
		</g>
		<g>
			<path class="st13" d="M412.7,90.8c0.6,1.5,0.6,2.9-0.3,4.2c-1.6,2.8,2.7,5.3,4.3,2.5c1.4-2.4,1.8-5.4,0.8-8.1
				c-0.5-1.3-1.7-2.1-3.1-1.7C413.2,88,412.2,89.5,412.7,90.8L412.7,90.8z"/>
		</g>
		<g>
			<path class="st13" d="M420.5,89.7c2.2,0.6,4,3.4,3,5.6c-0.5,1.3-0.4,2.7,0.9,3.4c1,0.6,2.9,0.3,3.4-0.9c2.2-5.2-0.4-11.4-6-13
				C418.8,84.1,417.4,88.9,420.5,89.7L420.5,89.7z"/>
		</g>
		<g>
			<path class="st13" d="M427.4,86.8c2.6,0,5,2.1,5.1,4.8c0.1,3.2,5.1,3.2,5,0c-0.2-5.4-4.7-9.8-10.1-9.8
				C424.2,81.8,424.2,86.8,427.4,86.8L427.4,86.8z"/>
		</g>
		<g>
			<path class="st13" d="M432.8,81.1c2.3-0.4,4.3,1.4,4.8,3.5c0.7,3.1,5.5,1.8,4.8-1.3c-1.1-5-6.1-7.8-10.9-7
				c-1.3,0.2-2.1,1.9-1.7,3.1C430.1,80.8,431.5,81.4,432.8,81.1L432.8,81.1z"/>
		</g>
		<g>
			<path class="st13" d="M436.9,71.8c3,0,5.5,2.5,5.5,5.5c0,3.2,5,3.2,5,0c0-5.7-4.8-10.5-10.5-10.5
				C433.7,66.9,433.7,71.9,436.9,71.8L436.9,71.8z"/>
		</g>
		<g>
			<path class="st13" d="M449.7,67.5c2-0.2,1.6,10.5,1.5,11.8c-0.3,3.2,4.7,3.2,5,0c0.4-4.4,0.8-17.5-6.5-16.8
				C446.5,62.8,446.5,67.8,449.7,67.5L449.7,67.5z"/>
		</g>
		<g>
			<path class="st13" d="M377.5,108.6c-5.4,5.2-8.9,11.9-10,19.3c-0.5,3.1,4.3,4.5,4.8,1.3c1-6.6,3.9-12.4,8.7-17.1
				C383.4,109.9,379.8,106.4,377.5,108.6L377.5,108.6z"/>
		</g>
		<g>
			<path class="st13" d="M392.5,109.9c-4.1,1-7.4,4.4-8.3,8.5c-0.6,3.1,4.2,4.5,4.8,1.3c0.5-2.5,2.3-4.4,4.8-5
				C397,114,395.7,109.1,392.5,109.9L392.5,109.9z"/>
		</g>
		<g>
			<path class="st13" d="M188.5,227.5c0,0.2,0,0.3,0,0.5c0,1.3,1.1,2.6,2.5,2.5c1.4-0.1,2.5-1.1,2.5-2.5c0-0.2,0-0.3,0-0.5
				c0-1.3-1.1-2.6-2.5-2.5C189.7,225,188.5,226.1,188.5,227.5L188.5,227.5z"/>
		</g>
		<g>
			<path class="st13" d="M196.3,232.7c0.2,0.3,0.3,0.7,0.5,1c0.6,1.2,2.3,1.6,3.4,0.9c1.2-0.8,1.5-2.2,0.9-3.4
				c-0.2-0.3-0.3-0.7-0.5-1c-0.6-1.2-2.3-1.6-3.4-0.9C196,230.1,195.7,231.5,196.3,232.7L196.3,232.7z"/>
		</g>
		<g>
			<g>
				<path class="st13" d="M5,353.6c0-0.2,0-0.5,0-0.7c-0.4,0.7-0.8,1.4-1.2,2.2c-2.4,1.6,3.1,3.3,4.2,3c0.4-0.1,0.8-0.3,1.1-0.6
					c0.9-0.7,0.6-0.8-0.9-0.4c0.2,0.6,1.3,1.7,1.8,2.1c5.4,3.8,8.3-5.3,10.2-8.7c-1.4,0-2.9,0-4.3,0c1.4,1.9,2.1,3.6,2.2,6
					c0.1,1.6,1.5,2.9,3.2,2.4c1.5-0.5,3-1.5,3.7-3c-1.2-0.4-1.6-0.2-1.3,0.5c0.1,0.4,0.2,0.8,0.4,1.2c0.2,0.6,0.6,1.3,1.1,1.7
					c1,1,2.6,1.3,3.9,0.8c1-0.3,3.1-2.7,2.7-2.6c-0.8-0.6-1.6-1.2-2.4-1.8c0.7,2.3,1.7,5.6,4.2,6.5c1.9,0.7,4.5-2.2,5.8-0.7
					c2.1,2.4,5.6-1.1,3.5-3.5c-1.4-1.6-3.3-2.5-5.4-2.2c-0.8,0.1-1.5,0.4-2.2,0.7c-0.4,0.3-0.9,0.7-1.3,1c1.6-0.5,1.7-1.5,0.3-3.1
					c-0.3-1-1.3-1.9-2.4-1.8c-1.4,0.1-3.3,0.6-3.8,2.1c-0.5,1.5,0.4,1.2,0.5,0c0-0.7-0.7-1.9-1.2-2.3c-1-1.1-2.2-1.5-3.7-1.2
					c-1.8,0.4-2.2,2.4-3.6,2.9c1.1,0.8,2.1,1.6,3.2,2.4c-0.2-3.3-1-5.9-2.9-8.6c-1-1.4-3.3-1.8-4.3,0c-1,1.9-2.3,3.7-3.1,5.7
					c-0.8,2,0,1.3-1-0.1c-1.5-2-3.1-1-4.9-0.8c-1.6,0.2,0.5,0.9-0.3,0.1c0.7,0.6-0.4-1.6-0.4-1.6c-0.6-0.9-1.5-1.2-2.6-1.2
					c-2.2-0.1-3.5,1.5-3.6,3.6C-0.2,356.8,4.8,356.8,5,353.6L5,353.6z"/>
			</g>
			<g>
				<path class="st13" d="M22.8,355.1c5.1-2.8,4-8,2.5-12.7c-2.4-7.6-3.4-22.1,9-21.1c3.8,0.3,4.3,2.9,2.5,5.9
					c-0.5,0.9-1.5,1.7-2.1,2.6c-1.5,2.3-2.2,4.7-2.3,7.5c-0.1,3,0.2,6.3,1.1,9.2c1,3.2,5.3,7.9,4.6,11.1c-0.7,3.1,4.1,4.5,4.8,1.3
					c0.9-4.2-1.1-6.5-3-10.1c-2.5-4.6-4-11.5-1.1-16.2c1.8-2.8,4.6-4.8,4.6-8.4c0.1-3.1-1.9-5.4-4.6-6.7c-6.3-3-14.3,0-17.9,5.8
					c-1.9,3.1-2.8,6.8-2.7,10.4c0,2.3,0.4,4.6,1,6.8c0.6,2.5,4.1,8.7,0.9,10.4C17.5,352.3,20,356.6,22.8,355.1L22.8,355.1z"/>
			</g>
			<g>
				<path class="st13" d="M45.6,360.6c1,0.1,1.7,0.6,2.2,1.4c1.3,1.5,3.6,0.5,4.2-1.1c-0.1,0.4,2,0.9,2.6,0.9c1.5-0.1,1.8-1,2.9-1.7
					c0.7-0.5,0.1-0.6,0.9-0.7c0.6,0,1.3,0.6,1.9,0.7c1.4,0.3,2.6,0.2,3.9-0.5c2.7-1.7,0.2-6-2.5-4.3c-0.5,0.3-3.4-1.2-4.5-1
					c-1.5,0.2-3.2,1.2-3.7,2.7c0.2-0.6,2.1,0.1,0.2-0.7c-1-0.4-2-0.5-3.1-0.3c-1.9,0.5-2.9,1.9-3.5,3.6c1.4-0.4,2.8-0.7,4.2-1.1
					c-1.7-2-4.3-3.8-7.1-3c-2.3,0.7-3.8,2.7-3.6,5.1C40.7,363.8,45.7,363.8,45.6,360.6L45.6,360.6z"/>
			</g>
			<g>
				<path class="st13" d="M35.2,340.7c-3.2-3.1-7.9-4.3-12.1-2.8c-3,1.1-1.7,5.9,1.3,4.8c2.6-0.9,5.3-0.4,7.3,1.5
					C34,346.5,37.5,343,35.2,340.7L35.2,340.7z"/>
			</g>
			<g>
				<path class="st13" d="M36.5,331.6c-2.8-4.6-7.4-7.4-12.8-7.9c-3.2-0.3-3.2,4.7,0,5c3.5,0.3,6.6,2.4,8.5,5.4
					C33.9,336.9,38.2,334.4,36.5,331.6L36.5,331.6z"/>
			</g>
		</g>
	</g>
	<g>
		<g>
			<path class="st13" d="M518.7,160.2c-8.8-10.5,2.5-26.4,2.3-38.2c-1.3,0.7-2.5,1.4-3.8,2.2c3.7,1.6,8.5-0.8,7.2-5.4
				c-1.5-5.4-7.5-4.4-10.8-1.6c-2.5,2.1,1.1,5.6,3.5,3.5c0.9-0.3,1.8-0.6,2.6-0.9c-1.7-0.7-3.8,0.1-3.8,2.2
				c0.2,14.1-11.6,28.8-0.9,41.7C517.2,166.2,520.7,162.7,518.7,160.2L518.7,160.2z"/>
		</g>
	</g>
	<g>
		<g>
			<path class="st13" d="M526.1,119.4c1.6-2.6,4.7-3.5,7.6-2.6c3.1,1,4.4-3.8,1.3-4.8c-5-1.7-10.5,0.4-13.2,4.9
				C520.1,119.6,524.4,122.1,526.1,119.4L526.1,119.4z"/>
		</g>
	</g>
	<g>
		<g>
			<path class="st13" d="M526.8,124.3c2.4,1.1,4.8,2.1,7.2,3.2c1.2,0.5,2.7,0.4,3.4-0.9c0.6-1.1,0.3-2.9-0.9-3.4
				c-2.4-1.1-4.8-2.1-7.2-3.2c-1.2-0.5-2.7-0.4-3.4,0.9C525.3,122,525.6,123.8,526.8,124.3L526.8,124.3z"/>
		</g>
	</g>
	<g>
		<g>
			<path class="st13" d="M519.7,125.7c1.7,2.6,2.6,5.3,2.7,8.4c0.1,3.2,5.1,3.2,5,0c-0.1-3.9-1.3-7.6-3.4-10.9
				C522.2,120.5,517.9,123,519.7,125.7L519.7,125.7z"/>
		</g>
	</g>
	<g>
		<g>
			<path class="st13" d="M517,118.8c-5,1.8-8.9,6.1-9.6,11.5c-0.2,1.3,0.3,2.7,1.7,3.1c1.2,0.3,2.9-0.4,3.1-1.7
				c0.5-3.6,2.6-6.7,6.1-8C521.3,122.5,520,117.6,517,118.8L517,118.8z"/>
		</g>
	</g>
	<g>
		<g>
			<path class="st13" d="M516.2,114c-3.8,0.7-7.4,1.9-11,3.5c-2.9,1.4-0.4,5.7,2.5,4.3c3.1-1.5,6.4-2.4,9.8-3
				C520.7,118.3,519.4,113.5,516.2,114L516.2,114z"/>
		</g>
	</g>
	<g>
		<g>
			<path class="st13" d="M520.1,112.5c-2.2,0.1-4-0.8-5.4-2.5c-0.9-1-2.7-0.9-3.5,0c-1,1-0.9,2.5,0,3.5c2.1,2.6,5.5,4.1,8.9,4
				C523.3,117.4,523.3,112.4,520.1,112.5L520.1,112.5z"/>
		</g>
	</g>
	<g>
		<g>
			<path class="st13" d="M523.1,115.2c-0.9-2.4-0.7-4.7,0.8-6.9c1.8-2.7-2.5-5.2-4.3-2.5c-2.1,3.1-2.6,7.2-1.3,10.7
				C519.4,119.5,524.3,118.2,523.1,115.2L523.1,115.2z"/>
		</g>
	</g>
</g>
</svg>
