<svg xmlns="http://www.w3.org/2000/svg" viewBox="0 0 1275 307.8"><style>.st13,.st15{fill:#fff}.st15{opacity:.8}</style><g id="Calque_2"><path class="st13" d="M85.3 212.7c-4.5-1.9-9.5-1.5-13.1 2.1-3.8 3.8-3.8 9.6-.6 13.7 3.2 4.1 9.1 5.3 13.4 2.1 4.1-3.1 5.5-8.6 3-13.1-3.1-5.7-11.7-.6-8.6 5-.1-.1-.3-1-.1-.4.2.4.1-.2 0 .1 0 0-.1.5-.5.5-.1 0 .6-.3.6-.3.6-.4.2.9-.1-.1l.4.2c-.5-.3-.2-.2-.4-.4-.1-.2-.3-.3-.2-.8-.1.2 0 .3-.1.5.5-.7-.1-.1.3-.4.6-.5-.5.2.2-.1.3-.2.3-.2 0 0 .2 0 .3-.1.5-.1-.6.1 0 .1.2 0 .4-.2.6.2-.1-.1 2.5 1.1 5.4.7 6.8-1.8 1.4-1.9.9-5.6-1.6-6.6z"/><path class="st13" d="M24.8 258.6c14.7-12.2 28.6-24.2 47.2-29.8 6.1-1.9 3.5-11.5-2.7-9.6-9.7 2.9-19 7.2-27.4 12.9-8.6 5.8-16.3 12.9-24.3 19.5-4.8 4.1 2.3 11.1 7.2 7z"/><path class="st13" d="M71.1 223.1c-12.4 17.3-20.8 37.3-24.3 58.4-1.1 6.3 8.6 9 9.6 2.7 3.4-20.3 11.3-39.2 23.3-56 3.8-5.3-4.9-10.3-8.6-5.1z"/><path class="st13" d="M75.8 223c2.6 21.4 8.4 41.9 17.5 61.5 2.7 5.8 11.3.8 8.6-5-8.3-17.8-13.8-36.9-16.2-56.4-.6-6.4-10.7-6.5-9.9-.1z"/><path class="st13" d="M79.2 227.7c15.5 10.7 31.4 21 46.2 32.7 5 4 12.1-3.1 7.1-7.1-15.4-12.2-32-23.1-48.2-34.3-5.4-3.6-10.4 5-5.1 8.7z"/><path class="st13" d="M84.8 227.2c10.2-.9 20.3-2 30.5-2.6 5.1-.3 9.9.6 15 .9 4.7.3 9.5-.1 14.2-.4 6.4-.5 6.4-10.5 0-10-4.7.4-9.5.7-14.2.4-5-.3-9.9-1.2-15-.9-10.2.6-20.4 1.7-30.5 2.6-6.3.6-6.4 10.6 0 10z"/><path class="st13" d="M83.3 221.9c18.7-10.8 37.8-21.1 57.1-30.8 5.7-2.9.7-11.5-5-8.6-19.3 9.7-38.3 20-57.1 30.8-5.6 3.2-.6 11.8 5 8.6z"/><path class="st13" d="M85.7 215.4c3.1-18.4 7.8-36.4 13.8-54.1 2.1-6.1-7.6-8.7-9.6-2.7-6.1 17.6-10.7 35.7-13.8 54.1-1.1 6.4 8.5 9.1 9.6 2.7z"/><path class="st13" d="M80.7 213.5c-10-17.7-13.7-38.9-18.9-58.4-1.7-6.2-11.3-3.6-9.6 2.7 5.5 20.3 9.4 42.2 19.9 60.7 3.1 5.7 11.8.6 8.6-5z"/><path class="st13" d="M73.9 214.1c-4.3-1.9-7.6-5.7-11-8.8-3.8-3.5-7.6-6.9-11.4-10.4-7.6-6.9-15.3-13.8-22.9-20.7-4.8-4.3-11.9 2.7-7.1 7.1 8.1 7.3 16.2 14.7 24.3 22 3.8 3.5 7.6 6.9 11.4 10.4 3.6 3.3 7.1 7 11.6 9 5.9 2.7 11-6 5.1-8.6z"/><path class="st13" d="M5.9 220.4c20.4.2 40.8 2.1 60.9 5.8 6.3 1.1 9-8.5 2.7-9.6-21-3.8-42.2-5.9-63.6-6.1-6.4-.2-6.4 9.8 0 9.9z"/><path class="st13" d="M140.3 220c-.3 26.9-17 52-42.6 61.2-25.8 9.4-55 1.6-72.7-19.4-17.7-20.9-19.9-51.7-6-75.1 13.9-23.3 41.7-36.1 68.4-30.8 30.6 6 52.6 33 52.9 64.1.1 6.4 10.1 6.4 10 0-.3-31.4-19.9-59.6-49.3-70.6-29.4-11-64.1-1.6-83.9 22.7-20 24.5-22.9 59.7-6.4 86.8 16.4 27 48.4 40.9 79.4 34.8 34.9-6.8 59.9-38.6 60.3-73.7 0-6.5-10-6.5-10.1 0zM374 237c-3.7-1.6-7.8-1.3-10.8 1.7-3.1 3.1-3.1 7.9-.5 11.3 2.7 3.4 7.7 4.4 11.2 1.7 3.4-2.6 4.5-7.1 2.4-10.9-1.2-2.3-4.6-3.2-6.8-1.8-2.3 1.5-3.1 4.4-1.8 6.8-.1-.3-.3-1.5-.3-1.1 0 .7.2-1 0-.3-.1.6.5-.9 0-.1.2-.2.6-.7.1-.3.4-.4.8-.6 1.4-.7.3 0 1.4.3.6 0 .4.1.7.3 1 .6-.7-.6.3.6 0 .1-.3-.6.2.9.1.2-.2-.6 0 1.2 0 .1 0 .5-.1.8-.3 1.2.4-.8-.4.5-.1.1.4-.5-.7.5-.2.2.5-.3-1 .2-.1.1-.2 0-.4 0-.7.1h.3c.4 0 .5 0 0 0-.3 0-.6-.1-.9-.3 2.4 1 5.5.8 6.8-1.8 1.6-2.2 1.2-5.8-1.4-6.9z"/><path class="st13" d="M334.2 270.1c9.6-8 18.5-15.6 30.6-19.4 6.1-1.9 3.5-11.5-2.7-9.6-13.8 4.2-24.1 12.8-35 21.9-4.9 4.2 2.2 11.2 7.1 7.1z"/><path class="st13" d="M362.3 244.5c-8.3 11.7-13.9 25-16.3 39.2-1.1 6.3 8.6 9 9.6 2.7 2.3-13.4 7.4-25.7 15.3-36.8 3.8-5.3-4.9-10.3-8.6-5.1z"/><path class="st13" d="M365.2 245.3c1.8 14.5 5.7 28.4 11.9 41.7 2.7 5.8 11.3.8 8.6-5-5.3-11.6-8.9-24-10.5-36.6-.8-6.4-10.8-6.5-10-.1z"/><path class="st13" d="M368.3 249.9c10.2 7 20.6 13.8 30.3 21.5 5 3.9 12.1-3.1 7.1-7.1-10.4-8.2-21.5-15.5-32.3-23-5.4-3.8-10.4 4.9-5.1 8.6z"/><path class="st13" d="M372.9 249.8c6.9-.6 13.9-1.5 20.9-1.7 6.3-.2 12.4.8 18.8.4 6.4-.5 6.4-10.5 0-10-6.3.5-12.5-.6-18.8-.4-7 .3-13.9 1.1-20.9 1.7-6.4.5-6.4 10.5 0 10z"/><path class="st13" d="M372.7 246c12.4-7.2 25.1-14 37.9-20.5 5.7-2.9.7-11.5-5-8.6-12.8 6.5-25.5 13.3-37.9 20.5-5.6 3.2-.6 11.9 5 8.6z"/><path class="st13" d="M375.1 240.7c2.1-12.2 5.2-24.2 9.2-35.9 2.1-6.1-7.6-8.7-9.6-2.7-4 11.7-7.1 23.7-9.2 35.9-1.1 6.4 8.5 9.1 9.6 2.7z"/><path class="st13" d="M371.6 238.2c-6.5-11.7-8.9-25.6-12.4-38.3-1.7-6.2-11.3-3.6-9.6 2.7 3.7 13.7 6.4 28.2 13.4 40.7 3.1 5.5 11.7.5 8.6-5.1z"/><path class="st13" d="M366.5 238c-5.6-2.8-10.4-8.6-15-12.8-4.9-4.5-9.8-8.9-14.8-13.4-4.8-4.3-11.9 2.7-7.1 7.1 5.4 4.9 10.8 9.8 16.3 14.7 4.8 4.4 9.7 10.1 15.5 13.1 5.8 2.8 10.9-5.9 5.1-8.7z"/><path class="st13" d="M320.5 245.2c13.4.2 26.8 1.4 40 3.8 6.3 1.1 9-8.5 2.7-9.6-14.1-2.5-28.3-3.9-42.7-4.1-6.5-.1-6.5 9.9 0 9.9z"/><path class="st13" d="M408.1 243.3c-.3 17.4-11 33.4-27.6 39.2-16.4 5.8-35 .7-46.1-12.7-11.3-13.6-12.6-33.3-3.4-48.3 9-14.7 26.8-22.6 43.7-19.1 19.4 4.1 33.1 21.2 33.4 40.9.1 6.4 10.1 6.4 10 0-.3-21.8-13.8-41.2-34.3-48.7-20-7.3-43.4-.8-56.9 15.5-13.9 16.8-16 41.2-4.6 60 11.2 18.3 32.7 27.7 53.7 23.9 24.4-4.3 41.7-26.4 42.1-50.7.1-6.5-9.9-6.5-10 0zM299.5 167c6.5 9.7 20.1 6.9 25.3-2.7 2.9-5.4 3-11.7 2.6-17.6-.4-5.9-2.1-15 3.5-19.1 5.2-3.9 14.8-3.4 16.6 3.7.7 2.7.7 6.1 0 8.8-.2.9-1.2 4.6-2.6 3.9-.7-.3-.6-2.2-.4-2.7 1.9-5.6 12.2-5.8 15.6-2.2 5.1 5.5 6.3 14.5 6.2 21.6-.1 6.4 9.9 6.4 10 0 .2-13-5.2-34.8-21.9-34.2-6.5.2-14.2 3-17.9 8.7-3.4 5.2-2.8 12.6 2.1 16.6 5.6 4.6 13.4 1.5 16.7-4.3 3.2-5.6 3.4-14.1 1.4-20.2-4.7-14.4-25.9-15.8-35-4.8-5.7 6.9-5 15.8-4.4 24.2.3 4.1.7 8.8-1.3 12.6-1.2 2.4-5.7 6.1-8 2.7-3.4-5.3-12.1-.3-8.5 5z"/><path class="st13" d="M282 210.2c25.3.3 37.6-24 56.6-36.1 9.7-6.2 21.8-8 32.3-2.9 9.7 4.7 10 16.3 6.1 25.3-2.5 5.9 6.1 11 8.6 5 4.3-10 5.7-22.6-1-32-7.4-10.3-23-12.9-34.7-10.7-12.4 2.4-21.6 9.9-30.7 18.2-10.7 9.8-21.4 23.3-37.3 23.1-6.3.1-6.3 10.1.1 10.1zM183.8 99.1c-4.2 16-7.1 32.4-8.5 48.9-.6 6.6-.1 12.5 7.9 12.8 8.8.3 17.8-.4 26.5-.6 8.5-.2 17-.4 25.6-.6 3.1-.1 6.5.1 9-2.1 2.6-2.3 2.7-5.9 2.5-9.1-.7-15.1-4.7-30.1-11.3-43.7-1.5-3-3-7.2-6.1-8.9-3.1-1.7-7.6-.9-11-.8-9.8.3-19.7.9-29.5 1.9-6.4.6-6.4 10.6 0 10 7.6-.7 15.2-1.3 22.8-1.6 3.8-.2 7.7 0 11.4-.4 2 .3 2.5.2 1.4-.3-1-.6-.9-.2.3 1.3.6 1.6 1.6 3.1 2.4 4.7 3.1 6.4 5.4 13.2 7 20.2.8 3.2 1.4 6.4 1.8 9.6.3 2.4 1.9 9 .3 11 1-.8 2-1.5 3-2.3-3.7 1.5-9.1.6-13 .7l-13.8.3-13.8.3c-2.6.1-5.2.1-7.9.2-1.6 0-5.5-.6-6.9.2-1.7-.2-1.5.5.7 2 .1-1.3.2-2.5.3-3.8l.6-6.6c.5-4.6 1.1-9.2 1.8-13.7 1.5-9.1 3.4-18 5.8-26.9 2-6.3-7.7-8.9-9.3-2.7zM188.6 74.5c-8.2-8.1-21.8-5.5-31.8-2.8-11.6 3.2-22.3 9.2-31.3 17.2-19.7 17.5-28.2 43.7-23.1 69.4 1.2 6.3 10.9 3.6 9.6-2.7-4.2-21.2 2.8-42.7 18.4-57.7 6.8-6.6 15.1-11.9 24.1-15.1 6.7-2.4 21-7.3 27-1.4 4.6 4.7 11.7-2.4 7.1-6.9z"/><path class="st13" d="M256.5 229.9c27.4-16.1 48.6-40.2 53-72.4 4.7-34.4-11.4-72.7-42.3-90-17.5-9.8-39.1-10.3-55.2 2.4-5.1 4 2.1 11 7.1 7.1 12.7-10 30.5-8.1 43.8-.4 13.3 7.7 23.5 20.2 29.9 34 11.4 24.5 10 54.3-4.4 77.2-9 14.3-22.4 25.1-36.8 33.5-5.7 3.2-.7 11.9 4.9 8.6zM763.6 297.6c-12.1 0-22-9.7-22.2-21.9l-5.5-154.1c-.2-12.3 9.6-22.4 21.9-22.6h.4c12.1 0 22 9.7 22.2 21.9l5.5 154.1c.2 12.3-9.6 22.4-21.9 22.6h-.4z"/><path class="st13" d="M678.7 297.6c-12.1 0-22-9.7-22.2-21.9l-5.5-154c-.2-12.3 9.6-22.4 21.9-22.6h.4c12.1 0 22 9.7 22.2 21.9l5.5 154c.2 12.3-9.6 22.4-21.9 22.6h-.4z" opacity=".8"/><path class="st13" d="M789.7 297.6h-26.1c-12.3 0-22.2-10-22.2-22.2 0-12.3 10-22.2 22.2-22.2h26.1c12.3 0 22.2 10 22.2 22.2s-9.9 22.2-22.2 22.2zM582.9 297.6c-12.1 0-22-9.7-22.2-21.9l-5.5-154.1c-.2-12.3 9.6-22.4 21.9-22.6h.4c12.1 0 22 9.7 22.2 21.9l5.5 154.1c.2 12.3-9.6 22.4-21.9 22.6h-.4z"/><path class="st13" d="M609 297.6h-26.1c-12.3 0-22.2-10-22.2-22.2 0-12.3 10-22.2 22.2-22.2H609c12.3 0 22.2 10 22.2 22.2.1 12.2-9.9 22.2-22.2 22.2zM863.7 297.6c-12.1 0-22-9.7-22.2-21.9l-5.5-154c-.2-12.3 9.6-22.4 21.9-22.6h.4c12.1 0 22 9.7 22.2 21.9l5.5 154.1c.2 12.3-9.6 22.4-21.9 22.6-.2-.1-.3-.1-.4-.1z"/><path class="st13" d="M889.7 297.6h-26.1c-12.3 0-22.2-10-22.2-22.2 0-12.3 10-22.2 22.2-22.2h26.1c12.3 0 22.2 10 22.2 22.2.1 12.2-9.9 22.2-22.2 22.2z"/><path class="st15" d="M321 57.8c-3.7-10.3.9-17.1 12-17.1h18.9c8.5 0 14.2 3.9 16.8 12.5 17.8 50.7 38.8 101.5 58.7 152.2 5.5 14.6 11.4 37 11.4 37h.7s3.7-22.4 7.8-37c14.6-50.7 28.3-101.5 45.1-152.2 2-8.5 7.8-12.5 16.3-12.5h18.1c11 0 15.6 6.8 12.2 17.1-25.8 74.6-44.9 149.2-70.8 223.7-2.7 8.2-8.1 11.7-16.6 11.7h-22.8c-8.5 0-13.9-3.6-16.8-11.7-28-74.5-62.8-149.1-91-223.7zM1012.6 107.6c51.5 0 82.2 36.6 85.3 86.4.5 7.8-5.9 15.3-14.8 15.3H972.5c4.6 32.7 29.2 49.8 56.6 49.8 16.7 0 30.4-6.4 38.7-11.7 8.7-4.3 15.2-3.2 20.1 5 1.5 2.4 3 4.7 4.5 7.1 4.5 8.2 3.2 15.3-4.5 19.9-11.6 7.5-32.9 18.1-61.4 18.1-60 0-97.5-43.4-100.6-95-3.4-55.7 32.2-94.9 86.7-94.9zm39.8 74.4c-2.2-25.3-18.4-40.2-39-40.2-23.1 0-38.6 16-41.4 40.2h80.4zM1118.4 126.9c-.5-9.6 4.2-14.9 13.8-14.9h13.9c9.6 0 15.2 5.3 15.7 14.9l.9 17.1c.4 6.8-.3 12.4-.3 12.4h.7c5.8-21.7 24.5-45.9 50.1-45.9 10 0 13.7 5 14.3 14.9.2 4.6.5 9.2.8 13.9.5 9.6-4.8 14.9-14.4 14.9-33.1 0-47 32.7-45.3 65.8 1 19.4 1.8 38.9 2.1 58.3.2 10-4.8 14.9-14.4 14.9h-15.7c-9.6 0-14.6-5-14.7-14.9-1-50.4-4.8-100.9-7.5-151.4z"/><circle class="st15" cx="671.1" cy="60.9" r="22.2"/><path class="st13" d="M194.4 85.6c8.3 6.1 17.7.2 26.4-1.6 8.8-1.8 18.4-.1 26.2 4.4 19 10.7 21.4 33.6 20.4 53.2-.3 6.4 9.7 6.4 10 0 1.1-21.4-2.2-45.1-20.6-58.8-7.7-5.7-17.2-9-26.8-9.4-4.9-.2-9.9.3-14.6 1.7-4.8 1.4-11.3 5.3-15.9 1.9-5.3-3.8-10.3 4.9-5.1 8.6z"/><path class="st13" d="M196.9 78.1c-17.4-9.3-35.1 2.6-45.4 16.7-10.6 14.6-14.5 32.9-11.7 50.6 1 6.3 10.6 3.6 9.6-2.7-2.1-13.5.9-27.5 8.1-39.1 6.7-10.8 20.6-24.2 34.3-16.9 5.8 3.1 10.8-5.5 5.1-8.6zM138.7 205.4c6.7 13.6 20.5 22.6 35.4 24.6 11.6 1.5 36.9-2.4 34.2-19.1-1-6.6-7.5-11.3-14-11.6-7.5-.3-13.5 5.4-15.5 12.4-2.2 7.8.5 16.1 5.9 21.8 6.2 6.5 15.2 8.2 23.9 7.9 8.7-.3 19.6-3.3 27.5 1.8 3.7 2.3 5.4 6.3 4.7 10.6-.3 2.1-1.2 4.1-2.7 5.6-1 1-5.8 3.9-5.7.6 0-6.4-10-6.4-10 0 0 7.1 6.1 12.1 13 11.4 6.8-.7 12.3-6.3 14.4-12.5 4.8-14-5.5-25.9-19.1-27.9-12.5-1.9-38.1 7-42.4-10.8-1.1-4.8 2.4-14.8 8.7-9.8 6.2 4.9-9.4 9.3-12.5 9.7-15.1 2-30.6-6.2-37.3-19.9-2.7-5.6-11.3-.6-8.5 5.2zM103.4 128.7c-8.2-.2-16.1-2.9-22.6-7.9-3.3-2.5-6.4-5.6-8.5-9-1.7-2.7-3.9-9.9 2-9.4s2.3 7.4.2 9.7c-2.7 2.8-6.1 5.3-9.6 6.9-9.8 4.5-17.7-3-23.9-9.9-5-5.6-10.6-13.5-18.9-13.9-7.5-.3-14.1 5.5-17.7 11.6-3.7 6.3-4.4 14.6 1.3 19.9 4.7 4.3 12 4.8 16.6.1 4.5-4.6-2.5-11.7-7.1-7.1-1.8 1.9-3.8-1.6-3.9-3.2 0-3.7 3.3-7.8 6.1-9.8 7-4.9 13.5 6.2 17.5 10.7 5 5.5 10.9 10.6 18.3 12.4 7.4 1.8 14.7-.6 20.9-4.7 5.7-3.8 11.7-9 13.2-16 1.3-6.4-2.1-12.8-8-15.4-5.8-2.6-12.6-.6-16.4 4.4-4.3 5.8-2.9 13 .7 18.8 8.4 13.5 24.1 21.4 39.8 21.8 6.5.2 6.5-9.8 0-10zM118.8 107.3c-.1-16.1-4.6-32.7-13.9-46-4-5.8-9.3-10.6-16.5-11.6-6.8-.9-13.8 1.8-17.6 7.6-7.6 11.7 3 28.6 17.1 23.6 13.7-4.9 14.9-25 7.4-35.3-4.5-6.2-11.4-10-19-10.7-3.9-.4-8.1.3-10.3-3.6-1.7-3.1-1.7-7.3-1.7-10.8-.1-6.4-10.1-6.4-10 0 .2 11.4 3.5 22.8 16.5 24.1 6.4.6 12.1 1 16.3 6.6 3.9 5.2 4.1 13.5-.3 18.5-4.9 5.6-11.5-1.9-7.4-7.3 4.8-6.4 12.8-1.4 16.4 3.3 8.8 11.8 12.9 27 13 41.6.1 6.4 10.1 6.4 10 0zM232 60c-10.2.1-16.1-9.2-21.1-16.9-3.4-5.4-12.1-.4-8.6 5 7 11 15.5 22 29.7 21.9 6.5 0 6.5-10 0-10z"/><path class="st13" d="M170.8 80.3c8.5-3.5 16.9-8.9 20.4-17.9 3.5-9.3.8-22.9-4.8-30.8-5.4-7.6-15.6-12-24.4-7.2-8.2 4.5-9.8 15.3-3.6 22.1.3-2.6.7-5.2 1-7.9-3.9 2.1-4.5-4.4-4-6.7.7-3.5 2.9-6.8 5.5-9.1 5.5-5.1 13.5-6.6 20.5-3.9 13.2 5.1 15.8 22.7 24.8 32.4 4.4 4.7 11.5-2.4 7.1-7.1-7.5-8-9.9-19.3-17.5-27.3-7.8-8.2-20.3-11.5-31.1-7.7-9.8 3.4-18.3 12.5-19.5 23.1-1.1 10.6 8.6 20.8 19.2 15.1 2.9-1.6 3.1-5.6 1-7.9-3.8-4.1 2.5-7.7 6.3-6.9 6 1.3 8.7 8 9.8 13.3 1.1 5.2 1.9 11-1.2 15.7-2.9 4.2-7.6 7.1-12.3 9.1-5.7 2.5-3.1 12.1 2.8 9.6zM340.3 104.6c-2-8.6 5.6-14.8 12.4-18.3 3.1-1.6 21.4-10.3 21.9-3.3.5 6.4 10.5 6.4 10 0s-4.9-11.2-11.2-12.4c-7.2-1.4-14.8 2.3-21.3 5-12.8 5.4-24.9 16.3-21.4 31.5 1.4 6.4 11.1 3.8 9.6-2.5z"/><path class="st13" d="M328.6 77.6c-3.1-1.9-2.2-6.4-.7-9.1 1.9-3.4 5.3-5.7 8.6-7.5 7-3.8 14.9-5.7 21.9-9.7 7.5-4.3 13.5-11 15.4-19.6 1.9-8.1.2-18.4-7.4-23.1-6.2-3.8-15.6-2.3-19.3 4.4-4.2 7.6 1.3 16.8 8 20.7 17.1 10 33.5-3.5 45.6-14.6 4.1-3.8 8.6-8.2 14.4-9.2 5.2-.8 10.9 1.2 14.1 5.5 2.9 3.9 3.9 9.6 2 14.1-.8 1.9-2.5 4.5-4.6 5-1.4.3-4.2-.7-3.1-2.6 3.4-5.5-5.3-10.5-8.6-5-4.4 7.3 1.1 16.8 9.3 17.7 8.9 1 15.8-7.1 17.4-15.2 4.2-20.7-18-36.2-36.2-26.5-9.3 4.9-15.6 14-24.3 19.7-6.5 4.2-17.7 7.5-23.6.3-1.1-1.4-2.7-4.1-1.2-5.6 1.2-1.2 3.7-.9 5 0 4.3 2.8 3.7 9.9 2.2 14-3.2 9.3-12.5 12.9-20.9 16.2-8.3 3.3-17.1 6.8-22.4 14.4-5.3 7.6-5.3 19.1 3.3 24.3 5.5 3.4 10.6-5.3 5.1-8.6zM375.1 155.3c2.6-14.5 16.8-26 31.8-24.3 17.6 2.1 29 19.4 39.8 31.6 10.9 12.2 25.7 23.9 43.2 21.9 14.9-1.7 27.4-15.8 23.8-31.1-1.5-6.3-11.1-3.6-9.6 2.7 1.8 7.7-4.2 15.1-11.2 17.6-7.8 2.8-16.6-.1-23.3-4.2-14.7-8.9-23.1-25-36-36-11.5-9.8-26.3-15.8-41.3-10.7-13.3 4.5-24.2 15.8-26.7 29.8-1.3 6.3 8.4 9 9.5 2.7zM473.4 111.4c-3.6-2.3-8.1-1.4-10.8 1.9-3 3.7-2.1 8.5.4 12.2 5.7 8.5 17.1 12.5 26.9 12.8 10.7.3 23-3.4 31.8-9.4 7.5-5.1 12.2-15.9 4.3-23.1-4.8-4.3-11.9 2.7-7.1 7.1 7.4 6.7-18 14.2-21.7 14.8-5.1.9-10.4.7-15.4-.8-2.3-.7-4.5-1.7-6.5-3.1-.9-.6-1.8-1.4-2.6-2.1-.6-.5-1.1-1.1-1.5-1.7-.6-1.2-1.6-1.2-3 .2 5.6 3.3 10.6-5.4 5.2-8.8zM484.5 72.9c-5-2.9-11.4-.9-14 4.3-2.8 5.5.4 12 5.3 15.1 6.2 3.9 14.4 2.5 21.2 1.6 7.8-1.1 15.5-3.1 22.8-6.3 14.6-6.2 25.9-18 41.3-22.6 14.6-4.4 30-3.8 44.3 1.5 6 2.2 8.7-7.4 2.7-9.6-21-7.7-44.9-6-64.5 4.7-10.6 5.8-19.5 14-30.9 18.2-5.9 2.2-12.2 3.7-18.5 4.5-2.9.4-5.9.8-8.9.6-1.4-.1-3.3-.2-4.4-1.2-.4-.4-1.1-1.9-1.3-2.1 5.4 3.2 10.4-5.4 4.9-8.7z"/><path class="st13" d="M607.6 66.5c4.3.1 7 4.2 7.8 8.1.6 2.8 0 9-3.6 9.6-5 .9-4.4-6.6-3.2-9.2 2.4-5.3 8-8.6 12.2-12.3 7.1-6.2 13.9-14.7 16-24 1.9-8.2-.9-18.3-9.5-21.5-9.2-3.4-14.1 5.2-13.8 13.3.2 8.2 4.5 16 11 20.8 8 5.9 17.8 5.2 27.1 3.8 7.3-1.1 20.7-3.7 24.6 5 2 4.4.2 9.9-2.8 13.4-1.5 1.8-3.4 3.8-5.6 2.1-1.6-1.3-1.9-3.8-1.3-5.6 1.5-4.8 7-8 11-10.3 5.7-3.2 11.7-5.3 18-6.8 6.3-1.4 3.6-11.1-2.7-9.6-11.3 2.6-24.5 7.7-32.1 16.9-6.3 7.7-6.3 20.6 3.8 25.2 10.6 4.8 20-7.6 21.8-16.8 2-10.5-3.5-19.8-13.6-23.2-11.7-3.9-23 1.9-34.8.6-5.6-.6-10.4-3.9-12.9-9-1.2-2.5-2-5.3-1.8-8 .2-3.7 2-2.3 3.3.5 2.6 5.7-1.8 12.7-4.9 17.2-4.1 5.8-9.7 9.7-14.9 14.5-7.8 7.2-13.8 19.6-5.2 28.7 8.9 9.3 21.2 1.8 23.4-9 2.3-11.3-5.4-24.3-17.6-24.5-6.2 0-6.2 10 .3 10.1z"/><path class="st13" d="M695.5 54.4c6.4 0 6.4-10 0-10-6.5 0-6.5 10 0 10z"/><path class="st13" d="M689.9 53.2c4.6-2.1 10.1-1 15-1 4.3 0 8.6-.5 12.7-2 8.1-2.9 15.1-9.1 16.9-17.8 1.6-7.7-.7-16.2-7.7-20.5-6.7-4.1-15.1-3.5-20.8 1.8-4.8 4.4 2.3 11.4 7.1 7.1 3.4-3.2 9.2-1.3 11.2 2.7 2.6 5.3-.6 11.8-5 14.9-10.1 7.2-23.4 1.4-34.4 6.2-5.9 2.5-.8 11.2 5 8.6zM519 87.2c16.4-2.8 29.9 10.2 40.1 21.2 10.2 11 20.2 21.4 33.2 29 23.9 14 52.8 19.1 80 14 13.7-2.6 34.7-9.2 32.5-27.1-.8-6.3-10.8-6.4-10 0 1.7 14.4-21.9 17.3-32.1 18.4-12.9 1.4-26 .4-38.6-2.9-12.6-3.3-24.5-8.9-35.1-16.5-11.8-8.5-20.4-20.3-31-30.3-11.4-10.6-25.7-18.2-41.7-15.5-6.3 1.1-3.6 10.7 2.7 9.7zM644 162.5c-10.6 14.9 14.5 29 26 31.5 11 2.4 40.9.5 35.2-17.7-1.9-6.1-11.5-3.5-9.6 2.7 1.2 3.9-8 5.5-10.5 5.8-4.6.7-9.4.4-13.8-.7-4.7-1.2-23.6-9.5-18.6-16.5 3.6-5.3-5-10.3-8.7-5.1zM651.3 198.5c-9.5 1.5-9.3 12.6-5.3 19 4.4 7 11.6 11.6 19.1 14.7 12.6 5.2 44.2 8.2 41.2-13.8-.9-6.3-10.5-3.6-9.6 2.7.6 4.6-9.1 5.2-11.8 5.2-4.8.1-9.4-.9-13.9-2.5-3.9-1.4-7.9-3.3-11.2-5.9-.9-.7-9-9.3-5.8-9.8 6.3-.9 3.6-10.6-2.7-9.6z"/><path class="st13" d="M655.4 244.6c-3.4-2.1-8-.9-10 2.7-2.2 4.2.2 8.3 3.4 11 7.8 6.4 18.1 10.3 28 11.6 10.2 1.3 20.1-.5 29.2-5.2 9.5-4.9 17.2-12.3 25.7-18.6 17.9-13.5 41.1-21.9 63.7-17.7 21.2 4 40.3 17.1 62.6 13.3 24.7-4.3 41.5-25.4 51.3-47 2.6-5.8-6-10.9-8.6-5-7.6 16.8-18.9 33.5-36.9 40.1-18.8 6.9-36.5-2.3-54.2-8-17.6-5.7-35.9-5.7-53.6.2-8.7 2.9-16.9 7-24.5 12.1-7.5 5-14.2 11.2-21.5 16.5-8.6 6.1-17.7 10.2-28.4 9.8-4.8-.2-9.5-1.2-14-2.9-2.6-.9-5-2.1-7.4-3.5-.9-.5-1.8-1.1-2.7-1.7-.4-.3-.9-.6-1.3-.9-1.8-2-3.8-1.4-5.8 1.8 5.4 3.5 10.5-5.2 5-8.6z"/><path class="st13" d="M905.6 201.8c1.8-7.4 3.6-15.1 8.2-21.4 2.6-3.6 12.9-12.7 15.7-4.7 1.8 5.2-3 10.1-8 10.1-7 0-11.8-6-12.9-12.5-2.3-12.8 6.9-26.1 19-30 6.1-2 12.7-1.8 18.7.4 6.6 2.4 10.9 7 15.3 12.2 4.1 4.9 8.8 9.4 15.4 10.3 6.1.9 12.4-1.3 15.2-7 2.8-5.8-5.8-10.8-8.6-5-4.3 8.7-15.1-5.7-17.8-8.8-5.7-6.5-13.4-11.1-21.9-12.7-17-3.2-34.4 5.2-41.8 21-7.2 15.2-3.6 37.9 15.5 41.7 7.6 1.5 15.6-1.3 19.6-8.1 3.7-6.1 3.8-14.6-1.2-20.1-7.5-8.1-19-3.8-25.9 2.6-8.2 7.6-11.3 18.9-14 29.4-1.7 6.2 7.9 8.8 9.5 2.6zM993.3 104.4c-8.1-2.3-11 5.7-10.6 12.2.4 7.2 2.8 14.4 6.9 20.4 5 7.4 26.8 26.7 32.5 10.3 2.1-6.1-7.6-8.7-9.6-2.7 1.5-.9 1.4-1.4-.2-1.5-.9-.3-1.8-.7-2.7-1.2-1.3-.6-2.5-1.4-3.6-2.2-3-2.1-5.6-4.8-7.6-7.7-1.9-2.8-3.4-5.8-4.4-9-.5-1.6-.9-3.2-1.1-4.9-.1-.9-.1-1.9-.2-2.8.5-1.7-.2-2.1-2-1.2 6.1 1.7 8.8-7.9 2.6-9.7zM1042.8 113.5c1.1-6.2-4.7-11.4-10.8-8.6-5.6 2.6-6.7 11-7.5 16.3-2 13-1.6 30.8 13.1 36 6.1 2.1 8.7-7.5 2.7-9.6-6.3-2.2-6.6-10.6-6.6-16.2 0-3.1.2-6.2.8-9.2.3-1.7.7-3.5 1.2-5.2.2-.6.3-1.1.5-1.7.9-1.5.2-2-2.2-1.6-.2-1.3-.3-2.6-.5-3.9-.1.3-.1.7-.2 1-1.3 6.4 8.3 9.1 9.5 2.7z"/><g><path class="st13" d="M1079.8 135.2c1.6-7.3-5.1-11.7-11.8-9.5-6.6 2.2-13.2 7.2-17.4 12.7-4.4 5.9-6.7 13-8.6 20.1-1.4 5.5-2.3 11.8 4.3 14.1 6.1 2.1 8.7-7.5 2.7-9.6 1.3 2.5 2 2.9 1.9 1.3.1-.5.3-1 .4-1.5.3-1.6.8-3.1 1.2-4.7 1-3.4 2.1-6.8 3.8-10 1.6-3 3.6-5.6 6.2-7.7 1.3-1.1 2.7-2 4.2-2.8l2.1-1.2c1.9-.4 2.3-1.7 1.3-3.8-1.3 6.2 8.4 8.9 9.7 2.6z"/></g><g><path class="st13" d="M1096.5 173.8c4.8-3.3 5.8-9.9 1.8-14.4-4.4-5-11.7-4-17.5-3.1-12.6 2.1-30.6 8.1-35.5 21.2-2.3 6 7.4 8.6 9.6 2.7 2.3-6 12.2-9.6 17.7-11.5 3.2-1.1 6.6-2 9.9-2.6 1.7-.3 3.4-.6 5.1-.6 1.9 0 2.4.6 3.7-.3-5.1 3.6-.1 12.3 5.2 8.6z"/></g><g><path class="st13" d="M1035.7 213.2c1.6 5.1 7 7.5 12 5.4 6.4-2.6 6.7-10 5.9-15.9-1.3-9.5-7.8-33.9-21.9-26.9-5.8 2.9-.7 11.5 5 8.6.4-.2 5.3 11.9 5.7 13.4.6 2.3 1.2 4.8 1.4 7.2.1 1.1-.3 2.6-.1 3.6-.4.7-.4.9 0 .7.6-.3 1.1.1 1.5 1.1-1.8-6-11.4-3.4-9.5 2.8z"/></g><g><path class="st13" d="M1008.5 209c-.8 5.8 4.1 11.3 10.3 8.9 7-2.7 6.7-11.8 5.7-17.8-1.1-6.8-11.5-39.1-22.7-26.1-4.2 4.8 2.9 12 7.1 7.1-1.4 1.6-3.2-1.2-1.4 2.2.5 1 1.1 2 1.6 3.1 1.3 2.7 2.6 5.4 3.7 8.3.9 2.4 1.6 4.8 2 7.4.2 1.2.3 2.5.3 3.7.1.8 0 1.6-.1 2.4-.4 1.3.4 1.6 2.6.8.2 1.3.3 2.6.5 3.9 0-.3.1-.7.1-1 .9-6.6-8.8-9.3-9.7-2.9z"/></g><g><path class="st13" d="M982.5 211.5c0 .2 0 .4-.1.5-.3 2.2 1.8 4.2 3.7 4.8 5.8 2 9.3-3.9 10.8-8.6 1.7-5.2 1.3-11-.8-16.1-4.4-10.8-16.5-16-27.5-12.5-13.3 4.2-16.6 17.4-18.1 29.8-1.7 13-.2 27.6 9.9 37 7.4 7 21.9 10.6 28.6.5 7.4-10.9-6.1-21.7-16.7-18.2-12.4 4-18.3 20-17.4 31.9.9 12.5 8.5 24 19.8 29.6 13.4 6.6 28.9 4 38-8.3 3.9-5.3 6.7-12 7.9-18.5 1.2-6.9-1.8-14.8-9.9-14.4-6.4.3-6.4 10.3 0 10 1 0-1.6 8.6-2 9.6-1.3 3.4-3.2 6.8-5.6 9.4-5.4 5.8-13.1 7.1-20.5 4.7-14.7-4.8-21.8-22.1-15.1-36 1.4-2.9 3.4-6 6.2-7.7 1.7-1.1 7.6-2.1 7.4 1.6-.2 2.4-4.7 2.7-6.4 2.5-3.1-.4-6.1-2.6-8.2-4.8-5.3-5.7-6.8-13.5-6.6-21.1.2-7.1.9-16.4 4.6-22.6 3.6-5.9 12.2-8.1 18.1-4.2 2.9 1.9 4.8 5.3 5.3 8.8.2 1.5.2 3.1-.1 4.5-.2.8-.6 1.7-.7 2.5-.1.4-.3.8-.6 1.2-.9 1.2-.1 1.2 2.3-.2 1.2 1.6 2.4 3.2 3.7 4.8 0-.2 0-.4.1-.5.7-6.4-9.3-6.3-10.1 0z"/></g><g><path class="st13" d="M1020.3 306.1c17.3 8.2 31-14 32.9-28.4 1.1-8 0-16.8-4-23.9-2-3.4-5.3-6.3-9.5-5.7-4 .5-6.9 3.9-6.7 7.8.3 6.4 10.3 6.4 10 0-.9.8-1.9 1.5-2.8 2.3.2.4.4.8.7 1.2.2 1.1 1 2.3 1.3 3.4.6 1.8 1 3.7 1.2 5.6.5 4.3.1 8.7-1.2 12.8-1.6 5.5-9.2 19.9-16.9 16.2-5.7-2.7-10.8 5.9-5 8.7z"/></g><g><path class="st13" d="M1059.1 299.9c5.8 3.6 12.9 2.2 17.9-2.1 6.3-5.4 7.2-13.7 7.5-21.5.5-14.6 4.5-35.8 21.5-39.8 3.6-.9 7.7-.3 10.5 2.4 2.3 2.3 3.2 7.3-.4 9.2-3.7 1.9-5-3.1-4.7-5.8.4-3.5 2.7-7 5.4-9.1 6.6-5.1 16.1-4.8 23.9-4.6 9 .2 18.3.6 26.8-2.9 6.4-2.7 12.1-7.5 14.7-14.1 2.5-6.3 1.9-14.8-4.9-18.2-6.4-3.2-14-.1-17.5 5.9-3.6 6.2-3.4 14.2-.9 20.7 5.6 14.3 21.2 21.6 35.9 17.5 7.7-2.1 13.6-7.2 18.7-13.2 5.4-6.3 10.4-12.9 18.8-15.2 5.2-1.4 19.2-.6 16 8.3-1.2 3.4-4.3 2.7-6-.1-2.2-3.8.2-7.8 2.9-10.6 6.1-6.3 15.2-8.7 21.8-14.6 6.2-5.5 9.9-14.4 6.8-22.4-2.3-5.9-12-3.4-9.6 2.7 3.7 9.6-7.7 15.3-14.5 19.1-6.9 3.9-13.9 8.6-16.9 16.3-2.7 6.8-.8 14.7 5.1 19.3 5.5 4.3 13.2 3.6 17.5-1.9 4-5 4.3-12.5 1-17.9-4-6.5-12.4-9.2-19.7-8.8-8.8.5-16.9 4.6-23.1 10.8-5.9 5.9-10.4 14.1-18.3 17.6-8.4 3.7-18.7 1.9-24.4-5.5-2.4-3.1-3.9-7.1-3.9-11.1 0-2.3 3.1-11.6 6.1-7 2 3-1.9 7.9-4 9.8-3.8 3.4-8.7 4.9-13.7 5.5-9.6 1.1-19.2-.6-28.8.7-8 1.1-15.8 4.3-20.8 10.9-4.5 5.9-6.4 14.2-3 21.2 3.5 7 11.8 9.5 18.5 5.2 6.2-4 8.5-12.2 5.7-18.9-3.6-8.4-13-12.4-21.7-11-9.4 1.5-17.3 8.1-22.3 15.8-5.2 7.9-7.6 17.4-8.4 26.8-.4 5 .1 10.2-1.1 15.1-1 3.9-4.8 10.1-9.6 7.1-5.3-3.6-10.3 5.1-4.8 8.4z"/></g><g><path class="st13" d="M925.9 144.1c17.6-9.8 25.1-31.3 16.9-49.8-3.3-7.5-12-18.8-21.1-12-7.6 5.6-4.9 17 1.6 22.2 7.1 5.8 16.8 4.7 22.9-1.9 7.2-7.8 6.3-18.3 10.9-27.3 3.7-7.2 16.3-13.1 20.7-3.2.6 1.5 1.7 9.1-1.9 8.3-3.5-.8-1.7-11.9-.8-13.7 2.7-5 11.1-4.7 15.9-6.4 5.1-1.7 9.9-4.6 12.7-9.4 5.8-9.9-1.2-22.1-12.9-20.3-6.3 1-3.6 10.6 2.7 9.6 3.1-.5 2.4 4.3 1.6 5.6-1.1 2-3.1 3.3-5.2 4.2-4.6 2-9.8 2.2-14.4 4-8 3.2-11.6 10.5-11.6 18.8 0 7.1 2.9 16.9 11.4 17.5 7.7.6 13.1-7.2 13.3-14.2.4-17.3-19-24.2-32-15.1-7.8 5.5-10.3 13.8-12.5 22.6-1.4 5.7-6.5 19.9-14.7 12.8-.9-.8-3.4-4.1-2.2-5.5 1.7-1.9 4.5 3.4 5.3 4.7 2.6 4.6 3.9 9.9 3.8 15.2-.2 10.4-6.5 19.4-15.4 24.4-5.6 3.4-.6 12 5 8.9z"/></g><g><path class="st13" d="M776.3 229.7c5.3-4.5 12.6-5.7 18.5-9.2 5.9-3.4 10.2-8.7 12.8-15.1 4-10 7.5-30.7-6.1-35.2-5.4-1.8-11.2.8-13 6.3-1.8 5.5.9 11.1 5.6 14.1 11 7.2 27.7 1.3 29.5-12.3.8-6.3-8.8-9-9.6-2.7-.5 3.7-2.3 6.5-5.9 7.6-2.8.9-8.2.6-9.8-2.3-.7-1.3-.5-1.7.8-.9 1.5.9 1.8 3.4 2 4.9.3 3.8-.4 8-1.2 11.7-1.7 7.3-5.2 12.8-12 16.1-6.4 3.2-13 4.9-18.5 9.7-5.1 4.4 2 11.4 6.9 7.3z"/></g><g><path class="st13" d="M221.2 182.3c8.3.9 16.6 0 24.5-2.8 6-2.1 3.4-11.8-2.7-9.6-7.2 2.5-14.3 3.3-21.8 2.4-6.4-.7-6.3 9.3 0 10z"/></g></g></svg>