<?xml version="1.0" encoding="utf-8"?>
<!-- Generator: Adobe Illustrator 19.1.0, SVG Export Plug-In . SVG Version: 6.00 Build 0)  -->
<svg version="1.1" xmlns="http://www.w3.org/2000/svg" xmlns:xlink="http://www.w3.org/1999/xlink" x="0px" y="0px"
	 viewBox="0 0 1275 307.8" style="enable-background:new 0 0 1275 307.8;" xml:space="preserve">
<style type="text/css">
	.st0{enable-background:new    ;}
	.st1{clip-path:url(#SVGID_2_);}
	.st2{clip-path:url(#SVGID_6_);fill-rule:evenodd;clip-rule:evenodd;fill:#FFFFFF;}
	.st3{clip-path:url(#SVGID_10_);fill-rule:evenodd;clip-rule:evenodd;fill:#FFFFFF;}
	.st4{clip-path:url(#SVGID_12_);}
	.st5{opacity:0;clip-path:url(#SVGID_14_);}
	.st6{opacity:0;}
	.st7{clip-path:url(#SVGID_16_);}
	.st8{clip-path:url(#SVGID_14_);}
	.st9{clip-path:url(#SVGID_20_);}
	.st10{fill:none;stroke:#CF0000;stroke-width:4;stroke-linecap:round;stroke-linejoin:round;stroke-miterlimit:10;}
	.st11{fill:#E52B38;}
	.st12{fill:#E52B38;stroke:#E52B38;stroke-miterlimit:10;}
	.st13{fill:#FFFFFF;}
	.st14{opacity:0.8;}
	.st15{opacity:0.8;fill:#FFFFFF;}
	.st16{opacity:0.6;}
	.st17{fill:#DDDCDC;}
	.st18{opacity:0.27;}
	.st19{fill:#F40132;}
	.st20{fill:#E43B27;}
	.st21{fill:#F40132;stroke:#F40132;stroke-width:2;stroke-miterlimit:10;}
	.st22{fill:none;stroke:#FFFFFF;stroke-width:6;}
	.st23{fill:#FFFFFF;stroke:#F40132;stroke-width:2;stroke-miterlimit:10;}
	.st24{fill:#FFFFFF;stroke:#F40132;}
	.st25{fill:none;stroke:#F40132;stroke-width:7;}
	.st26{fill:none;stroke:#F40132;}
</style>
<g id="Calque_1">
</g>
<g id="Calque_2">
	<g>
		<g>
			<g>
				<path class="st13" d="M85.3,212.7c-4.5-1.9-9.5-1.5-13.1,2.1c-3.8,3.8-3.8,9.6-0.6,13.7c3.2,4.1,9.1,5.3,13.4,2.1
					c4.1-3.1,5.5-8.6,3-13.1c-3.1-5.7-11.7-0.6-8.6,5c-0.1-0.1-0.3-1-0.1-0.4c0.2,0.4,0.1-0.2,0,0.1c0,0-0.1,0.5-0.5,0.5
					c-0.1,0,0.6-0.3,0.6-0.3c0.6-0.4,0.2,0.9-0.1-0.1c0,0,0.4,0.2,0.4,0.2c-0.5-0.3-0.2-0.2-0.4-0.4c-0.1-0.2-0.3-0.3-0.2-0.8
					c-0.1,0.2,0,0.3-0.1,0.5c0.5-0.7-0.1-0.1,0.3-0.4c0.6-0.5-0.5,0.2,0.2-0.1c0.3-0.2,0.3-0.2,0,0c0.2,0,0.3-0.1,0.5-0.1
					c-0.6,0.1,0,0.1,0.2,0c0.4-0.2,0.6,0.2-0.1-0.1c2.5,1.1,5.4,0.7,6.8-1.8C88.3,217.4,87.8,213.7,85.3,212.7L85.3,212.7z"/>
			</g>
		</g>
		<g>
			<g>
				<path class="st13" d="M24.8,258.6c14.7-12.2,28.6-24.2,47.2-29.8c6.1-1.9,3.5-11.5-2.7-9.6c-9.7,2.9-19,7.2-27.4,12.9
					c-8.6,5.8-16.3,12.9-24.3,19.5C12.8,255.7,19.9,262.7,24.8,258.6L24.8,258.6z"/>
			</g>
		</g>
		<g>
			<g>
				<path class="st13" d="M71.1,223.1c-12.4,17.3-20.8,37.3-24.3,58.4c-1.1,6.3,8.6,9,9.6,2.7c3.4-20.3,11.3-39.2,23.3-56
					C83.5,222.9,74.8,217.9,71.1,223.1L71.1,223.1z"/>
			</g>
		</g>
		<g>
			<g>
				<path class="st13" d="M75.8,223c2.6,21.4,8.4,41.9,17.5,61.5c2.7,5.8,11.3,0.8,8.6-5c-8.3-17.8-13.8-36.9-16.2-56.4
					C85.1,216.7,75,216.6,75.8,223L75.8,223z"/>
			</g>
		</g>
		<g>
			<g>
				<path class="st13" d="M79.2,227.7c15.5,10.7,31.4,21,46.2,32.7c5,4,12.1-3.1,7.1-7.1c-15.4-12.2-32-23.1-48.2-34.3
					C78.9,215.4,73.9,224,79.2,227.7L79.2,227.7z"/>
			</g>
		</g>
		<g>
			<g>
				<path class="st13" d="M84.8,227.2c10.2-0.9,20.3-2,30.5-2.6c5.1-0.3,9.9,0.6,15,0.9c4.7,0.3,9.5-0.1,14.2-0.4
					c6.4-0.5,6.4-10.5,0-10c-4.7,0.4-9.5,0.7-14.2,0.4c-5-0.3-9.9-1.2-15-0.9c-10.2,0.6-20.4,1.7-30.5,2.6
					C78.5,217.8,78.4,227.8,84.8,227.2L84.8,227.2z"/>
			</g>
		</g>
		<g>
			<g>
				<path class="st13" d="M83.3,221.9c18.7-10.8,37.8-21.1,57.1-30.8c5.7-2.9,0.7-11.5-5-8.6c-19.3,9.7-38.3,20-57.1,30.8
					C72.7,216.5,77.7,225.1,83.3,221.9L83.3,221.9z"/>
			</g>
		</g>
		<g>
			<g>
				<path class="st13" d="M85.7,215.4c3.1-18.4,7.8-36.4,13.8-54.1c2.1-6.1-7.6-8.7-9.6-2.7c-6.1,17.6-10.7,35.7-13.8,54.1
					C75,219.1,84.6,221.8,85.7,215.4L85.7,215.4z"/>
			</g>
		</g>
		<g>
			<g>
				<path class="st13" d="M80.7,213.5c-10-17.7-13.7-38.9-18.9-58.4c-1.7-6.2-11.3-3.6-9.6,2.7c5.5,20.3,9.4,42.2,19.9,60.7
					C75.2,224.2,83.9,219.1,80.7,213.5L80.7,213.5z"/>
			</g>
		</g>
		<g>
			<g>
				<path class="st13" d="M73.9,214.1c-4.3-1.9-7.6-5.7-11-8.8c-3.8-3.5-7.6-6.9-11.4-10.4c-7.6-6.9-15.3-13.8-22.9-20.7
					c-4.8-4.3-11.9,2.7-7.1,7.1c8.1,7.3,16.2,14.7,24.3,22c3.8,3.5,7.6,6.9,11.4,10.4c3.6,3.3,7.1,7,11.6,9
					C74.7,225.4,79.8,216.7,73.9,214.1L73.9,214.1z"/>
			</g>
		</g>
		<g>
			<g>
				<path class="st13" d="M5.9,220.4c20.4,0.2,40.8,2.1,60.9,5.8c6.3,1.1,9-8.5,2.7-9.6c-21-3.8-42.2-5.9-63.6-6.1
					C-0.5,210.3-0.5,220.3,5.9,220.4L5.9,220.4z"/>
			</g>
		</g>
		<g>
			<g>
				<path class="st13" d="M140.3,220c-0.3,26.9-17,52-42.6,61.2c-25.8,9.4-55,1.6-72.7-19.4c-17.7-20.9-19.9-51.7-6-75.1
					c13.9-23.3,41.7-36.1,68.4-30.8C118,161.9,140,188.9,140.3,220c0.1,6.4,10.1,6.4,10,0c-0.3-31.4-19.9-59.6-49.3-70.6
					c-29.4-11-64.1-1.6-83.9,22.7c-20,24.5-22.9,59.7-6.4,86.8c16.4,27,48.4,40.9,79.4,34.8c34.9-6.8,59.9-38.6,60.3-73.7
					C150.4,213.5,140.4,213.5,140.3,220z"/>
			</g>
		</g>
		<g>
			<g>
				<path class="st13" d="M374,237c-3.7-1.6-7.8-1.3-10.8,1.7c-3.1,3.1-3.1,7.9-0.5,11.3c2.7,3.4,7.7,4.4,11.2,1.7
					c3.4-2.6,4.5-7.1,2.4-10.9c-1.2-2.3-4.6-3.2-6.8-1.8c-2.3,1.5-3.1,4.4-1.8,6.8c-0.1-0.3-0.3-1.5-0.3-1.1c0,0.7,0.2-1,0-0.3
					c-0.1,0.6,0.5-0.9,0-0.1c0.2-0.2,0.6-0.7,0.1-0.3c0.4-0.4,0.8-0.6,1.4-0.7c0.3,0,1.4,0.3,0.6,0c0.4,0.1,0.7,0.3,1,0.6
					c-0.7-0.6,0.3,0.6,0,0.1c-0.3-0.6,0.2,0.9,0.1,0.2c-0.2-0.6,0,1.2,0,0.1c0,0.5-0.1,0.8-0.3,1.2c0.4-0.8-0.4,0.5-0.1,0.1
					c0.4-0.5-0.7,0.5-0.2,0.2c0.5-0.3-1,0.2-0.1,0.1c-0.2,0-0.4,0-0.7,0.1c0.1,0,0.2,0,0.3,0c0.4,0,0.5,0,0,0
					c-0.3,0-0.6-0.1-0.9-0.3c2.4,1,5.5,0.8,6.8-1.8C377,241.7,376.6,238.1,374,237L374,237z"/>
			</g>
		</g>
		<g>
			<g>
				<path class="st13" d="M334.2,270.1c9.6-8,18.5-15.6,30.6-19.4c6.1-1.9,3.5-11.5-2.7-9.6c-13.8,4.2-24.1,12.8-35,21.9
					C322.2,267.2,329.3,274.2,334.2,270.1L334.2,270.1z"/>
			</g>
		</g>
		<g>
			<g>
				<path class="st13" d="M362.3,244.5c-8.3,11.7-13.9,25-16.3,39.2c-1.1,6.3,8.6,9,9.6,2.7c2.3-13.4,7.4-25.7,15.3-36.8
					C374.7,244.3,366,239.3,362.3,244.5L362.3,244.5z"/>
			</g>
		</g>
		<g>
			<g>
				<path class="st13" d="M365.2,245.3c1.8,14.5,5.7,28.4,11.9,41.7c2.7,5.8,11.3,0.8,8.6-5c-5.3-11.6-8.9-24-10.5-36.6
					C374.4,239,364.4,238.9,365.2,245.3L365.2,245.3z"/>
			</g>
		</g>
		<g>
			<g>
				<path class="st13" d="M368.3,249.9c10.2,7,20.6,13.8,30.3,21.5c5,3.9,12.1-3.1,7.1-7.1c-10.4-8.2-21.5-15.5-32.3-23
					C368,237.5,363,246.2,368.3,249.9L368.3,249.9z"/>
			</g>
		</g>
		<g>
			<g>
				<path class="st13" d="M372.9,249.8c6.9-0.6,13.9-1.5,20.9-1.7c6.3-0.2,12.4,0.8,18.8,0.4c6.4-0.5,6.4-10.5,0-10
					c-6.3,0.5-12.5-0.6-18.8-0.4c-7,0.3-13.9,1.1-20.9,1.7C366.5,240.3,366.5,250.3,372.9,249.8L372.9,249.8z"/>
			</g>
		</g>
		<g>
			<g>
				<path class="st13" d="M372.7,246c12.4-7.2,25.1-14,37.9-20.5c5.7-2.9,0.7-11.5-5-8.6c-12.8,6.5-25.5,13.3-37.9,20.5
					C362.1,240.6,367.1,249.3,372.7,246L372.7,246z"/>
			</g>
		</g>
		<g>
			<g>
				<path class="st13" d="M375.1,240.7c2.1-12.2,5.2-24.2,9.2-35.9c2.1-6.1-7.6-8.7-9.6-2.7c-4,11.7-7.1,23.7-9.2,35.9
					C364.4,244.4,374,247.1,375.1,240.7L375.1,240.7z"/>
			</g>
		</g>
		<g>
			<g>
				<path class="st13" d="M371.6,238.2c-6.5-11.7-8.9-25.6-12.4-38.3c-1.7-6.2-11.3-3.6-9.6,2.7c3.7,13.7,6.4,28.2,13.4,40.7
					C366.1,248.8,374.7,243.8,371.6,238.2L371.6,238.2z"/>
			</g>
		</g>
		<g>
			<g>
				<path class="st13" d="M366.5,238c-5.6-2.8-10.4-8.6-15-12.8c-4.9-4.5-9.8-8.9-14.8-13.4c-4.8-4.3-11.9,2.7-7.1,7.1
					c5.4,4.9,10.8,9.8,16.3,14.7c4.8,4.4,9.7,10.1,15.5,13.1C367.2,249.5,372.3,240.8,366.5,238L366.5,238z"/>
			</g>
		</g>
		<g>
			<g>
				<path class="st13" d="M320.5,245.2c13.4,0.2,26.8,1.4,40,3.8c6.3,1.1,9-8.5,2.7-9.6c-14.1-2.5-28.3-3.9-42.7-4.1
					C314,235.2,314,245.2,320.5,245.2L320.5,245.2z"/>
			</g>
		</g>
		<g>
			<g>
				<path class="st13" d="M408.1,243.3c-0.3,17.4-11,33.4-27.6,39.2c-16.4,5.8-35,0.7-46.1-12.7c-11.3-13.6-12.6-33.3-3.4-48.3
					c9-14.7,26.8-22.6,43.7-19.1C394.1,206.5,407.8,223.6,408.1,243.3c0.1,6.4,10.1,6.4,10,0c-0.3-21.8-13.8-41.2-34.3-48.7
					c-20-7.3-43.4-0.8-56.9,15.5c-13.9,16.8-16,41.2-4.6,60c11.2,18.3,32.7,27.7,53.7,23.9c24.4-4.3,41.7-26.4,42.1-50.7
					C418.2,236.8,408.2,236.8,408.1,243.3z"/>
			</g>
		</g>
		<g>
			<g>
				<path class="st13" d="M299.5,167c6.5,9.7,20.1,6.9,25.3-2.7c2.9-5.4,3-11.7,2.6-17.6c-0.4-5.9-2.1-15,3.5-19.1
					c5.2-3.9,14.8-3.4,16.6,3.7c0.7,2.7,0.7,6.1,0,8.8c-0.2,0.9-1.2,4.6-2.6,3.9c-0.7-0.3-0.6-2.2-0.4-2.7
					c1.9-5.6,12.2-5.8,15.6-2.2c5.1,5.5,6.3,14.5,6.2,21.6c-0.1,6.4,9.9,6.4,10,0c0.2-13-5.2-34.8-21.9-34.2
					c-6.5,0.2-14.2,3-17.9,8.7c-3.4,5.2-2.8,12.6,2.1,16.6c5.6,4.6,13.4,1.5,16.7-4.3c3.2-5.6,3.4-14.1,1.4-20.2
					c-4.7-14.4-25.9-15.8-35-4.8c-5.7,6.9-5,15.8-4.4,24.2c0.3,4.1,0.7,8.8-1.3,12.6c-1.2,2.4-5.7,6.1-8,2.7
					C304.6,156.7,295.9,161.7,299.5,167L299.5,167z"/>
			</g>
		</g>
		<g>
			<g>
				<path class="st13" d="M282,210.2c25.3,0.3,37.6-24,56.6-36.1c9.7-6.2,21.8-8,32.3-2.9c9.7,4.7,10,16.3,6.1,25.3
					c-2.5,5.9,6.1,11,8.6,5c4.3-10,5.7-22.6-1-32c-7.4-10.3-23-12.9-34.7-10.7c-12.4,2.4-21.6,9.9-30.7,18.2
					c-10.7,9.8-21.4,23.3-37.3,23.1C275.6,200.2,275.6,210.2,282,210.2L282,210.2z"/>
			</g>
		</g>
		<g>
			<g>
				<path class="st13" d="M183.8,99.1c-4.2,16-7.1,32.4-8.5,48.9c-0.6,6.6-0.1,12.5,7.9,12.8c8.8,0.3,17.8-0.4,26.5-0.6
					c8.5-0.2,17-0.4,25.6-0.6c3.1-0.1,6.5,0.1,9-2.1c2.6-2.3,2.7-5.9,2.5-9.1c-0.7-15.1-4.7-30.1-11.3-43.7c-1.5-3-3-7.2-6.1-8.9
					c-3.1-1.7-7.6-0.9-11-0.8c-9.8,0.3-19.7,0.9-29.5,1.9c-6.4,0.6-6.4,10.6,0,10c7.6-0.7,15.2-1.3,22.8-1.6c3.8-0.2,7.7,0,11.4-0.4
					c2,0.3,2.5,0.2,1.4-0.3c-1-0.6-0.9-0.2,0.3,1.3c0.6,1.6,1.6,3.1,2.4,4.7c3.1,6.4,5.4,13.2,7,20.2c0.8,3.2,1.4,6.4,1.8,9.6
					c0.3,2.4,1.9,9,0.3,11c1-0.8,2-1.5,3-2.3c-3.7,1.5-9.1,0.6-13,0.7c-4.6,0.1-9.2,0.2-13.8,0.3s-9.2,0.2-13.8,0.3
					c-2.6,0.1-5.2,0.1-7.9,0.2c-1.6,0-5.5-0.6-6.9,0.2c-1.7-0.2-1.5,0.5,0.7,2c0.1-1.3,0.2-2.5,0.3-3.8c0.2-2.2,0.4-4.4,0.6-6.6
					c0.5-4.6,1.1-9.2,1.8-13.7c1.5-9.1,3.4-18,5.8-26.9C195.1,95.5,185.4,92.9,183.8,99.1L183.8,99.1z"/>
			</g>
		</g>
		<g>
			<g>
				<path class="st13" d="M188.6,74.5c-8.2-8.1-21.8-5.5-31.8-2.8c-11.6,3.2-22.3,9.2-31.3,17.2c-19.7,17.5-28.2,43.7-23.1,69.4
					c1.2,6.3,10.9,3.6,9.6-2.7c-4.2-21.2,2.8-42.7,18.4-57.7c6.8-6.6,15.1-11.9,24.1-15.1c6.7-2.4,21-7.3,27-1.4
					C186.1,86.1,193.2,79,188.6,74.5L188.6,74.5z"/>
			</g>
		</g>
		<g>
			<g>
				<path class="st13" d="M256.5,229.9c27.4-16.1,48.6-40.2,53-72.4c4.7-34.4-11.4-72.7-42.3-90c-17.5-9.8-39.1-10.3-55.2,2.4
					c-5.1,4,2.1,11,7.1,7.1c12.7-10,30.5-8.1,43.8-0.4c13.3,7.7,23.5,20.2,29.9,34c11.4,24.5,10,54.3-4.4,77.2
					c-9,14.3-22.4,25.1-36.8,33.5C245.9,224.5,250.9,233.2,256.5,229.9L256.5,229.9z"/>
			</g>
		</g>
		<g>
			<g>
				<path class="st13" d="M763.6,297.6c-12.1,0-22-9.7-22.2-21.9l-5.5-154.1c-0.2-12.3,9.6-22.4,21.9-22.6c0.1,0,0.3,0,0.4,0
					c12.1,0,22,9.7,22.2,21.9l5.5,154.1c0.2,12.3-9.6,22.4-21.9,22.6C763.9,297.6,763.7,297.6,763.6,297.6z"/>
			</g>
			<g class="st14">
				<path class="st13" d="M678.7,297.6c-12.1,0-22-9.7-22.2-21.9L651,121.7c-0.2-12.3,9.6-22.4,21.9-22.6c0.1,0,0.3,0,0.4,0
					c12.1,0,22,9.7,22.2,21.9L701,275c0.2,12.3-9.6,22.4-21.9,22.6C679,297.6,678.9,297.6,678.7,297.6z"/>
			</g>
			<g>
				<path class="st13" d="M789.7,297.6h-26.1c-12.3,0-22.2-10-22.2-22.2c0-12.3,10-22.2,22.2-22.2h26.1c12.3,0,22.2,10,22.2,22.2
					C811.9,287.6,802,297.6,789.7,297.6z"/>
			</g>
			<g>
				<g>
					<path class="st13" d="M582.9,297.6c-12.1,0-22-9.7-22.2-21.9l-5.5-154.1c-0.2-12.3,9.6-22.4,21.9-22.6c0.1,0,0.3,0,0.4,0
						c12.1,0,22,9.7,22.2,21.9l5.5,154.1c0.2,12.3-9.6,22.4-21.9,22.6C583.2,297.6,583.1,297.6,582.9,297.6z"/>
				</g>
				<g>
					<path class="st13" d="M609,297.6h-26.1c-12.3,0-22.2-10-22.2-22.2c0-12.3,10-22.2,22.2-22.2H609c12.3,0,22.2,10,22.2,22.2
						C631.3,287.6,621.3,297.6,609,297.6z"/>
				</g>
			</g>
			<g>
				<g>
					<path class="st13" d="M863.7,297.6c-12.1,0-22-9.7-22.2-21.9L836,121.7c-0.2-12.3,9.6-22.4,21.9-22.6c0.1,0,0.3,0,0.4,0
						c12.1,0,22,9.7,22.2,21.9l5.5,154.1c0.2,12.3-9.6,22.4-21.9,22.6C863.9,297.6,863.8,297.6,863.7,297.6z"/>
				</g>
				<g>
					<path class="st13" d="M889.7,297.6h-26.1c-12.3,0-22.2-10-22.2-22.2c0-12.3,10-22.2,22.2-22.2h26.1c12.3,0,22.2,10,22.2,22.2
						C912,287.6,902,297.6,889.7,297.6z"/>
				</g>
			</g>
			<path class="st15" d="M321,57.8c-3.7-10.3,0.9-17.1,12-17.1c6.3,0,12.6,0,18.9,0c8.5,0,14.2,3.9,16.8,12.5
				c17.8,50.7,38.8,101.5,58.7,152.2c5.5,14.6,11.4,37,11.4,37c0.2,0,0.5,0,0.7,0c0,0,3.7-22.4,7.8-37
				c14.6-50.7,28.3-101.5,45.1-152.2c2-8.5,7.8-12.5,16.3-12.5c6,0,12.1,0,18.1,0c11,0,15.6,6.8,12.2,17.1
				c-25.8,74.6-44.9,149.2-70.8,223.7c-2.7,8.2-8.1,11.7-16.6,11.7c-7.6,0-15.2,0-22.8,0c-8.5,0-13.9-3.6-16.8-11.7
				C384,207,349.2,132.4,321,57.8z"/>
			<path class="st15" d="M1012.6,107.6c51.5,0,82.2,36.6,85.3,86.4c0.5,7.8-5.9,15.3-14.8,15.3c-36.9,0-73.8,0-110.6,0
				c4.6,32.7,29.2,49.8,56.6,49.8c16.7,0,30.4-6.4,38.7-11.7c8.7-4.3,15.2-3.2,20.1,5c1.5,2.4,3,4.7,4.5,7.1
				c4.5,8.2,3.2,15.3-4.5,19.9c-11.6,7.5-32.9,18.1-61.4,18.1c-60,0-97.5-43.4-100.6-95C922.5,146.8,958.1,107.6,1012.6,107.6z
				 M1052.4,182c-2.2-25.3-18.4-40.2-39-40.2c-23.1,0-38.6,16-41.4,40.2C998.8,182,1025.6,182,1052.4,182z"/>
			<path class="st15" d="M1118.4,126.9c-0.5-9.6,4.2-14.9,13.8-14.9c4.6,0,9.2,0,13.9,0c9.6,0,15.2,5.3,15.7,14.9
				c0.3,5.7,0.6,11.4,0.9,17.1c0.4,6.8-0.3,12.4-0.3,12.4c0.2,0,0.5,0,0.7,0c5.8-21.7,24.5-45.9,50.1-45.9c10,0,13.7,5,14.3,14.9
				c0.2,4.6,0.5,9.2,0.8,13.9c0.5,9.6-4.8,14.9-14.4,14.9c-33.1,0-47,32.7-45.3,65.8c1,19.4,1.8,38.9,2.1,58.3
				c0.2,10-4.8,14.9-14.4,14.9c-5.2,0-10.4,0-15.7,0c-9.6,0-14.6-5-14.7-14.9C1124.9,227.9,1121.1,177.4,1118.4,126.9z"/>
			<circle class="st15" cx="671.1" cy="60.9" r="22.2"/>
		</g>
		<g>
			<g>
				<path class="st13" d="M194.4,85.6c8.3,6.1,17.7,0.2,26.4-1.6c8.8-1.8,18.4-0.1,26.2,4.4c19,10.7,21.4,33.6,20.4,53.2
					c-0.3,6.4,9.7,6.4,10,0c1.1-21.4-2.2-45.1-20.6-58.8c-7.7-5.7-17.2-9-26.8-9.4c-4.9-0.2-9.9,0.3-14.6,1.7
					c-4.8,1.4-11.3,5.3-15.9,1.9C194.2,73.2,189.2,81.9,194.4,85.6L194.4,85.6z"/>
			</g>
		</g>
		<g>
			<g>
				<path class="st13" d="M196.9,78.1c-17.4-9.3-35.1,2.6-45.4,16.7c-10.6,14.6-14.5,32.9-11.7,50.6c1,6.3,10.6,3.6,9.6-2.7
					c-2.1-13.5,0.9-27.5,8.1-39.1c6.7-10.8,20.6-24.2,34.3-16.9C197.6,89.8,202.6,81.2,196.9,78.1L196.9,78.1z"/>
			</g>
		</g>
		<g>
			<g>
				<path class="st13" d="M138.7,205.4c6.7,13.6,20.5,22.6,35.4,24.6c11.6,1.5,36.9-2.4,34.2-19.1c-1-6.6-7.5-11.3-14-11.6
					c-7.5-0.3-13.5,5.4-15.5,12.4c-2.2,7.8,0.5,16.1,5.9,21.8c6.2,6.5,15.2,8.2,23.9,7.9c8.7-0.3,19.6-3.3,27.5,1.8
					c3.7,2.3,5.4,6.3,4.7,10.6c-0.3,2.1-1.2,4.1-2.7,5.6c-1,1-5.8,3.9-5.7,0.6c0-6.4-10-6.4-10,0c0,7.1,6.1,12.1,13,11.4
					c6.8-0.7,12.3-6.3,14.4-12.5c4.8-14-5.5-25.9-19.1-27.9c-12.5-1.9-38.1,7-42.4-10.8c-1.1-4.8,2.4-14.8,8.7-9.8
					c6.2,4.9-9.4,9.3-12.5,9.7c-15.1,2-30.6-6.2-37.3-19.9C144.5,194.6,135.9,199.6,138.7,205.4L138.7,205.4z"/>
			</g>
		</g>
		<g>
			<g>
				<path class="st13" d="M103.4,128.7c-8.2-0.2-16.1-2.9-22.6-7.9c-3.3-2.5-6.4-5.6-8.5-9c-1.7-2.7-3.9-9.9,2-9.4
					c5.9,0.5,2.3,7.4,0.2,9.7c-2.7,2.8-6.1,5.3-9.6,6.9c-9.8,4.5-17.7-3-23.9-9.9c-5-5.6-10.6-13.5-18.9-13.9
					c-7.5-0.3-14.1,5.5-17.7,11.6c-3.7,6.3-4.4,14.6,1.3,19.9c4.7,4.3,12,4.8,16.6,0.1c4.5-4.6-2.5-11.7-7.1-7.1
					c-1.8,1.9-3.8-1.6-3.9-3.2c0-3.7,3.3-7.8,6.1-9.8c7-4.9,13.5,6.2,17.5,10.7c5,5.5,10.9,10.6,18.3,12.4
					c7.4,1.8,14.7-0.6,20.9-4.7c5.7-3.8,11.7-9,13.2-16c1.3-6.4-2.1-12.8-8-15.4c-5.8-2.6-12.6-0.6-16.4,4.4
					c-4.3,5.8-2.9,13,0.7,18.8c8.4,13.5,24.1,21.4,39.8,21.8C109.9,138.9,109.9,128.9,103.4,128.7L103.4,128.7z"/>
			</g>
		</g>
		<g>
			<g>
				<path class="st13" d="M118.8,107.3c-0.1-16.1-4.6-32.7-13.9-46c-4-5.8-9.3-10.6-16.5-11.6c-6.8-0.9-13.8,1.8-17.6,7.6
					c-7.6,11.7,3,28.6,17.1,23.6c13.7-4.9,14.9-25,7.4-35.3c-4.5-6.2-11.4-10-19-10.7c-3.9-0.4-8.1,0.3-10.3-3.6
					c-1.7-3.1-1.7-7.3-1.7-10.8c-0.1-6.4-10.1-6.4-10,0c0.2,11.4,3.5,22.8,16.5,24.1c6.4,0.6,12.1,1,16.3,6.6
					c3.9,5.2,4.1,13.5-0.3,18.5c-4.9,5.6-11.5-1.9-7.4-7.3c4.8-6.4,12.8-1.4,16.4,3.3c8.8,11.8,12.9,27,13,41.6
					C108.9,113.7,118.9,113.7,118.8,107.3L118.8,107.3z"/>
			</g>
		</g>
		<g>
			<g>
				<path class="st13" d="M232,60c-10.2,0.1-16.1-9.2-21.1-16.9c-3.4-5.4-12.1-0.4-8.6,5c7,11,15.5,22,29.7,21.9
					C238.5,70,238.5,60,232,60L232,60z"/>
			</g>
		</g>
		<g>
			<g>
				<path class="st13" d="M170.8,80.3c8.5-3.5,16.9-8.9,20.4-17.9c3.5-9.3,0.8-22.9-4.8-30.8c-5.4-7.6-15.6-12-24.4-7.2
					c-8.2,4.5-9.8,15.3-3.6,22.1c0.3-2.6,0.7-5.2,1-7.9c-3.9,2.1-4.5-4.4-4-6.7c0.7-3.5,2.9-6.8,5.5-9.1c5.5-5.1,13.5-6.6,20.5-3.9
					c13.2,5.1,15.8,22.7,24.8,32.4c4.4,4.7,11.5-2.4,7.1-7.1c-7.5-8-9.9-19.3-17.5-27.3c-7.8-8.2-20.3-11.5-31.1-7.7
					c-9.8,3.4-18.3,12.5-19.5,23.1c-1.1,10.6,8.6,20.8,19.2,15.1c2.9-1.6,3.1-5.6,1-7.9c-3.8-4.1,2.5-7.7,6.3-6.9
					c6,1.3,8.7,8,9.8,13.3c1.1,5.2,1.9,11-1.2,15.7c-2.9,4.2-7.6,7.1-12.3,9.1C162.3,73.2,164.9,82.8,170.8,80.3L170.8,80.3z"/>
			</g>
		</g>
		<g>
			<g>
				<path class="st13" d="M340.3,104.6c-2-8.6,5.6-14.8,12.4-18.3c3.1-1.6,21.4-10.3,21.9-3.3c0.5,6.4,10.5,6.4,10,0
					c-0.5-6.4-4.9-11.2-11.2-12.4c-7.2-1.4-14.8,2.3-21.3,5c-12.8,5.4-24.9,16.3-21.4,31.5C332.1,113.5,341.8,110.9,340.3,104.6
					L340.3,104.6z"/>
			</g>
		</g>
		<g>
			<g>
				<path class="st13" d="M328.6,77.6c-3.1-1.9-2.2-6.4-0.7-9.1c1.9-3.4,5.3-5.7,8.6-7.5c7-3.8,14.9-5.7,21.9-9.7
					c7.5-4.3,13.5-11,15.4-19.6c1.9-8.1,0.2-18.4-7.4-23.1c-6.2-3.8-15.6-2.3-19.3,4.4c-4.2,7.6,1.3,16.8,8,20.7
					c17.1,10,33.5-3.5,45.6-14.6c4.1-3.8,8.6-8.2,14.4-9.2c5.2-0.8,10.9,1.2,14.1,5.5c2.9,3.9,3.9,9.6,2,14.1
					c-0.8,1.9-2.5,4.5-4.6,5c-1.4,0.3-4.2-0.7-3.1-2.6c3.4-5.5-5.3-10.5-8.6-5c-4.4,7.3,1.1,16.8,9.3,17.7c8.9,1,15.8-7.1,17.4-15.2
					c4.2-20.7-18-36.2-36.2-26.5c-9.3,4.9-15.6,14-24.3,19.7c-6.5,4.2-17.7,7.5-23.6,0.3c-1.1-1.4-2.7-4.1-1.2-5.6
					c1.2-1.2,3.7-0.9,5,0c4.3,2.8,3.7,9.9,2.2,14c-3.2,9.3-12.5,12.9-20.9,16.2c-8.3,3.3-17.1,6.8-22.4,14.4
					c-5.3,7.6-5.3,19.1,3.3,24.3C329,89.6,334.1,80.9,328.6,77.6L328.6,77.6z"/>
			</g>
		</g>
		<g>
			<g>
				<path class="st13" d="M375.1,155.3c2.6-14.5,16.8-26,31.8-24.3c17.6,2.1,29,19.4,39.8,31.6c10.9,12.2,25.7,23.9,43.2,21.9
					c14.9-1.7,27.4-15.8,23.8-31.1c-1.5-6.3-11.1-3.6-9.6,2.7c1.8,7.7-4.2,15.1-11.2,17.6c-7.8,2.8-16.6-0.1-23.3-4.2
					c-14.7-8.9-23.1-25-36-36c-11.5-9.8-26.3-15.8-41.3-10.7c-13.3,4.5-24.2,15.8-26.7,29.8C364.3,158.9,374,161.6,375.1,155.3
					L375.1,155.3z"/>
			</g>
		</g>
		<g>
			<g>
				<path class="st13" d="M473.4,111.4c-3.6-2.3-8.1-1.4-10.8,1.9c-3,3.7-2.1,8.5,0.4,12.2c5.7,8.5,17.1,12.5,26.9,12.8
					c10.7,0.3,23-3.4,31.8-9.4c7.5-5.1,12.2-15.9,4.3-23.1c-4.8-4.3-11.9,2.7-7.1,7.1c7.4,6.7-18,14.2-21.7,14.8
					c-5.1,0.9-10.4,0.7-15.4-0.8c-2.3-0.7-4.5-1.7-6.5-3.1c-0.9-0.6-1.8-1.4-2.6-2.1c-0.6-0.5-1.1-1.1-1.5-1.7
					c-0.6-1.2-1.6-1.2-3,0.2C473.8,123.5,478.8,114.8,473.4,111.4L473.4,111.4z"/>
			</g>
		</g>
		<g>
			<g>
				<path class="st13" d="M484.5,72.9c-5-2.9-11.4-0.9-14,4.3c-2.8,5.5,0.4,12,5.3,15.1c6.2,3.9,14.4,2.5,21.2,1.6
					c7.8-1.1,15.5-3.1,22.8-6.3c14.6-6.2,25.9-18,41.3-22.6c14.6-4.4,30-3.8,44.3,1.5c6,2.2,8.7-7.4,2.7-9.6
					c-21-7.7-44.9-6-64.5,4.7c-10.6,5.8-19.5,14-30.9,18.2c-5.9,2.2-12.2,3.7-18.5,4.5c-2.9,0.4-5.9,0.8-8.9,0.6
					c-1.4-0.1-3.3-0.2-4.4-1.2c-0.4-0.4-1.1-1.9-1.3-2.1C485,84.8,490,76.2,484.5,72.9L484.5,72.9z"/>
			</g>
		</g>
		<g>
			<g>
				<path class="st13" d="M607.6,66.5c4.3,0.1,7,4.2,7.8,8.1c0.6,2.8,0,9-3.6,9.6c-5,0.9-4.4-6.6-3.2-9.2c2.4-5.3,8-8.6,12.2-12.3
					c7.1-6.2,13.9-14.7,16-24c1.9-8.2-0.9-18.3-9.5-21.5c-9.2-3.4-14.1,5.2-13.8,13.3c0.2,8.2,4.5,16,11,20.8
					c8,5.9,17.8,5.2,27.1,3.8c7.3-1.1,20.7-3.7,24.6,5c2,4.4,0.2,9.9-2.8,13.4c-1.5,1.8-3.4,3.8-5.6,2.1c-1.6-1.3-1.9-3.8-1.3-5.6
					c1.5-4.8,7-8,11-10.3c5.7-3.2,11.7-5.3,18-6.8c6.3-1.4,3.6-11.1-2.7-9.6c-11.3,2.6-24.5,7.7-32.1,16.9
					c-6.3,7.7-6.3,20.6,3.8,25.2c10.6,4.8,20-7.6,21.8-16.8c2-10.5-3.5-19.8-13.6-23.2c-11.7-3.9-23,1.9-34.8,0.6
					c-5.6-0.6-10.4-3.9-12.9-9c-1.2-2.5-2-5.3-1.8-8c0.2-3.7,2-2.3,3.3,0.5c2.6,5.7-1.8,12.7-4.9,17.2c-4.1,5.8-9.7,9.7-14.9,14.5
					c-7.8,7.2-13.8,19.6-5.2,28.7c8.9,9.3,21.2,1.8,23.4-9c2.3-11.3-5.4-24.3-17.6-24.5C601.1,56.4,601.1,66.4,607.6,66.5
					L607.6,66.5z"/>
			</g>
		</g>
		<g>
			<g>
				<path class="st13" d="M695.5,54.4c6.4,0,6.4-10,0-10C689,44.4,689,54.4,695.5,54.4L695.5,54.4z"/>
			</g>
		</g>
		<g>
			<g>
				<path class="st13" d="M689.9,53.2c4.6-2.1,10.1-1,15-1c4.3,0,8.6-0.5,12.7-2c8.1-2.9,15.1-9.1,16.9-17.8
					c1.6-7.7-0.7-16.2-7.7-20.5c-6.7-4.1-15.1-3.5-20.8,1.8c-4.8,4.4,2.3,11.4,7.1,7.1c3.4-3.2,9.2-1.3,11.2,2.7
					c2.6,5.3-0.6,11.8-5,14.9c-10.1,7.2-23.4,1.4-34.4,6.2C679,47.1,684.1,55.8,689.9,53.2L689.9,53.2z"/>
			</g>
		</g>
		<g>
			<g>
				<path class="st13" d="M519,87.2c16.4-2.8,29.9,10.2,40.1,21.2c10.2,11,20.2,21.4,33.2,29c23.9,14,52.8,19.1,80,14
					c13.7-2.6,34.7-9.2,32.5-27.1c-0.8-6.3-10.8-6.4-10,0c1.7,14.4-21.9,17.3-32.1,18.4c-12.9,1.4-26,0.4-38.6-2.9
					c-12.6-3.3-24.5-8.9-35.1-16.5C577.2,114.8,568.6,103,558,93c-11.4-10.6-25.7-18.2-41.7-15.5C510,78.6,512.7,88.2,519,87.2
					L519,87.2z"/>
			</g>
		</g>
		<g>
			<g>
				<path class="st13" d="M644,162.5c-10.6,14.9,14.5,29,26,31.5c11,2.4,40.9,0.5,35.2-17.7c-1.9-6.1-11.5-3.5-9.6,2.7
					c1.2,3.9-8,5.5-10.5,5.8c-4.6,0.7-9.4,0.4-13.8-0.7c-4.7-1.2-23.6-9.5-18.6-16.5C656.3,162.3,647.7,157.3,644,162.5L644,162.5z"
					/>
			</g>
		</g>
		<g>
			<g>
				<path class="st13" d="M651.3,198.5c-9.5,1.5-9.3,12.6-5.3,19c4.4,7,11.6,11.6,19.1,14.7c12.6,5.2,44.2,8.2,41.2-13.8
					c-0.9-6.3-10.5-3.6-9.6,2.7c0.6,4.6-9.1,5.2-11.8,5.2c-4.8,0.1-9.4-0.9-13.9-2.5c-3.9-1.4-7.9-3.3-11.2-5.9
					c-0.9-0.7-9-9.3-5.8-9.8C660.3,207.2,657.6,197.5,651.3,198.5L651.3,198.5z"/>
			</g>
		</g>
		<g>
			<g>
				<path class="st13" d="M655.4,244.6c-3.4-2.1-8-0.9-10,2.7c-2.2,4.2,0.2,8.3,3.4,11c7.8,6.4,18.1,10.3,28,11.6
					c10.2,1.3,20.1-0.5,29.2-5.2c9.5-4.9,17.2-12.3,25.7-18.6c17.9-13.5,41.1-21.9,63.7-17.7c21.2,4,40.3,17.1,62.6,13.3
					c24.7-4.3,41.5-25.4,51.3-47c2.6-5.8-6-10.9-8.6-5c-7.6,16.8-18.9,33.5-36.9,40.1c-18.8,6.9-36.5-2.3-54.2-8
					c-17.6-5.7-35.9-5.7-53.6,0.2c-8.7,2.9-16.9,7-24.5,12.1c-7.5,5-14.2,11.2-21.5,16.5c-8.6,6.1-17.7,10.2-28.4,9.8
					c-4.8-0.2-9.5-1.2-14-2.9c-2.6-0.9-5-2.1-7.4-3.5c-0.9-0.5-1.8-1.1-2.7-1.7c-0.4-0.3-0.9-0.6-1.3-0.9c-1.8-2-3.8-1.4-5.8,1.8
					C655.8,256.7,660.9,248,655.4,244.6L655.4,244.6z"/>
			</g>
		</g>
		<g>
			<g>
				<path class="st13" d="M905.6,201.8c1.8-7.4,3.6-15.1,8.2-21.4c2.6-3.6,12.9-12.7,15.7-4.7c1.8,5.2-3,10.1-8,10.1
					c-7,0-11.8-6-12.9-12.5c-2.3-12.8,6.9-26.1,19-30c6.1-2,12.7-1.8,18.7,0.4c6.6,2.4,10.9,7,15.3,12.2c4.1,4.9,8.8,9.4,15.4,10.3
					c6.1,0.9,12.4-1.3,15.2-7c2.8-5.8-5.8-10.8-8.6-5c-4.3,8.7-15.1-5.7-17.8-8.8c-5.7-6.5-13.4-11.1-21.9-12.7
					c-17-3.2-34.4,5.2-41.8,21c-7.2,15.2-3.6,37.9,15.5,41.7c7.6,1.5,15.6-1.3,19.6-8.1c3.7-6.1,3.8-14.6-1.2-20.1
					c-7.5-8.1-19-3.8-25.9,2.6c-8.2,7.6-11.3,18.9-14,29.4C894.4,205.4,904,208,905.6,201.8L905.6,201.8z"/>
			</g>
		</g>
		<g>
			<g>
				<path class="st13" d="M993.3,104.4c-8.1-2.3-11,5.7-10.6,12.2c0.4,7.2,2.8,14.4,6.9,20.4c5,7.4,26.8,26.7,32.5,10.3
					c2.1-6.1-7.6-8.7-9.6-2.7c1.5-0.9,1.4-1.4-0.2-1.5c-0.9-0.3-1.8-0.7-2.7-1.2c-1.3-0.6-2.5-1.4-3.6-2.2c-3-2.1-5.6-4.8-7.6-7.7
					c-1.9-2.8-3.4-5.8-4.4-9c-0.5-1.6-0.9-3.2-1.1-4.9c-0.1-0.9-0.1-1.9-0.2-2.8c0.5-1.7-0.2-2.1-2-1.2
					C996.8,115.8,999.5,106.2,993.3,104.4L993.3,104.4z"/>
			</g>
		</g>
		<g>
			<g>
				<path class="st13" d="M1042.8,113.5c1.1-6.2-4.7-11.4-10.8-8.6c-5.6,2.6-6.7,11-7.5,16.3c-2,13-1.6,30.8,13.1,36
					c6.1,2.1,8.7-7.5,2.7-9.6c-6.3-2.2-6.6-10.6-6.6-16.2c0-3.1,0.2-6.2,0.8-9.2c0.3-1.7,0.7-3.5,1.2-5.2c0.2-0.6,0.3-1.1,0.5-1.7
					c0.9-1.5,0.2-2-2.2-1.6c-0.2-1.3-0.3-2.6-0.5-3.9c-0.1,0.3-0.1,0.7-0.2,1C1032,117.2,1041.6,119.9,1042.8,113.5L1042.8,113.5z"
					/>
			</g>
		</g>
		<g>
			<g>
				<path class="st13" d="M1079.8,135.2c1.6-7.3-5.1-11.7-11.8-9.5c-6.6,2.2-13.2,7.2-17.4,12.7c-4.4,5.9-6.7,13-8.6,20.1
					c-1.4,5.5-2.3,11.8,4.3,14.1c6.1,2.1,8.7-7.5,2.7-9.6c1.3,2.5,2,2.9,1.9,1.3c0.1-0.5,0.3-1,0.4-1.5c0.3-1.6,0.8-3.1,1.2-4.7
					c1-3.4,2.1-6.8,3.8-10c1.6-3,3.6-5.6,6.2-7.7c1.3-1.1,2.7-2,4.2-2.8c0.7-0.4,1.4-0.8,2.1-1.2c1.9-0.4,2.3-1.7,1.3-3.8
					C1068.8,138.8,1078.5,141.5,1079.8,135.2L1079.8,135.2z"/>
			</g>
		</g>
		<g>
			<g>
				<path class="st13" d="M1096.5,173.8c4.8-3.3,5.8-9.9,1.8-14.4c-4.4-5-11.7-4-17.5-3.1c-12.6,2.1-30.6,8.1-35.5,21.2
					c-2.3,6,7.4,8.6,9.6,2.7c2.3-6,12.2-9.6,17.7-11.5c3.2-1.1,6.6-2,9.9-2.6c1.7-0.3,3.4-0.6,5.1-0.6c1.9,0,2.4,0.6,3.7-0.3
					C1086.2,168.8,1091.2,177.5,1096.5,173.8L1096.5,173.8z"/>
			</g>
		</g>
		<g>
			<g>
				<path class="st13" d="M1035.7,213.2c1.6,5.1,7,7.5,12,5.4c6.4-2.6,6.7-10,5.9-15.9c-1.3-9.5-7.8-33.9-21.9-26.9
					c-5.8,2.9-0.7,11.5,5,8.6c0.4-0.2,5.3,11.9,5.7,13.4c0.6,2.3,1.2,4.8,1.4,7.2c0.1,1.1-0.3,2.6-0.1,3.6c-0.4,0.7-0.4,0.9,0,0.7
					c0.6-0.3,1.1,0.1,1.5,1.1C1043.4,204.4,1033.8,207,1035.7,213.2L1035.7,213.2z"/>
			</g>
		</g>
		<g>
			<g>
				<path class="st13" d="M1008.5,209c-0.8,5.8,4.1,11.3,10.3,8.9c7-2.7,6.7-11.8,5.7-17.8c-1.1-6.8-11.5-39.1-22.7-26.1
					c-4.2,4.8,2.9,12,7.1,7.1c-1.4,1.6-3.2-1.2-1.4,2.2c0.5,1,1.1,2,1.6,3.1c1.3,2.7,2.6,5.4,3.7,8.3c0.9,2.4,1.6,4.8,2,7.4
					c0.2,1.2,0.3,2.5,0.3,3.7c0.1,0.8,0,1.6-0.1,2.4c-0.4,1.3,0.4,1.6,2.6,0.8c0.2,1.3,0.3,2.6,0.5,3.9c0-0.3,0.1-0.7,0.1-1
					C1019.1,205.3,1009.4,202.6,1008.5,209L1008.5,209z"/>
			</g>
		</g>
		<g>
			<g>
				<path class="st13" d="M982.5,211.5c0,0.2,0,0.4-0.1,0.5c-0.3,2.2,1.8,4.2,3.7,4.8c5.8,2,9.3-3.9,10.8-8.6
					c1.7-5.2,1.3-11-0.8-16.1c-4.4-10.8-16.5-16-27.5-12.5c-13.3,4.2-16.6,17.4-18.1,29.8c-1.7,13-0.2,27.6,9.9,37
					c7.4,7,21.9,10.6,28.6,0.5c7.4-10.9-6.1-21.7-16.7-18.2c-12.4,4-18.3,20-17.4,31.9c0.9,12.5,8.5,24,19.8,29.6
					c13.4,6.6,28.9,4,38-8.3c3.9-5.3,6.7-12,7.9-18.5c1.2-6.9-1.8-14.8-9.9-14.4c-6.4,0.3-6.4,10.3,0,10c1,0-1.6,8.6-2,9.6
					c-1.3,3.4-3.2,6.8-5.6,9.4c-5.4,5.8-13.1,7.1-20.5,4.7c-14.7-4.8-21.8-22.1-15.1-36c1.4-2.9,3.4-6,6.2-7.7
					c1.7-1.1,7.6-2.1,7.4,1.6c-0.2,2.4-4.7,2.7-6.4,2.5c-3.1-0.4-6.1-2.6-8.2-4.8c-5.3-5.7-6.8-13.5-6.6-21.1
					c0.2-7.1,0.9-16.4,4.6-22.6c3.6-5.9,12.2-8.1,18.1-4.2c2.9,1.9,4.8,5.3,5.3,8.8c0.2,1.5,0.2,3.1-0.1,4.5
					c-0.2,0.8-0.6,1.7-0.7,2.5c-0.1,0.4-0.3,0.8-0.6,1.2c-0.9,1.2-0.1,1.2,2.3-0.2c1.2,1.6,2.4,3.2,3.7,4.8c0-0.2,0-0.4,0.1-0.5
					C993.3,205.1,983.3,205.2,982.5,211.5L982.5,211.5z"/>
			</g>
		</g>
		<g>
			<g>
				<path class="st13" d="M1020.3,306.1c17.3,8.2,31-14,32.9-28.4c1.1-8,0-16.8-4-23.9c-2-3.4-5.3-6.3-9.5-5.7
					c-4,0.5-6.9,3.9-6.7,7.8c0.3,6.4,10.3,6.4,10,0c-0.9,0.8-1.9,1.5-2.8,2.3c0.2,0.4,0.4,0.8,0.7,1.2c0.2,1.1,1,2.3,1.3,3.4
					c0.6,1.8,1,3.7,1.2,5.6c0.5,4.3,0.1,8.7-1.2,12.8c-1.6,5.5-9.2,19.9-16.9,16.2C1019.6,294.7,1014.5,303.3,1020.3,306.1
					L1020.3,306.1z"/>
			</g>
		</g>
		<g>
			<g>
				<path class="st13" d="M1059.1,299.9c5.8,3.6,12.9,2.2,17.9-2.1c6.3-5.4,7.2-13.7,7.5-21.5c0.5-14.6,4.5-35.8,21.5-39.8
					c3.6-0.9,7.7-0.3,10.5,2.4c2.3,2.3,3.2,7.3-0.4,9.2c-3.7,1.9-5-3.1-4.7-5.8c0.4-3.5,2.7-7,5.4-9.1c6.6-5.1,16.1-4.8,23.9-4.6
					c9,0.2,18.3,0.6,26.8-2.9c6.4-2.7,12.1-7.5,14.7-14.1c2.5-6.3,1.9-14.8-4.9-18.2c-6.4-3.2-14-0.1-17.5,5.9
					c-3.6,6.2-3.4,14.2-0.9,20.7c5.6,14.3,21.2,21.6,35.9,17.5c7.7-2.1,13.6-7.2,18.7-13.2c5.4-6.3,10.4-12.9,18.8-15.2
					c5.2-1.4,19.2-0.6,16,8.3c-1.2,3.4-4.3,2.7-6-0.1c-2.2-3.8,0.2-7.8,2.9-10.6c6.1-6.3,15.2-8.7,21.8-14.6
					c6.2-5.5,9.9-14.4,6.8-22.4c-2.3-5.9-12-3.4-9.6,2.7c3.7,9.6-7.7,15.3-14.5,19.1c-6.9,3.9-13.9,8.6-16.9,16.3
					c-2.7,6.8-0.8,14.7,5.1,19.3c5.5,4.3,13.2,3.6,17.5-1.9c4-5,4.3-12.5,1-17.9c-4-6.5-12.4-9.2-19.7-8.8
					c-8.8,0.5-16.9,4.6-23.1,10.8c-5.9,5.9-10.4,14.1-18.3,17.6c-8.4,3.7-18.7,1.9-24.4-5.5c-2.4-3.1-3.9-7.1-3.9-11.1
					c0-2.3,3.1-11.6,6.1-7c2,3-1.9,7.9-4,9.8c-3.8,3.4-8.7,4.9-13.7,5.5c-9.6,1.1-19.2-0.6-28.8,0.7c-8,1.1-15.8,4.3-20.8,10.9
					c-4.5,5.9-6.4,14.2-3,21.2c3.5,7,11.8,9.5,18.5,5.2c6.2-4,8.5-12.2,5.7-18.9c-3.6-8.4-13-12.4-21.7-11
					c-9.4,1.5-17.3,8.1-22.3,15.8c-5.2,7.9-7.6,17.4-8.4,26.8c-0.4,5,0.1,10.2-1.1,15.1c-1,3.9-4.8,10.1-9.6,7.1
					C1058.6,287.9,1053.6,296.6,1059.1,299.9L1059.1,299.9z"/>
			</g>
		</g>
		<g>
			<g>
				<path class="st13" d="M925.9,144.1c17.6-9.8,25.1-31.3,16.9-49.8c-3.3-7.5-12-18.8-21.1-12c-7.6,5.6-4.9,17,1.6,22.2
					c7.1,5.8,16.8,4.7,22.9-1.9c7.2-7.8,6.3-18.3,10.9-27.3c3.7-7.2,16.3-13.1,20.7-3.2c0.6,1.5,1.7,9.1-1.9,8.3
					c-3.5-0.8-1.7-11.9-0.8-13.7c2.7-5,11.1-4.7,15.9-6.4c5.1-1.7,9.9-4.6,12.7-9.4c5.8-9.9-1.2-22.1-12.9-20.3
					c-6.3,1-3.6,10.6,2.7,9.6c3.1-0.5,2.4,4.3,1.6,5.6c-1.1,2-3.1,3.3-5.2,4.2c-4.6,2-9.8,2.2-14.4,4c-8,3.2-11.6,10.5-11.6,18.8
					c0,7.1,2.9,16.9,11.4,17.5c7.7,0.6,13.1-7.2,13.3-14.2c0.4-17.3-19-24.2-32-15.1c-7.8,5.5-10.3,13.8-12.5,22.6
					c-1.4,5.7-6.5,19.9-14.7,12.8c-0.9-0.8-3.4-4.1-2.2-5.5c1.7-1.9,4.5,3.4,5.3,4.7c2.6,4.6,3.9,9.9,3.8,15.2
					c-0.2,10.4-6.5,19.4-15.4,24.4C915.3,138.6,920.3,147.2,925.9,144.1L925.9,144.1z"/>
			</g>
		</g>
		<g>
			<g>
				<path class="st13" d="M776.3,229.7c5.3-4.5,12.6-5.7,18.5-9.2c5.9-3.4,10.2-8.7,12.8-15.1c4-10,7.5-30.7-6.1-35.2
					c-5.4-1.8-11.2,0.8-13,6.3c-1.8,5.5,0.9,11.1,5.6,14.1c11,7.2,27.7,1.3,29.5-12.3c0.8-6.3-8.8-9-9.6-2.7
					c-0.5,3.7-2.3,6.5-5.9,7.6c-2.8,0.9-8.2,0.6-9.8-2.3c-0.7-1.3-0.5-1.7,0.8-0.9c1.5,0.9,1.8,3.4,2,4.9c0.3,3.8-0.4,8-1.2,11.7
					c-1.7,7.3-5.2,12.8-12,16.1c-6.4,3.2-13,4.9-18.5,9.7C764.3,226.8,771.4,233.8,776.3,229.7L776.3,229.7z"/>
			</g>
		</g>
		<g>
			<g>
				<path class="st13" d="M221.2,182.3c8.3,0.9,16.6,0,24.5-2.8c6-2.1,3.4-11.8-2.7-9.6c-7.2,2.5-14.3,3.3-21.8,2.4
					C214.8,171.6,214.9,181.6,221.2,182.3L221.2,182.3z"/>
			</g>
		</g>
	</g>
</g>
</svg>
