<svg xmlns="http://www.w3.org/2000/svg" xmlns:xlink="http://www.w3.org/1999/xlink" viewBox="0 0 628.5 363"><style>.st1{clip-path:url(#SVGID_2_)}.st13{fill:#fff}</style><g id="Calque_2"><defs><path id="SVGID_1_" d="M-36.2-100.4H668v591.3H-36.2z"/></defs><clipPath id="SVGID_2_"><use xlink:href="#SVGID_1_" overflow="visible"/></clipPath><g class="st1"><defs><path id="SVGID_3_" d="M-36.2-100.4H668v591.3H-36.2z"/></defs><clipPath id="SVGID_4_"><use xlink:href="#SVGID_3_" overflow="visible"/></clipPath><g clip-path="url(#SVGID_4_)"><image width="360" height="640" xlink:href="864A86B45347A9E8.png" transform="matrix(1.9562 0 0 .924 -36.18 -100.405)" overflow="visible"/></g></g><g class="st1"><defs><path id="SVGID_5_" d="M-36.2-100.4H668v591.3H-36.2z"/></defs><clipPath id="SVGID_6_"><use xlink:href="#SVGID_5_" overflow="visible"/></clipPath></g><g class="st1"><defs><path id="SVGID_7_" d="M-36.2-100.4H668v591.3H-36.2z"/></defs><clipPath id="SVGID_8_"><use xlink:href="#SVGID_7_" overflow="visible"/></clipPath><g clip-path="url(#SVGID_8_)"><image width="360" height="640" xlink:href="864A86B45347A9E9.png" transform="matrix(1.9562 0 0 .924 -36.18 -100.405)" overflow="visible"/></g></g><g class="st1"><defs><path id="SVGID_9_" d="M-36.2-100.4H668v591.3H-36.2z"/></defs><clipPath id="SVGID_10_"><use xlink:href="#SVGID_9_" overflow="visible"/></clipPath></g><g class="st1"><defs><path id="SVGID_11_" d="M-36.2-100.4H668v591.3H-36.2z"/></defs><clipPath id="SVGID_12_"><use xlink:href="#SVGID_11_" overflow="visible"/></clipPath><g clip-path="url(#SVGID_12_)"><defs><path id="SVGID_13_" d="M-36.2-100.4H668v591.3H-36.2z"/></defs><clipPath id="SVGID_14_"><use xlink:href="#SVGID_13_" overflow="visible"/></clipPath><g clip-path="url(#SVGID_14_)"><defs><path id="SVGID_19_" d="M-36.2-100.4H668v591.3H-36.2z"/></defs><clipPath id="SVGID_20_"><use xlink:href="#SVGID_19_" overflow="visible"/></clipPath><g clip-path="url(#SVGID_20_)"><defs><path id="SVGID_21_" d="M-36.2-100.4H668v591.3H-36.2z"/></defs><clipPath id="SVGID_22_"><use xlink:href="#SVGID_21_" overflow="visible"/></clipPath><g clip-path="url(#SVGID_22_)"><image width="2935" height="2464" xlink:href="864A86B45347A9E9.jpg" transform="matrix(.24 0 0 .24 -36.18 -100.405)" overflow="visible"/></g></g></g></g></g><path class="st13" d="M122.6 304.9c-6.5-11.3-11.2-23.3-14-36l-4.2 2.4c8.8 8.4 15.2 18.5 18.9 30.1.8 2.5 3.9 2.2 4.8 0l2.4-5.7c-1 .6-2.1 1.2-3.1 1.7.5.9 1 1.9 1.5 2.8-.3 2.3 2.9 3.1 4.3 1.8 2.1-2.1 4.2-4.1 6.3-6.2-1.3-.2-2.6-.3-3.9-.5 1 2 2.1 4.1 3.1 6.1.6 1.2 2.3 1.6 3.4.9 3.7-2.2 8 .1 8.7 4.2.5 3.2 5.2 1.8 4.8-1.3-1.9-13.9 2.1-27.7 10.6-38.8-1.6-.4-3.1-.8-4.7-1.3.1 5.6.3 11.1.4 16.7.1 4.3-.6 9.6 1.3 13.7 2.4 5 9.2 5.5 11.4.2h-4.8c1.1 5.2 2.1 10.3 3.2 15.5.4 2 2.9 2.3 4.2 1.1 3-2.7 6-5.3 9-8-1.4-.4-2.8-.7-4.2-1.1l3.6 9.6c.9 2.4 4 2.4 4.8 0 4.2-11.5 6.7-23.4 7.6-35.6-1.6.2-3.3.4-4.9.7 1.7 8 3.4 16 5.2 24 .5 2.4 4.3 2.4 4.8 0 1.5-7 3-14 4.4-21-1.5.2-3 .4-4.6.6l2.7 5.4c.4.8 1.3 1.3 2.2 1.2 4.1-.1 6.9 3.3 6.4 7.3h5c1.2-14.9 7.2-28.8 17.2-39.8-1.4-.6-2.8-1.2-4.3-1.8-1.1 17-2.2 34-3.3 50.9-.2 2.7 3.4 3.2 4.7 1.3l7.5-11.1c-1.5-.2-3-.4-4.6-.6 1.2 3.7 2.3 7.3 3.5 11 .6 1.9 2.7 2.4 4.2 1.1 1.8-1.5 3.5-3.1 5.3-4.6-1.4-.6-2.8-1.2-4.3-1.8 0 4.7 4.5 6.7 8.7 5.9 7.3-1.4 7.2-9.5 12.7-13-1.3-.7-2.5-1.4-3.8-2.2-.9 7.7.1 15.3 2.8 22.6.6 1.7 2.8 2.5 4.2 1.1 4.7-4.6 7.3-10.2 8.1-16.7-1.6.4-3.1.8-4.7 1.3 2 4.4 4.6 9.4 9.7 10.8 4 1.1 7.7-.3 10-3.6 1.8-2.7-2.5-5.2-4.3-2.5-4.1 6.2-9.6-4.2-11-7.2-1.1-2.5-4.4-.9-4.7 1.3-.6 5.2-2.9 9.5-6.6 13.2 1.4.4 2.8.7 4.2 1.1-2.6-6.9-3.4-13.9-2.6-21.2.2-1.9-2.3-3.1-3.8-2.2-2.7 1.7-4.3 4-5.9 6.8-.9 1.6-1.8 3.9-3.4 4.9-.7.5-4.6 1.7-4.6-.3 0-2.3-2.7-3.2-4.3-1.8-1.8 1.5-3.5 3.1-5.3 4.6 1.4.4 2.8.7 4.2 1.1-1.2-3.7-2.3-7.3-3.5-11-.7-2.1-3.4-2.4-4.6-.6l-7.5 11.1c1.6.4 3.1.8 4.7 1.3 1.1-17 2.2-34 3.3-50.9.1-2.1-2.8-3.3-4.3-1.8-11 12.1-17.4 27.1-18.7 43.4-.3 3.3 4.6 3.1 5 0 .8-6.7-4.7-12.4-11.4-12.3.7.4 1.4.8 2.2 1.2l-2.7-5.4c-.9-1.9-4.1-1.5-4.6.6-1.5 7-3 14-4.4 21h4.8c-1.7-8-3.4-16-5.2-24-.6-2.9-4.7-2-4.9.7-.9 11.7-3.5 23.2-7.5 34.2h4.8l-3.6-9.6c-.7-1.8-2.7-2.4-4.2-1.1-3 2.7-6 5.3-9 8 1.4.4 2.8.7 4.2 1.1-1.1-5.2-2.1-10.3-3.2-15.5-.5-2.7-4-2-4.8 0-.3.8-2.2-1.3-2.2-1.5-.5-1-.4-2.6-.4-3.6-.2-2.8-.1-5.6-.2-8.3-.1-5.2-.3-10.5-.4-15.7-.1-2.7-3.2-3.1-4.7-1.3-9.4 12.2-13.2 27.4-11.1 42.6 1.6-.4 3.2-.9 4.8-1.3-1.2-7.3-9.8-10.9-16-7.2 1.1.3 2.3.6 3.4.9-1-2-2.1-4.1-3.1-6.1-.7-1.5-2.8-1.6-3.9-.5-2.1 2.1-4.2 4.1-6.3 6.2 1.4.6 2.8 1.2 4.3 1.8.5-3.7-1.7-6.5-5.1-7.6-1.4-.5-2.6.6-3.1 1.7l-2.4 5.7h4.8c-3.9-12.4-10.8-23.4-20.2-32.3-1.9-1.8-4.7 0-4.2 2.4 2.9 13.1 7.7 25.6 14.5 37.2 1.8 2.7 6.1.2 4.5-2.6zM308.3 325.3c-1-3.7 1.6-6.6 4.6-8.3 1.9-1.1 8.3-4.7 10.3-2.8 1.7 1.7.1 5-1.6 6.1-3.3 2.1-8.1.7-11.5-.2-3.1-.8-4.5 4.1-1.3 4.8 5.6 1.4 12.9 2.8 17.4-1.9 3-3.2 3.9-9 .7-12.3-4.3-4.3-11.6-.7-15.9 1.7-5.2 2.8-9.1 8.1-7.4 14.2.7 3.2 5.5 1.8 4.7-1.3z"/><path class="st13" d="M303.1 310.8c-4.6-1.1-8.5-4.5-13.5-4.1-3.3.3-6.4 2.3-7.1 5.7-.7 3.3 1.3 6.9 4.1 8.6 4.1 2.7 9.3 1.6 13.7.4 3.1-.8 1.8-5.6-1.3-4.8-2.6.7-5.7 1.7-8.4.8-1.9-.6-4.8-3.7-2.1-5.3 3.7-2.2 9.7 2.7 13.3 3.6 3.1.6 4.4-4.2 1.3-4.9z"/><path class="st13" d="M283.8 312.3c-7.5-1.6-16.4-3-21.9 3.6-4.1 4.8-3.8 12.2 2.2 15.4 7.1 3.8 14.2-.7 19.9-4.8.9-.6 1.7-1.2 2.6-1.8.7-.5 4.4-2.4 2-1.9-2.3.5-5 2.5-7.3 3.4-5.5 2.1-11.2 3.3-17.1 3.7-3.2.2-3.2 5.2 0 5 8.6-.6 16.9-2.7 24.6-6.6 2.4-1.2 6.1-2.4 6-5.6-.1-2.1-1.8-3.9-3.7-4.4-7.1-1.9-13.1 8.7-20.1 9.3-6.2.5-9.1-5.4-4.2-9.6 4.3-3.6 10.8-1.9 15.7-.9 3.1.7 4.5-4.2 1.3-4.8z"/><path class="st13" d="M289.1 330.2c2.7-3.2 8.7-.1 12.4-.6 3.3-.4 5.8-2 6.8-5.3-1.2.5-2.4 1-3.7 1.5 7.4 5.2 17.4 4.1 23.7-2.3 2.2-2.3-1.3-5.8-3.5-3.5-4.8 4.9-12 5.5-17.6 1.5-1.3-1-3.3.1-3.7 1.5-1 3.7-8.6.8-11.2.9-2.7 0-5 .8-6.7 2.9-2.1 2.3 1.4 5.9 3.5 3.4zM312.1 350.7c1.7 6 10.7 7.4 14.1 2.1 4-6.4-4.3-13.6-10.5-10.5-2.9 1.4-.3 5.8 2.5 4.3 1.9-.9 5 2 3.5 3.8-1.2 1.5-4.4.8-4.9-1-.8-3.2-5.6-1.9-4.7 1.3zM345.5 347.7c1.3-.4 2.6-.9 3.8-1.3 1.2-.4 2.2-1.7 1.7-3.1-.4-1.2-1.7-2.2-3.1-1.7-1.3.4-2.6.9-3.8 1.3-1.2.4-2.2 1.7-1.7 3.1.4 1.2 1.7 2.1 3.1 1.7zM377.5 338.5c.8-1.3 1.7-2.6 2.5-3.8.7-1.1.3-2.8-.9-3.4-1.3-.7-2.7-.3-3.4.9-.8 1.3-1.7 2.6-2.5 3.8-.7 1.1-.3 2.8.9 3.4 1.2.7 2.6.3 3.4-.9zM285.9 341.2c-4.3-.2-22.7.6-17.2 9.2 4.5 7 14.9 2.3 19.1-2.3 2.2-2.4-1.4-5.9-3.5-3.5-1.8 1.9-7.7 6.4-10.4 3.9-1-.9.5-1 1.4-1.2 1.1-.3 2.1-.5 3.2-.7 2.5-.4 5-.5 7.5-.3 3.1.1 3.1-4.9-.1-5.1zM246.7 343.3c-2.8-2.9-6.4-4.7-10.5-4.8-3.1-.1-7.3.9-7.4 4.7-.1 4 4.5 6.1 7.6 7.3 4.4 1.7 8.9 1.9 13.6 1.3 3.2-.5 1.8-5.3-1.3-4.8-4.5.7-8.9-.2-13-2.3-.1-.1-1.8-.9-1.8-.9 0-.4 2.8-.1 3.1-.1 2.5.3 4.5 1.5 6.2 3.3 2.2 2.1 5.7-1.4 3.5-3.7zM240.9 324.5c-.9-8.2-5.5-15.6-12.9-19.4-6.7-3.5-15.8-3.8-21.7 1.5-5 4.4-5.9 13.2-.4 17.6 3.6 2.9 9.3 3 13.6 3.7 6.3 1.1 12.5 2.2 18.8 3.3 1.7.3 3-.7 3.2-2.4.7-6.5 9.2-10.6 15.2-10.6.9-.3 1.7-.2 2.5.6 1.7.1 2.1.6 1.3 1.6 0 1.3-1.7 2.6-2.6 3.5-2 2.1-4.3 4-6.4 6-2.4 2.2 1.2 5.7 3.5 3.5 3.7-3.5 9.4-7.3 10.7-12.6 1-4-1.2-7.5-5.4-8-5-.6-11.9 1.6-16.2 4.2-4.4 2.7-7.1 6.6-7.7 11.7 1.1-.8 2.1-1.6 3.2-2.4-6.9-1.2-13.8-2.4-20.7-3.7-2.9-.5-6.9-.5-9.4-2.2-3.2-2.1-3.1-6.7-.7-9.5 4.2-4.9 12.2-4.1 17.2-1.3 5.4 3 9.2 8.6 9.8 14.8.5 3.3 5.5 3.3 5.1.1zM386.9 324.9c3.2 0 3.2-5 0-5s-3.2 5 0 5zM387.8 311.9c-6.1-29.2-8.3-59-6.4-88.7.9-13.4 1.5-28.1 6.4-40.7 4.5-11.5 14.1-18.4 26-20.8 11.1-2.3 22.8-1.2 33.9.6 14.4 2.3 28.7 5.2 43 8.1 6.9 1.4 13.5 1.5 17.7 7.7 1.6 2.3 3 4.4 5 6.3 2.5 2.4 5.6 4.3 7.3 7.5 3.2 5.8 2.9 13.8 3.5 20.2.8 7.9 1.4 15.8 2 23.7 1.3 17.1 2.2 34.2 2.6 51.4.2 8.6.4 17.2.4 25.7 0 7.2 1.7 17-2.7 23.2-1.9 2.6 2.5 5.1 4.3 2.5 3.7-5.2 3.3-11.7 3.4-17.8 0-8.6 0-17.2-.2-25.7-.3-17.2-1.1-34.3-2.3-51.4-.6-8.6-1.3-17.1-2-25.6-.7-7.4-.9-15.1-2.5-22.4-1.5-6.8-5.5-10.1-10.3-14.7-4.1-4-5.9-9.6-11.4-12.1-6.7-3-15.1-3.6-22.3-5-8.4-1.6-16.8-3.2-25.3-4.8-12.3-2.2-24.9-4.3-37.4-3.3-10.8.9-21.7 4.2-29.5 12.2-9.1 9.5-11.3 22.8-12.8 35.3-4.6 36.7-2.9 73.9 4.6 110.1.9 3 5.7 1.7 5-1.5z"/><path class="st13" d="M415.3 278.4c-1.1-11.3-2.4-22.7-3.4-34-.8-9-2-21.4 5.8-27.8 7.1-6 20.1-4.3 18.1 7.4-1.8 10.6-14.8 16.7-22.8 22.2.8 1.4 1.7 2.9 2.5 4.3 4.5-3.2 10.1-.4 12.7 3.9 2.6 4.4 3.2 9.7 4.2 14.6 1.5 7.2 4.4 14.5 11.4 17.8 2.9 1.3 5.4-3 2.5-4.3-11.1-5.1-8.3-20.6-13.4-29.9-3.8-6.9-13-11.5-20-6.5-2.6 1.9-.2 6.1 2.5 4.3 9.6-6.5 23.5-13.4 25.3-26.2 1.5-10.4-6.9-17.9-17-16-11.4 2.2-16.6 12.6-17.4 23.3-.5 7.3.6 14.7 1.4 22 .8 8.3 1.7 16.5 2.5 24.8.4 3.3 5.4 3.3 5.1.1zM462.9 288.2c-5.6-15.6-7.9-31.9-6.9-48.5.2-3.2-4.8-3.2-5 0-1 17 1.4 33.8 7.1 49.8 1.1 3.1 5.9 1.8 4.8-1.3zM455.3 220.8l-2.1-2.1c-.9-.9-2.6-1-3.5 0-.9 1-1 2.5 0 3.5l2.1 2.1c.9.9 2.6 1 3.5 0 1-.9 1-2.5 0-3.5zM480 293.3c-1.2-13.2-2.5-26.4-3.7-39.6-.6-6.4-1.3-12.8-1.8-19.2-.4-5.2-.8-12.8 4.8-15.4 4.8-2.3 10.4 1.3 13.4 5.1 3.1 4 3.8 9.3 2.8 14.2-2 9.7-10.2 17.9-20.2 18.5-3.2.2-3.2 5.2 0 5 11.6-.8 21.3-9.3 24.6-20.4 3.3-11-1.5-24.2-13.3-27.6-5.1-1.5-10.5-.1-13.8 4.2-3.7 4.8-3.6 11.3-3.1 17 1.6 19.4 3.7 38.7 5.5 58.1.1 3.3 5.1 3.3 4.8.1zM564.5 306.1c-3.4-13.1-.1-25.4 1.7-38.4 1.5-10.7.1-20.3-3.7-30.4-3.7-9.6-9.1-19.6-8.4-30.3.7-10.4 8.3-19.6 4.4-30.2-1.1-3-5.9-1.7-4.8 1.3 3.8 10.4-5 21.2-4.6 31.9.4 10.1 5.1 19.3 8.6 28.5 2 5.1 3.7 10.3 4.2 15.8.5 6.5-.5 12.9-1.6 19.3-2 11.5-3.5 22.4-.6 33.8.8 3.1 5.6 1.8 4.8-1.3zM549.4 173.1c-6.2 1-12.3 2.1-18.5 3.1.4 1.6.9 3.2 1.3 4.8 6.4-1.7 11.1-10.3 5.8-15.8-4.5-4.6-12.7-2.5-14.6 3.4-1 3.1 3.8 4.4 4.8 1.3.7-2.3 4.5-3.1 6.2-1.2 2.5 2.8-.9 6.7-3.6 7.4-3.2.9-1.8 5.3 1.3 4.8 6.2-1 12.3-2.1 18.5-3.1 3.3-.4 2-5.2-1.2-4.7zM517.9 173.6c3.2 0 3.2-5 0-5s-3.2 5 0 5z"/><path class="st13" d="M533.1 164c1.4 2.9 3.9 4.4 7.1 4.3 1.3 0 2.6-1.1 2.5-2.5-.7-12.8-19.8-11.9-28.7-13.8-15.9-3.4-31.2-9.2-47.2-12.4-29-5.7-58.2 1.3-79.1 22.9-.8.8-1 2.1-.4 3 1.9 3.3 5 4.6 8.8 3.8 3.1-.7 1.8-5.5-1.3-4.8-1-.5-2.1-1-3.1-1.5-.1 1-.3 2-.4 3 19.1-19.8 45.8-26.9 72.5-21.9 13.4 2.5 26.3 6.9 39.4 10.4 6.6 1.7 13.2 3.2 19.9 4.2 4.4.6 14.2 1.1 14.6 7.2l2.5-2.5c-.9-.6-1.9-1.2-2.8-1.8-1.4-3-5.7-.5-4.3 2.4zM375 229.9c-.9-1.2-1.7-2.4-2.6-3.6-.9-1.3-2.7-1.8-3.9-.5-2.5 2.6-3.4 6.5-2 9.9.5 1.2 1.7 2.1 3.1 1.7 1.2-.3 2.3-1.8 1.7-3.1-.7-1.8-.6-3.6.8-5-1.3-.2-2.6-.3-3.9-.5.9 1.2 1.7 2.4 2.6 3.6.8 1.1 2.2 1.6 3.4.9 1-.6 1.6-2.3.8-3.4z"/><path class="st13" d="M435.4 156c3.6-2.1 7.2-4.3 10.7-6.4 2.8-1.6.2-6-2.5-4.3-3.6 2.1-7.2 4.3-10.7 6.4-2.7 1.6-.2 5.9 2.5 4.3zM451.2 155.4c.7 1.4 1.5 2.8 2.2 4.3.6 1.2 2.3 1.6 3.4.9 1.2-.7 1.5-2.2.9-3.4-.7-1.4-1.5-2.8-2.2-4.3-.6-1.2-2.3-1.6-3.4-.9-1.2.7-1.5 2.2-.9 3.4zM479.3 156.5c3.2 0 3.2-5 0-5s-3.2 5 0 5zM427.1 190.2c-1.4-.7-2.9-1.4-4.3-2.2-1.2-.6-2.7-.3-3.4.9-.6 1.1-.3 2.8.9 3.4 1.4.7 2.9 1.4 4.3 2.2 1.2.6 2.7.3 3.4-.9.6-1.1.3-2.8-.9-3.4zM412.8 192.9c3.2 0 3.2-5 0-5s-3.2 5 0 5zM419.3 183.1c.7-1.4 1.4-2.9 2.1-4.3.6-1.2.3-2.7-.9-3.4-1.1-.6-2.8-.3-3.4.9-.7 1.4-1.4 2.9-2.1 4.3-.6 1.2-.3 2.7.9 3.4 1.1.7 2.8.3 3.4-.9zM442.9 177.9c3.2 0 3.2-5 0-5-3.3 0-3.3 5 0 5zM385.6 318.1c3.2 0 3.2-5 0-5s-3.2 5 0 5zM369.9 321.9c.3-4.5-3.2-8.1-7.5-8.9-5.5-1.1-10.2 2.6-14.1 5.9-2.1 1.8.3 4.5 2.4 4.2 3.5-.6 7.1-1.1 10.6-1.7 3.1-.5 7.1-1.8 10.2-1.6-3.2-.2-3.2 4.8 0 5 5.1.3 6-6.7 1.9-8.9-2.5-1.3-5.5-.6-8.1-.1-5.3.8-10.6 1.7-16 2.5l2.4 4.2c1.9-1.6 4-3.4 6.4-4.1 2.8-.8 6.9-.2 6.7 3.6 0 3.2 5 3.1 5.1-.1z"/><path class="st13" d="M377.9 323.6c-2.5-1.4-3.5-3.6-3.2-6.4-1.6.4-3.1.8-4.7 1.3 1.8 4.2 5 14.2 10.7 14.4 4.9.2 5.4-6.1 9.4-7l-2.4-.6c1.3 1.1 2.6 2.3 3.9 3.4 2.4 2.1 6-1.4 3.5-3.5-1.8-1.6-3.8-4.3-6.4-4.1-1.7.2-3.2 1.5-4.3 2.7-.7.8-1.3 1.7-2 2.5-1 1.2-.8 1.6-2.5.4-1.2-.9-2.3-3.9-3-5.3-.9-1.8-1.8-3.6-2.6-5.5-1.1-2.5-4.4-.9-4.7 1.3-.4 4.5 1.7 8.5 5.7 10.7 2.9 1.6 5.4-2.7 2.6-4.3z"/><path class="st13" d="M400.5 326.3c-.8-5.9-4.3-10.9-9.3-14-.6 1.5-1.3 3-1.9 4.6 2.5.9 4.8 2.4 6.8 4.3 1.5 1.5 2.4 3.4 3.9 5 2.2 2.5 7.1 2.6 7.7-1.4.5-3.1-4.3-4.5-4.8-1.3.2-1.4.6-.9-.2-2-.4-.6-.8-1.1-1.2-1.6-1-1.2-2-2.4-3.2-3.4-2.3-1.9-4.8-3.3-7.6-4.3-2.7-1-4.2 3.1-1.9 4.6 4 2.5 6.3 6.4 7 11 .3 3 5.1 1.7 4.7-1.5zM440.6 327c3.2 0 3.2-5 0-5s-3.2 5 0 5zM531.1 340.1c-3.8-13.7-7.5-27.4-11.3-41.1-1.5.6-3 1.3-4.6 1.9 6.8 13 13.3 26.1 20.3 38.9 1.4 2.5 4.2 6.3 7.1 2.9 1.3-1.5 1.3-4 1.6-5.8l2.1-11.4h-4.8c1.8 5.4 3.7 10.7 5.5 16.1.7 2.1 3.3 2.4 4.6.6l11.1-15.6c-.9.4-1.9.8-2.8 1.1.5.2-.8 5.6-.8 6.3-.2 1.9-.1 4 1.2 5.5 3.7 4.2 13.1.2 17.1-1.5 3.1-1.3 4.9-3.4 8.7-2.5 1.7.4 3.4 1.6 5.1 2.2 3.3 1.1 6.8 1.6 10.2 1.7 8.6.3 17.2-1.9 25.4-4.1 3.1-.8 1.8-5.7-1.3-4.8-8.3 2.2-17 4.5-25.7 3.8-4.6-.3-8.2-2-12.5-3.8-2.4-1-4.3-1-6.7.1-4.1 1.9-7.3 3.8-11.8 4.9-1.8.4-4.2 1.6-4.7-.6-.2-.8.3-2.2.5-3 .6-3.8.9-7.5-3.2-9-1.1-.4-2.2.3-2.8 1.1l-11.1 15.6c1.5.2 3 .4 4.6.6-1.8-5.4-3.7-10.7-5.5-16.1-.7-2.1-4.3-2.6-4.8 0-.5 2.8-1.1 5.7-1.6 8.5-.3 1.6-.3 6-1.6 7.1l2.4-.6c-1.5-.5-3.9-7.4-4.7-8.9-1.8-3.5-3.7-7.1-5.5-10.6-3.7-7.1-7.4-14.2-11.1-21.2-1.3-2.5-5.3-.8-4.6 1.9 3.8 13.7 7.5 27.4 11.3 41.1.7 3.1 5.5 1.8 4.7-1.3zM234.7 243.5c-.4-3.7-.7-7.3-1.1-11l-2.5 2.5c2.2-.3 4.5-.6 6.7-.9 1.3-.2 2.6-1 2.5-2.5-1.1-13.9-2.2-27.8-3.3-41.8-.5-6.5-1.6-13.2-1.5-19.7.1-7.8 5.1-9 11.6-9.1 8.6-.1 15.7-.3 20.1-8.7 2.8-5.3 6.2-6.9 11.4-9.3 3.6-1.7 6.8-3.7 8.7-7.3 1.5-2.8-2.8-5.4-4.3-2.5-2.4 4.5-7.7 5.5-11.8 7.7-4.4 2.3-6.3 5.3-8.6 9.5-5.2 9.5-17.5 3-25.8 7.2-10 5.1-5.8 20.4-5.1 29.1l3.6 44.7 2.5-2.5c-2.2.3-4.5.6-6.7.9-1.2.2-2.6 1-2.5 2.5.4 3.7.7 7.3 1.1 11 .4 3.4 5.4 3.4 5 .2zM182 215.5c-4.3 4.8-5.8 11.3-3.7 17.4 1 3 5.9 1.7 4.8-1.3-1.5-4.4-.7-9 2.4-12.6 2.2-2.3-1.3-5.9-3.5-3.5zM268 75.9c-3.8-8.1-10.2-20.1-19.2-23.5-8-3-13.2 4.4-10.5 11.7 1.4 3.9 4.6 6.4 7.4 9.4 5.4 5.8 2.7 11.1-2.1 16.1-7.8 8-14.4 15.2-18.6 25.8 1.6.2 3.3.4 4.9.7-.1-9-.1-18-.2-27 0-7.1.7-14.7-.5-21.7-2.2-12.8-16.5-13.7-26.2-8.5-4 2.1-7 6.5-4.1 10.8 1.4 2.1 3.8 3.1 5.9 4.4 3.3 2.2 4.8 5.2 5.3 9 1.6 11.4-5 25.5 5.5 34.2 2.5 2 6-1.5 3.5-3.5-8.2-6.8-3.4-19.2-3.8-28.3-.2-3.8-.9-7.7-2.9-10.9-1-1.6-2.3-2.9-3.8-4-.8-.6-1.6-1-2.4-1.5-2-1.2-2.8-.9-1.9-3.6 1.5-4.4 10.8-5.7 14.9-4.1 6.4 2.5 5.5 10.6 5.5 16.2.1 12.8.2 25.7.2 38.5 0 3 3.9 3.2 4.9.7 3.6-9 9.4-15.8 16.3-22.5 4.7-4.6 9.6-10.5 7.5-17.6-.9-3-3.1-5.5-5.3-7.7-1.4-1.4-2.9-2.6-4-4.2-.7-1-1.3-2-1.5-3.2-.5-2.2-.4-2.7 1.7-3.8 7.4-3.8 16.8 15.3 19.4 20.7 1.2 2.8 5.5.3 4.1-2.6zM231.8 130.2c-7 5-11.9 12.1-13.5 20.6-.6 3.1 4.2 4.5 4.8 1.3 1.4-7.2 5.2-13.4 11.2-17.6 2.6-1.8.1-6.1-2.5-4.3z"/><path class="st13" d="M248.2 156c-.6-1.9-1.1-3.8-1.8-5.7-.5-1.5-2.1-4.1-2-5.6.1-1.2 0-1 1.3-.1.7.5 1.2 1.2 1.9 1.7 1 .8 2.1 1.5 3.3 1.8 2.3.6 4.5-.2 5.8-2.1 1.1-1.6.7-2.9.6-.5-.1 2.2.3 4.4.4 6.6.2 3.2 5.2 3.2 5 0-.2-3.8.7-11-3.8-12.7-1.6-.6-3.4-.3-4.6.9-.6.6-1.1 2.6-1.6 2.8-1.1.5-3-1.8-3.8-2.4-2.6-2.2-7.2-3.1-9.2.5-1.3 2.2-.1 4.5.7 6.7 1.2 3.1 2.2 6.2 3.1 9.4.7 3.1 5.6 1.8 4.7-1.3zM209.5 181.4c-.2 6.5-.4 13-.7 19.5-.1 3.2 4.9 3.2 5 0 .2-6.5.4-13 .7-19.5.1-3.2-4.9-3.2-5 0zM199.2 192.8c-.5 2.8-.5 5.5.2 8.2.8 3.1 5.6 1.8 4.8-1.3-.5-1.8-.5-3.7-.2-5.5.3-1.3-.4-2.7-1.7-3.1-1.3-.4-2.9.4-3.1 1.7zM202 159.6v1.7c0 1.3 1.1 2.6 2.5 2.5 1.4-.1 2.5-1.1 2.5-2.5v-1.7c0-1.3-1.1-2.6-2.5-2.5-1.3.1-2.5 1.1-2.5 2.5zM271.1 28.3c.5-4.6.5-14.6-5.9-15.4-2.5-.3-4.8 1.3-5.8 3.6-1.1 2.8.1 5.5 1.8 7.8 2 2.5 5.5-1 3.5-3.5-.4-.5-1.7-3.1 0-2.7.6.2.9 2 1 2.5.6 2.5.6 5.1.3 7.7-.3 3.2 4.7 3.2 5.1 0zM230.5 3.4c-2.9-3.3-7.9-4.5-11.9-2.4-4.7 2.5-4.4 8.1-.5 11.2 3.5 2.8 9.8 4.1 13.6 1 3.3-2.7 2-9.3-2.9-8.7-3.2.4-3.2 5.4 0 5-1.6.2-3 .6-4.7.2-1.3-.3-3.9-1.3-4-3 0-1.4 1.9-1.8 3.1-1.8 1.5.1 2.7.8 3.7 2 2.2 2.5 5.7-1.1 3.6-3.5zM188.3 27.5c-1.7-2.5-3.8-5-7.1-4.9-3 .1-5.7 2.8-4.9 5.9.9 3.4 4.6 4.4 7.7 4 2.7-.4 6.6-3.1 4.3-6.2-.8-1.1-2.2-1.6-3.4-.9-1.1.6-1.7 2.3-.9 3.4.5-1.2.5-1.6 0-1.4-.1.1-.3.1-.5.1-.4.1-1 .1-1.4.1-.1 0-.8-.3-.8-.3.2 0-1.1-.3-.2.3.2.1.8 0 1.1.2.8.5 1.3 1.4 1.8 2.1 1.8 2.8 6.2.3 4.3-2.4zM227.4 35.7c-.2-2.9-2.6-4.9-5.5-4.7-3.1.2-5.1 3.2-4.9 6.1.2 3.1 2.3 6 5.4 6.8 3.4.8 6.9-1.7 6.8-5.3-.1-3.2-5.1-3.2-5 0 .1 1.4-2.1-.5-2.2-1.5 0-.2-.1-1 .1-1.1-.1 0 .3-.1.3-.1.4-.4.1 1 0-.3.1 3.3 5.1 3.3 5 .1zM326.4 99.9c8.3 6.7 7.7 17.5 6.9 27.1-.3 3.2 4.7 3.2 5 0 .9-10.9 1-23.2-8.4-30.7-2.5-1.9-6 1.6-3.5 3.6zM343.3 108.3c1.7 5 2.1 10.1 1.1 15.3-.6 3.1 4.2 4.5 4.8 1.3 1.2-6.1.9-12.1-1.1-18-1-3-5.8-1.7-4.8 1.4zM273.1 253.8c1.3-6.3 2.7-12.6 4-18.9 1-4.5 3.4-4.2 7.4-4.2 1.3 0 9.6-.9 10.2 0 .4.6-1 3.4-1.3 3.8-1.1 1.8-1.9 1.9-3.6 2.8-2.1 1.2-4.1 2.9-6 4.5-5.2 4.2-10.1 8.7-14.8 13.5-2.3 2.3 1.3 5.8 3.5 3.5 3.6-3.7 7.3-7.2 11.3-10.6 3.7-3.2 7.6-5.5 11.7-8.1 3.6-2.3 6.3-11.1 1.7-13.8-2.8-1.6-7.8-.6-10.9-.6-3.4 0-8.5-1-11.4 1.3-2.6 2-2.7 6.3-3.3 9.3-1.2 5.4-2.3 10.8-3.5 16.2-.4 3.2 4.4 4.5 5 1.3zM308.5 248.5c3-1.9 6.1-3.9 9.1-5.8l1.8-1.2c.8-1 1.4-1.1 2-.1 1.1.6 2.4 3.2 3.2 4.3.5-1.2 1-2.4 1.5-3.7-5.1 1.4-10.3 2.5-15.6 3.2-3.2.4-3.2 5.4 0 5 5.7-.7 11.3-1.8 16.9-3.3 1.4-.4 2.5-2.3 1.5-3.7-2.1-2.8-4.6-8.5-8.9-7.6-2.2.5-4.3 2.4-6.2 3.5-2.6 1.7-5.3 3.4-7.9 5-2.6 1.8-.1 6.1 2.6 4.4zM158.1 236.9l-2.7-4.2c-.7-1.1-1.9-2.4-2.2-3.7-.1.6-.2 1.3-.3 1.9.2-.5 2.6-3.3 3.3-3.3-.6-.2-1.2-.5-1.8-.7.9 1 .5 4.9.5 6.3 0 2.5-.3 4.9-.7 7.3-.6 3.1 4.2 4.5 4.8 1.3.7-3.5 3.3-20.8-4-19.1-2.2.5-6.2 4-6.7 6.3-.3 1.6.5 2.8 1.3 4.1 1.3 2.1 2.7 4.2 4 6.3 1.8 2.7 6.2.2 4.5-2.5zM149.9 198.4c2.3-2.2 1.9-6.3-.8-8-2.9-1.9-6.9-.1-7.8 3.1-1 3.4 2 6.9 5.5 6.9 3.8 0 5.9-3.8 5.4-7.1-.2-1.3-1.9-2.1-3.1-1.7-1.4.4-2 1.7-1.7 3.1.2 1-1.4.9-1.2.3-.1.2.3-.3.1-.2l.2-.1s-.2-.1-.1-.1c0 0 .1-.2.1.1 0-.3.1.3 0 .1 0 0-.1.3 0 .1.1-.1.3-.3-.1 0-2.4 2.2 1.2 5.7 3.5 3.5zM109.9 162.4c-.7-4-6.1-4.9-8.6-2.2-3.1 3.3-1 8.1 2.3 10.3 3 2 8.2 2.9 10.4-.8 2.5-4.3-1.3-8.1-4.7-10.1-2.8-1.7-5.3 2.7-2.5 4.3.8.5 3.1 1.6 3 2.8-.1 1-1.8.3-2.4.1-1-.4-2.4-1.2-2.5-2.4 0-.3.1-.7.1-.9 0-.1.3 0 .3.1-.1.1-.3-.8-.1.1.5 3.2 5.3 1.9 4.7-1.3zM141.8 149.1c-2.1-3-4.9-5.9-8.9-5-3.9.8-5.3 5.2-3 8.3 2.1 2.8 6.6 4.4 9.8 2.7 3.2-1.7 3.7-6.2.6-8.3-2.7-1.8-5.2 2.5-2.5 4.3-.3-.2-.3-.3-.4-.3h-1c-.7-.1-2.6-.7-2.7-1.6 0-.1-.2.1.1-.1.3-.2.7-.1.9 0 1.2.3 2.1 1.7 2.8 2.6.8 1.1 2.2 1.6 3.4.9 1.1-.7 1.7-2.4.9-3.5zM193.3 98.5c-1.6 1.5-3.1 3.1-4.8 4.4-1.1.9-3.7 2.4-5.2 1.2-1.2-.9-1-3.6-.5-4.8 1.5-4.3 6.6-9.4 10.8-11.1 1.5-.6.8-1 2.1-.4.8.4 2 2.4 2.5 3 1.5 1.9 2.9 3.9 4.2 6 2.8 4.4 5 9 6.9 13.9 1.1 3 6 1.7 4.8-1.3-3.3-8.7-7.8-16.7-13.7-23.9-1.9-2.3-3.5-4-6.5-3-3.6 1.1-7.4 4.2-10 6.9-4.2 4.3-8.9 11.5-4.6 17.3 5.5 7.4 13.4-.6 17.8-4.7 2.1-2.2-1.4-5.7-3.8-3.5zM184.3 142.3c2.7 1.4 6 .9 6.6 4.5.6 3.5-.2 7.9-.3 11.4-.2 7.5-.3 14.9-.9 22.4-.6 7.8-2.1 15.3-4.8 22.7-1.7 4.8-2.2 10.1 3.5 12-.4-1.4-.7-2.8-1.1-4.2l-6 5.7c-2.3 2.2 1.2 5.8 3.5 3.5l6-5.7c1.4-1.4.6-3.6-1.1-4.2-2.6-.8 1.7-10.9 2.1-12.6.9-3.4 1.5-6.9 2-10.4 1-7 1.2-14.1 1.4-21.1.2-6.7 1.3-14.1.5-20.7-.7-6-4.6-5.3-9-7.6-2.7-1.6-5.2 2.7-2.4 4.3zM234.4 209.7c-1.9-1.1-5.8-1.9-5.5-4.8.1-1.3 2-2.8 2.2-4.4.1-1.1 0-1.5-.4-2.6-.7-1.7-.7-.9-.3-2.5.6-2.4 1.7-3.2.7-5.8-.5-1.2-1.8-2.1-2.2-3.1-1.6-.5-1.5-1 .2-1.5.9-.6 1.7-1.2 2.6-1.8 2.7-1.8.2-6.1-2.5-4.3-2.6 1.8-7.4 3.8-6.2 7.8.6 2 3.8 3.7 3.3 6-.3 1.4-2.1 1.8-2.1 3.7 0 1.7 1.4 2.5 1.4 4.1 0 2-2.3 3.5-2.3 5.9 0 5 5.4 6 8.8 7.9 2.6 1.3 5.2-3 2.3-4.6zM245.3 51.7l-3.4-3.4c-.9-.9-2.6-1-3.5 0-.9 1-1 2.5 0 3.5l3.4 3.4c.9.9 2.6 1 3.5 0 .9-.9 1-2.5 0-3.5zM199.7 61.5c-2.6 1.3-4.8 3.3-6.5 5.7-.8 1.1-.2 2.8.9 3.4 1.2.7 2.6.2 3.4-.9 1.2-1.7 2.8-3 4.7-3.9 1.2-.6 1.5-2.3.9-3.4-.7-1.3-2.2-1.5-3.4-.9zM127.4 310.3c-3.8-1.5-7.5-3-11.3-4.5-2.5-1-5.2-2.1-7.9-1.5-5.3 1.3-5.4 7.8-3.9 12.1 2.4 6.5 10.1 3.9 15.1 3 4.4-.8 10.3-3.1 8.8-8.6-.8-3.1-5.6-1.8-4.8 1.3.5 2-6.6 2.7-7.6 2.9-2.2.4-5.4 1.7-7-1-.4-.7-.7-3.4-.3-3.9 1.6-2.2 5.9.4 7.7 1.2l9.9 3.9c2.9 1.1 4.2-3.7 1.3-4.9zM141.7 311.9c-3.7 3-7.1 6.3-10.3 9.9-1.1 1.2-1 3.1.5 3.9 5.2 3.1 12.9 3.9 16.6-2 3-4.8-.3-11.5-6.1-11.5-3.2 0-3.2 5 0 5 3.3 0 2.5 3.9.5 5.2-2.7 1.7-6 .4-8.4-1 .2 1.3.3 2.6.5 3.9 3.2-3.6 6.6-6.9 10.3-9.9 2.5-2-1.1-5.5-3.6-3.5zM105.9 341.7c-6.6 1.1-12.2 4.1-16.9 8.9-1.1 1.1-.9 3.1.5 3.9 5.5 3.1 12 6.3 18.2 3.3 2.2-1.1 3.8-2.8 4.9-5 1.1-2.3 1.4-7.4 4-8.5l-2.4-4.2c-.4.3-.8.7-1.2 1-2.5 2.1 1.1 5.6 3.5 3.5.4-.3.8-.7 1.2-1 1.9-1.6-.1-5.1-2.4-4.2-3.8 1.5-4.8 4.4-6.1 8-1.1 3.4-2.3 5.9-6.3 6.4-3.9.5-7.8-2-11-3.8.2 1.3.3 2.6.5 3.9 4.1-4.2 8.9-6.7 14.7-7.6 3.3-.4 2-5.2-1.2-4.6zM150.8 332.7c-2.9 1.1-6.2 2.6-7.2 5.8-.9 2.8.2 6.2 3 7.4 3.3 1.3 6.4-1.5 8.3-3.9 2.3-3 3.4-6.6 4.5-10.1.5-1.6-.8-3.1-2.4-3.2-1.8-.1-3.5-.2-5.3-.2-3.2-.1-3.2 4.9 0 5 1.8.1 3.5.2 5.3.2-.8-1.1-1.6-2.1-2.4-3.2-1 3.2-1.9 6.6-4.2 9.1-.6.6-2.6 2.7-2.1.5.3-1.4 2.7-2.1 3.8-2.6 2.9-1.2 1.7-6-1.3-4.8zM97.8 314.9c-11-5.6-20.4 4.2-31.4 2.3.4 1.4.7 2.8 1.1 4.2.8-.3 1.7-.5 2.5-.8 3.1.5 4.5-4.3 1.3-4.8-3-.5-5.1.1-7.4 2.1-1.3 1.2-.7 3.9 1.1 4.2 4.7.8 8.9.1 13.4-1.4 5.4-1.7 11.3-4.3 16.8-1.5 2.9 1.4 5.4-2.9 2.6-4.3z"/><path class="st13" d="M92.4 310.2c-3.9-3.6-8.4-6.1-13.4-7.5-1.8-.5-3.6 1.2-3.1 3.1 1.8 6.1 7.7 10.4 14.1 9.7 3.2-.3 3.2-5.3 0-5-4.2.4-8.1-1.9-9.3-6l-3.1 3.1c4.2 1.2 8 3.3 11.2 6.3 2.4 2 5.9-1.5 3.6-3.7zM99.7 314.7c.5-1.1 1-2.4 2-3.2.3-.3 1.1-.7 1.3-.2.2.6-.5 1.3-.9 1.6-1.1.7-2.5.9-3.7 1-1.3.2-2.5 1-2.5 2.5 0 1.2 1.2 2.7 2.5 2.5 2.7-.3 5.5-.7 7.6-2.7 1.9-1.8 2.6-4.8 1.5-7.1-1.2-2.5-4-3.4-6.5-2.7-2.8.8-4.3 3.3-5.5 5.8-.6 1.2-.3 2.7.9 3.4.9.6 2.7.3 3.3-.9zM186.8 109.4c1.8 2 3.5 4 5.3 6 .5.6 5.4 5.8 5.5 5.5 0 .1-15.1-3.2-16.6-3.4-8.9-1.4-14.7 1.3-18.7 9.3-1.3 2.7-4.8 7.2-4.1 10.4.5 2.6 4.5 5.2 6.7 6.3 2.8 1.3 5.4.3 7.4-1.9 1.8-2 2.8-4.1 5.6-4.9 2.7-.8 5.8-.2 8.5.3-.5-1.2-1-2.4-1.5-3.7-1.2 2-2.7 2.2-2.5 4.7.1.8.4 1.8 1.2 2.2 2 .9 4 1.1 6.2 1.2 3.2.2 3.2-4.8 0-5-1.2 0-2.5-.2-3.7-.6.4.7.8 1.4 1.2 2.2 0-.2 1.7-2 1.8-2.2.8-1.3.1-3.4-1.5-3.7-7.1-1.2-12.4-1.1-17.6 4-1.2 1.1-.6 1.5-2.5 1.9-1.1.2-3.1-.1-3.6-1.4-.9-2 1.8-5.6 2.6-7.4 1.2-2.3 2.4-5 4.8-6.3 2.7-1.5 6.2-1 9.1-.6 5 .8 9.9 2.1 14.9 3.1 2.3.4 5.1.9 6.6-1.4 1.3-2.1.1-4.4-1.2-6.1-3.1-4.3-6.8-8.2-10.3-12.1-2.2-2.3-5.7 1.3-3.6 3.6zM263.4 80c1.9 2.8 4.2 5.8 2.6 9.5-.6 1.5-2 2.7-3 3.9-2.2 2.7-4.3 5.4-6.2 8.3-3.9 6.1-6.8 12.9-8.8 19.9-.9 3.1 4 4.4 4.8 1.3 2.7-9.6 7.3-18.3 13.7-26 2-2.4 4.3-4.8 4.9-8.1.8-4.2-1.5-8-3.8-11.4-1.7-2.5-6.1 0-4.2 2.6zM287.6 136.1c4-9.1 11.4-13.5 20.9-15.1 4.6-.8 9-5.9 3.8-9.4-2.7-1.8-5.2 2.5-2.5 4.3-1.3-.9-7.5 1.1-9 1.5-2.7.9-5.2 2.2-7.5 3.8-4.5 3.1-7.9 7.3-10.1 12.3-1.2 3 3.1 5.5 4.4 2.6z"/><path class="st13" d="M313.4 112c-8-7.5-20.6-12.9-30.4-5.2-5.6 4.4-6.3 11.5-14.6 11.9-7.7.3-14.4 1-21.5 4-2.9 1.2-1.6 6.1 1.3 4.8 6.6-2.8 13.1-3.7 20.2-3.8 4.9-.1 8.4-1.3 11.5-5.1 3.6-4.3 5.6-9.1 11.7-10.3 7-1.3 13.4 2.7 18.2 7.2 2.5 2.2 6-1.3 3.6-3.5z"/><path class="st13" d="M306.5 111.4c-1.5 1.8-4.7 1.1-6.8 1.2-2.6.2-4.9 1-6.2 3.4-1.5 2.8 2.8 5.4 4.3 2.5.9-1.7 4.3-1 5.9-1.1 2.4-.1 4.8-.7 6.4-2.6 1.9-2.3-1.6-5.8-3.6-3.4zM145.3 80.9c-7.8 6.5-12 16.2-11.3 26.3.2 3.2 5.2 3.2 5 0-.6-9 2.9-17 9.8-22.8 2.5-2-1.1-5.6-3.5-3.5zM129.3 80.7c-3 3.5-4.7 7.7-4.9 12.3-.2 3.2 4.8 3.2 5 0 .2-3.3 1.3-6.3 3.4-8.8 2.1-2.4-1.4-6-3.5-3.5zM313.9 220.3c2.3-4.5 4.5-9 6.8-13.5 1.1-2.1 2-4.8 4.8-4.1 1.8.5 4.3 3.2 5.2 4.7.6.9.5.7.6.7-.6.4-1.8.2-2.6.3-2 .3-4 .7-6 1.3-4.1 1.3-7.9 3.2-11.5 5.6-2.6 1.8-.1 6.1 2.5 4.3 3.4-2.3 7-4.2 11-5.3 2.9-.8 6.7-.5 9.4-2 4.5-2.5 1.3-7.3-1.2-10-3-3.3-8.4-7.3-12.7-4.1-2.2 1.6-3.2 4.5-4.4 6.8-2.1 4.2-4.3 8.5-6.4 12.7-1.3 2.9 3 5.5 4.5 2.6zM178 234.6c2 4.4 3.6 10.2 7.4 13.4v-3.5c-2.9 2.6-2.9 5.5-1.6 8.9.9 2.4.3 2.9-1.2 5s-2.6 4.5-3.5 6.9c-1.9 5.3-3.2 10.9-4.6 16.3-1.4 5.6-2.3 11.2-.3 16.7 1.1 3 5.9 1.7 4.8-1.3-3.1-8.7 1.5-20.4 4.3-28.9.8-2.3 1.6-4.6 3-6.6 1-1.5 2.8-2.8 3.5-4.6.4-1 .6-2.1.3-3.1-.4-1.6-3.7-3.8-1.3-5.8 1-.8 1-2.7 0-3.5-3.4-2.8-4.8-8.4-6.6-12.4-1.2-3-5.5-.4-4.2 2.5zM229.2 244.9c0 2.3.8 3.4 2.2 5.2 1.1 1.5 2.1 2.5 2.6 4.4.3 1.1.3 2.1.8 3.2.8 1.6 2.3 1.8 3.2 2.9 1.6 2-1.5 5-1.4 7.7.2 2.6 1.7 3.3 3.3 5.2 2 2.4 1.5 5.7 2.7 8.5 1.5 3.5 1.5 7 2 10.8.5 3.9 1.6 7.6 3 11.3 1.2 3 6 1.7 4.8-1.3-1.6-4.1-2.8-8.3-3.1-12.7-.2-2.8-.1-5.3-1.1-8-.7-2-1.5-3.4-1.8-5.6-.2-1.2-.3-2.3-.8-3.4-1.1-2.7-4.2-3.7-3.4-7 .8-3.3 3.4-6.6-.2-9.4-.7-.5-2.3-.7-2.8-1.3-.6-.7-.4-2.4-.7-3.4-.7-2.2-4.4-5.1-4.4-7.1.2-3.3-4.8-3.3-4.9 0z"/><path class="st13" d="M181 240.3c3 2.5 6 3.7 9.9 4 2.9.2 1.4.3 2 2.6.3 1.2 1 2.1 2.1 2.8.5.3 2.9 1 2.8.8.1.2-1.3 3.2-1.2 3.9.1 1.3.6 2.3 1.4 3.3.4.6 1.9 1.3 2 1.9.3 1.4-3 1-4.3.5-1.1-.5-2.2.3-2.8 1.1-1.1 1.5-.4 4.2-2.1 5-1.3.7-3.6-.2-5.1.5-4 1.8-4.8 8.3-6.2 12-1.1 3 3.7 4.3 4.8 1.3.8-2.1 1.4-6.3 2.9-7.9 1.5-1.6 3.8-.5 5.7-1 1.3-.3 2.3-.9 3.1-2.1 1-1.5.2-4 1.2-5.2-.9.4-1.9.8-2.8 1.1 4 1.7 10.4 2.1 11.3-3.6.3-1.9-.5-3.4-1.7-4.8-1.2-1.3-1.9-1.4-1.8-3.4 0-1 .9-1.8.8-2.9-.1-1.8-1-2.9-2.6-3.8-.3-.2-2.9-1.1-2.5-.4 0 0 .4-2.2.4-2.3-.2-1.6-1.3-3-2.8-3.7-3.7-1.8-7.4-.1-11-3.1-2.4-2.2-6 1.4-3.5 3.4z"/><path class="st13" d="M188.1 258.6c-3.5 3-5.8 6.7-7.2 11-.9 2.7 3.2 4.4 4.6 1.9 2-3.7 6.1-8.6 6.2-13.1.1-4.6-2.6-9.9-4-14.3-1.5.6-3 1.3-4.6 1.9 3.5 4.7 6.9 9.5 10.1 14.4 1.3 2 4.7 1.3 4.7-1.3-.1-4.1-1.4-7.4-4-10.5l-3.5 3.5c3.2 2.5 3.7 5.3.9 8.2-2.1 2.3-4.2 4.6-6.2 7-3.7 4.6-6.9 9.5-9.7 14.7-1.5 2.8 2.8 5.4 4.3 2.5 4.4-8.1 10-14.8 16.1-21.7 4.1-4.6 2.7-10.6-1.9-14.2-2.5-2-5.6 1-3.5 3.5 1.8 2.1 2.5 4.2 2.6 7 1.6-.4 3.1-.8 4.7-1.3-3.2-4.9-6.6-9.7-10.1-14.4-1.6-2.1-5.5-1-4.6 1.9 1.1 3.6 3.1 7.7 3.5 11.4.4 4.1-3.3 8.7-5.2 12.1 1.5.6 3 1.3 4.6 1.9 1.2-3.6 3.1-6.4 5.9-8.8 2.2-1.9-1.3-5.4-3.7-3.3zM230.8 200.6c-.9 2.2-1.2 4.1-1.2 6.5 1.6-.2 3.3-.4 4.9-.7-.7-3.3-1.5-6.7-2.2-10-.6-2.5-4.1-2.2-4.8 0-.7 2.1-.5 3.6.8 5.4 1.6 2.2 5.2 1 4.6-1.9-1.2-5.3-1.8-10.6-2-16-1.1.8-2.1 1.6-3.2 2.4.9.2 1.3 5.1 1.7 6 .6 1.2 1.6 1.6 2.5 2.6 1.5 1.5 1 2.4 1.5 4.4.5 2.2 3.2 4.3 1.4 6.6l3.9 3c2.7-4.8 2-9.2-1.2-13.5-2.5-3.4-2.1-4.8-2.2-8.6-.1-2.2-.6-3.7-2-5.3-2.1-2.5-5.6 1.1-3.5 3.5 1.7 2 0 6.7 1.1 9.3 1.7 4.4 6.6 6.7 3.5 12.1-1.3 2.4 2.1 5.3 3.9 3 1.7-2.2 2.8-4.6 2-7.4-.5-1.9-1.7-2.9-1.9-4.9-.2-1.5.2-2.3-.7-3.7-.6-1-1.6-1.4-2.4-2.2-1.6-1.6-1.6-2.7-2-4.8-.5-2.5-1.8-4.3-4.4-4.8-1.5-.3-3.2.7-3.2 2.4.1 5.9.8 11.6 2.1 17.3 1.5-.6 3-1.3 4.6-1.9l-.3-1.5h-4.8c.7 3.3 1.5 6.7 2.2 10 .6 2.8 5 2.1 4.9-.7 0-1.9.3-3.4 1-5.2 1.4-3.1-3.4-4.4-4.6-1.4zM253.1 146.2c-3.1-1.2-6.4 1.1-7.3 4.1-1.1 3.9 1.7 7.2 4.4 9.6 1.1 1 3.3 1.1 3.9-.5 1-2.3.7-4.4-1-6.3-.8-1-2-1.6-2.8-2.5-.6-.7-.9-1.3.1-.5.6.5 1 1.4 1.4 2 1.7 2.8 5.6.4 4.3-2.5 0-.4.1-.8.1-1.2-1.5.2-3 .4-4.6.6 1.3 2.8 4 4.3 7 4.5-.2-1.6-.4-3.3-.7-4.9-3.8 1.6-5 5.9-2.3 9.1.9 1 2.6.9 3.5 0 1.2-1.2 2.4-2.3 3.6-3.5l-3.9-3c-.9 1.9-1.8 4.5-4.3 4.1-2.2-.4-3.9-1.2-6.2-.6-3.1.9-1.8 5.7 1.3 4.8 1.5-.4 3.2.6 4.7.8 1.3.2 2.5.1 3.7-.5 2.5-1.1 4-3.7 5.1-6.1 1.1-2.5-1.8-5.1-3.9-3-1.2 1.2-2.4 2.3-3.6 3.5h3.5c-.1-.3-.1-.5.1-.8 2.5-1 2.3-4.8-.7-4.9-1.4-.1-2.1-.8-2.7-2-1-2.1-3.9-1.3-4.6.6-.6 1.8-.4 3.3.4 5 1.4-.8 2.9-1.7 4.3-2.5-2.1-3.4-6.4-7.3-10.4-3.8-1.6 1.5-1.9 3.8-1 5.8.5 1.1 1.4 2 2.3 2.8.4.4 2.8 2 2.6 2.5 1.3-.2 2.6-.3 3.9-.5-.9-.8-2-1.7-2.6-2.8-.4-.7-1-3.2.7-2.5 3.4 1 4.7-3.8 1.7-4.9zM185.1 137.5c-.8 1.2-3.2 1.6-4 .3-.4-.7-.2-3-.4-3.9-.7-2.5-2.4-4.3-4.4-5.8.2 1.3.3 2.6.5 3.9-.8.9-1.1 0-.3 1.2.2.3.9.8 1.2 1 1 .6 2.3.9 3.5.8 2.4-.1 4.3-1.3 5.6-3.3-1.4-.8-2.9-1.7-4.3-2.5-1.4 2.3-2.4 4.7-3 7.3-.3 1.4.7 3.3 2.4 3.2 4.5-.5 8.6-1.8 11-5.9-1.6-.4-3.1-.8-4.7-1.3-.1 2.5.2 5.2 2.6 6.6 2 1.1 3.7.2 4.9-.3-.9-.4-1.9-.8-2.8-1.1.1.1.2.2.3.4.1-1 .3-2 .4-3l-.2.2c-2.4 2.2 1.2 5.7 3.5 3.5l.2-.2c.7-.7 1-2.2.4-3-.1-.1-.2-.2-.3-.4-.6-.8-1.7-1.6-2.8-1.1-.3.1-1.2.7-1.3.6-.2-.1.2-1.2.2-2.1.2-2.6-3.4-3.3-4.7-1.3-1.4 2.4-4.1 3.1-6.7 3.4.8 1.1 1.6 2.1 2.4 3.2.5-2.2 1.3-4.2 2.5-6.1 1.7-2.8-2.6-5.2-4.3-2.5-1.5 2.3-4.1-1.7-5.6-2-1.4-.3-2.6.2-3.6 1.2-1.2 1.3-.8 2.9.5 3.9 3.8 2.9.7 9.1 5.8 10.9 3.3 1.2 8-.4 9.8-3.3 1.7-2.7-2.6-5.3-4.3-2.5zM227.8 70.1c.1-.2.1-.4.2-.6-1.5-.6-3-1.3-4.6-1.9l-1.8 10.5c-.3 1.7 1.1 3.8 3.1 3.1 2.7-1 4.7-2.3 6.5-4.4l-3.9-3c-1.6 2.2-2.8 4.4-3.9 6.9-.8 1.9.5 4.4 2.8 3.7 2-.6 3.7-1.4 5.4-2.7l-3.4-3.4c-1.5 2.2-2.1 4.3-1.9 6.9.1 1.9 2 3 3.8 2.2.7-.3 1.4-.7 2.1-1-1.2-.9-2.4-1.9-3.7-2.8-1.5 4.1-3.6 7.6-6.6 10.8 1.4.6 2.8 1.2 4.3 1.8-.6-5.9-.7-11.8-.3-17.7-1.6.2-3.3.4-4.9.7.7 1.9 1 3.7 1 5.7 0 2.5 3.4 3.3 4.7 1.3 3.5-5.6-.6-10.6-.4-16.5.1-3.2-4.9-3.2-5 0-.1 4.4 3.6 10 1.1 14 1.6.4 3.1.8 4.7 1.3 0-2.5-.4-4.7-1.2-7.1-1-2.7-4.7-2.2-4.9.7-.4 5.9-.3 11.8.3 17.7.2 2 2.7 3.5 4.3 1.8 3.5-3.9 6.1-8.1 7.9-13 .8-2.2-1.9-3.7-3.7-2.8-.7.3-1.4.7-2.1 1 1.3.7 2.5 1.4 3.8 2.2-.3-1.7 0-3.1 1.2-4.4 1.4-2-1.4-4.9-3.4-3.4-1.4 1-2.5 1.6-4.2 2.1.9 1.2 1.9 2.4 2.8 3.7 1.1-2.5 2.3-4.7 3.9-6.9 1.6-2.3-2.1-5.2-3.9-3-1.3 1.5-2.5 2.5-4.3 3.1l3.1 3.1 1.8-10.5c.5-2.7-3-4.5-4.6-1.9-1.3 2-1.2 3.6-.2 5.7 1.2 2.4 5.5-.1 4.1-3zM388.4 162.2c-2.8.6-3.6 2.8-3.7 5.5-.1.9.3 2 0 2.9-.1.5-.8.9-.9 1.5-.2 1.4.5 2.1.6 3.3 0 .4.5-.5-.1.6-.2.4-1.1.8-1.5 1.2-.8.8-1.5 1.7-1.8 2.8-.6 2.9 2 4.3 4.3 5.2-.4-1.4-.7-2.8-1.1-4.2-1.8 1.6-3.7 3-5.7 4.3-1.3.8-1.8 2.8-.5 3.9 1.3 1.2 2.5 1.9 4.3 2.2l-1.8-2.4c.1 1.3-1.7 2.5-1.9 4-.2 1.7.9 2.4 1.2 3.9.4 1.8-.4 2.8-.4 4.6 0 .8 1.3 5.8 2.4 5.4-3 1.1-1.7 5.9 1.3 4.8 6.3-2.2 1.1-7.3 1.7-11.1.3-2.4 1-2.9 0-5.3-.6-1.6-.7-1.5-.1-3.2.4-1.3.8-1.7.8-3.1 0-1-.7-2.2-1.8-2.4l-2.1-.9c-.2 1.3-.3 2.6-.5 3.9 2.4-1.6 4.6-3.2 6.7-5.1 1.5-1.3.5-3.6-1.1-4.2-.5-.4-1-.7-1.5-1.1l.6 2.4c.5-2.7 4.7-3 4-6.5-.1-.4-.3-.9-.4-1.3-.7-.2-.9-.4-.5-.8.2-.2.3-.3.3-.6 0-.2 1.2-5.8.4-5.6 3.3-.5 2-5.3-1.2-4.6z"/><path class="st13" d="M379.4 215.6c1.5-.8 3-.8 4.6-.1-.2-1.5-.4-3-.6-4.6-2.6 1.5-5.2 2.8-8 3.9-1.8.7-2.7 3.5-.6 4.6 2.6 1.2 5.1 1.9 7.9 2.2-.6-1.4-1.2-2.8-1.8-4.3-1.4 1.7-2.8 3.1-4.7 4.4-1.5 1-1.7 3.4 0 4.3l3.9 2.1v-4.3c-2.6 1.2-4.6 2.8-6.4 5.1-1.1 1.3-.9 2.9.5 3.9 1.5 1.1 2.8 1.6 4.6 1.9-.4-1.4-.7-2.8-1.1-4.2-1.5 1.5-3 2.9-4.4 4.4-1 1-1 3.3.5 3.9 1 .4 2 .8 3 1.3-.3-1.1-.6-2.3-.9-3.4-.7 1.4-1.6 2.4-2.8 3.4-1.3 1.1-.7 3.1.5 3.9 1.8 1.1 3.5 1.8 5.6 2.2-.4-1.4-.7-2.8-1.1-4.2-1.2 1.4-2.4 2.7-3.6 4.1-1 1.1-1.1 3.2.5 3.9 1 .5 2.1 1 3.1 1.4-.2-1.3-.3-2.6-.5-3.9-1.7 1.4-3.4 2.1-5.5 2.6-1.9.4-2.4 2.9-1.1 4.2 1.5 1.6 3.1 2.6 5.2 3.3-.5-1.2-1-2.4-1.5-3.7-.4 1.1-1.1 2-2.1 2.6-1.5 1.2-.6 3.7 1.1 4.2 1.7.5 3.3.9 5 1.4-.5-1.2-1-2.4-1.5-3.7-.8 1.2-1.6 2.5-2.4 3.7-1 1.5.1 3.1 1.5 3.7 1.2.5 2.4.9 3.6 1.4-.4-1.4-.7-2.8-1.1-4.2-1 1.3-1.3 1.7-2 3.1-.6 1.3-.3 2.6.9 3.4 1.4.9 2.7 1.4 4.4 1.7-.6-1-1.2-2.1-1.7-3.1-.5 2.7-6.9 16.4.9 15.5-.6-1.4-1.2-2.8-1.8-4.3-1.2 1.3-2.4 2.5-3.5 3.8-1.3 1.3-.8 3.7 1.1 4.2 1 .2 2 .5 2.9.7-.5-1.2-1-2.4-1.5-3.7-1.7 3 1 6.9 4.5 5.6l-3.1-3.1c-.7.7-1.3 1.4-2 2-1.5.5-2.3 2.2-1.5 3.7.5 1 1 1.9 1.5 2.9.1-1 .3-2 .4-3-1 1.1-1.9 2.1-2.9 3.2-.8.9-1.1 2.7 0 3.5 2.2 1.7 2.9 4.4.8 6.7-2.2 2.4 1.4 5.9 3.5 3.5 3.7-4 3.6-10.2-.8-13.7v3.5c1-1.1 1.9-2.1 2.9-3.2.8-.9.9-2 .4-3s-1-1.9-1.5-2.9c-.5 1.2-1 2.4-1.5 3.7 2.9-1 4.5-2.6 5.5-5.5.6-1.7-1.3-3.7-3.1-3.1.4.6.8 1.2 1.2 1.7.8-1.4.1-3.3-1.5-3.7-1-.2-2-.5-2.9-.7.4 1.4.7 2.8 1.1 4.2 1.2-1.3 2.4-2.5 3.5-3.8 1.3-1.4.5-4.5-1.8-4.3 1.6-.2 3.6-7.3 3.9-9.2.2-1.2-.3-2.9-1.7-3.1-1.2 0-2.3-.4-3.2-1.2.3 1.1.6 2.3.9 3.4l1.2-2.1c1.2-1.5.8-3.5-1.1-4.2-1.2-.5-2.4-.9-3.6-1.4.5 1.2 1 2.4 1.5 3.7.8-1.2 1.6-2.5 2.4-3.7.9-1.4 0-3.3-1.5-3.7-1.7-.5-3.3-.9-5-1.4.4 1.4.7 2.8 1.1 4.2 1.3-1.1 2.1-2.1 2.9-3.6.8-1.5.1-3.1-1.5-3.7-1.2-.4-2.2-1-3-2-.4 1.4-.7 2.8-1.1 4.2 3-.7 5.3-1.9 7.7-3.9 1.2-1 .9-3.3-.5-3.9-1-.5-2.1-1-3.1-1.4.2 1.3.3 2.6.5 3.9 1.2-1.4 2.4-2.7 3.6-4.1 1.1-1.3.9-3.8-1.1-4.2-1.7-.3-2.9-.7-4.4-1.7.2 1.3.3 2.6.5 3.9 1.5-1.3 2.6-2.7 3.5-4.4.6-1.1.4-2.9-.9-3.4-1-.4-2-.8-3-1.3.2 1.3.3 2.6.5 3.9 1.5-1.5 3-2.9 4.4-4.4 1.2-1.2.8-3.9-1.1-4.2-1.3 0-2.5-.5-3.4-1.4.2 1.3.3 2.6.5 3.9 1.6-1.9 3.2-3.2 5.4-4.3 1.7-.8 1.5-3.5 0-4.3l-3.9-2.1v4.3c2.2-1.5 4-3.1 5.7-5.2 1.4-1.7.5-4.1-1.8-4.3-1.9-.1-3.7-.6-5.4-1.5-.2 1.5-.4 3-.6 4.6 3.2-1.3 6.2-2.7 9.2-4.4 1.9-1.1 1.4-3.9-.6-4.6-2.5-.8-4.7-.8-7.2.1-2.9 1.5-1.6 6.4 1.5 5.3zM536.4 308.9c-2.4-1.5-4.7-3.1-7.1-4.6.2 1.3.3 2.6.5 3.9 3.8-3.1 3-8.2-.6-11 .2 1.3.3 2.6.5 3.9 1.2-1.3 2.4-2.7 3.6-4 1.2-1.3.8-3.8-1.1-4.2-1.3-.3-2.6-.5-3.8-.8.4 1.4.7 2.8 1.1 4.2 1.4-1.2 2.9-2.4 4.3-3.6 1.1-.9.8-2.6 0-3.5 0 0 .9-5.7.9-5.8-.1-3.2-.1-6.3-.2-9.5 0-.9-.5-1.8-1.2-2.2l-3-1.5c-.2 1.5-.4 3-.6 4.6 4.1-1.7 5.1-7.2.9-9.5v4.3c1.4-1 2.8-2.1 4.2-3.1 2-1.5 1.3-4.5-1.3-4.7-.4-.2-.9-.4-1.3-.7-.2 1.3-.3 2.6-.5 3.9 2.4-1.4 4.8-2.9 7.3-4.3 1.3-.7 1.8-2.9.5-3.9-1.1-.8-2.1-1.7-3.2-2.5v3.5c1.5-1.3 3-2.5 4.6-3.8 1.1-.9.8-2.6 0-3.5-1.7-1.9-3.4-2.6-6-2.9.7 1.3 1.4 2.5 2.2 3.8l2.1-3c.8-1.1.2-2.7-.9-3.4-3.3-2.1-6.3-5.2-3.9-8.9.9-1.3 0-3.3-1.5-3.7-1.9-.5-3.8-.9-5.7-1.4.4 1.4.7 2.8 1.1 4.2 1.6-1.5 3.1-3.1 4.7-4.6 1.3-1.2.8-3-.5-3.9-1-.7-1.9-1.4-2.9-2.2v4.3c1.7-1.3 3.5-2.7 5.2-4 1.1-.9 1.9-2.8.5-3.9-2.3-1.9-4.2-2.7-7.2-2.5.7 1.3 1.4 2.5 2.2 3.8.6-1 1.2-2 1.8-3.1.5-.9.5-2.4-.4-3-1.7-1.3-3.1-2.1-5.2-2.6.2 1.5.4 3 .6 4.6 3.6-1.9 4.3-6.7 1.2-9.5.1 1 .3 2 .4 3 .7-1 1.4-1.9 2.1-2.9.6-.8.4-2.3-.4-3-1.5-1.4-2.9-2.2-4.9-2.7l1.8 2.4c-.1-2.8.4-6.6-.4-9.3-.6-2-2.6-2.9-4.3-4.1.3 1.1.6 2.3.9 3.4 1.9-3 3.4-4.5 2.6-8.1-.7-3.1-2.2-5.6-4.3-7.9-2.1-2.4-5.7 1.1-3.5 3.5 3 3.4 3.4 6.1.9 9.9-.8 1.2-.1 2.6.9 3.4 1 .8 2 1.5 3.1 2.3-.4-.7-.8-1.4-1.2-2.2.1 3 .2 6 .4 9 0 1.1.7 2.1 1.8 2.4.9.5 1.8.9 2.7 1.4-.1-1-.3-2-.4-3-.7 1-1.4 1.9-2.1 2.9-.6.9-.4 2.3.4 3-.1.6-.1 1.1-.2 1.7-1.9 1-1.5 4.1.6 4.6 1 .5 2 .9 3 1.4-.1-1-.3-2-.4-3-.6 1-1.2 2-1.8 3.1-.9 1.6.2 3.8 2.2 3.8 1.2.4 2.4.7 3.7 1.1.2-1.3.3-2.6.5-3.9-1.7 1.3-3.5 2.7-5.2 4-1.6 1.2-1.6 3.1 0 4.3 1 .7 1.9 1.4 2.9 2.2-.2-1.3-.3-2.6-.5-3.9-1.6 1.5-3.1 3.1-4.7 4.6-1.3 1.3-.7 3.7 1.1 4.2 1.9.5 3.8.9 5.7 1.4-.5-1.2-1-2.4-1.5-3.7-2.2 3.3-2.8 4.5-1.1 8.3 1.5 3.2 3.8 5.5 6.8 7.4-.3-1.1-.6-2.3-.9-3.4l-2.1 3c-1.2 1.7.5 3.5 2.2 3.8.8.5 1.6 1 2.4 1.4v-3.5c-1.5 1.3-3 2.5-4.6 3.8-1 .8-1 2.7 0 3.5 1.1.8 2.1 1.7 3.2 2.5.2-1.3.3-2.6.5-3.9-2.4 1.4-4.8 2.9-7.3 4.3-1.4.8-1.7 2.8-.5 3.9 1.5 1.4 2.8 2 4.9 2.1-.4-1.6-.8-3.1-1.3-4.7-1.4 1-2.8 2.1-4.2 3.1-1.4 1.1-1.8 3.4 0 4.3l.3.3c-1.8.7-2.7 3.5-.6 4.6l3 1.5c-.4-.7-.8-1.4-1.2-2.2.1 3.9.6 8.3-.4 11.9-.8 2.8-.8 4.5 1.1 6.9v-3.5c-1.4 1.2-2.9 2.4-4.3 3.6-1.4 1.2-.7 3.8 1.1 4.2 1.3.3 2.6.5 3.8.8-.4-1.4-.7-2.8-1.1-4.2-1.2 1.3-2.4 2.7-3.6 4-1.2 1.3-.8 2.9.5 3.9 1 1.1.9 2.1-.4 3.1-1.3 1.1-.7 3.1.5 3.9 2.4 1.5 4.7 3.1 7.1 4.6 2.6 1.8 5.1-2.5 2.4-4.3z"/><path class="st13" d="M395.4 164.8c.5-.9.9-1.7 1.4-2.6l-3.9-3c-1.3 1.9-1.5 3.4-.9 5.6.5 1.5 2.3 2.3 3.7 1.5 3.5-2 7-4.1 10.5-6.1 1.7-1 1.6-4.2-.6-4.6-.2 0-.3 0-.5-.1-1.5-.2-2.5.4-3.1 1.7-.6 1.5 0 3.7 1.4 4.6.7.5 1.7.6 2.6.4 3-.5 1.4-1.4 1.7-3.4l1.7-1.7c-.2 0-.3.1-.5.1.4 1.6.9 3.2 1.3 4.8 4.8-1.3 9.5-2.7 14.3-4-.6-1.5-1.3-3-1.9-4.6-1.1.9-2.3 1.7-3.4 2.6-1.8 1.3-1.5 4.8 1.3 4.7 6.7-.3 13.4-1.4 20.1-1.9 2-.2 3.6-2.7 1.8-4.3-.1-.1-.3-.2-.4-.3-1.1-.9-2.5-1-3.5 0-1.3 1.2-1.8 2.9-.9 4.5.4.8.9 1.1 1.7 1.5.6.2 1.2.3 1.8.3 1.5.2 1.6-.1.4-1.2l2.4-1.8h-.6v5c4.9-.5 9.9-.9 14.8-1.4-.6-1.4-1.2-2.8-1.8-4.3-.9.9-1.8 1.8-2.8 2.7-1.6 1.5-.4 4.2 1.8 4.3 4.1 0 8-.3 12-1.1l-2.4-4.2c-.9 1.2-2.1 2-3.6 2.5-2.6 1-2.3 4.8.7 4.9 6.1.3 11.9.3 17.9-.3-.6-1.4-1.2-2.8-1.8-4.3-.8.8-1.5 1.7-2.3 2.5-1.6 1.7-.4 4.1 1.8 4.3 2.6.3 4.9 0 7.4-.7l-2.4-4.2c-1 1.2-1.9 2.4-2.9 3.6-1.2 1.5-.6 4.5 1.8 4.3 5.8-.4 11.6-.9 17.4-1.3-.6-1.4-1.2-2.8-1.8-4.3-1.4 1.2-2.7 2.4-4.1 3.6-1.7 1.5-.3 4.2 1.8 4.3 3 .1 5.6-.3 8.4-1.4l-3.1-3.1-.9 4.2c-.4 1.9 1.1 3.5 3.1 3.1l8.4-1.8c-.9-1.2-1.9-2.4-2.8-3.7-1 1.7-1.9 3.4-2.9 5.1-1.1 2 .7 4.1 2.8 3.7 3.6-.8 7.2-1.6 10.9-2.3-.6-1.5-1.3-3-1.9-4.6-2.8 1.8-5 4-7 6.7-1.1 1.5.4 3.8 2.2 3.8 2.2-.1 4.3-.2 6.5-.3-.6-1.4-1.2-2.8-1.8-4.3-2 2.5-2.6 4.6-2.1 7.8.4 3.2 5.3 1.8 4.8-1.3.3-1 .6-1.9.8-2.9 1.3-1.6.6-4.4-1.8-4.3-2.2.1-4.3.2-6.5.3.7 1.3 1.4 2.5 2.2 3.8 1.5-2 3.1-3.6 5.2-4.9 2.4-1.6.9-5.2-1.9-4.6-3.6.8-7.2 1.6-10.9 2.3.9 1.2 1.9 2.4 2.8 3.7 1-1.7 1.9-3.4 2.9-5.1 1.1-2-.7-4.1-2.8-3.7l-8.4 1.8 3.1 3.1.9-4.2c.3-1.7-1.2-3.8-3.1-3.1-2.4.9-4.5 1.3-7.1 1.3.6 1.4 1.2 2.8 1.8 4.3 1.4-1.2 2.7-2.4 4.1-3.6 1.6-1.4.4-4.4-1.8-4.3-5.8.4-11.6.9-17.4 1.3.6 1.4 1.2 2.8 1.8 4.3 1-1.2 1.9-2.4 2.9-3.6 1.5-1.8.2-4.9-2.4-4.2-2.1.6-3.9.8-6.1.5.6 1.4 1.2 2.8 1.8 4.3.8-.8 1.5-1.7 2.3-2.5 1.4-1.5.5-4.5-1.8-4.3-6.1.5-11.8.5-17.9.3.2 1.6.4 3.3.7 4.9 2.3-.9 4.1-1.9 5.8-3.8 1.8-1.9 0-4.6-2.4-4.2-3.6.7-7.1.9-10.7.9.6 1.4 1.2 2.8 1.8 4.3.9-.9 1.8-1.8 2.8-2.7 1.5-1.4.4-4.5-1.8-4.3-4.9.5-9.9.9-14.8 1.4-3.2.3-3.2 4.8 0 5h.6c1.2.1 2-.8 2.4-1.8.5-1.3.4-2.8-.5-3.9-.4-.5-1.1-1-1.7-1.2-2.7-.8-.6.9-2 2.1h-3.5c.1.1.3.2.4.3.6-1.4 1.2-2.8 1.8-4.3-6.7.5-13.4 1.6-20.1 1.9.4 1.6.8 3.1 1.3 4.7 1.1-.9 2.3-1.7 3.4-2.6 2.1-1.6 1-5.4-1.9-4.6-4.8 1.3-9.5 2.7-14.3 4-3.1.9-1.8 5.5 1.3 4.8.2 0 .3-.1.5-.1.8-.2 1.6-.9 1.7-1.7.2-1.7-.2-3.6-1.9-4.5-.8-.4-1.8-.5-2.6-.3-.6.2-1.2.5-1.7.9-1 .5-.8 1.3.5 2.4-1 .6-2.1 1.2-3.1 1.7.2 0 .3 0 .5.1-.2-1.5-.4-3-.6-4.6-3.5 2-7 4.1-10.5 6.1 1.2.5 2.4 1 3.7 1.5.1-.6.2-1.1.4-1.7 1.7-2.3-2-5-3.9-3-1.5 1.5-2.2 2.8-2.7 4.8-1.2 3.1 3.7 4.5 4.4 1.3zM550.7 182.4c-.2 1-.4 2.1-.6 3.1-.4 1.8 1.1 3.6 3.1 3.1l5.7-1.5c-.6-1.5-1.3-3-1.9-4.6-2.4 1.4-4.6 3-6.7 4.9-1.2 1-.9 3.2.5 3.9 2.4 1.2 4.3 1.5 6.9.9-.9-1.2-1.9-2.4-2.8-3.7-.9 1.3-1.8 2.5-2.7 3.8-1 1.5.3 3.9 2.2 3.8l5.7-.6c-.6-1.4-1.2-2.8-1.8-4.3-1.4 1.5-3.4 3-4.3 4.8-1 2-1.5 4.6-2.2 6.8-.4 1.3.5 2.7 1.7 3.1 2.1.6 3.5.2 5.1-1.2l-3.5-3.5c-2.5 2.7-5 5.4-7.4 8.1-1.6 1.7-.4 4.1 1.8 4.3 1.5.2 3 .3 4.6.5-.6-1.4-1.2-2.8-1.8-4.3-3.4 3.4-4.3 9.3 1.7 10.1-.7-1.3-1.4-2.5-2.2-3.8-.7 1.3-1.3 2.7-2 4-.8 1.7.2 3.7 2.2 3.8 4.1.2 7.9-.4 11.8-1.7-.9-1.2-1.9-2.4-2.8-3.7-1.6 3-3.6 5.3-6.4 7.1-2.2 1.4-1.1 4.4 1.3 4.7 2.8.3 5.4 0 8.1-.8-.9-1.2-1.9-2.4-2.8-3.7l-2.1 4.5c-1.1 2.3 1.1 4.5 3.4 3.4 1.2-.3 2.3-.6 3.5-.9-.8-1.1-1.6-2.1-2.4-3.2-.3 1.9-.9 3.3-2 4.9-1.3 1.9.9 4.1 2.8 3.7 2-.5 3.8-1.2 5.5-2.3-1.2-.9-2.4-1.9-3.7-2.8-.9 3.1-6.7 3.1-5.1 7.6.9 2.5 3.7 3.4 5.8 2l-3-3.9-5.1 5.7c-.8.9-1.1 2.7 0 3.5.8.6 1.6 1.3 2.3 1.9-.1-1-.3-2-.4-3-2.3 3-2.7 6.5-1.3 10 .4 1 1.2 1.9 2.4 1.8 1 0 2.1-.1 3.1-.1-.4-1.6-.8-3.1-1.3-4.7-2.6 1.8-5.8 4.8-3.9 8.3 1.5 2.9 4.8 3.1 7.1 1.2l-3.5-3.5c-1.6 1.5-3.2 3-4.7 4.6-1.3 1.3-.7 3.7 1.1 4.2 2.5.6 4.7.7 7.3.2-.6-1.5-1.3-3-1.9-4.6-2.9 1.6-5.8 3.3-8.7 4.9-1.4.8-1.7 2.8-.5 3.9 2 1.9 4.1 2.5 6.8 1.6l-2.4-4.2c-2 1.7-4 3.4-6 5-1.4 1.2-.6 3.8 1.1 4.2 1.4.3 2.9.7 4.3 1-.5-1.2-1-2.4-1.5-3.7-1.1 2.4-2.1 4.8-3.2 7.2-.8 1.8.1 3.6 2.2 3.8 3.4.2 6.1-.4 9.1-1.8l-3.4-3.4c-1.1 2-2.4 3.5-4.1 5-1.5 1.3-.6 3.7 1.1 4.2 2.1.6 3.7.6 5.8.3l-2.4-4.2c-2.1 2.8-4.3 5.5-6.4 8.3-1.1 1.5-.7 4.5 1.8 4.3 1.2-.1 2.5-.3 3.7-.4-.7-1.3-1.4-2.5-2.2-3.8-1.2 1.7-2.4 3.5-3.7 5.2-1.1 1.6.4 3.7 2.2 3.8 3.3 0 6.4-.4 9.5-1.5-.9-1.2-1.9-2.4-2.8-3.7-1.5 2.2-3.2 4-5.4 5.6-1.8 1.4-1.4 3.7.6 4.6 2.3 1 4.3 1 6.7.5l-3.1-3.1c-.3 1.6-1.1 2.9-2.5 3.9-1.5 1.2-1.7 4.1.6 4.6 1.2.2 2.3.5 3.5.7-.5-1.2-1-2.4-1.5-3.7l-1.8 3.3c-1 1.8.7 4.4 2.8 3.7 1.3-.6 2.6-.6 3.8.1 3 1.2 4.3-3.7 1.3-4.8-2.2-.9-4.2-.9-6.5-.1.9 1.2 1.9 2.4 2.8 3.7l1.8-3.3c.7-1.3.1-3.3-1.5-3.7-1.2-.2-2.3-.5-3.5-.7.2 1.5.4 3 .6 4.6 2.4-1.9 4-3.9 4.8-6.9.5-1.9-1.2-3.4-3.1-3.1-1.5.4-2.8.2-4.1-.5.2 1.5.4 3 .6 4.6 2.9-2.1 5.2-4.5 7.2-7.4 1.2-1.8-.8-4.3-2.8-3.7-2.7.9-5.3 1.3-8.2 1.3.7 1.3 1.4 2.5 2.2 3.8 1.2-1.7 2.4-3.5 3.7-5.2 1-1.5-.3-4-2.2-3.8-1.2.1-2.5.3-3.7.4.6 1.4 1.2 2.8 1.8 4.3 2.1-2.8 4.3-5.5 6.4-8.3 1.5-2 .1-4.6-2.4-4.2-1.1-.1-2.1-.2-3.2-.3.4 1.4.7 2.8 1.1 4.2 2-1.8 3.6-3.7 4.9-6 1.3-2.3-1.3-4.4-3.4-3.4-2.2 1-4.2 1.3-6.6 1.1.7 1.3 1.4 2.5 2.2 3.8 1.1-2.4 2.1-4.8 3.2-7.2.6-1.4.2-3.3-1.5-3.7-1.4-.3-2.9-.7-4.3-1 .4 1.4.7 2.8 1.1 4.2 2-1.7 4-3.4 6-5 1.9-1.6-.1-4.9-2.4-4.2-.7-.1-1.3-.2-2-.4-.2 1.3-.3 2.6-.5 3.9 2.9-1.6 5.8-3.3 8.7-4.9 2.6-1.5.8-5.1-1.9-4.6-1.6.4-3.1.3-4.6-.2.4 1.4.7 2.8 1.1 4.2 1.6-1.5 3.2-3 4.7-4.6 2.4-2.3-1.1-5.5-3.5-3.5 1-.6 1.9-1.1 2.9-1.7 1.9-1.3 1.4-4.8-1.3-4.7-1 0-2.1.1-3.1.1l2.4 1.8c-.8-2.1-.5-4.4.8-6.2.6-.8.4-2.4-.4-3-.8-.6-1.6-1.3-2.3-1.9v3.5l5.1-5.7c1.8-2-.5-5.5-3-3.9 1.6.8 3 .7 4.2-.4.4-.2.7-.5 1-.9.8-.9 1.1-1.5 1.4-2.8.6-2-1.8-4-3.7-2.8-1.4.9-2.7 1.4-4.3 1.8.9 1.2 1.9 2.4 2.8 3.7 1.4-1.9 2.1-3.7 2.5-6.1.2-1.4-.6-3.3-2.4-3.2-2.2.2-4 .7-6 1.6l3.4 3.4 2.1-4.5c.8-1.9-.6-4.4-2.8-3.7-2.3.7-4.4.9-6.8.6.4 1.6.8 3.1 1.3 4.7 3.6-2.3 6.3-5.1 8.2-8.9.9-1.8-.6-4.4-2.8-3.7-3.5 1.2-6.8 1.7-10.5 1.5.7 1.3 1.4 2.5 2.2 3.8.7-1.3 1.3-2.7 2-4 .9-1.8-.2-3.5-2.2-3.8l1.8-1.5c1.6-1.7.3-4.1-1.8-4.3-1.5-.2-3-.3-4.6-.5.6 1.4 1.2 2.8 1.8 4.3 2.5-2.7 5-5.4 7.4-8.1 2.2-2.4-1.1-5.6-3.5-3.5-.1 0-.2-.1-.2-.1.6 1 1.2 2.1 1.7 3.1 1.2-3.9 2.4-6.3 5.2-9.4 1.4-1.4.5-4.5-1.8-4.3l-5.7.6c.7 1.3 1.4 2.5 2.2 3.8.9-1.3 1.8-2.5 2.7-3.8 1.3-1.9-.9-4.1-2.8-3.7-1-.1-2-.3-3-.4.2 1.3.3 2.6.5 3.9 1.8-1.6 3.7-2.9 5.7-4.1 2.5-1.4.8-5.3-1.9-4.6l-5.7 1.5 3.1 3.1c.2-1 .4-2.1.6-3.1.4-2.8-4.5-4.1-5.1-1zM409.6 325.7c-1-6.5.8-12.6 4.8-17.8-1.6-.4-3.1-.8-4.7-1.3.4 7.5 1.6 14.9 3.5 22.2.5 1.8 2.8 2.4 4.2 1.1 1.2-1.2 2.5-2.4 3.7-3.6-1.4-.4-2.8-.7-4.2-1.1.9 2.4 1.8 4.7 2.7 7.1.6 1.6 2.9 2.7 4.2 1.1 1.9-2.2 3.7-4.5 5.6-6.7-1.3-.2-2.6-.3-3.9-.5 1.7 2.3 3.4 4.5 5 6.8 1.2 1.6 4 1.6 4.6-.6 2.3-8.8 3.4-17.8 3.3-26.9-1.6.4-3.1.8-4.7 1.3 3.2 7.2 4.8 14.7 5 22.5 0 1.8 2.2 3.3 3.8 2.2 2.7-1.9 5.3-3.8 8-5.7l-3.4-3.4c-2.3 3.5-.6 8.3 3.4 9.8 4.7 1.9 9.1-1.9 10.9-6h-4.3c1.5 2.5 3.1 5.1 4.6 7.6 1.2 1.9 3.9 1.4 4.6-.6 3.1-9.1 4.7-18.4 4.9-28-1.6.4-3.1.8-4.7 1.3 3.4 7.1 5.2 14.5 5.6 22.3.1 2.3 2.6 3.1 4.3 1.8 1.3-1.2 2.9-1.8 4.6-2-1-.6-2.1-1.2-3.1-1.7.6 2.6.7 5 .4 7.6-.2 2.2 2.9 3.3 4.3 1.8 3.1-3.4 6.2-6.9 9.2-10.3-1.3-.2-2.6-.3-3.9-.5 1.8 3.2 2 6.2.7 9.6-.9 2.4 2.5 4.1 4.2 2.4 1.7-1.7 3.4-2.8 5.8-3.5l-3.1-3.1c-1.4 6.6-2.8 13.3-4.3 19.9-.4 1.7.7 3 2.4 3.2 2.8.2 4.8-1 6.4-3.2 1.9-2.6 2-8.7 5.7-9.3-1.1-.8-2.1-1.6-3.2-2.4-.6 4.4.4 8.4 2.9 12.1 1.2 1.8 4 1.5 4.6-.6 1.6-5.7 3.2-11.4 4.8-17-1.5.2-3 .4-4.6.6 1.6 3.8 3.8 7 6.6 10 2.2 2.4 5.7-1.2 3.5-3.5-2.5-2.7-4.4-5.6-5.8-9-.9-2.1-4-1.3-4.6.6-1.6 5.7-3.2 11.4-4.8 17 1.5-.2 3-.4 4.6-.6-2-3.1-2.6-6-2.2-9.6.2-1.8-1.8-2.7-3.2-2.4-2.2.4-3.8 1.6-5 3.4-1.5 2.3-2.2 9.2-5.7 8.9.8 1.1 1.6 2.1 2.4 3.2 1.4-6.6 2.8-13.3 4.3-19.9.4-1.8-1.2-3.7-3.1-3.1-3.2 1-5.6 2.4-8 4.8l4.2 2.4c1.7-4.7 1.2-9.2-1.2-13.5-.8-1.3-2.9-1.7-3.9-.5-3.1 3.4-6.2 6.9-9.2 10.3 1.4.6 2.8 1.2 4.3 1.8.3-3.1.1-5.9-.6-8.9-.3-1.4-1.8-2-3.1-1.7-2.7.6-4.6 1.6-6.8 3.3 1.4.6 2.8 1.2 4.3 1.8-.4-8.7-2.5-17-6.2-24.8-1.1-2.3-4.6-1.1-4.7 1.3-.2 9.2-1.8 18-4.7 26.7 1.5-.2 3-.4 4.6-.6-1.5-2.5-3.1-5.1-4.6-7.6-.9-1.5-3.5-1.8-4.3 0-.2.8-.6 1.4-1.1 2-.9 1.8-2.4 1.5-4.5-.8 1.3-2-1.4-4.9-3.4-3.4-2.7 1.9-5.3 3.8-8 5.7 1.3.7 2.5 1.4 3.8 2.2-.1-8.8-2-17.1-5.7-25-1-2.3-4.7-1.1-4.7 1.3.2 8.7-.9 17.2-3.1 25.6 1.5-.2 3-.4 4.6-.6-1.7-2.3-3.4-4.5-5-6.8-.9-1.2-2.8-1.9-3.9-.5-1.9 2.2-3.7 4.5-5.6 6.7 1.4.4 2.8.7 4.2 1.1-.9-2.4-1.8-4.7-2.7-7.1-.7-1.7-2.7-2.5-4.2-1.1-1.2 1.2-2.5 2.4-3.7 3.6 1.4.4 2.8.7 4.2 1.1-1.8-6.9-2.9-13.8-3.3-20.9-.1-2.6-3.2-3.2-4.7-1.3-4.8 6.4-6.4 13.8-5.3 21.7.1 2.7 4.9 1.3 4.4-1.8zM333 311.9c.3-3 2.4-29.5 7-29l-2.5-2.5c-.8 13.3-.1 26.6 2 39.7.4 2.4 3.4 2.1 4.6.6 1.6-2.1 3.2-4.3 4.8-6.4-.9.4-1.9.8-2.8 1.1.8.3 1.6 4.3 2.5 5.2 1.1 1.1 2.8 1.7 4.4 1.1 1.9-.7 2.5-2.6 3.3-4.3 1.4-3.2 2.7-6.4 4.1-9.7h-4.3c1.6 3.3 3.1 6.5 4.7 9.8 1.4 2.9 5.7.4 4.3-2.5-1.6-3.3-3.1-6.5-4.7-9.8-.8-1.6-3.6-1.7-4.3 0-.9 2.1-1.8 4.3-2.7 6.4-.5 1.1-.9 2.1-1.4 3.2-.8 1.8-1 2.1-.3 1.1-.7-.7-.7-2.6-1.4-3.5-.9-1.2-1.5-1.4-2.8-1.9-1.1-.4-2.2.3-2.8 1.1-1.6 2.1-3.2 4.3-4.8 6.4 1.5.2 3 .4 4.6.6-2.1-12.7-2.7-25.5-1.9-38.4.1-1.4-1.2-2.4-2.5-2.5-5.8-.6-7.3 6-8.3 10.4-1.8 7.8-3 15.7-3.7 23.6-.4 3.4 4.6 3.4 4.9.2zM469.2 144.4c3.2 0 3.2-5 0-5s-3.2 5 0 5zM390.8 98.5c-3.4-3.1-4.4-8.5-.7-11.9 4.1-3.9 8.9-1.8 13.1.7 5.6 3.3 11 5.4 17.3 2.7 6.5-2.8 10.6-8.5 14.7-14 4.8-6.4 14.2-16.1 22-7.9 2.1 2.2 3.6 4.9 6.1 6.8 2.9 2.2 6.2 2.6 9.6 3.5 1.2.3 2.4.5 3.6 1.2 2.1 1.2 2.2 1.7 1.3 3.9-1.3 3.2-4.2 2.9-7.3 2-4.6-1.2-8.1-3.9-11.7-6.8-4.2-3.3-9.5-5.8-14.3-2.1-4.6 3.5-5.3 9.9-8.9 14.2-5.2 6.1-14.2 9-21.9 6.9-5.7-1.6-12.8-7.5-17.9-1.1-2 2.5 1.5 6 3.5 3.5 3.1-3.9 9.8 1.6 13.7 2.6 3.4.8 6.9.9 10.4.3 7-1.2 13.7-5.2 17.7-11.2 2-3.1 2.9-6.8 5.1-9.8 4.3-5.7 9.8 1.2 13.7 3.9 5.5 3.9 15.2 7.9 21.2 2.8 5.6-4.8 2-11.9-3.9-14.3-4.5-1.8-8.9-1.3-12.5-5.1-2.8-3-4.6-6.4-8.4-8.2-7.1-3.3-15.2.8-20.2 6-6.3 6.6-12.4 21.3-23.7 19-5.1-1-8.8-5.3-13.9-6.4-3.7-.8-7.5.1-10.5 2.3-6.7 5-6.5 14.6-.5 20 2.1 2.3 5.7-1.3 3.3-3.5z"/><path class="st13" d="M385.8 100.9c1.9 4 7.4 4.7 10.6 1.9 2.4-2.1-1.1-5.7-3.5-3.5-.8.7-2.2.2-2.7-.9-.6-1.2-2.3-1.5-3.4-.9-1.4.7-1.6 2.2-1 3.4zM399 85.3c1.8 1.4 2.7 3.8 1.6 6-1.4 2.9 2.9 5.4 4.3 2.5 2-4 1.2-9.2-2.4-12-1.1-.8-2.5-1-3.5 0-.9.8-1.1 2.7 0 3.5zM412.7 90.8c.6 1.5.6 2.9-.3 4.2-1.6 2.8 2.7 5.3 4.3 2.5 1.4-2.4 1.8-5.4.8-8.1-.5-1.3-1.7-2.1-3.1-1.7-1.2.3-2.2 1.8-1.7 3.1zM420.5 89.7c2.2.6 4 3.4 3 5.6-.5 1.3-.4 2.7.9 3.4 1 .6 2.9.3 3.4-.9 2.2-5.2-.4-11.4-6-13-3-.7-4.4 4.1-1.3 4.9z"/><path class="st13" d="M427.4 86.8c2.6 0 5 2.1 5.1 4.8.1 3.2 5.1 3.2 5 0-.2-5.4-4.7-9.8-10.1-9.8-3.2 0-3.2 5 0 5z"/><path class="st13" d="M432.8 81.1c2.3-.4 4.3 1.4 4.8 3.5.7 3.1 5.5 1.8 4.8-1.3-1.1-5-6.1-7.8-10.9-7-1.3.2-2.1 1.9-1.7 3.1.3 1.4 1.7 2 3 1.7zM436.9 71.8c3 0 5.5 2.5 5.5 5.5 0 3.2 5 3.2 5 0 0-5.7-4.8-10.5-10.5-10.5-3.2.1-3.2 5.1 0 5zM449.7 67.5c2-.2 1.6 10.5 1.5 11.8-.3 3.2 4.7 3.2 5 0 .4-4.4.8-17.5-6.5-16.8-3.2.3-3.2 5.3 0 5zM377.5 108.6c-5.4 5.2-8.9 11.9-10 19.3-.5 3.1 4.3 4.5 4.8 1.3 1-6.6 3.9-12.4 8.7-17.1 2.4-2.2-1.2-5.7-3.5-3.5zM392.5 109.9c-4.1 1-7.4 4.4-8.3 8.5-.6 3.1 4.2 4.5 4.8 1.3.5-2.5 2.3-4.4 4.8-5 3.2-.7 1.9-5.6-1.3-4.8zM188.5 227.5v.5c0 1.3 1.1 2.6 2.5 2.5 1.4-.1 2.5-1.1 2.5-2.5v-.5c0-1.3-1.1-2.6-2.5-2.5-1.3 0-2.5 1.1-2.5 2.5zM196.3 232.7c.2.3.3.7.5 1 .6 1.2 2.3 1.6 3.4.9 1.2-.8 1.5-2.2.9-3.4-.2-.3-.3-.7-.5-1-.6-1.2-2.3-1.6-3.4-.9-1.2.8-1.5 2.2-.9 3.4zM5 353.6v-.7c-.4.7-.8 1.4-1.2 2.2-2.4 1.6 3.1 3.3 4.2 3 .4-.1.8-.3 1.1-.6.9-.7.6-.8-.9-.4.2.6 1.3 1.7 1.8 2.1 5.4 3.8 8.3-5.3 10.2-8.7h-4.3c1.4 1.9 2.1 3.6 2.2 6 .1 1.6 1.5 2.9 3.2 2.4 1.5-.5 3-1.5 3.7-3-1.2-.4-1.6-.2-1.3.5.1.4.2.8.4 1.2.2.6.6 1.3 1.1 1.7 1 1 2.6 1.3 3.9.8 1-.3 3.1-2.7 2.7-2.6l-2.4-1.8c.7 2.3 1.7 5.6 4.2 6.5 1.9.7 4.5-2.2 5.8-.7 2.1 2.4 5.6-1.1 3.5-3.5-1.4-1.6-3.3-2.5-5.4-2.2-.8.1-1.5.4-2.2.7-.4.3-.9.7-1.3 1 1.6-.5 1.7-1.5.3-3.1-.3-1-1.3-1.9-2.4-1.8-1.4.1-3.3.6-3.8 2.1s.4 1.2.5 0c0-.7-.7-1.9-1.2-2.3-1-1.1-2.2-1.5-3.7-1.2-1.8.4-2.2 2.4-3.6 2.9 1.1.8 2.1 1.6 3.2 2.4-.2-3.3-1-5.9-2.9-8.6-1-1.4-3.3-1.8-4.3 0-1 1.9-2.3 3.7-3.1 5.7-.8 2 0 1.3-1-.1-1.5-2-3.1-1-4.9-.8-1.6.2.5.9-.3.1.7.6-.4-1.6-.4-1.6-.6-.9-1.5-1.2-2.6-1.2-2.2-.1-3.5 1.5-3.6 3.6-.4 3.2 4.6 3.2 4.8 0z"/><path class="st13" d="M22.8 355.1c5.1-2.8 4-8 2.5-12.7-2.4-7.6-3.4-22.1 9-21.1 3.8.3 4.3 2.9 2.5 5.9-.5.9-1.5 1.7-2.1 2.6-1.5 2.3-2.2 4.7-2.3 7.5-.1 3 .2 6.3 1.1 9.2 1 3.2 5.3 7.9 4.6 11.1-.7 3.1 4.1 4.5 4.8 1.3.9-4.2-1.1-6.5-3-10.1-2.5-4.6-4-11.5-1.1-16.2 1.8-2.8 4.6-4.8 4.6-8.4.1-3.1-1.9-5.4-4.6-6.7-6.3-3-14.3 0-17.9 5.8-1.9 3.1-2.8 6.8-2.7 10.4 0 2.3.4 4.6 1 6.8.6 2.5 4.1 8.7.9 10.4-2.6 1.4-.1 5.7 2.7 4.2z"/><path class="st13" d="M45.6 360.6c1 .1 1.7.6 2.2 1.4 1.3 1.5 3.6.5 4.2-1.1-.1.4 2 .9 2.6.9 1.5-.1 1.8-1 2.9-1.7.7-.5.1-.6.9-.7.6 0 1.3.6 1.9.7 1.4.3 2.6.2 3.9-.5 2.7-1.7.2-6-2.5-4.3-.5.3-3.4-1.2-4.5-1-1.5.2-3.2 1.2-3.7 2.7.2-.6 2.1.1.2-.7-1-.4-2-.5-3.1-.3-1.9.5-2.9 1.9-3.5 3.6 1.4-.4 2.8-.7 4.2-1.1-1.7-2-4.3-3.8-7.1-3-2.3.7-3.8 2.7-3.6 5.1.1 3.2 5.1 3.2 5 0zM35.2 340.7c-3.2-3.1-7.9-4.3-12.1-2.8-3 1.1-1.7 5.9 1.3 4.8 2.6-.9 5.3-.4 7.3 1.5 2.3 2.3 5.8-1.2 3.5-3.5zM36.5 331.6c-2.8-4.6-7.4-7.4-12.8-7.9-3.2-.3-3.2 4.7 0 5 3.5.3 6.6 2.4 8.5 5.4 1.7 2.8 6 .3 4.3-2.5z"/><g><path class="st13" d="M518.7 160.2c-8.8-10.5 2.5-26.4 2.3-38.2-1.3.7-2.5 1.4-3.8 2.2 3.7 1.6 8.5-.8 7.2-5.4-1.5-5.4-7.5-4.4-10.8-1.6-2.5 2.1 1.1 5.6 3.5 3.5.9-.3 1.8-.6 2.6-.9-1.7-.7-3.8.1-3.8 2.2.2 14.1-11.6 28.8-.9 41.7 2.2 2.5 5.7-1 3.7-3.5z"/></g><g><path class="st13" d="M526.1 119.4c1.6-2.6 4.7-3.5 7.6-2.6 3.1 1 4.4-3.8 1.3-4.8-5-1.7-10.5.4-13.2 4.9-1.7 2.7 2.6 5.2 4.3 2.5z"/></g><g><path class="st13" d="M526.8 124.3c2.4 1.1 4.8 2.1 7.2 3.2 1.2.5 2.7.4 3.4-.9.6-1.1.3-2.9-.9-3.4-2.4-1.1-4.8-2.1-7.2-3.2-1.2-.5-2.7-.4-3.4.9-.6 1.1-.3 2.9.9 3.4z"/></g><g><path class="st13" d="M519.7 125.7c1.7 2.6 2.6 5.3 2.7 8.4.1 3.2 5.1 3.2 5 0-.1-3.9-1.3-7.6-3.4-10.9-1.8-2.7-6.1-.2-4.3 2.5z"/></g><g><path class="st13" d="M517 118.8c-5 1.8-8.9 6.1-9.6 11.5-.2 1.3.3 2.7 1.7 3.1 1.2.3 2.9-.4 3.1-1.7.5-3.6 2.6-6.7 6.1-8 3-1.2 1.7-6.1-1.3-4.9z"/></g><g><path class="st13" d="M516.2 114c-3.8.7-7.4 1.9-11 3.5-2.9 1.4-.4 5.7 2.5 4.3 3.1-1.5 6.4-2.4 9.8-3 3.2-.5 1.9-5.3-1.3-4.8z"/></g><g><path class="st13" d="M520.1 112.5c-2.2.1-4-.8-5.4-2.5-.9-1-2.7-.9-3.5 0-1 1-.9 2.5 0 3.5 2.1 2.6 5.5 4.1 8.9 4 3.2-.1 3.2-5.1 0-5z"/></g><g><path class="st13" d="M523.1 115.2c-.9-2.4-.7-4.7.8-6.9 1.8-2.7-2.5-5.2-4.3-2.5-2.1 3.1-2.6 7.2-1.3 10.7 1.1 3 6 1.7 4.8-1.3z"/></g></g></svg>