<svg width="76" height="22" viewBox="0 0 76 22" xmlns="http://www.w3.org/2000/svg"><title>20494FE5-BDC3-4368-9902-8613419B68F6</title><g transform="translate(.5 .112)" fill="#FFF" fill-rule="evenodd"><path d="M36.69 21.266c-.996 0-1.81-.788-1.834-1.78L34.404 6.87c-.023-1.013.792-1.846 1.788-1.846h.022c.996 0 1.81.788 1.834 1.78l.453 12.615c.023 1.013-.792 1.846-1.788 1.846h-.022z"/><path d="M29.72 21.266c-.997 0-1.812-.788-1.835-1.78L27.432 6.87c-.022-1.013.793-1.846 1.79-1.846h.02c.997 0 1.812.788 1.835 1.78l.452 12.615c.022 1.013-.793 1.846-1.79 1.846h-.02z" opacity=".8"/><path d="M38.84 21.266h-2.15c-1.02 0-1.834-.81-1.834-1.825 0-1.012.815-1.823 1.834-1.823h2.15c1.02 0 1.833.81 1.833 1.824 0 1.015-.814 1.826-1.833 1.826zM21.82 21.266c-.997 0-1.812-.788-1.834-1.78L19.533 6.87c-.022-1.013.792-1.846 1.788-1.846h.024c.996 0 1.81.788 1.833 1.78l.453 12.615c.023 1.013-.792 1.846-1.788 1.846h-.023z"/><path d="M23.97 21.266h-2.15c-1.02 0-1.834-.81-1.834-1.825 0-1.012.815-1.823 1.833-1.823h2.15c1.018 0 1.833.81 1.833 1.824 0 1.015-.815 1.826-1.834 1.826zM44.93 21.266c-.997 0-1.812-.788-1.835-1.78L42.643 6.87c-.023-1.013.792-1.846 1.788-1.846h.023c.996 0 1.81.788 1.834 1.78l.452 12.615c.022 1.013-.793 1.846-1.79 1.846h-.02z"/><path d="M47.08 21.266h-2.15c-1.02 0-1.835-.81-1.835-1.825 0-1.012.815-1.823 1.834-1.823h2.15c1.017 0 1.832.81 1.832 1.824 0 1.015-.815 1.826-1.833 1.826z"/><path d="M.272 1.622C-.023.766.34.225 1.268.225h1.56c.703 0 1.178.316 1.382 1.014C5.68 5.406 7.4 9.55 9.054 13.72c.452 1.193.95 3.04.928 3.04h.068s.294-1.847.633-3.04c1.2-4.168 2.332-8.313 3.712-12.48.16-.7.634-1.015 1.336-1.015h1.495c.905 0 1.29.563.995 1.397-2.127 6.105-3.69 12.21-5.817 18.338-.226.675-.656.968-1.358.968H9.167c-.702 0-1.132-.293-1.38-.968C5.454 13.832 2.58 7.727.27 1.622zM57.196 5.7c4.233 0 6.768 2.996 7.017 7.073.045.63-.476 1.262-1.222 1.262h-9.098c.384 2.68 2.4 4.077 4.662 4.077 1.38 0 2.513-.518 3.192-.968.724-.36 1.245-.27 1.652.405.113.202.25.382.362.585.362.676.272 1.26-.362 1.622-.95.608-2.716 1.487-5.047 1.487-4.934 0-8.035-3.56-8.283-7.772-.295-4.574 2.625-7.772 7.13-7.772zm3.26 6.082c-.182-2.073-1.517-3.29-3.215-3.29-1.9 0-3.167 1.308-3.394 3.29h6.61zM65.888 7.276c-.046-.788.34-1.216 1.13-1.216h1.133c.793 0 1.246.428 1.29 1.216l.07 1.397c.022.563-.023 1.014-.023 1.014h.067c.476-1.78 2.015-3.762 4.12-3.762.815 0 1.132.405 1.177 1.216.023.384.046.767.07 1.128.044.788-.41 1.216-1.178 1.216-2.716 0-3.87 2.68-3.735 5.384.09 1.6.136 3.177.18 4.776.024.81-.406 1.217-1.176 1.217h-1.29c-.79 0-1.2-.405-1.22-1.216-.07-4.1-.386-8.222-.612-12.368z" opacity=".8"/><ellipse opacity=".8" cx="29.085" cy="1.87" rx="1.833" ry="1.825"/></g></svg>