<?xml version="1.0" encoding="UTF-8"?>
<svg width="1241px" height="151px" viewBox="0 0 1241 151" version="1.1" xmlns="http://www.w3.org/2000/svg" xmlns:xlink="http://www.w3.org/1999/xlink">
    <!-- Generator: sketchtool 40.3 (33839) - http://www.bohemiancoding.com/sketch -->
    <title>2A1DEB04-7A72-4F7B-8F03-CC12DD67881B</title>
    <desc>Created with sketchtool.</desc>
    <defs>
        <path d="M1242,0 L0,0 L0,102.765 C1.268,103.324 2.383,104.21 3.129,105.389 C5.722,109.484 4.788,116.464 9.441,117.821 C12.175,118.618 14.836,116.609 17.138,114.933 C19.439,113.257 22.703,111.815 24.955,113.558 C25.846,114.247 26.439,115.371 27.511,115.72 C34,115.622 35.663,120.265 35.533,123.905 C35.402,127.545 34.721,131.745 37.265,134.352 C37.832,134.933 38.57,135.397 39.381,135.436 C40.754,135.502 41.911,134.337 42.437,133.067 C43.833,129.696 42.033,125.94 41.675,122.31 C41.318,118.68 44.321,114.008 47.617,115.571 C49.253,116.346 50.083,118.411 51.82,118.921 C54.523,119.713 56.594,116.293 59.332,115.633 C62.649,114.834 65.551,118.516 65.682,121.926 C65.812,125.335 64.231,128.547 63.479,131.875 C63.14,133.374 63.084,135.214 64.3,136.154 C65.873,137.37 68.295,135.946 68.978,134.079 C69.66,132.212 69.267,130.15 69.292,128.162 C69.396,119.809 76.689,113.544 83.457,108.646 C84.689,107.755 85.984,106.843 87.485,106.595 C89.128,106.324 90.798,106.885 92.462,106.82 C95.585,106.698 98.188,104.443 101.177,103.531 C104.166,102.618 108.505,104.36 107.911,107.428 C107.556,109.259 105.567,110.396 105.094,112.201 C104.516,114.407 106.376,116.437 108.071,117.964 C108.969,118.773 110.442,119.568 111.232,118.653 C111.556,118.277 111.601,117.74 111.61,117.244 C111.66,114.758 111.231,112.257 111.581,109.796 C111.931,107.335 113.317,104.783 115.696,104.061 C117.899,103.392 120.283,104.455 122.562,104.126 C125.236,103.74 127.225,101.571 129.32,99.866 C131.415,98.16 134.429,96.815 136.724,98.241 C135.994,100.843 135.257,103.516 135.497,106.208 C135.737,108.901 137.168,111.659 139.662,112.7 C144.002,114.512 148.999,109.45 148.06,104.842 C147.754,103.343 147.003,101.846 147.348,100.355 C148.014,97.475 152.502,97.142 154.482,99.337 C156.462,101.532 156.431,104.878 155.795,107.765 C154.872,111.953 152.926,115.938 152.689,120.221 C152.452,124.503 154.72,129.443 158.949,130.153 C165.015,130.285 163.818,117.749 162.244,110.668 C161.136,105.681 158.127,104.131 159.131,102.31 C160.134,100.489 162.582,99.291 164.363,100.363 L165.421,99.134 C169.655,98.205 174.249,101.965 174.176,106.299 C174.142,108.258 173.319,110.117 173.083,112.061 C172.848,114.005 173.468,116.333 175.293,117.044 C177.828,116.646 178.701,113.378 178.392,110.83 C178.083,108.282 177.203,105.554 178.365,103.266 C180.127,99.799 186.465,100.771 187.107,104.606 C187.35,106.063 186.893,107.546 186.937,109.023 C186.981,110.499 187.852,112.191 189.328,112.258 C192.907,112.419 191.315,104.774 194.82,104.033 C197.1,103.55 198.293,106.547 199.853,108.279 C202.33,111.03 207.551,110.319 209.202,107.005 C210.53,111.148 211.858,115.291 213.186,119.434 C213.781,121.29 215.445,123.604 217.117,122.602 C217.674,122.267 217.979,121.637 218.191,121.022 C220.368,114.723 216.3,106.59 220.774,101.651 C222.721,99.502 225.811,98.735 228.709,98.81 C232.749,98.916 236.735,100.489 239.758,103.171 C243.335,106.344 246.168,111.28 250.939,111.596 C255.057,111.869 258.458,108.432 262.465,107.444 C267.811,106.125 273.85,110.107 274.745,115.539 C275.23,118.49 274.383,121.471 273.923,124.425 C273.463,127.38 273.482,130.688 275.371,133.005 C277.259,135.323 281.583,135.629 282.919,132.954 C283.4,131.993 283.411,130.872 283.375,129.798 C283.179,124.102 281.915,118.396 282.686,112.749 C283.457,107.102 291.729,99.368 291.729,99.368 C294.639,98.027 298.584,98.534 300.366,101.197 C302.45,104.31 300.831,108.421 300.176,112.11 C299.521,115.799 301.384,120.914 305.085,120.336 C308.155,119.856 309.106,115.807 308.535,112.754 C307.963,109.7 306.61,106.509 307.751,103.62 C308.93,100.636 312.945,99.187 315.758,100.73 C315.754,102.34 315.767,104.022 316.506,105.452 C317.244,106.883 318.952,107.952 320.47,107.415 C321.16,107.17 321.707,106.642 322.229,106.13 C324.967,103.445 327.704,100.761 330.441,98.076 C332.07,100.23 332.843,103.014 332.556,105.7 C334.83,107.022 337.742,102.116 339.617,103.961 C340.139,104.475 340.185,105.288 340.191,106.021 C340.213,109.066 340.166,112.351 341.931,114.832 C343.695,117.314 348.085,118.036 349.568,115.377 C351.211,112.432 347.984,108.466 349.61,105.511 C351.139,102.732 355.489,103.48 357.903,105.538 C360.316,107.597 362.055,110.58 364.988,111.786 C369.627,113.694 374.688,110.275 378.138,106.634 C381.588,102.993 385.099,98.625 390.081,98.052 C392.866,97.733 396.306,99.583 395.969,102.366 C395.79,103.836 394.619,104.978 394.092,106.362 C393.237,108.608 394.409,111.422 396.605,112.396 C398.802,113.371 401.675,112.351 402.765,110.21 C403.68,108.415 403.372,106.275 403.564,104.27 C403.756,102.264 404.903,99.976 406.914,99.86 C408.538,99.766 409.882,101.195 410.475,102.71 C412.866,108.823 407.119,116.696 411.155,121.872 C411.841,122.752 412.871,123.473 413.984,123.398 C416.142,123.254 416.982,120.566 417.275,118.423 C417.967,113.362 418.66,108.3 419.352,103.239 L420.258,102.311 C420.361,100.636 421.514,99.071 423.082,98.475 C424.651,97.879 426.551,98.285 427.74,99.469 C428.464,100.19 428.913,101.136 429.322,102.072 C430.124,103.908 430.836,105.807 431.089,107.794 C431.548,111.395 430.481,114.989 429.887,118.569 C429.293,122.15 429.268,126.144 431.464,129.034 C432.797,130.787 434.811,131.919 436.904,132.606 C440.591,132.686 441.344,129.964 441.021,127.902 C440.532,124.775 438.85,121.977 437.857,118.972 C436.657,115.342 436.483,111.38 437.36,107.659 C437.743,106.033 438.336,104.428 439.354,103.104 C441.846,99.865 446.259,98.945 450.285,98.249 L450.329,98.755 C453.556,95.286 460.36,96.736 461.893,101.219 C462.795,103.857 462.045,106.835 462.902,109.487 C463.759,112.139 467.918,113.862 469.136,111.355 C469.593,110.416 469.378,109.308 469.235,108.274 C468.744,104.702 470.178,100.057 473.774,99.781 C477.322,99.509 479.495,103.906 479.105,107.442 C478.714,110.979 476.848,114.262 476.708,117.817 C476.568,121.373 479.5,125.52 482.911,124.508 C485.395,123.771 486.44,120.801 486.548,118.212 C486.735,113.739 485.251,109.22 486.136,104.831 C487.021,100.442 492.112,96.395 495.812,98.917 C497.695,100.2 498.368,102.604 499.542,104.557 C500.715,106.51 503.282,108.184 505.16,106.894 C506.319,106.097 506.638,104.519 507.586,103.48 C509.002,101.926 511.622,101.964 513.356,103.152 C515.09,104.34 516.051,106.39 516.508,108.441 C516.865,110.045 517.091,111.914 518.464,112.816 C521.028,114.501 523.879,111.142 525.157,108.353 C526.435,105.564 529.466,102.294 531.917,104.139 C533.953,105.671 532.973,109.309 534.885,110.994 C537.066,112.915 540.332,110.532 542.106,108.231 C543.881,105.929 546.722,103.257 549.222,104.739 C551.199,105.911 551.112,108.745 550.842,111.027 C550.312,115.52 550.129,120.397 552.56,124.212 C553.456,125.617 554.872,126.891 556.538,126.861 C560.105,126.795 560.774,121.735 560.1,118.231 C559.289,114.015 558.243,109.596 559.566,105.511 C560.888,101.427 565.703,98.137 569.506,100.128 C572.188,101.532 573.235,104.887 573.234,107.914 C573.233,110.942 572.455,113.945 572.634,116.967 C572.689,117.889 572.849,118.844 573.389,119.592 C575.113,121.979 579.236,120.359 580.389,117.65 C581.541,114.941 580.933,111.85 581.078,108.91 C581.224,105.97 582.74,102.562 585.665,102.229 C587.85,101.981 589.805,103.579 591.973,103.946 C595.493,104.542 598.623,101.897 601.452,99.72 C604.281,97.543 608.285,95.661 611.231,97.677 C612.817,98.762 613.566,100.677 614.664,102.254 C617.16,105.84 621.443,107.65 625.496,109.282 C626.47,109.674 627.504,110.074 628.54,109.909 C632.243,109.319 633.05,102.421 636.737,103.101 C639.363,103.585 639.422,107.38 638.44,109.863 C637.282,112.79 635.618,115.516 634.708,118.529 C633.798,121.542 633.761,125.065 635.666,127.571 C637.571,130.077 641.841,130.781 643.84,128.35 C645.156,126.751 645.126,124.473 645.031,122.405 C644.836,118.169 644.641,113.934 644.446,109.699 C644.365,107.942 644.3,106.104 645.05,104.513 C645.799,102.922 651.012,99.274 653.174,100.604 C655.337,101.935 656.352,104.476 657.53,106.725 C658.708,108.974 660.546,111.295 663.083,111.408 C666.617,111.566 668.77,107.364 668.756,103.826 C668.743,100.288 667.531,96.7 668.407,93.273 C669.014,90.896 671.903,88.623 673.727,90.264 C674.916,91.333 674.831,93.504 676.251,94.24 C679.077,95.703 680.229,89.623 683.344,88.977 C685.797,91.354 686.345,95.039 686.599,98.445 C686.853,101.851 687.018,105.481 688.99,108.269 C690.962,111.058 695.525,112.285 697.77,109.71 C699.653,107.549 699.264,103.629 701.83,102.352 C703.973,101.285 706.511,103.054 707.737,105.111 C708.962,107.168 709.57,109.637 711.264,111.33 C714.339,114.403 719.681,113.553 723.277,111.11 C726.873,108.666 729.461,105.001 732.858,102.288 C736.255,99.576 741.206,97.915 744.902,100.204 C747.867,102.039 749.045,105.779 751.602,108.149 C755.998,112.224 764.289,110.398 766.566,104.853 C767.618,102.292 767.982,98.78 770.645,98.025 C773.97,97.082 776.077,101.715 775.758,105.157 C775.358,109.481 773.602,113.547 772.515,117.752 C771.428,121.956 771.079,126.68 773.303,130.41 C775.527,134.14 781.099,136.018 784.395,133.191 C786.985,130.968 787.152,126.975 786.288,123.674 C785.423,120.372 783.746,117.279 783.326,113.892 C782.766,109.368 784.681,104.614 788.222,101.743 C788.809,101.266 789.459,100.83 790.201,100.684 C792.826,100.168 794.684,103.518 794.302,106.166 C793.92,108.813 792.294,111.152 791.878,113.794 C791.461,116.436 793.211,119.817 795.854,119.404 C798.528,118.986 799.137,115.44 799.015,112.736 C798.892,110.032 799.222,106.529 801.829,105.802 C804.335,105.103 806.564,107.975 806.607,110.576 C806.651,113.178 805.394,115.612 804.927,118.172 C804.459,120.731 805.202,123.948 807.671,124.768 C810.868,125.828 813.656,121.909 813.679,118.541 C813.702,115.173 812.279,111.833 812.84,108.512 C813.401,105.191 817.708,102.275 820.05,104.695 C821.997,106.706 820.561,109.96 819.824,112.661 C819.088,115.362 820.834,119.462 823.387,118.313 C826.264,117.018 825.221,110.591 828.325,111.157 C830.684,111.587 829.712,115.5 831.318,117.28 C832.598,118.698 835.085,118.095 836.354,116.667 C837.623,115.24 838.083,113.295 838.801,111.525 C840.087,108.355 842.327,105.58 845.155,103.656 C846.222,105.785 845.709,108.331 846.021,110.692 C846.333,113.052 848.369,115.664 850.622,114.893 C853.244,113.997 854.414,109.147 856.901,110.369 C857.837,110.828 858.146,111.987 858.354,113.009 C858.963,115.994 859.571,118.978 860.178,121.963 C860.178,121.963 859.996,131.697 863.491,132.121 C866.007,130.101 866.397,126.374 865.775,123.208 C865.152,120.042 863.736,117.049 863.369,113.844 C862.83,109.137 864.76,104.217 868.354,101.131 C869.177,100.425 870.159,99.785 871.244,99.801 C874.213,99.846 874.829,104.036 874.294,106.957 C873.759,109.878 873.701,113.925 876.575,114.67 C878.633,113.137 878.441,110.09 878.802,107.55 C879.163,105.009 881.604,102.1 883.799,103.428 C886.359,104.976 884.028,109.225 885.445,111.86 C886.905,114.576 891.282,113.65 893.25,111.276 C895.218,108.902 895.935,105.685 897.892,103.302 C900.615,99.989 905.146,98.91 909.342,98.026 C910.868,97.705 912.564,97.409 913.9,98.213 C915.035,98.896 915.609,100.198 916.177,101.394 C918.503,106.303 921.985,110.856 926.797,113.376 C931.609,115.896 937.884,116.025 942.231,112.769 C945.458,110.352 947.687,106.201 951.652,105.474 C953.952,105.053 956.777,105.778 958.319,104.021 C958.963,103.287 959.207,102.254 959.91,101.576 C961.51,100.034 964.403,101.449 965.185,103.53 C965.967,105.61 965.405,107.917 965.105,110.119 C964.565,114.095 964.926,118.191 966.154,122.01 C970.266,121.407 971.863,116.34 972.09,112.191 C972.317,108.041 972.411,103.159 975.823,100.786 C976.798,100.108 978.185,99.753 979.143,100.456 C981.218,101.98 978.744,105.788 980.432,107.731 C982.927,107.144 985.334,106.185 987.549,104.895 C990.684,108.704 986.292,116.48 990.779,118.531 C994.14,120.067 997.12,115.445 997.131,111.75 C997.141,108.054 996.224,103.755 998.829,101.132 C999.798,100.156 1001.362,99.606 1002.578,100.251 C1005.479,101.792 1003.447,107.679 1006.572,108.689 C1009.675,109.691 1011.895,103.744 1014.969,104.833 C1018.034,105.918 1015.894,111.747 1018.78,113.243 C1020.537,114.154 1022.516,112.584 1023.87,111.14 C1027.201,107.592 1030.531,104.043 1033.862,100.495 C1037.569,102.975 1033.061,110.162 1036.596,112.883 C1038.706,114.507 1041.703,112.934 1043.861,111.374 L1044.382,110.555 C1044.469,107.802 1044.555,105.048 1044.642,102.295 C1044.711,100.113 1045.728,97.127 1047.859,97.597 C1049.397,97.936 1049.842,99.879 1049.978,101.448 C1050.244,104.502 1050.51,107.556 1050.775,110.61 C1050.949,112.61 1051.143,114.68 1052.127,116.43 C1053.111,118.18 1055.116,119.525 1057.076,119.093 C1060.885,118.252 1060.644,112.626 1058.812,109.183 C1056.979,105.74 1054.468,101.556 1056.649,98.323 C1058.599,95.433 1063.321,95.798 1065.816,98.233 C1068.311,100.667 1069.076,104.349 1069.411,107.819 C1069.843,112.297 1069.761,116.824 1069.168,121.283 C1068.609,125.481 1068.509,131.21 1072.597,132.315 C1075.902,133.207 1078.941,129.612 1079.142,126.195 C1079.342,122.778 1077.762,119.547 1076.854,116.246 C1075.452,111.151 1075.662,105.624 1077.449,100.651 C1077.954,99.244 1078.668,97.785 1079.987,97.082 C1082.121,95.943 1084.895,97.417 1086.024,99.556 C1087.152,101.696 1087.083,104.243 1086.987,106.659 C1086.831,110.574 1086.674,114.489 1086.518,118.403 C1086.498,118.909 1086.481,119.433 1086.674,119.901 C1087.439,121.756 1090.429,120.929 1091.5,119.232 C1093.747,115.667 1091.979,111.08 1090.975,106.987 C1089.971,102.894 1090.772,97.245 1094.906,96.426 C1097.996,95.813 1100.784,98.543 1102.102,101.403 C1106.197,110.292 1102.049,120.567 1101.452,130.335 C1101.322,132.455 1101.401,134.715 1102.55,136.501 C1103.7,138.288 1106.253,139.318 1108.037,138.165 C1109.228,137.394 1109.751,135.922 1109.992,134.523 C1111.093,128.126 1107.96,121.862 1106.588,115.517 C1105.215,109.172 1106.731,100.921 1112.93,98.992 C1116.899,103.37 1111.527,111.309 1115.095,116.019 C1115.632,116.727 1116.399,117.32 1117.284,117.4 C1119.492,117.599 1120.621,114.895 1121.298,112.783 C1121.975,110.672 1123.99,108.208 1125.909,109.318 C1125.245,111.98 1127.965,114.862 1130.661,114.353 C1131.937,114.112 1133.035,113.283 1134.298,112.98 C1136.272,112.506 1138.285,113.365 1140.278,113.749 C1148.848,115.399 1156.865,108.237 1165.592,108.296 C1167.302,108.308 1169.204,108.721 1170.163,110.137 C1172.346,113.361 1167.878,118.461 1170.499,121.341 C1172.629,123.682 1176.75,121.121 1177.47,118.039 C1178.191,114.957 1177.123,111.716 1177.524,108.576 C1177.925,105.437 1181.191,102.176 1183.93,103.761 C1185.297,105.298 1184.734,107.653 1184.588,109.705 C1184.442,111.756 1185.552,114.441 1187.588,114.146 C1189.874,113.815 1190.532,109.962 1192.841,110.033 C1194.512,110.084 1195.226,112.154 1195.448,113.811 C1195.932,117.439 1196.613,121.749 1199.93,123.299 C1203.385,124.914 1207.477,122.231 1209.349,118.907 C1211.221,115.584 1211.761,111.658 1213.496,108.261 C1215.231,104.864 1218.995,101.888 1222.622,103.068 L1221.771,104.018 C1223.122,102.797 1225.418,103.442 1226.596,104.83 C1227.774,106.218 1228.159,108.087 1228.624,109.847 C1229.089,111.608 1229.762,113.463 1231.264,114.492 C1232.845,115.576 1235.013,115.457 1236.765,114.679 C1238.517,113.901 1239.946,112.559 1241.339,111.242 C1241.544,111.047 1241.768,110.865 1242,110.688 L1242,0 Z" id="path-1"></path>
        <filter x="-50%" y="-50%" width="200%" height="200%" filterUnits="objectBoundingBox" id="filter-2">
            <feOffset dx="0" dy="4" in="SourceAlpha" result="shadowOffsetOuter1"></feOffset>
            <feGaussianBlur stdDeviation="2" in="shadowOffsetOuter1" result="shadowBlurOuter1"></feGaussianBlur>
            <feColorMatrix values="0 0 0 0 0   0 0 0 0 0   0 0 0 0 0  0 0 0 0.24 0" type="matrix" in="shadowBlurOuter1" result="shadowMatrixOuter1"></feColorMatrix>
            <feOffset dx="0" dy="0" in="SourceAlpha" result="shadowOffsetOuter2"></feOffset>
            <feGaussianBlur stdDeviation="2" in="shadowOffsetOuter2" result="shadowBlurOuter2"></feGaussianBlur>
            <feColorMatrix values="0 0 0 0 0   0 0 0 0 0   0 0 0 0 0  0 0 0 0.12 0" type="matrix" in="shadowBlurOuter2" result="shadowMatrixOuter2"></feColorMatrix>
            <feMerge>
                <feMergeNode in="shadowMatrixOuter1"></feMergeNode>
                <feMergeNode in="shadowMatrixOuter2"></feMergeNode>
            </feMerge>
        </filter>
    </defs>
    <g id="Spécial-Halloween" stroke="none" stroke-width="1" fill="none" fill-rule="evenodd">
        <g id="Vliller-Halloween-elements" transform="translate(0.000000, -60.000000)">
            <g id="blood" transform="translate(-1.000000, 64.000000)">
                <g id="Fill-1">
                    <use fill="black" fill-opacity="1" filter="url(#filter-2)" xlink:href="#path-1"></use>
                    <use fill="#E52B38" fill-rule="evenodd" xlink:href="#path-1"></use>
                </g>
            </g>
        </g>
    </g>
</svg>