<?xml version="1.0" encoding="UTF-8" standalone="no"?>
<svg width="181px" height="74px" viewBox="0 0 181 74" version="1.1" xmlns="http://www.w3.org/2000/svg" xmlns:xlink="http://www.w3.org/1999/xlink">
    <!-- Generator: sketchtool 40.1 (33804) - http://www.bohemiancoding.com/sketch -->
    <title>030C89BB-C1CE-4D2B-B12C-55B30F1F8F7C</title>
    <desc>Created with sketchtool.</desc>
    <defs></defs>
    <g id="Page-1" stroke="none" stroke-width="1" fill="none" fill-rule="evenodd">
        <g id="Vliller-MENU-2" transform="translate(-113.000000, -67.000000)">
            <g id="Group-4" transform="translate(113.000000, 67.000000)">
                <g id="vliller_logo-vliller">
                    <g id="Calque_1" transform="translate(-0.000000, 0.000000)">
                        <g id="Group">
                            <g transform="translate(53.128112, 3.448598)" fill="#FFFFFF">
                                <path d="M62.4062823,36.1719626 C60.7123425,36.1719626 59.3263918,34.8308411 59.2878932,33.1448598 L58.5179205,11.6869159 C58.4794219,9.96261682 59.8653726,8.54485981 61.5593124,8.54485981 L61.5978111,8.54485981 C63.2917509,8.54485981 64.6777016,9.88598131 64.7162003,11.5719626 L65.4861729,33.0299065 C65.5246715,34.7542056 64.1387208,36.1719626 62.444781,36.1719626 L62.4062823,36.1719626 L62.4062823,36.1719626 Z" id="Shape"></path>
                                <g opacity="0.8" transform="translate(46.583345, 8.429907)" id="Shape">
                                    <path d="M3.96535909,27.7420561 C2.27141928,27.7420561 0.885468534,26.4009346 0.846969902,24.7149533 L0.0769972638,3.25700935 C0.0384986319,1.53271028 1.42444938,0.114953271 3.11838919,0.114953271 L3.15688782,0.114953271 C4.85082762,0.114953271 6.23677837,1.45607477 6.275277,3.14205607 L7.04524964,24.6 C7.08374827,26.3242991 5.69779752,27.7420561 4.00385772,27.7420561 L3.96535909,27.7420561 L3.96535909,27.7420561 Z"></path>
                                </g>
                                <path d="M66.0636524,36.1719626 L62.4062823,36.1719626 C60.6738439,36.1719626 59.2878932,34.7925234 59.2878932,33.0682243 C59.2878932,31.3439252 60.6738439,29.964486 62.4062823,29.964486 L66.0636524,29.964486 C67.7960908,29.964486 69.1820416,31.3439252 69.1820416,33.0682243 C69.1820416,34.7925234 67.7960908,36.1719626 66.0636524,36.1719626 L66.0636524,36.1719626 Z" id="Shape"></path>
                                <g transform="translate(33.108823, 8.429907)" id="Shape">
                                    <path d="M4.00385772,27.7420561 C2.30991792,27.7420561 0.923967166,26.4009346 0.885468534,24.7149533 L0.115495896,3.25700935 C0.0769972638,1.53271028 1.46294801,0.114953271 3.15688782,0.114953271 L3.19538645,0.114953271 C4.88932625,0.114953271 6.275277,1.45607477 6.31377563,3.14205607 L7.08374827,24.6 C7.12224691,26.3242991 5.73629616,27.7420561 4.04235635,27.7420561 C4.04235635,27.7420561 4.04235635,27.7420561 4.00385772,27.7420561 L4.00385772,27.7420561 Z"></path>
                                    <path d="M7.66122775,27.7420561 L4.00385772,27.7420561 C2.27141928,27.7420561 0.885468534,26.3626168 0.885468534,24.6383178 C0.885468534,22.9140187 2.27141928,21.5345794 4.00385772,21.5345794 L7.66122775,21.5345794 C9.39366619,21.5345794 10.7796169,22.9140187 10.7796169,24.6383178 C10.7796169,26.3626168 9.39366619,27.7420561 7.66122775,27.7420561 L7.66122775,27.7420561 Z"></path>
                                </g>
                                <g transform="translate(72.377428, 8.429907)" id="Shape">
                                    <path d="M4.04235635,27.7420561 C2.34841655,27.7420561 0.962465798,26.4009346 0.923967166,24.7149533 L0.153994528,3.25700935 C0.115495896,1.53271028 1.50144664,0.114953271 3.19538645,0.114953271 L3.23388508,0.114953271 C4.92782489,0.114953271 6.31377563,1.45607477 6.35227427,3.14205607 L7.12224691,24.6 C7.16074554,26.3242991 5.77479479,27.7420561 4.08085498,27.7420561 C4.08085498,27.7420561 4.08085498,27.7420561 4.04235635,27.7420561 L4.04235635,27.7420561 Z"></path>
                                    <path d="M7.69972638,27.7420561 L4.04235635,27.7420561 C2.30991792,27.7420561 0.923967166,26.3626168 0.923967166,24.6383178 C0.923967166,22.9140187 2.30991792,21.5345794 4.04235635,21.5345794 L7.69972638,21.5345794 C9.43216482,21.5345794 10.8181156,22.9140187 10.8181156,24.6383178 C10.8181156,26.3626168 9.43216482,27.7420561 7.69972638,27.7420561 L7.69972638,27.7420561 Z"></path>
                                </g>
                                <path d="M0.461983583,2.7588785 C-0.0384986319,1.30280374 0.577479479,0.38317757 2.15592339,0.38317757 L4.81232899,0.38317757 C6.00578658,0.38317757 6.81425785,0.919626168 7.16074554,2.10747664 C9.66315661,9.19626168 12.5890526,16.246729 15.3994528,23.335514 C16.1694254,25.3663551 17.0163953,28.5084112 16.9778967,28.5084112 L17.0933926,28.5084112 C17.0933926,28.5084112 17.5938748,25.3663551 18.1713543,23.335514 C20.2117818,16.246729 22.1367134,9.19626168 24.4851299,2.10747664 C24.7546203,0.919626168 25.5630916,0.38317757 26.7565492,0.38317757 L29.2974589,0.38317757 C30.8374042,0.38317757 31.4918809,1.3411215 30.9913987,2.7588785 C27.3725273,13.1429907 24.7161217,23.5271028 21.0972503,33.9495327 C20.712264,35.0990654 19.98079,35.5971963 18.7873324,35.5971963 L15.5919459,35.5971963 C14.3984883,35.5971963 13.6670143,35.0990654 13.2435294,33.9495327 C9.27817029,23.5271028 4.38884404,13.1429907 0.461983583,2.7588785 L0.461983583,2.7588785 Z" id="Shape" opacity="0.8"></path>
                                <path d="M97.2860429,9.69439252 C104.485287,9.69439252 108.797134,14.7906542 109.220619,21.7261682 C109.297616,22.7990654 108.412147,23.8719626 107.141693,23.8719626 L91.6652426,23.8719626 C92.3197193,28.4317757 95.7460976,30.8074766 99.5959608,30.8074766 C101.944377,30.8074766 103.869309,29.9261682 105.024268,29.1598131 C106.256224,28.546729 107.141693,28.7 107.834668,29.8495327 C108.027161,30.1943925 108.258153,30.5009346 108.450646,30.8457944 C109.066624,31.9953271 108.91263,32.9915888 107.834668,33.6046729 C106.217725,34.6392523 103.214832,36.1336449 99.2494731,36.1336449 C90.8567713,36.1336449 85.5824588,30.0794393 85.1589738,22.9140187 C84.6584916,15.135514 89.6248151,9.69439252 97.2860429,9.69439252 L97.2860429,9.69439252 Z M102.829846,20.0401869 C102.521857,16.5149533 100.250438,14.4457944 97.3630401,14.4457944 C94.129155,14.4457944 91.9732317,16.6682243 91.5882453,20.0401869 L102.829846,20.0401869 L102.829846,20.0401869 Z" id="Shape" opacity="0.8"></path>
                                <path d="M112.069518,12.3766355 C111.99252,11.035514 112.646997,10.3074766 113.994449,10.3074766 L115.919381,10.3074766 C117.266833,10.3074766 118.036805,11.035514 118.113803,12.3766355 C118.152301,13.1813084 118.1908,13.9476636 118.229299,14.7523364 C118.267797,15.7102804 118.1908,16.4766355 118.1908,16.4766355 L118.306296,16.4766355 C119.114767,13.4495327 121.732674,10.0775701 125.313047,10.0775701 C126.698998,10.0775701 127.237978,10.7672897 127.314976,12.146729 C127.353474,12.7981308 127.391973,13.4495327 127.430472,14.0626168 C127.507469,15.4037383 126.737496,16.1317757 125.428543,16.1317757 C120.808707,16.1317757 118.845277,20.6915888 119.076269,25.2897196 C119.230263,28.0102804 119.30726,30.6925234 119.384258,33.4130841 C119.422756,34.7925234 118.691282,35.482243 117.382329,35.482243 L115.187907,35.482243 C113.840455,35.482243 113.147479,34.7925234 113.108981,33.4130841 C112.993485,26.4392523 112.454504,19.4271028 112.069518,12.3766355 L112.069518,12.3766355 Z" id="Shape" opacity="0.8"></path>
                                <ellipse id="Oval" opacity="0.8" cx="49.470742" cy="3.18037383" rx="3.11838919" ry="3.10373832"></ellipse>
                            </g>
                            <g opacity="0.6" id="Shape" fill="#DEDDDD">
                                <path d="M22.7526915,32.0336449 L22.7526915,32.0336449 C22.5986969,31.6121495 22.3292065,31.3439252 21.9827188,31.3439252 C21.6362311,31.3056075 21.3282421,31.4971963 21.0587517,31.8803738 C21.0587517,31.8803738 20.0577872,33.4514019 18.9798255,34.2943925 C17.4783789,35.4439252 15.6689432,36.0570093 13.7825102,36.0570093 C9.0471785,36.0570093 5.15881668,32.2252336 5.15881668,27.4738318 C5.15881668,22.9140187 8.73918945,19.1588785 13.3205266,18.928972 L13.7825102,18.928972 C15.0914637,18.928972 16.631409,19.4654206 16.631409,19.4654206 C17.2088885,19.6953271 17.5553762,19.4271028 17.6708721,19.3121495 C17.7863679,19.1971963 18.0173597,18.8523364 17.8248666,18.2775701 L16.8624008,15.5570093 C16.631409,14.9056075 15.899935,14.2925234 15.2069596,14.2158879 C15.168461,14.2158879 14.5909815,14.1392523 13.7825102,14.1392523 C13.2435294,14.1392523 12.7430472,14.1775701 12.2040663,14.2158879 C5.4283071,14.982243 0.346487687,20.6915888 0.346487687,27.4738318 C0.346487687,34.8308411 6.35227427,40.846729 13.7825102,40.846729 C16.4389158,40.846729 19.0183242,40.0803738 21.2512448,38.5859813 C22.2522092,37.9345794 23.214675,36.9383178 23.2531737,36.9 C23.7536559,36.4018692 23.9461491,35.482243 23.7151573,34.8308411 L22.7526915,32.0336449 L22.7526915,32.0336449 Z"></path>
                                <path d="M60.4043535,33.7579439 L59.2108959,31.1140187 L59.2108959,31.1140187 C59.0184027,30.7308411 58.7104137,30.5009346 58.4024246,30.4626168 C58.0559369,30.4626168 57.7479479,30.6542056 57.5554547,31.0757009 C57.5554547,31.0757009 56.6699862,32.7616822 55.6690218,33.6429907 C54.283071,34.9074766 52.5506326,35.6738318 50.6641996,35.8271028 C45.9288679,36.2485981 41.732517,32.7233645 41.3475307,28.0102804 C41.0780403,24.9448598 42.463991,22.071028 44.8124076,20.3850467 L47.3533173,27.6654206 C47.7383036,28.7383178 48.739268,29.3897196 49.8172297,29.3897196 C50.0867201,29.3897196 50.3947092,29.3514019 50.6641996,29.2364486 C52.0116517,28.7766355 52.7431257,27.282243 52.2811421,25.9411215 L49.7402324,18.7373832 C50.8951914,18.7373832 52.0501504,19.0439252 52.0501504,19.0439252 C52.6661285,19.1971963 52.9741175,18.928972 53.0896134,18.8140187 C53.2051093,18.6990654 53.3976025,18.3542056 53.1666107,17.7794393 L51.9731531,15.135514 C51.665164,14.4841121 50.8951914,13.9859813 50.202216,13.9476636 C50.1637174,13.9476636 49.5862379,13.9093458 48.7777666,13.9859813 C48.5467749,13.9859813 48.3542817,14.0242991 48.1232899,14.0626168 L44.1194322,2.72056075 C43.5804513,1.18785047 42.0020074,0.076635514 40.3850649,0.076635514 L33.4938098,0.076635514 C32.0693604,0.076635514 30.8759028,1.22616822 30.8759028,2.68224299 C30.8759028,4.13831776 32.0308618,5.28785047 33.4938098,5.28785047 L39.4225991,5.28785047 L39.8845827,6.62897196 L26.3715629,19.9252336 L23.8691518,12.6065421 L26.0250752,12.6065421 C27.4495246,12.6065421 28.6429821,11.4570093 28.6429821,10.0009346 C28.6429821,8.54485981 27.4880232,7.3953271 26.0250752,7.3953271 L18.3253488,7.3953271 C16.9008994,7.3953271 15.7074418,8.54485981 15.7074418,10.0009346 C15.7074418,11.4570093 16.8624008,12.6065421 18.3253488,12.6065421 L18.3638474,12.6065421 L24.1771408,29.5429907 C24.5621272,30.6158879 25.5630916,31.3056075 26.6410533,31.3056075 C26.9105437,31.3056075 27.2185328,31.2672897 27.4880232,31.1523364 C28.8354753,30.6925234 29.5669493,29.1981308 29.1049657,27.8570093 L28.2579958,25.4046729 L41.8095143,12.0700935 L43.1184678,15.7485981 C38.7296237,18.2775701 36.0347195,23.182243 36.4967031,28.4700935 C36.8046921,32.0336449 38.4986319,35.2523364 41.2320348,37.5514019 C43.6574486,39.582243 46.6988405,40.6934579 49.8557283,40.6934579 C50.2407147,40.6934579 50.625701,40.6934579 51.0491859,40.6551402 C53.7055915,40.4252336 56.2080026,39.428972 58.2869287,37.7813084 C59.2108959,37.0149533 60.0963644,35.9803738 60.1348631,35.9420561 C60.558348,35.328972 60.6738439,34.4093458 60.4043535,33.7579439 L60.4043535,33.7579439 Z"></path>
                            </g>
                        </g>
                    </g>
                </g>
                <text id="1-clic,-1-vélo,-1-pl" font-family="Museo-300, Museo" font-size="18" font-weight="300" fill="#FFFFFF">
                    <tspan x="1.033" y="70">1 clic, 1 vélo, 1 place !</tspan>
                </text>
            </g>
        </g>
    </g>
</svg>