<?xml version="1.0" encoding="utf-8"?>
<!-- Generator: Adobe Illustrator 19.1.0, SVG Export Plug-In . SVG Version: 6.00 Build 0)  -->
<svg version="1.1" id="Calque_1" xmlns="http://www.w3.org/2000/svg" xmlns:xlink="http://www.w3.org/1999/xlink" x="0px" y="0px"
	 viewBox="317.5 503.7 187.1 94.6" style="enable-background:new 317.5 503.7 187.1 94.6;" xml:space="preserve">
<style type="text/css">
	.st0{fill:#FFFFFF;stroke:#F50017;stroke-width:7;stroke-linecap:round;stroke-linejoin:round;stroke-miterlimit:10;}
	.st1{enable-background:new    ;}
	.st2{clip-path:url(#SVGID_2_);}
	.st3{clip-path:url(#SVGID_6_);fill-rule:evenodd;clip-rule:evenodd;fill:#FFFFFF;}
	.st4{clip-path:url(#SVGID_10_);fill-rule:evenodd;clip-rule:evenodd;fill:#FFFFFF;}
	.st5{clip-path:url(#SVGID_12_);}
	.st6{opacity:0;clip-path:url(#SVGID_14_);}
	.st7{opacity:0;}
	.st8{clip-path:url(#SVGID_16_);}
	.st9{clip-path:url(#SVGID_14_);}
	.st10{clip-path:url(#SVGID_20_);}
	.st11{fill:#BDBCBC;}
	.st12{fill:#BDBCBC;stroke:#5D5D5D;stroke-width:5;stroke-linecap:round;stroke-miterlimit:10;}
	.st13{fill:#F50017;}
	.st14{fill:#FDFEFF;}
	.st15{fill:#E0DFDF;}
	.st16{fill:none;stroke:#BDBCBC;stroke-width:8.354;stroke-linecap:round;stroke-miterlimit:10;}
	.st17{fill:none;stroke:#BDBCBC;stroke-width:7.6382;stroke-linecap:round;stroke-miterlimit:10;}
	.st18{fill:none;stroke:#FDFEFF;stroke-width:18;stroke-linecap:round;stroke-miterlimit:10;}
	.st19{fill:none;stroke:#F50017;stroke-width:18;stroke-linecap:round;stroke-miterlimit:10;}
	.st20{fill:url(#SVGID_23_);}
	.st21{fill:url(#SVGID_24_);}
	.st22{fill:url(#SVGID_25_);}
	.st23{fill:url(#SVGID_26_);}
	.st24{fill:url(#SVGID_27_);}
	.st25{fill:url(#SVGID_28_);}
	.st26{fill:url(#SVGID_29_);}
	.st27{fill:#FFFFFF;}
	.st28{fill:#DCA700;}
	.st29{fill:none;stroke:#D4D3D3;stroke-width:8;stroke-miterlimit:10;}
	.st30{fill:none;stroke:#F50017;stroke-width:8;stroke-miterlimit:10;}
	.st31{fill:#D4D3D3;}
	.st32{fill:none;stroke:#F50017;stroke-width:8.354;stroke-linecap:round;stroke-miterlimit:10;}
	.st33{fill:none;stroke:#F50017;stroke-width:7.6382;stroke-linecap:round;stroke-miterlimit:10;}
	.st34{fill:none;stroke:#BDBCBC;stroke-width:18;stroke-linecap:round;stroke-miterlimit:10;}
	.st35{clip-path:url(#SVGID_31_);}
	.st36{clip-path:url(#SVGID_33_);}
	.st37{clip-path:url(#SVGID_35_);fill:#DCA700;}
	.st38{fill:none;}
	.st39{fill:none;stroke:#BDBCBC;stroke-width:3;stroke-linecap:round;stroke-miterlimit:10;}
	.st40{fill:none;stroke:#BDBCBC;stroke-width:2.5;stroke-linecap:round;stroke-miterlimit:10;}
	.st41{opacity:0.8;fill:#FFFFFF;}
	.st42{fill:#B00030;}
	.st43{fill:#33D699;}
	.st44{clip-path:url(#SVGID_37_);}
	.st45{clip-path:url(#SVGID_39_);}
	.st46{clip-path:url(#SVGID_41_);fill:#630058;}
	.st47{clip-path:url(#SVGID_43_);}
	.st48{clip-path:url(#SVGID_45_);fill:#A6CCCF;}
	.st49{clip-path:url(#SVGID_47_);}
	.st50{clip-path:url(#SVGID_49_);fill:#F50030;}
	.st51{clip-path:url(#SVGID_51_);}
	.st52{clip-path:url(#SVGID_53_);fill:#DCA700;}
	.st53{clip-path:url(#SVGID_55_);}
	.st54{clip-path:url(#SVGID_57_);fill:#B00030;}
	.st55{opacity:0.8;}
	.st56{opacity:0.6;}
	.st57{fill:#DEDDDD;}
</style>
<g>
	<g>
		<g>
			<g>
				<path class="st15" d="M423.1,568.8c-1.7,0-3.3-1.1-3.9-2.8l-17.3-49.4h-13.7c-2.3,0-4.2-1.9-4.2-4.2c0-2.3,1.9-4.2,4.2-4.2h14.6
					c2.9,0,5.7,2,6.7,4.8l17.6,50.2c0.8,2.2-0.4,4.6-2.6,5.3C424,568.7,423.5,568.8,423.1,568.8z"/>
			</g>
		</g>
		<g>
			<g>
				<path class="st15" d="M372,532.1h-16.5c-2.1,0-3.8-1.7-3.8-3.8s1.7-3.8,3.8-3.8H372c2.1,0,3.8,1.7,3.8,3.8
					S374.1,532.1,372,532.1z"/>
			</g>
		</g>
		<g>
			<path class="st15" d="M373.5,563.9c-1.1,0-2.2-0.4-3-1.2c-1.6-1.6-1.6-4.3,0-5.9l35.2-34.8c1.6-1.6,4.3-1.6,5.9,0
				c1.6,1.6,1.6,4.3,0,5.9l-35.2,34.8C375.6,563.5,374.5,563.9,373.5,563.9z"/>
		</g>
		<g>
			<path class="st15" d="M374.5,574c-1.7,0-3.3-1.1-3.9-2.8l-14.8-41c-0.8-2.2,0.3-4.6,2.5-5.3c2.2-0.8,4.6,0.3,5.3,2.5l14.8,41
				c0.8,2.2-0.3,4.6-2.5,5.3C375.5,573.9,375,574,374.5,574z"/>
		</g>
	</g>
	<path class="st15" d="M366.4,576.3c-0.4-1.1-1.2-1.2-1.8-0.2c0,0-2.3,3.6-4.7,5.5c-3.3,2.5-7.4,4-11.8,4
		c-10.8,0-19.5-8.8-19.5-19.5c0-10.4,8.2-19,18.5-19.5c0.3,0,0.7,0,1,0c3,0,6.5,1.2,6.5,1.2c1.1,0.4,1.7-0.2,1.3-1.3l-2.1-5.9
		c-0.4-1.1-1.6-2.1-2.8-2.3c0,0-1.2-0.2-2.9-0.2c-1.1,0-2.2,0.1-3.3,0.2c-13.9,1.6-24.6,13.4-24.6,27.7c0,15.4,12.5,27.9,27.9,27.9
		c5.7,0,11.1-1.7,15.5-4.7c2.1-1.4,4.2-3.5,4.2-3.5c0.8-0.8,1.2-2.4,0.8-3.5L366.4,576.3z"/>
	<path class="st15" d="M435.4,582.6c-0.7-0.4-1.2,0.2-1.5,0.4c-3.1,1.9-6.7,3.1-10.6,3.1c-11,0-19.9-8.9-19.9-19.9
		s8.9-19.9,19.9-19.9c3.7,0,7.2,1,10.1,2.8c0.2,0.1,0.7,0.5,1.4,0.1c0.7-0.4,0.5-1.7,0.5-1.7l-0.1-4.9c0,0,0.1-0.9-0.3-1.5
		s-0.8-0.7-1.3-0.9c-3.2-1.3-6.7-2-10.4-2c-15.4,0-27.9,12.5-27.9,27.9s12.5,27.9,27.9,27.9c4.1,0,7.9-0.9,11.4-2.5
		c0.5-0.2,0.8-0.2,1.1-0.8s0.3-1,0.3-1l-0.1-5.8C436,584.1,436.1,583.1,435.4,582.6z"/>
</g>
<g>
	<g>
		<path class="st13" d="M450.9,593.7c-4.9,0-8.9-3.9-9-8.8l-1-55.4c-0.1-5,3.9-9.1,8.8-9.2c0.1,0,0.1,0,0.2,0c4.9,0,8.9,3.9,9,8.8
			l1,55.4c0.1,5-3.9,9.1-8.8,9.2C451,593.7,451,593.7,450.9,593.7z"/>
	</g>
	<g>
		<path class="st13" d="M460.3,593.7h-9.4c-5,0-9-4-9-9s4-9,9-9h9.4c5,0,9,4,9,9S465.3,593.7,460.3,593.7z"/>
	</g>
</g>
<g>
	<g>
		<path class="st13" d="M483.6,593.7c-4.9,0-8.9-3.9-9-8.8l-1-55.4c-0.1-5,3.9-9.1,8.8-9.2c0.1,0,0.1,0,0.2,0c4.9,0,8.9,3.9,9,8.8
			l1,55.4c0.1,5-3.9,9.1-8.8,9.2C483.7,593.7,483.7,593.7,483.6,593.7z"/>
	</g>
	<g>
		<path class="st13" d="M493,593.7h-9.4c-5,0-9-4-9-9s4-9,9-9h9.4c5,0,9,4,9,9S498,593.7,493,593.7z"/>
	</g>
</g>
</svg>
