<?xml version="1.0" encoding="UTF-8" standalone="no"?>
<svg width="76px" height="22px" viewBox="0 0 76 22" version="1.1" xmlns="http://www.w3.org/2000/svg" xmlns:xlink="http://www.w3.org/1999/xlink">
    <!-- Generator: sketchtool 40.1 (33804) - http://www.bohemiancoding.com/sketch -->
    <title>20494FE5-BDC3-4368-9902-8613419B68F6</title>
    <desc>Created with sketchtool.</desc>
    <defs></defs>
    <g id="Page-1" stroke="none" stroke-width="1" fill="none" fill-rule="evenodd">
        <g id="Vliller-Home" transform="translate(-22.000000, -39.000000)" fill="#FFFFFF">
            <g id="app-bar">
                <g id="vliller_logo-vliller" transform="translate(22.000000, 39.000000)">
                    <g id="Calque_1">
                        <g id="Group">
                            <g transform="translate(0.498563, 0.112150)">
                                <path d="M36.6897858,21.2661532 C35.6938878,21.2661532 34.8790622,20.4776835 34.8564282,19.4864645 L34.4037473,6.87094991 C34.3811132,5.8572032 35.1959388,5.02367813 36.1918368,5.02367813 L36.2144708,5.02367813 C37.2103688,5.02367813 38.0251944,5.81214779 38.0478284,6.8033668 L38.5005093,19.4188814 C38.5231433,20.4326281 37.7083178,21.2661532 36.7124198,21.2661532 L36.6897858,21.2661532 L36.6897858,21.2661532 Z" id="Shape"></path>
                                <g opacity="0.8" transform="translate(27.387194, 4.956095)" id="Shape">
                                    <path d="M2.33130656,16.3100582 C1.33540861,16.3100582 0.520583018,15.5215885 0.497948974,14.5303695 L0.0452680885,1.91485489 C0.0226340443,0.901108185 0.837459638,0.0675831139 1.83335759,0.0675831139 L1.85599163,0.0675831139 C2.85188958,0.0675831139 3.66671517,0.856052776 3.68934922,1.84727178 L4.1420301,14.4627864 C4.16466415,15.4765331 3.34983855,16.3100582 2.3539406,16.3100582 L2.33130656,16.3100582 L2.33130656,16.3100582 Z"></path>
                                </g>
                                <path d="M38.84002,21.2661532 L36.6897858,21.2661532 C35.6712538,21.2661532 34.8564282,20.4551558 34.8564282,19.4414091 C34.8564282,18.4276624 35.6712538,17.616665 36.6897858,17.616665 L38.84002,17.616665 C39.858552,17.616665 40.6733776,18.4276624 40.6733776,19.4414091 C40.6733776,20.4551558 39.858552,21.2661532 38.84002,21.2661532 L38.84002,21.2661532 Z" id="Shape"></path>
                                <g transform="translate(19.465278, 4.956095)" id="Shape">
                                    <path d="M2.3539406,16.3100582 C1.35804266,16.3100582 0.543217062,15.5215885 0.520583018,14.5303695 L0.0679021328,1.91485489 C0.0452680885,0.901108185 0.860093682,0.0675831139 1.85599163,0.0675831139 L1.87862567,0.0675831139 C2.87452362,0.0675831139 3.68934922,0.856052776 3.71198326,1.84727178 L4.16466415,14.4627864 C4.18729819,15.4765331 3.3724726,16.3100582 2.37657465,16.3100582 C2.37657465,16.3100582 2.37657465,16.3100582 2.3539406,16.3100582 L2.3539406,16.3100582 Z"></path>
                                    <path d="M4.50417481,16.3100582 L2.3539406,16.3100582 C1.33540861,16.3100582 0.520583018,15.4990608 0.520583018,14.4853141 C0.520583018,13.4715674 1.33540861,12.66057 2.3539406,12.66057 L4.50417481,12.66057 C5.5227068,12.66057 6.3375324,13.4715674 6.3375324,14.4853141 C6.3375324,15.4990608 5.5227068,16.3100582 4.50417481,16.3100582 L4.50417481,16.3100582 Z"></path>
                                </g>
                                <g transform="translate(42.552003, 4.956095)" id="Shape">
                                    <path d="M2.37657465,16.3100582 C1.3806767,16.3100582 0.565851107,15.5215885 0.543217062,14.5303695 L0.0905361771,1.91485489 C0.0679021328,0.901108185 0.882727727,0.0675831139 1.87862567,0.0675831139 L1.90125972,0.0675831139 C2.89715767,0.0675831139 3.71198326,0.856052776 3.7346173,1.84727178 L4.18729819,14.4627864 C4.20993223,15.4765331 3.39510664,16.3100582 2.39920869,16.3100582 C2.39920869,16.3100582 2.39920869,16.3100582 2.37657465,16.3100582 L2.37657465,16.3100582 Z"></path>
                                    <path d="M4.52680885,16.3100582 L2.37657465,16.3100582 C1.35804266,16.3100582 0.543217062,15.4990608 0.543217062,14.4853141 C0.543217062,13.4715674 1.35804266,12.66057 2.37657465,12.66057 L4.52680885,12.66057 C5.54534085,12.66057 6.36016644,13.4715674 6.36016644,14.4853141 C6.36016644,15.4990608 5.54534085,16.3100582 4.52680885,16.3100582 L4.52680885,16.3100582 Z"></path>
                                </g>
                                <path d="M0.271608531,1.62199473 C-0.0226340443,0.765941957 0.339510664,0.225277046 1.26750648,0.225277046 L2.82925553,0.225277046 C3.53091091,0.225277046 4.00622584,0.540664911 4.20993223,1.23902375 C5.68114511,5.40664911 7.40133248,9.55174676 9.05361771,13.7193721 C9.50629859,14.9133405 10.0042476,16.7606122 9.98161352,16.7606122 L10.0495157,16.7606122 C10.0495157,16.7606122 10.3437582,14.9133405 10.6832689,13.7193721 C11.8828732,9.55174676 13.0145755,5.40664911 14.3952522,1.23902375 C14.5536905,0.540664911 15.0290054,0.225277046 15.7306608,0.225277046 L17.2245077,0.225277046 C18.1298695,0.225277046 18.5146482,0.788469662 18.2204056,1.62199473 C16.0928055,7.72700269 14.5310564,13.8320106 12.4034563,19.9595463 C12.1771158,20.6353774 11.747069,20.9282376 11.0454136,20.9282376 L9.16678793,20.9282376 C8.46513256,20.9282376 8.03508572,20.6353774 7.78611123,19.9595463 C5.45480467,13.8320106 2.58028105,7.72700269 0.271608531,1.62199473 L0.271608531,1.62199473 Z" id="Shape" opacity="0.8"></path>
                                <path d="M57.1962299,5.69950927 C61.4287961,5.69950927 63.9638091,8.69569399 64.2127836,12.7732085 C64.2580517,13.4039843 63.7374687,14.03476 62.9905452,14.03476 L53.8916594,14.03476 C54.2764382,16.7155568 56.2908681,18.1122745 58.5542725,18.1122745 C59.9349492,18.1122745 61.0666514,17.5941373 61.7456728,17.1435832 C62.4699622,16.7831399 62.9905452,16.8732508 63.397958,17.5490819 C63.5111282,17.7518312 63.6469325,17.9320529 63.7601027,18.1348022 C64.1222474,18.8106334 64.0317112,19.3963537 63.397958,19.756797 C62.4473281,20.365045 60.6818727,21.2436255 58.3505661,21.2436255 C53.4163445,21.2436255 50.3154804,17.6842481 50.0665059,13.4715674 C49.7722633,8.89844333 52.6920551,5.69950927 57.1962299,5.69950927 L57.1962299,5.69950927 Z M60.4555322,11.7819895 C60.2744599,9.70944069 58.9390513,8.49294464 57.241498,8.49294464 C55.3402382,8.49294464 54.0727318,9.79955151 53.8463913,11.7819895 L60.4555322,11.7819895 L60.4555322,11.7819895 Z" id="Shape" opacity="0.8"></path>
                                <path d="M65.8877029,7.27644859 C65.8424348,6.48797893 66.2272135,6.05995254 67.0194051,6.05995254 L68.1511073,6.05995254 C68.9432988,6.05995254 69.3959797,6.48797893 69.4412478,7.27644859 C69.4638819,7.74953039 69.4865159,8.20008448 69.50915,8.67316628 C69.531784,9.2363589 69.4865159,9.68691299 69.4865159,9.68691299 L69.554418,9.68691299 C70.029733,7.90722432 71.568848,5.92478632 73.6738141,5.92478632 C74.4886397,5.92478632 74.8055163,6.330285 74.8507844,7.14128237 C74.8734184,7.52425335 74.8960525,7.90722432 74.9186865,8.2676676 C74.9639546,9.05613726 74.5112737,9.48416365 73.7417162,9.48416365 C71.0256309,9.48416365 69.8712947,12.1649605 70.0070989,14.8682851 C70.0976351,16.4677521 70.1429032,18.0446914 70.1881713,19.6441584 C70.2108053,20.4551558 69.7807585,20.8606545 69.011201,20.8606545 L67.7210605,20.8606545 C66.9288689,20.8606545 66.5214561,20.4551558 66.4988221,19.6441584 C66.4309199,15.5441162 66.1140433,11.4215462 65.8877029,7.27644859 L65.8877029,7.27644859 Z" id="Shape" opacity="0.8"></path>
                                <ellipse id="Oval" opacity="0.8" cx="29.0847469" cy="1.86979948" rx="1.83335759" ry="1.82474407"></ellipse>
                            </g>
                        </g>
                    </g>
                </g>
            </g>
        </g>
    </g>
</svg>